<svg width="102" height="265" viewBox="0 0 102 265" fill="none" xmlns="http://www.w3.org/2000/svg">
<rect x="40.2822" y="56.0249" width="21.7624" height="15.9901" rx="7.5" fill="#2F2F2F" stroke="black" stroke-width="5"/>
<rect x="49.1956" y="3.54204" width="3.93564" height="51.1634" fill="#2F2F2F" stroke="black" stroke-width="3.93564"/>
<path d="M63.4275 7.67568C67.4429 9.77916 71.176 12.188 74.0886 14.2197L41.3318 14.2197L41.3318 2.56941C43.5506 2.48585 46.7617 2.43466 49.066 2.67643C53.5037 3.14204 58.5736 5.13291 63.4275 7.67568Z" fill="#2F2F2F" stroke="black" stroke-width="5"/>
<rect x="2.5" y="70.7178" width="96.802" height="191.782" rx="17.5" fill="#2F2F2F" stroke="black" stroke-width="5"/>
<rect x="2.5" y="126.341" width="96.802" height="82.1089" fill="#F9F089" stroke="black" stroke-width="5"/>
<path d="M37.4952 160.765C38.3946 158.998 39.7503 157.613 41.478 156.522L37.4952 160.765ZM37.4952 160.765C36.6052 162.514 36.2442 164.476 36.2442 166.606M37.4952 160.765L36.2442 166.606M36.2442 166.606C36.2442 167.817 36.725 168.98 37.5816 169.838M36.2442 166.606L37.5816 169.838M37.5816 169.838C38.4384 170.696 39.6011 171.178 40.8141 171.178M37.5816 169.838L40.8141 171.178M40.8141 171.178C42.0271 171.178 43.1898 170.696 44.0466 169.838M40.8141 171.178L44.0466 169.838M44.0466 169.838C44.9032 168.98 45.384 167.817 45.384 166.606M44.0466 169.838L45.384 166.606M45.384 166.606C45.384 165.616 45.5129 165.177 45.6184 164.96M45.384 166.606L45.6184 164.96M45.6184 164.96C45.6984 164.795 45.8471 164.579 46.3598 164.255L45.6184 164.96ZM67.2921 165.196C67.2921 172.112 66.1492 176.4 62.7374 181.526C61.2829 183.443 59.6799 184.427 58.1449 184.73C56.6131 185.032 54.8293 184.72 52.8805 183.441L52.8684 183.433L52.8562 183.425C52.3793 183.12 51.8288 182.95 51.2627 182.932C50.6967 182.914 50.1364 183.049 49.6413 183.324L49.5603 183.369L49.4828 183.419C47.5127 184.71 45.7224 185.023 44.1844 184.716C42.6411 184.407 41.0169 183.404 39.5218 181.432C36.1857 176.414 35.0371 172.128 35.0347 165.219L35.0422 164.802C35.243 159.15 39.5045 154.599 43.803 154.599C45.2213 154.599 46.6697 155.037 48.0805 155.884L49.6544 156.828L48.9218 158.571L50.889 157.569L51.0777 157.682L51.1281 157.447L55.0079 155.47C55.9701 154.98 57.0208 154.688 58.0973 154.613L58.5585 154.599C60.7424 154.611 62.8906 155.737 64.5606 157.719C66.2396 159.712 67.2921 162.421 67.2921 165.196ZM46.3599 164.255C47.3851 163.607 48.1103 162.578 48.3773 161.396C48.6442 160.214 48.4313 158.974 47.7848 157.948C47.1383 156.923 46.1107 156.196 44.9275 155.928C43.7444 155.66 42.5037 155.874 41.4785 156.521L46.3599 164.255Z" fill="#D9E974" stroke="#95A437" stroke-width="5"/>
</svg>
