<svg width="102" height="265" viewBox="0 0 102 265" fill="none" xmlns="http://www.w3.org/2000/svg">
<rect x="40.2822" y="56.0249" width="21.7624" height="15.9901" rx="7.5" fill="#2F2F2F" stroke="black" stroke-width="5"/>
<rect x="49.1956" y="3.54204" width="3.93564" height="51.1634" fill="#2F2F2F" stroke="black" stroke-width="3.93564"/>
<path d="M63.4275 7.67568C67.4429 9.77916 71.176 12.188 74.0886 14.2197L41.3318 14.2197L41.3318 2.56941C43.5506 2.48585 46.7617 2.43466 49.066 2.67643C53.5037 3.14204 58.5736 5.13291 63.4275 7.67568Z" fill="#2F2F2F" stroke="black" stroke-width="5"/>
<rect x="2.5" y="70.7178" width="96.802" height="191.782" rx="17.5" fill="#2F2F2F" stroke="black" stroke-width="5"/>
<rect x="2.5" y="126.341" width="96.802" height="82.1089" fill="#F79329" stroke="black" stroke-width="5"/>
<path d="M51.6649 142.713L51.6515 142.748L51.6583 142.711L51.6649 142.713ZM37.4281 149.564C37.4281 149.357 37.4474 149.152 37.4845 148.953L41.2739 150.425L49.5898 153.654L50.4377 153.984L50.207 154.073V155.785V165.019V168.396L45.7766 166.7L37.7474 163.626L37.7234 163.689L37.7361 163.618C37.2077 163.421 36.6281 163.356 36.0536 163.446L37.4281 163.019V161.178V149.564ZM63.6458 163.499V163.042L64.9547 163.449C64.5271 163.38 64.0824 163.393 63.6458 163.499ZM63.5205 174.585L64.3672 174.913L64.1351 175.003V176.715V187.118V190.486C63.7934 190.455 63.4552 190.368 63.1326 190.226C63.1317 190.225 63.1307 190.225 63.1298 190.224L51.5101 185.061L50.4944 184.61L49.7177 184.955V183.371V173.444V169.844L50.4949 169.543L55.2046 171.366L63.5205 174.585ZM36.2789 187.118V190.486C35.9369 190.455 35.5984 190.368 35.2756 190.225C35.2749 190.225 35.2742 190.225 35.2735 190.224L25.449 185.859C25.4486 185.859 25.4483 185.859 25.448 185.859C24.269 185.333 23.5 184.153 23.5 182.833V170.494C23.5 170.291 23.5184 170.092 23.5537 169.897L27.3483 171.366L35.6642 174.585L36.5109 174.913L36.2789 175.003V176.715V187.118Z" fill="#F79329" stroke="#593A2A" stroke-width="5"/>
</svg>
