<svg width="207" height="196" viewBox="0 0 207 196" fill="none" xmlns="http://www.w3.org/2000/svg">
<path d="M171.5 171C171.5 172.994 171.026 174.544 170.219 175.799C169.402 177.069 168.148 178.184 166.373 179.143C162.747 181.101 157.3 182.22 150.265 182.756C143.288 183.288 135.061 183.229 126.051 183.031C123.721 182.98 121.34 182.92 118.918 182.858C112.015 182.683 104.784 182.5 97.5 182.5C89.9278 182.5 82.8238 182.698 76.3336 182.879C74.3862 182.933 72.494 182.986 70.6611 183.032C62.6721 183.229 55.8496 183.286 50.2805 182.76C44.656 182.229 40.7011 181.131 38.1822 179.314C35.8634 177.643 34.5 175.17 34.5 171C34.5 162.811 41.3047 154.703 53.9008 148.494C66.3371 142.363 83.693 138.5 103 138.5C122.307 138.5 139.663 142.363 152.099 148.494C164.695 154.703 171.5 162.811 171.5 171Z" fill="#F79329" stroke="black" stroke-width="5"/>
<path d="M52 78H160V108H52V78Z" fill="black"/>
<path d="M186.784 113.696L186.903 111.489C187.056 108.676 187.042 105.818 186.903 102.943L186.793 100.683L189.032 100.35L202.331 98.3708L202.332 98.3706C202.447 98.3536 202.557 98.3141 202.657 98.2544C202.756 98.1947 202.843 98.1159 202.912 98.0227C202.981 97.9294 203.031 97.8234 203.059 97.7108C203.087 97.5981 203.093 97.4811 203.076 97.3663L203.074 97.3507L203.071 97.3352C203.012 96.9043 202.6 96.5453 202.062 96.6205C202.061 96.6207 202.059 96.6209 202.058 96.6211L189.119 98.5508L186.646 98.9197L186.278 96.4462C184.925 87.3561 181.406 78.2551 176.092 70.0476L175.613 69.3076L175.704 68.4309C176.523 60.539 177.716 45.9631 177.114 32.3303C176.813 25.5059 176.066 19.0289 174.647 13.7857C173.199 8.43743 171.184 4.88136 168.74 3.24201L170.131 1.16787L168.74 3.24201C167.23 2.22933 164.812 2.15758 161.179 3.63863C157.639 5.08187 153.587 7.75512 149.463 11.0441C141.244 17.6 133.269 26.1739 129.378 30.7061C128.197 32.0818 127.077 33.372 126.024 34.5835C125.452 35.2425 124.9 35.8781 124.369 36.4915L123.466 37.5354L122.102 37.3276C116.702 36.5052 111.224 36.0421 105.776 36.0421C100.339 36.0421 94.8628 36.4901 89.4721 37.3266L88.1037 37.5389L87.1978 36.4915C86.9538 36.2094 86.7064 35.9234 86.4554 35.6333C85.1448 34.1184 83.7359 32.49 82.2046 30.7056L82.2036 30.7045C78.3137 26.1663 70.3351 17.5924 62.1159 11.0384C57.9925 7.75034 53.9407 5.07848 50.4036 3.63641C46.7727 2.15609 44.3623 2.23054 42.8619 3.24002L42.8595 3.24163C40.4107 4.88519 38.394 8.44513 36.9453 13.7947C35.5249 19.0397 34.7787 25.5176 34.4786 32.3418C33.8792 45.9745 35.0753 60.5462 35.8945 68.4306L35.9858 69.3093L35.5047 70.0503C30.1789 78.2533 26.6732 87.3703 25.3042 96.4509L24.9321 98.919L22.4634 98.5508L9.51913 96.6203C9.51863 96.6202 9.51812 96.6201 9.51762 96.62C9.04441 96.5515 8.58921 96.8775 8.50745 97.3639C8.47756 97.5954 8.53841 97.8298 8.67757 98.0176C8.81834 98.2077 9.02795 98.3349 9.26137 98.3722C9.26288 98.3724 9.26438 98.3727 9.26589 98.3729L22.5664 100.35L24.8054 100.683L24.696 102.943C24.5569 105.818 24.5423 108.676 24.6952 111.489L24.8151 113.696L22.6398 114.086L9.57885 116.426C9.05427 116.53 8.76435 117.007 8.84227 117.446C8.88122 117.647 8.98835 117.828 9.14558 117.959C9.30399 118.091 9.50339 118.164 9.70955 118.165C9.76029 118.165 9.82866 118.161 9.90442 118.15L22.4365 115.893L24.9525 115.44L25.3493 117.966C25.8534 121.173 26.5819 124.305 27.619 127.326L28.4491 129.744L26.0129 130.52L15.7723 133.78L186.784 113.696ZM186.784 113.696L188.959 114.086M186.784 113.696L188.959 114.086M188.959 114.086L202.015 116.425C202.017 116.426 202.02 116.426 202.022 116.427C202.531 116.526 202.86 117.005 202.797 117.486C202.718 117.873 202.368 118.165 201.955 118.165C201.878 118.165 201.814 118.159 201.773 118.153C201.77 118.153 201.767 118.152 201.764 118.152L189.209 115.893L186.694 115.441L186.297 117.966C185.793 121.173 185.064 124.305 184.027 127.326L183.197 129.745L185.634 130.52L195.893 133.782L195.905 133.785C196.337 133.92 196.606 134.41 196.456 134.877L196.453 134.886L196.45 134.895C196.416 135.004 196.361 135.105 196.288 135.192C196.215 135.279 196.126 135.351 196.025 135.403C195.924 135.456 195.814 135.488 195.701 135.497C195.588 135.507 195.474 135.494 195.366 135.46C195.366 135.46 195.365 135.46 195.365 135.46L184.539 132.009L182.513 131.364L181.55 133.26C178.589 139.092 174.265 144.444 168.069 149.057L168.067 149.059M188.959 114.086L168.067 149.059M29.1791 131.365L30.1422 133.257C33.1035 139.075 37.445 144.446 43.6127 149.06L29.1791 131.365ZM29.1791 131.365L27.156 132.009M29.1791 131.365L27.156 132.009M27.156 132.009L16.3203 135.458C16.3199 135.458 16.3195 135.458 16.3191 135.458C16.0919 135.529 15.8459 135.508 15.6345 135.398C15.4257 135.29 15.2672 135.105 15.1925 134.883C15.1258 134.662 15.1479 134.423 15.2544 134.217C15.3621 134.01 15.5472 133.853 15.7696 133.781L27.156 132.009ZM168.067 149.059C158.854 155.938 147.286 160.66 135.287 163.23C130.704 164.209 117.658 166.5 105.253 166.5C92.8819 166.5 81.0197 164.215 76.407 163.23M168.067 149.059L76.407 163.23M139.602 96.0595L139.596 96.0605C132.842 97.1533 130.61 102.582 130.569 102.681L130.569 102.682C129.644 104.935 127.463 106.367 125.107 106.367L139.602 96.0595ZM139.602 96.0595C142.994 95.502 145.622 96.343 147.435 97.3325C149.189 98.2903 150.163 99.3824 150.221 99.4486C152.284 101.926 155.984 102.292 158.477 100.219C160.956 98.1706 161.363 94.4885 159.295 91.9666M139.602 96.0595L159.295 91.9666M76.407 163.23C64.4073 160.66 52.8251 155.939 43.6131 149.061L76.407 163.23ZM137.703 84.4598C124.374 86.618 119.914 97.6179 119.617 98.4096C119.28 99.2961 119.163 100.251 119.275 101.193C119.389 102.138 119.73 103.042 120.27 103.826C120.809 104.61 121.532 105.251 122.374 105.693C123.217 106.136 124.155 106.368 125.106 106.367L137.703 84.4598ZM137.703 84.4598C150.917 82.3094 158.595 91.1023 159.295 91.9666M137.703 84.4598L159.295 91.9666M52.3612 91.3568L52.3304 91.3906L52.3009 91.4255C50.2323 93.8752 50.466 97.5086 52.8788 99.6532C55.3139 101.834 58.999 101.573 61.1389 99.2051C61.411 98.9131 65.3441 94.804 71.8985 96.0635L71.9014 96.064C75.2812 96.7094 77.4615 98.388 78.8256 99.9296C80.1928 101.475 80.729 102.876 80.7389 102.901C81.2663 104.364 82.352 105.559 83.7584 106.223C85.1685 106.89 86.7854 106.969 88.2536 106.443C89.7218 105.917 90.9209 104.829 91.5872 103.419C92.2519 102.012 92.332 100.4 91.8102 98.9345C91.5396 98.1631 87.392 87.0453 74.1229 84.5036L74.1198 84.503C60.8632 81.9813 52.9077 90.7541 52.3727 91.344L52.3612 91.3568Z" fill="#F79329" stroke="black" stroke-width="5"/>
<mask id="path-4-inside-1_202_246" fill="white">
<path d="M45.899 124.765C46.2156 126.902 47.5772 129.388 48.1155 130.322C55.6515 143.541 78.9086 151.109 102.181 151.093C117.428 151.061 132.753 149.779 145.862 144.95C152.669 142.449 157.989 138.697 161.377 134.47C163.72 131.509 165.034 128.168 165.873 124.986C167.393 119.192 159.319 123.007 154.648 124.622C152.226 125.461 149.677 126.015 147.017 126.538C141.381 127.646 135.508 127.298 129.729 127.187C127.148 127.139 124.742 126.854 122.51 126.11C119.961 125.24 117.507 124.163 114.863 123.435C113.042 122.928 110.968 122.311 108.989 122.105C105.585 121.741 102.546 122.437 99.8225 123.435C95.4371 125.065 91.6216 126.886 86.3971 127.567C82.7715 128.042 78.6552 128.311 74.9822 127.868C71.5467 127.44 68.2695 126.712 64.9923 126.015C62.3009 125.445 59.4511 124.86 57.203 123.831C54.7174 122.691 52.2001 121.012 48.7646 121.139C46.1523 121.25 45.5982 122.881 45.899 124.765"/>
</mask>
<path d="M45.899 124.765C46.2156 126.902 47.5772 129.388 48.1155 130.322C55.6515 143.541 78.9086 151.109 102.181 151.093C117.428 151.061 132.753 149.779 145.862 144.95C152.669 142.449 157.989 138.697 161.377 134.47C163.72 131.509 165.034 128.168 165.873 124.986C167.393 119.192 159.319 123.007 154.648 124.622C152.226 125.461 149.677 126.015 147.017 126.538C141.381 127.646 135.508 127.298 129.729 127.187C127.148 127.139 124.742 126.854 122.51 126.11C119.961 125.24 117.507 124.163 114.863 123.435C113.042 122.928 110.968 122.311 108.989 122.105C105.585 121.741 102.546 122.437 99.8225 123.435C95.4371 125.065 91.6216 126.886 86.3971 127.567C82.7715 128.042 78.6552 128.311 74.9822 127.868C71.5467 127.44 68.2695 126.712 64.9923 126.015C62.3009 125.445 59.4511 124.86 57.203 123.831C54.7174 122.691 52.2001 121.012 48.7646 121.139C46.1523 121.25 45.5982 122.881 45.899 124.765" fill="white"/>
<path d="M48.1155 130.322L52.4592 127.845L52.4535 127.835L52.4476 127.825L48.1155 130.322ZM102.181 151.093L102.185 156.093L102.192 156.093L102.181 151.093ZM145.862 144.95L144.137 140.257L144.133 140.258L145.862 144.95ZM161.377 134.47L165.279 137.597L165.288 137.585L165.298 137.573L161.377 134.47ZM165.873 124.986L170.708 126.261L170.71 126.255L165.873 124.986ZM154.648 124.622L153.015 119.897L153.012 119.898L154.648 124.622ZM147.017 126.538L146.054 121.632L146.053 121.632L147.017 126.538ZM129.729 127.187L129.825 122.188L129.821 122.188L129.729 127.187ZM122.51 126.11L120.893 130.842L120.911 130.848L120.929 130.854L122.51 126.11ZM114.863 123.435L113.522 128.252L113.535 128.255L114.863 123.435ZM108.989 122.105L108.457 127.076L108.465 127.077L108.472 127.078L108.989 122.105ZM99.8225 123.435L98.1029 118.74L98.0914 118.744L98.0799 118.748L99.8225 123.435ZM86.3971 127.567L85.751 122.609L85.7476 122.609L86.3971 127.567ZM74.9822 127.868L74.3649 132.829L74.374 132.831L74.3831 132.832L74.9822 127.868ZM64.9923 126.015L66.0319 121.125L66.0282 121.124L64.9923 126.015ZM57.203 123.831L55.1187 128.375L55.1219 128.377L57.203 123.831ZM48.7646 121.139L48.5804 116.142L48.5665 116.143L48.5527 116.144L48.7646 121.139ZM40.953 125.497C41.4265 128.693 43.2769 131.939 43.7833 132.818L52.4476 127.825C52.2219 127.433 51.8409 126.745 51.4924 125.962C51.1201 125.125 50.9066 124.447 50.845 124.032L40.953 125.497ZM43.7717 132.798C48.3825 140.886 57.366 146.641 67.5265 150.365C77.8222 154.139 90.0495 156.101 102.185 156.093L102.178 146.093C91.0405 146.101 80.0029 144.287 70.9677 140.976C61.7975 137.615 55.3844 132.977 52.4592 127.845L43.7717 132.798ZM102.192 156.093C117.618 156.061 133.648 154.778 147.59 149.642L144.133 140.258C131.858 144.78 117.237 146.062 102.171 146.093L102.192 156.093ZM147.586 149.644C155.084 146.889 161.22 142.66 165.279 137.597L157.476 131.343C154.758 134.734 150.255 138.009 144.137 140.257L147.586 149.644ZM165.298 137.573C168.215 133.887 169.766 129.834 170.708 126.261L161.039 123.711C160.303 126.503 159.225 129.131 157.456 131.367L165.298 137.573ZM170.71 126.255C171.242 124.225 171.578 120.47 168.287 118.163C166.959 117.233 165.544 116.974 164.542 116.909C163.514 116.843 162.526 116.956 161.702 117.104C160.065 117.397 158.339 117.964 156.911 118.472C155.149 119.098 154.313 119.448 153.015 119.897L156.282 129.348C156.931 129.124 157.621 128.867 158.279 128.622C158.955 128.37 159.609 128.126 160.262 127.894C161.614 127.413 162.687 127.086 163.462 126.948C163.844 126.879 163.966 126.893 163.9 126.888C163.86 126.886 163.259 126.851 162.548 126.352C161.692 125.752 161.241 124.883 161.106 124.169C161.001 123.615 161.124 123.384 161.037 123.718L170.71 126.255ZM153.012 119.898C150.942 120.615 148.685 121.115 146.054 121.632L147.981 131.444C150.67 130.916 153.511 130.308 156.285 129.347L153.012 119.898ZM146.053 121.632C141.085 122.609 135.92 122.305 129.825 122.188L129.633 132.186C135.095 132.291 141.678 132.683 147.982 131.444L146.053 121.632ZM129.821 122.188C127.528 122.146 125.672 121.894 124.091 121.367L120.929 130.854C123.812 131.815 126.769 132.133 129.637 132.186L129.821 122.188ZM124.126 121.379C122.175 120.712 118.954 119.375 116.191 118.614L113.535 128.255C116.06 128.951 117.746 129.767 120.893 130.842L124.126 121.379ZM116.203 118.618C114.56 118.16 112.005 117.391 109.506 117.132L108.472 127.078C109.932 127.23 111.525 127.696 113.522 128.252L116.203 118.618ZM109.521 117.133C105.094 116.66 101.249 117.587 98.1029 118.74L101.542 128.13C103.842 127.287 106.077 126.822 108.457 127.076L109.521 117.133ZM98.0799 118.748C93.2631 120.539 90.2402 122.024 85.751 122.609L87.0431 132.525C93.003 131.748 97.611 129.592 101.565 128.121L98.0799 118.748ZM85.7476 122.609C82.2994 123.061 78.6552 123.275 75.5813 122.904L74.3831 132.832C78.6553 133.347 83.2437 133.023 87.0465 132.524L85.7476 122.609ZM75.5996 122.906C72.4244 122.511 69.3853 121.837 66.0319 121.125L63.9527 130.906C67.1537 131.586 70.6691 132.37 74.3649 132.829L75.5996 122.906ZM66.0282 121.124C63.1535 120.515 60.9197 120.033 59.2841 119.284L55.1219 128.377C57.9826 129.686 61.4483 130.376 63.9565 130.907L66.0282 121.124ZM59.2873 119.286C57.6615 118.54 53.5621 115.959 48.5804 116.142L48.9488 126.136C50.8381 126.066 51.7732 126.841 55.1187 128.375L59.2873 119.286ZM48.5527 116.144C46.2153 116.243 43.634 117.123 42.0483 119.56C40.6373 121.729 40.7282 124.091 40.9615 125.553L50.8365 123.976C50.8134 123.832 50.8356 123.859 50.8167 124.016C50.7964 124.185 50.7188 124.57 50.4305 125.014C50.1212 125.489 49.7064 125.818 49.3263 126C48.9892 126.161 48.8171 126.141 48.9765 126.135L48.5527 116.144Z" fill="black" mask="url(#path-4-inside-1_202_246)"/>
<mask id="mask0_202_246" style="mask-type:luminance" maskUnits="userSpaceOnUse" x="45" y="121" width="122" height="31">
<path d="M45.8992 124.765C46.2159 126.902 47.5774 129.388 48.1157 130.322C55.6517 143.541 78.9088 151.109 102.182 151.093C117.428 151.062 132.753 149.779 145.862 144.951C152.67 142.449 157.989 138.697 161.377 134.47C163.72 131.509 165.034 128.169 165.874 124.986C167.393 119.192 159.319 123.008 154.649 124.622C152.226 125.461 149.677 126.016 147.018 126.538C141.382 127.646 135.508 127.298 129.729 127.187C127.149 127.14 124.742 126.855 122.51 126.111C119.961 125.24 117.507 124.163 114.863 123.435C113.042 122.928 110.968 122.311 108.989 122.105C105.586 121.741 102.546 122.438 99.8228 123.435C95.4373 125.066 91.6218 126.886 86.3973 127.567C82.7718 128.042 78.6555 128.311 74.9825 127.868C71.547 127.44 68.2698 126.712 64.9925 126.016C62.3011 125.446 59.4514 124.86 57.2032 123.831C54.7176 122.691 52.2004 121.013 48.7648 121.139C46.1526 121.25 45.5984 122.881 45.8992 124.765" fill="white"/>
</mask>
<g mask="url(#mask0_202_246)">
<path d="M103.306 117.545H108.246V154.101H103.306V117.545ZM85.4951 117.545H90.4346V154.101H85.4951V117.545ZM67.6683 117.545H72.6079V154.101H67.6683V117.545ZM49.8574 117.545H54.797V154.101H49.8574V117.545ZM156.77 117.545H161.71V154.101H156.77V117.545ZM138.944 117.545H143.883V154.101H138.944V117.545ZM121.133 117.545H126.072V154.101H121.133V117.545Z" fill="black"/>
</g>
<path d="M46.5 179.5C46.5 182.972 44.411 186.411 40.4276 189.094C36.4595 191.766 30.8356 193.5 24.5 193.5C18.1644 193.5 12.5405 191.766 8.57238 189.094C4.58902 186.411 2.5 182.972 2.5 179.5C2.5 176.028 4.58902 172.589 8.57238 169.906C12.5405 167.234 18.1644 165.5 24.5 165.5C30.8356 165.5 36.4595 167.234 40.4276 169.906C44.411 172.589 46.5 176.028 46.5 179.5Z" fill="#F79329" stroke="black" stroke-width="5"/>
<path d="M204.5 179.5C204.5 182.972 202.411 186.411 198.428 189.094C194.459 191.766 188.836 193.5 182.5 193.5C176.164 193.5 170.541 191.766 166.572 189.094C162.589 186.411 160.5 182.972 160.5 179.5C160.5 176.028 162.589 172.589 166.572 169.906C170.541 167.234 176.164 165.5 182.5 165.5C188.836 165.5 194.459 167.234 198.428 169.906C202.411 172.589 204.5 176.028 204.5 179.5Z" fill="#F79329" stroke="black" stroke-width="5"/>
</svg>
