<svg width="714" height="680" viewBox="0 0 714 680" fill="none" xmlns="http://www.w3.org/2000/svg">
<rect x="82.9463" y="123.5" width="543" height="451" rx="27.5" fill="#D9E974" stroke="black" stroke-width="5"/>
<rect x="133.446" y="223" width="442" height="251" fill="#2F2F2F"/>
<path d="M653.58 366.038L649.904 361.328C647.102 357.737 645.779 353.098 645.683 348.279C645.513 339.714 643.994 325.738 636.686 314.376C633.003 308.649 627.839 303.574 620.663 300.232C613.494 296.894 604.474 295.359 593.182 296.458C582.427 297.505 574.465 292.661 568.406 283.887C562.259 274.984 558.207 262.176 555.639 247.916C550.513 219.448 551.48 186.274 552.417 170.038C552.71 164.965 556.024 160.601 560.864 158.778C567.957 156.106 575.423 159.79 576.747 166.68C578.798 177.359 579.457 188.686 579.938 199.818C580.001 201.26 580.06 202.701 580.119 204.137C580.514 213.707 580.899 223.068 582.102 231.415C583.482 240.998 585.986 249.658 591.146 255.996C596.418 262.471 604.198 266.211 615.372 266.446C624.344 266.635 632.405 270.861 639.447 277.843C646.505 284.841 652.421 294.503 656.996 305.218C666.182 326.733 669.658 351.748 666.657 366.464C666.287 368.28 665.564 369.353 664.808 369.972C664.052 370.592 663.061 370.924 661.847 370.9C659.337 370.85 656.076 369.237 653.58 366.038Z" fill="#B5B5B5" stroke="black" stroke-width="5"/>
<path d="M658.498 401.237L658.444 401.233L658.391 401.233C652.014 401.129 647.665 400.678 644.685 399.877C641.755 399.088 640.426 398.038 639.699 396.909C638.907 395.679 638.535 393.92 638.439 391.069C638.391 389.672 638.411 388.115 638.438 386.328C638.439 386.23 638.441 386.131 638.442 386.031C638.468 384.339 638.497 382.468 638.472 380.441C638.374 372.473 640.568 365.338 644.065 360.245C647.568 355.145 652.222 352.27 657.127 352.21C662.032 352.15 666.756 354.91 670.382 359.922C674.004 364.928 676.371 372.008 676.469 379.975C676.521 384.223 676.552 387.747 676.268 390.701C675.983 393.658 675.402 395.754 674.429 397.259C672.658 399.999 668.803 401.847 658.498 401.237Z" fill="#B5B5B5" stroke="black" stroke-width="5"/>
<path d="M609.414 263.316L628.48 266.752C634.187 267.78 637.98 273.24 636.952 278.947L634.235 294.026C633.164 299.965 627.319 303.782 621.45 302.374L603.234 298.001C598.007 296.747 594.572 291.747 595.276 286.417L597.142 272.276C597.926 266.335 603.516 262.254 609.414 263.316Z" fill="#2F2F2F" stroke="black" stroke-width="5"/>
<rect x="22.9463" y="471.5" width="664" height="206" rx="27.5" fill="#D9E974" stroke="black" stroke-width="5"/>
<rect x="22.9463" y="471.5" width="664" height="149" rx="27.5" fill="#B5B5B5" stroke="black" stroke-width="5"/>
<rect x="64.4463" y="487" width="581" height="20" rx="10" fill="#2F2F2F"/>
<rect x="64.4463" y="534" width="581" height="20" rx="10" fill="#2F2F2F"/>
<rect x="64.4463" y="585" width="581" height="20" rx="10" fill="#2F2F2F"/>
<path d="M465.946 225.5C465.946 230.228 463.322 235.055 457.857 239.759C452.4 244.456 444.357 248.799 434.201 252.496C413.91 259.882 385.713 264.5 354.446 264.5C323.179 264.5 294.982 259.882 274.691 252.496C264.536 248.799 256.493 244.456 251.036 239.759C245.571 235.055 242.946 230.228 242.946 225.5C242.946 220.772 245.571 215.945 251.036 211.241C256.493 206.544 264.536 202.201 274.691 198.504C294.982 191.118 323.179 186.5 354.446 186.5C385.713 186.5 413.91 191.118 434.201 198.504C444.357 202.201 452.4 206.544 457.857 211.241C463.322 215.945 465.946 220.772 465.946 225.5Z" fill="white" stroke="black" stroke-width="5"/>
<rect x="8.94629" y="32.5" width="691" height="191" rx="27.5" fill="#D9E974" stroke="black" stroke-width="5"/>
<rect x="60.9463" y="32.5" width="588" height="86" rx="27.5" fill="#B5B5B5" stroke="black" stroke-width="5"/>
<rect x="93.4463" y="43" width="247" height="20" rx="10" fill="#2F2F2F"/>
<rect x="369.446" y="43" width="247" height="20" rx="10" fill="#2F2F2F"/>
<rect x="93.4463" y="80" width="247" height="20" rx="10" fill="#2F2F2F"/>
<rect x="369.446" y="80" width="247" height="20" rx="10" fill="#2F2F2F"/>
<circle cx="131.446" cy="170" r="25.5" fill="white" stroke="black" stroke-width="5"/>
<circle cx="131.446" cy="170" r="11.5" fill="#2F2F2F" stroke="black" stroke-width="5"/>
<circle cx="367.446" cy="170" r="25.5" fill="white" stroke="black" stroke-width="5"/>
<circle cx="367.446" cy="170" r="11.5" fill="#2F2F2F" stroke="black" stroke-width="5"/>
<path d="M2.04693 94.1285C2.99277 90.3099 7.02626 88.1404 10.7337 89.4559L81.43 114.543C83.7216 115.356 84.1189 118.427 82.1097 119.797V119.797C81.4112 120.273 80.5429 120.429 79.7224 120.226L6.90746 102.19C3.33923 101.306 1.1631 97.6967 2.04693 94.1285V94.1285Z" fill="black"/>
<path d="M8.04693 8.12849C8.99277 4.30994 13.0263 2.14036 16.7337 3.45594L87.43 28.5425C89.7216 29.3557 90.1189 32.4272 88.1097 33.7967V33.7967C87.4112 34.2728 86.5429 34.4288 85.7224 34.2255L12.9075 16.1897C9.33923 15.3058 7.1631 11.6967 8.04693 8.12849V8.12849Z" fill="black"/>
<path d="M15.4592 4.61495C19.3294 4.96089 22.1538 8.42853 21.7094 12.2887L12.1988 94.906C11.8182 98.2126 8.75992 100.536 5.4722 100.017V100.017C2.43115 99.5367 0.282341 96.7822 0.556443 93.7157L7.96046 10.8831C8.30027 7.08149 11.6576 4.27514 15.4592 4.61495V4.61495Z" fill="black"/>
<path d="M711.425 93.1285C710.479 89.3099 706.445 87.1404 702.738 88.4559L632.042 113.543C629.75 114.356 629.353 117.427 631.362 118.797V118.797C632.06 119.273 632.929 119.429 633.749 119.226L706.564 101.19C710.132 100.306 712.308 96.6967 711.425 93.1285V93.1285Z" fill="black"/>
<path d="M705.425 7.12849C704.479 3.30994 700.445 1.14036 696.738 2.45594L626.042 27.5425C623.75 28.3557 623.353 31.4272 625.362 32.7967V32.7967C626.06 33.2728 626.929 33.4288 627.749 33.2255L700.564 15.1897C704.132 14.3058 706.308 10.6967 705.425 7.12849V7.12849Z" fill="black"/>
<path d="M698.012 3.61495C694.142 3.96089 691.318 7.42853 691.762 11.2887L701.273 93.906C701.653 97.2126 704.712 99.5364 707.999 99.0171V99.0171C711.04 98.5367 713.189 95.7822 712.915 92.7157L705.511 9.8831C705.171 6.08149 701.814 3.27514 698.012 3.61495V3.61495Z" fill="black"/>
<circle cx="563.446" cy="170" r="37.5" fill="white" stroke="black" stroke-width="5"/>
<circle cx="563.946" cy="169.5" r="26" fill="white" stroke="black" stroke-width="5"/>
<rect x="578.039" y="144.479" width="7" height="24.9494" rx="3.5" transform="rotate(38.6803 578.039 144.479)" fill="black"/>
<circle cx="249.446" cy="170" r="25.5" fill="white" stroke="black" stroke-width="5"/>
<circle cx="249.946" cy="169.5" r="19" fill="#95A437" stroke="black" stroke-width="5"/>
<path d="M243.39 155.423C242.407 151.669 245.239 148 249.12 148V148C252.891 148 255.701 151.477 254.911 155.164L252.482 166.499C252.17 167.958 250.88 169 249.388 169V169C247.95 169 246.692 168.029 246.328 166.638L243.39 155.423Z" fill="black"/>
</svg>
