<svg width="216" height="143" viewBox="0 0 216 143" fill="none" xmlns="http://www.w3.org/2000/svg">
<path d="M35.3989 86C35.3989 105.674 45.0269 119.013 60.8871 127.584C76.9167 136.245 99.3093 140 124.399 140C149.489 140 171.881 136.245 187.911 127.584C203.771 119.013 213.399 105.674 213.399 86C213.399 46.1754 173.779 7.5 124.399 7.5C75.0192 7.5 35.3989 46.1754 35.3989 86Z" fill="white" stroke="black" stroke-width="5"/>
<path d="M100.399 20C100.399 22.7984 102.513 25.8822 107.151 28.4119C111.694 30.89 118.141 32.5 125.399 32.5C132.657 32.5 139.104 30.89 143.647 28.4119C148.285 25.8822 150.399 22.7984 150.399 20C150.399 17.2016 148.285 14.1178 143.647 11.5881C139.104 9.11005 132.657 7.5 125.399 7.5C118.141 7.5 111.694 9.11005 107.151 11.5881C102.513 14.1178 100.399 17.2016 100.399 20Z" fill="white" stroke="black" stroke-width="5"/>
<path d="M58.6273 95.9792C46.8513 82.1668 39.201 72.3972 35.2669 65.3681C33.3062 61.8651 32.1134 58.7797 31.9515 56.049C31.7784 53.1267 32.798 50.7284 34.8802 48.9098C36.8077 47.2263 39.5181 46.1507 42.5726 45.331C45.6717 44.4994 49.438 43.8547 53.701 43.2114C55.3704 42.9594 57.1253 42.7063 58.9627 42.4412C66.581 41.3422 75.6182 40.0385 85.8708 37.7677C88.3564 37.2172 90.0411 34.8322 89.7376 32.2322C89.4121 29.4439 86.922 27.4007 84.0991 27.6218C82.4919 27.7477 80.8886 27.8708 79.2921 27.9934C68.0475 28.8567 57.1453 29.6937 47.683 31.2892C36.7735 33.1287 28.388 35.8937 23.6573 40.3597C21.3691 42.5198 19.9386 45.0772 19.4696 48.2211C18.9931 51.4151 19.4827 55.4027 21.3896 60.41C25.2261 70.484 34.5602 84.0772 51.5649 102.415C52.8095 103.757 54.7729 104.291 56.471 103.766C59.7079 102.764 60.9081 98.6546 58.6273 95.9792Z" fill="white" stroke="black" stroke-width="5"/>
</svg>
