<svg width="216" height="143" viewBox="0 0 216 143" fill="none" xmlns="http://www.w3.org/2000/svg">
<path d="M180.5 86C180.5 105.674 170.872 119.013 155.012 127.584C138.982 136.245 116.59 140 91.5 140C66.4104 140 44.0178 136.245 27.9882 127.584C12.128 119.013 2.5 105.674 2.5 86C2.5 46.1754 42.1203 7.5 91.5 7.5C140.88 7.5 180.5 46.1754 180.5 86Z" fill="white" stroke="black" stroke-width="5"/>
<path d="M115.5 20C115.5 22.7984 113.386 25.8822 108.748 28.4119C104.205 30.89 97.758 32.5 90.5 32.5C83.242 32.5 76.7949 30.89 72.2517 28.4119C67.614 25.8822 65.5 22.7984 65.5 20C65.5 17.2016 67.614 14.1178 72.2517 11.5881C76.7949 9.11005 83.242 7.5 90.5 7.5C97.758 7.5 104.205 9.11005 108.748 11.5881C113.386 14.1178 115.5 17.2016 115.5 20Z" fill="white" stroke="black" stroke-width="5"/>
<path d="M157.272 95.9792C169.048 82.1668 176.698 72.3972 180.632 65.3681C182.593 61.8651 183.786 58.7797 183.947 56.049C184.121 53.1267 183.101 50.7284 181.019 48.9098C179.091 47.2263 176.381 46.1507 173.326 45.331C170.227 44.4994 166.461 43.8547 162.198 43.2114C160.529 42.9594 158.774 42.7063 156.936 42.4412C149.318 41.3422 140.281 40.0385 130.028 37.7677C127.543 37.2172 125.858 34.8322 126.161 32.2322C126.487 29.4439 128.977 27.4007 131.8 27.6218C133.407 27.7477 135.01 27.8708 136.607 27.9934C147.851 28.8567 158.754 29.6937 168.216 31.2892C179.125 33.1287 187.511 35.8937 192.242 40.3597C194.53 42.5198 195.96 45.0772 196.429 48.2211C196.906 51.4151 196.416 55.4027 194.509 60.41C190.673 70.484 181.339 84.0772 164.334 102.415C163.089 103.757 161.126 104.291 159.428 103.766C156.191 102.764 154.991 98.6546 157.272 95.9792Z" fill="white" stroke="black" stroke-width="5"/>
</svg>
