<svg width="167" height="120" viewBox="0 0 167 120" fill="none" xmlns="http://www.w3.org/2000/svg">
<path d="M164.5 92.5005C164.5 95.19 162.846 98.1613 158.902 101.232C154.99 104.278 149.173 107.13 141.761 109.571C126.965 114.444 106.366 117.5 83.5 117.5C60.6335 117.5 40.0348 114.444 25.2386 109.571C17.8271 107.13 12.01 104.278 8.09777 101.232C4.15385 98.1613 2.5 95.19 2.5 92.5005C2.5 89.811 4.15385 86.8397 8.09777 83.7688C12.01 80.7225 17.8271 77.8705 25.2386 75.4296C40.0348 70.5566 60.6335 67.5005 83.5 67.5005C106.366 67.5005 126.965 70.5566 141.761 75.4296C149.173 77.8705 154.99 80.7225 158.902 83.7688C162.846 86.8397 164.5 89.811 164.5 92.5005Z" fill="white" stroke="black" stroke-width="5"/>
<path d="M48.7316 93.1234L29.0554 17.073C27.977 12.9051 30.6043 8.77466 34.7609 8.04832C47.1717 5.87957 68.1449 2.70003 83.9578 2.75969C99.2191 2.81726 119.384 5.92877 131.406 8.05729C135.515 8.78477 138.133 12.8433 137.129 16.9771L118.652 93.0509C118.032 95.6035 116.144 97.5969 113.692 98.2766C106.368 100.308 93.3881 103.477 83.961 103.5C74.3386 103.524 61.0566 100.289 53.666 98.2448C51.2505 97.5767 49.3805 95.6317 48.7316 93.1234Z" fill="white" stroke="black" stroke-width="5"/>
<path d="M120.48 54.0008C119.027 53.9889 109.176 54.602 99.4825 55.2359C98.1812 55.321 96.8871 55.4061 95.6222 55.4898L123.127 62.9073L124.998 54.4845C124.983 54.4821 124.968 54.4796 124.953 54.4771C123.471 54.2339 121.754 54.0113 120.48 54.0008Z" fill="white" stroke="black" stroke-width="5"/>
<path d="M45.9027 54.6984C47.3897 54.6862 56.8135 55.0068 66.0119 55.3376C66.2855 55.3475 66.5588 55.3573 66.8315 55.3671L44.0981 62.6741L42.1032 55.0735C43.4229 54.8717 44.8325 54.7072 45.9027 54.6984Z" fill="white" stroke="black" stroke-width="6"/>
<path d="M119.569 77.9148L119.567 77.9245L119.565 77.9342L116.435 91.4045C115.801 94.1332 113.726 96.2387 111.063 96.8479C103.749 98.5209 91.6173 100.99 83.9966 101C76.1935 101.011 63.7016 98.483 56.3043 96.8037C53.6907 96.2104 51.6339 94.175 50.952 91.5148L44.1153 64.8401C42.9003 60.0993 46.4732 55.4892 51.3617 55.4857C60.1306 55.4795 72.0558 55.4779 82.7979 55.5001C93.3639 55.5219 105.878 55.0816 115.144 54.6729C120.209 54.4495 124.09 59.1389 122.912 64.0293L119.569 77.9148Z" fill="#593A2A" stroke="black" stroke-width="5"/>
<path d="M136.647 11.1363C136.026 11.3571 135.069 11.6066 133.745 11.8652C130.947 12.4121 126.89 12.9288 121.84 13.3729C111.76 14.2593 97.9536 14.8368 82.8447 14.8368C77.5811 14.8368 72.6148 14.8859 67.9761 14.9318C59.1347 15.0193 51.4833 15.095 45.2313 14.7962C40.4752 14.5689 36.7353 14.1299 34.0281 13.3781C31.2358 12.6027 30.1223 11.6549 29.7359 10.882C29.7198 10.8498 29.7075 10.8544 29.7074 10.8541C29.7072 10.8537 29.7186 10.8485 29.7493 10.7995C29.9204 10.5257 30.4284 10.0096 31.6064 9.36494C33.9225 8.09744 37.806 6.87479 42.9839 5.82516C53.2543 3.74322 67.7893 2.49999 82.8447 2.49999C97.9845 2.49999 112.464 3.12711 122.795 4.9615C128.002 5.88592 131.893 7.07498 134.274 8.48076C135.45 9.17544 136.082 9.8222 136.386 10.3458C136.531 10.5958 136.622 10.8503 136.647 11.1363Z" fill="white" stroke="black" stroke-width="5"/>
</svg>
