<svg width="145" height="192" viewBox="0 0 145 192" fill="none" xmlns="http://www.w3.org/2000/svg">
<path d="M35.9101 2.5H107.392C111.064 2.5 114.196 5.15891 114.793 8.78238L141.135 168.891C141.74 172.568 139.58 176.046 136.086 177.049C121.929 181.112 92.7444 188.625 71.3263 188.498C50.639 188.376 22.5591 181.038 8.81102 177.045C5.35328 176.04 3.20495 172.608 3.76823 168.961L28.498 8.85515C29.0628 5.19843 32.21 2.5 35.9101 2.5Z" fill="white" fill-opacity="0.4" stroke="black" stroke-width="5"/>
<path d="M29.8359 7.83014C29.6146 7.58559 29.5276 7.43527 29.4974 7.37495L29.4936 7.32229C29.4936 7.32165 29.4934 7.32061 29.4932 7.31918C29.486 7.26432 29.403 6.63562 31.5128 5.76416C33.5487 4.9232 36.7173 4.29415 40.8726 3.86198C49.1271 3.00347 60.3521 3.00039 71.9999 3.00039C76.3195 3.00039 80.4865 2.91729 84.4257 2.83873C91.2807 2.70201 97.4459 2.57906 102.525 2.93174C106.517 3.20888 109.446 3.76678 111.312 4.65573C112.213 5.08498 112.74 5.5335 113.042 5.94653C113.308 6.31039 113.483 6.7594 113.499 7.40614C113.471 7.4664 113.389 7.61955 113.171 7.8706C112.767 8.33752 112.073 8.93112 111.027 9.60866C108.947 10.9568 105.829 12.4096 101.894 13.7474C94.043 16.4162 83.3145 18.5004 71.9999 18.5004C60.6833 18.5004 49.6972 16.4154 41.5844 13.7401C37.5186 12.3994 34.2698 10.9415 32.0908 9.58456C30.9949 8.90213 30.2636 8.30287 29.8359 7.83014Z" fill="white" fill-opacity="0.4" stroke="black" stroke-width="5"/>
<path d="M4.03587 173.337C4.13884 173.233 4.29809 173.09 4.53433 172.912C5.31077 172.327 6.58041 171.617 8.38264 170.83C11.9593 169.27 17.2083 167.593 23.6983 166.05C36.6587 162.97 54.2622 160.5 72.6902 160.5C91.1878 160.5 108.357 162.239 120.954 164.944C127.269 166.3 132.322 167.876 135.792 169.536C137.532 170.369 138.765 171.172 139.552 171.897C140.352 172.633 140.496 173.105 140.516 173.282C140.52 173.319 140.549 173.683 139.881 174.453C139.219 175.215 138.082 176.119 136.384 177.103C133.005 179.062 127.909 181.056 121.491 182.841C108.691 186.402 91.1124 189 72.6902 189C54.231 189 36.6498 186.791 23.751 183.428C17.2839 181.742 12.123 179.798 8.638 177.776C6.8939 176.763 5.67859 175.793 4.92489 174.918C4.35678 174.258 4.11763 173.735 4.03587 173.337ZM3.88902 173.507C3.8864 173.511 3.88489 173.513 3.88489 173.513C3.88486 173.513 3.88618 173.511 3.88902 173.507Z" fill="white" fill-opacity="0.4" stroke="black" stroke-width="5"/>
</svg>
