<svg width="136" height="212" viewBox="0 0 136 212" fill="none" xmlns="http://www.w3.org/2000/svg">
<path d="M133.5 42.6977C133.5 53.3209 126.636 63.3113 114.754 70.7723C102.905 78.212 86.3819 82.8953 68 82.8953C49.6181 82.8953 33.0947 78.212 21.2462 70.7723C9.3639 63.3113 2.5 53.3209 2.5 42.6977C2.5 32.0744 9.3639 22.084 21.2462 14.6231C33.0947 7.18333 49.6181 2.5 68 2.5C86.3819 2.5 102.905 7.18333 114.754 14.6231C126.636 22.084 133.5 32.0744 133.5 42.6977Z" fill="#B5B5B5" stroke="#2F2F2F" stroke-width="5"/>
<path d="M132.923 49.6463L132.901 49.8111V49.9774C132.901 52.6937 131.464 55.925 128.304 59.3783C125.172 62.8009 120.539 66.2209 114.673 69.2623C102.949 75.3409 86.6361 79.7325 68.5601 79.7325C50.4841 79.7325 34.171 75.3409 22.4472 69.2623C16.5813 66.2209 11.9483 62.8009 8.81619 59.3783C5.65594 55.925 4.21921 52.6937 4.21921 49.9774V49.9071L4.21526 49.837C3.58977 38.7161 5.22408 33.0382 7.75986 30.2415C10.1505 27.6048 13.997 26.8682 20.0288 27.6513C24.4085 28.2198 29.3883 29.503 35.0048 30.9503C37.1109 31.493 39.3065 32.0587 41.5935 32.6185C49.8402 34.637 59.0245 36.4999 68.5601 36.4999C78.0655 36.4999 87.4255 34.7951 95.903 32.9658C97.9931 32.5148 100.017 32.0596 101.973 31.6198C108.067 30.2495 113.499 29.0279 118.208 28.5439C124.502 27.8969 128.432 28.708 130.678 31.2231C133.005 33.8284 134.329 39.1216 132.923 49.6463Z" fill="#95A437" stroke="black" stroke-width="5"/>
<path d="M98.7093 72.7443C98.7093 87.7823 85.4965 100.291 68.7907 100.291C52.0848 100.291 38.8721 87.7823 38.8721 72.7443C38.8721 57.7062 52.0848 45.1978 68.7907 45.1978C85.4965 45.1978 98.7093 57.7062 98.7093 72.7443Z" fill="white" stroke="black" stroke-width="5"/>
<path d="M89.2208 84.6047C89.2208 94.8494 80.2451 103.454 68.7906 103.454C57.336 103.454 48.3604 94.8494 48.3604 84.6047C48.3604 74.36 57.336 65.7559 68.7906 65.7559C80.2451 65.7559 89.2208 74.36 89.2208 84.6047Z" fill="white" stroke="black" stroke-width="5"/>
<path d="M92.0932 105.106L98.8886 179.402C100.362 195.512 87.6798 209.407 71.5029 209.407H66.682C50.3065 209.407 37.5596 195.184 39.3462 178.907L47.4907 104.702C48.738 93.3371 58.3387 84.7324 69.7716 84.7324C81.3599 84.7324 91.0377 93.5655 92.0932 105.106Z" fill="white" stroke="black" stroke-width="5"/>
<circle cx="68.7906" cy="181.07" r="28.3372" fill="#95A437" stroke="black" stroke-width="5"/>
<circle cx="68.0001" cy="181.861" r="14.8953" fill="white" stroke="black" stroke-width="5"/>
</svg>
