<svg width="329" height="321" viewBox="0 0 329 321" fill="none" xmlns="http://www.w3.org/2000/svg">
<path d="M214.493 143.436L236.584 151.514C257.194 159.051 260.974 186.591 243.18 199.575L217.924 218.005C217.157 218.565 216.285 218.964 215.361 219.177C208.225 220.821 203.718 211.791 209.299 207.032L231.375 188.207C239.401 181.364 237.907 168.576 228.531 163.845L209.731 154.359C203.808 151.37 206.523 142.367 213.123 143.113C213.591 143.166 214.051 143.275 214.493 143.436Z" fill="#F79329" stroke="black" stroke-width="5"/>
<path d="M205.116 115.46L211.131 230.431C211.316 233.966 209.031 237.068 205.682 237.856C192.486 240.957 165.41 246.359 144.143 244.441C122.752 242.512 99.6255 234.944 88.6682 230.982C85.8185 229.952 84.001 227.213 84.113 224.115C84.6945 208.024 86.4477 167.518 90.0594 142.121L92.965 121.688C93.0275 121.249 93.1287 120.817 93.2676 120.395L96.1479 111.65C97.1086 108.733 99.6044 106.855 102.571 106.313C105.553 105.768 108.757 106.629 110.91 108.955C116.16 114.627 122.706 120.876 129.836 125.764C136.929 130.625 144.845 134.311 152.792 134.484C159.215 134.624 165.45 131.666 171.114 127.373C176.805 123.06 182.173 117.209 186.927 111.103C189.349 107.993 193.748 106.924 197.869 107.926C201.982 108.926 204.922 111.737 205.116 115.46Z" fill="#F79329" stroke="black" stroke-width="5"/>
<path d="M99.3482 113.76L99.427 113.807L99.509 113.848L146.328 137.325L147.276 137.8L148.277 137.449L211.897 115.098L214.867 260.952C214.711 261.042 214.542 261.14 214.358 261.246C213.216 261.903 211.546 262.844 209.447 263.972C205.247 266.23 199.342 269.232 192.526 272.207C178.799 278.199 161.74 283.918 147.516 283.53C131.689 283.099 114.389 277.33 100.91 271.564C94.1994 268.694 88.4944 265.85 84.4698 263.725C82.4583 262.663 80.8688 261.782 79.7858 261.168C79.6695 261.102 79.5591 261.039 79.4547 260.98L86.6137 152.997C86.6176 152.972 86.622 152.944 86.6269 152.912C86.6467 152.782 86.6746 152.593 86.7083 152.353C86.7756 151.873 86.866 151.182 86.9608 150.329C87.15 148.624 87.3582 146.253 87.4331 143.589C87.5796 138.38 87.2363 131.601 84.9055 126.576C82.5749 121.551 78.4743 115.957 75.0637 111.715C73.654 109.962 72.3386 108.411 71.2756 107.189L81.0732 103.873C81.7664 103.639 82.5276 103.72 83.156 104.095L99.3482 113.76Z" fill="#F79329" stroke="black" stroke-width="5"/>
<path d="M149.08 138.893C132.936 138.339 112.636 129.69 96.1038 120.937C87.897 116.592 80.7244 112.28 75.6034 109.054C74.0464 108.073 72.6801 107.194 71.5331 106.444C72.8414 105.989 74.3978 105.454 76.167 104.86C81.9695 102.912 90.0527 100.328 99.1745 97.7794C117.507 92.6584 139.718 87.7784 156.062 88.3392C172.684 88.9096 187.132 91.3824 197.247 95.7411C207.425 100.127 212.453 106.024 212.164 113.201C211.876 120.347 205.169 127.091 193.191 132.01C181.441 136.835 165.562 139.459 149.08 138.893Z" fill="#F79329" stroke="black" stroke-width="5"/>
<path d="M188.913 130.933C180.907 134.26 170.318 136.325 159.577 136.826C148.834 137.328 138.077 136.258 129.728 133.422C120.166 130.174 107.024 125.145 95.8521 118.838C97.9763 117.525 101.301 115.64 105.247 113.674C110.793 110.911 117.457 108.042 123.594 106.403C138.264 102.484 154.974 102.149 169.258 104.502C176.395 105.678 182.884 107.519 188.183 109.89C193.498 112.268 197.502 115.128 199.817 118.279C200.908 119.812 201.423 120.963 201.543 121.873C201.651 122.692 201.458 123.436 200.783 124.271C200.06 125.167 198.797 126.143 196.794 127.263C194.809 128.372 192.208 129.564 188.913 130.933Z" fill="white" stroke="black" stroke-width="3"/>
</svg>
