<svg width="219" height="219" viewBox="0 0 219 219" fill="none" xmlns="http://www.w3.org/2000/svg">
<path d="M21.5811 108.89C11.558 134.113 37.1731 168.195 78.7369 184.712C120.301 201.229 162.314 194.021 172.337 168.798L177.048 156.941L25.8071 96.8405L21.0954 108.697L21.5811 108.89Z" fill="#F9F089"/>
<path d="M177.992 69.6974C179.321 67.7114 180.19 65.4536 180.535 63.089C180.881 60.7244 180.694 58.3125 179.988 56.0294C179.282 53.7462 178.076 51.6494 176.456 49.892C174.837 48.1346 172.846 46.7608 170.628 45.871C162.336 42.5759 150.346 45.6048 147.068 53.8534L133.574 87.8105C128.549 85.2412 126.105 83.7076 120.398 81.4397C115.177 79.3647 112.71 77.7619 107.318 76.242L119.822 40.937C123.099 32.6884 117.116 24.5959 108.772 21.2802C99.4474 17.5749 88.6874 23.4729 86.5208 33.3482L76.3656 72.2476C51.2338 71.8018 32.684 81.1022 26.1317 97.5907C16.1086 122.813 41.6923 156.823 83.2562 173.339C124.82 189.856 166.812 182.701 176.853 157.434C183.388 140.989 177.596 122.026 159.016 105.092L177.992 69.6974Z" fill="#CA7D45"/>
<path d="M121.814 133.915C119.194 140.507 120.177 147.386 124.279 149.016C128.382 150.646 133.83 146.313 136.446 139.73C139.066 133.138 138.074 126.256 133.972 124.626C129.878 122.999 124.433 127.323 121.814 133.915ZM68.1415 112.587C65.522 119.179 66.5133 126.061 70.6159 127.691C74.7098 129.318 80.1578 124.985 82.7738 118.402C85.3934 111.81 84.4107 104.931 80.3081 103.301C76.2055 101.671 70.761 105.995 68.1415 112.587Z" fill="#522D0B"/>
<path d="M179.197 74.8071C186.677 63.0862 182.7 47.9473 169.863 42.8461C158.587 38.3654 146.177 44.17 141.72 55.385L133.097 81.7866L121.969 77.3645C119.046 76.2029 115.819 74.9207 111.771 73.8848L122.205 47.6298C126.661 36.4149 122.635 24.0787 111.316 19.5807C98.4792 14.4795 84.7101 22.5663 81.6191 36.0313L74.6714 67.7188C52.1522 68.3814 31.4068 77.0906 24.2307 95.149L19.7741 106.364C13.763 121.491 18.5736 138.096 29.5726 152.068C40.3387 166.5 57.0811 178.807 78.3053 187.241C99.5296 195.676 120.153 198.217 137.892 195.102C154.995 192.297 169.891 183.523 175.902 168.397L180.355 157.19C187.528 139.141 178.612 118.082 162.69 102.143L179.197 74.8071ZM77.8071 74.0568L86.6316 37.6214C88.6625 28.2647 99.1363 21.5199 108.504 25.2423C112.327 26.7353 115.417 29.6597 117.119 33.3945C118.821 37.1292 119 41.3803 117.619 45.245L104.817 77.4587C109.976 78.7555 115.043 80.39 119.987 82.3518C125.104 84.3854 130.922 87.2597 134.863 89.3982L146.6 57.3342C149.702 49.5279 160.116 44.6273 167.922 47.7294C176.804 51.2588 179.853 63.7792 174.362 71.7607L155.869 105.077C173.454 121.104 181.487 140.114 175.283 155.727L170.822 166.95C161.323 190.855 119.424 197.927 80.003 182.262C40.5815 166.596 14.9565 132.691 24.4557 108.787L28.9157 97.5631C34.8272 81.2719 53.5328 73.4495 77.8071 74.0568Z" fill="#522D0B"/>
</svg>
