<svg width="219" height="219" viewBox="0 0 219 219" fill="none" xmlns="http://www.w3.org/2000/svg">
<path d="M196.585 108.89C206.608 134.113 180.993 168.195 139.429 184.712C97.8652 201.229 55.8523 194.021 45.8292 168.798L41.1175 156.941L192.359 96.8405L197.071 108.697L196.585 108.89Z" fill="#F9F089"/>
<path d="M40.1736 69.6974C38.8446 67.7114 37.9758 65.4536 37.6306 63.089C37.2854 60.7244 37.4724 58.3125 38.1781 56.0294C38.8838 53.7462 40.0903 51.6494 41.7095 49.892C43.3288 48.1346 45.32 46.7608 47.5379 45.871C55.8298 42.5759 67.8199 45.6048 71.0978 53.8534L84.5917 87.8105C89.6168 85.2412 92.0605 83.7076 97.7678 81.4397C102.989 79.3647 105.456 77.7619 110.848 76.242L98.3445 40.937C95.0666 32.6884 101.05 24.5959 109.394 21.2802C118.719 17.5749 129.479 23.4729 131.645 33.3482L141.8 72.2476C166.932 71.8018 185.482 81.1022 192.034 97.5907C202.057 122.813 176.474 156.823 134.91 173.339C93.346 189.856 51.3538 182.701 41.3135 157.434C34.7785 140.989 40.5702 122.026 59.1498 105.092L40.1736 69.6974Z" fill="#CA7D45"/>
<path d="M96.3523 133.915C98.9719 140.507 97.9892 147.386 93.8866 149.016C89.784 150.646 84.3361 146.313 81.72 139.73C79.1005 133.138 80.0918 126.256 84.1944 124.626C88.2883 122.999 93.7328 127.323 96.3523 133.915ZM150.025 112.587C152.644 119.179 151.653 126.061 147.55 127.691C143.456 129.318 138.008 124.985 135.392 118.402C132.773 111.81 133.755 104.931 137.858 103.301C141.96 101.671 147.405 105.995 150.025 112.587Z" fill="#522D0B"/>
<path d="M38.969 74.8071C31.4892 63.0862 35.4663 47.9473 48.3032 42.8461C59.5789 38.3654 71.9891 44.17 76.4457 55.385L85.0692 81.7866L96.1974 77.3645C99.1204 76.2029 102.347 74.9207 106.395 73.8848L95.9613 47.6298C91.5046 36.4149 95.5309 24.0787 106.85 19.5807C119.687 14.4795 133.456 22.5663 136.547 36.0313L143.495 67.7188C166.014 68.3814 186.759 77.0906 193.935 95.149L198.392 106.364C204.403 121.491 199.592 138.096 188.593 152.068C177.827 166.5 161.085 178.807 139.861 187.241C118.636 195.676 98.013 198.217 80.2742 195.102C63.1708 192.297 48.275 183.523 42.2639 168.397L37.8107 157.19C30.638 139.141 39.5542 118.082 55.4763 102.143L38.969 74.8071ZM140.359 74.0568L131.534 37.6214C129.504 28.2647 119.03 21.5199 109.662 25.2423C105.839 26.7353 102.749 29.6597 101.047 33.3945C99.3449 37.1292 99.1657 41.3803 100.547 45.245L113.349 77.4587C108.19 78.7555 103.123 80.39 98.1793 82.3518C93.0619 84.3854 87.2441 87.2597 83.3033 89.3982L71.5659 57.3342C68.4638 49.5279 58.05 44.6273 50.2437 47.7294C41.362 51.2588 38.3128 63.7792 43.8045 71.7607L62.2966 105.077C44.7122 121.104 36.6794 140.114 42.8835 155.727L47.3436 166.95C56.8428 190.855 98.7416 197.927 138.163 182.262C177.584 166.596 203.21 132.691 193.71 108.787L189.25 97.5631C183.339 81.2719 164.633 73.4495 140.359 74.0568Z" fill="#522D0B"/>
</svg>
