<svg width="345" height="416" viewBox="0 0 345 416" fill="none" xmlns="http://www.w3.org/2000/svg">
<rect x="2.5" y="2.5" width="340" height="411" rx="22.5" fill="#B8FFFD" stroke="#522D0B" stroke-width="5"/>
<path d="M63.86 74C63.7987 74 63.768 73.908 63.768 73.724C63.768 73.54 63.7987 73.448 63.86 73.448C64.8107 73.448 65.4393 73.3253 65.746 73.08C66.0833 72.8347 66.022 72.3593 65.562 71.654L50.888 49.252C50.06 47.9947 49.2473 47.1053 48.45 46.584C47.6833 46.0627 46.8093 45.802 45.828 45.802C45.7667 45.802 45.736 45.71 45.736 45.526C45.736 45.342 45.7667 45.25 45.828 45.25C46.4107 45.25 47.024 45.2807 47.668 45.342C48.312 45.3727 48.91 45.388 49.462 45.388C50.7193 45.388 51.8847 45.3727 52.958 45.342C54.0313 45.2807 54.9667 45.25 55.764 45.25C55.856 45.25 55.902 45.342 55.902 45.526C55.902 45.71 55.856 45.802 55.764 45.802C54.8133 45.802 54.1693 45.9247 53.832 46.17C53.5253 46.4153 53.602 46.906 54.062 47.642L68.874 70.182C69.6713 71.378 70.484 72.2213 71.312 72.712C72.14 73.2027 73.152 73.448 74.348 73.448C74.4093 73.448 74.44 73.54 74.44 73.724C74.44 73.908 74.4093 74 74.348 74C73.704 74 72.9987 73.9847 72.232 73.954C71.4653 73.9233 70.6527 73.908 69.794 73.908C68.5367 73.908 67.4327 73.9233 66.482 73.954C65.562 73.9847 64.688 74 63.86 74ZM45.598 74C45.506 74 45.46 73.908 45.46 73.724C45.46 73.54 45.506 73.448 45.598 73.448C46.5793 73.448 47.6527 73.0647 48.818 72.298C49.9833 71.5313 51.164 70.32 52.36 68.664L58.892 59.74L59.536 60.246L53.51 68.756C52.4367 70.228 52.0073 71.378 52.222 72.206C52.4673 73.034 53.326 73.448 54.798 73.448C54.89 73.448 54.936 73.54 54.936 73.724C54.936 73.908 54.89 74 54.798 74C53.97 74 53.1727 73.9847 52.406 73.954C51.6393 73.9233 50.6427 73.908 49.416 73.908C48.588 73.908 47.9287 73.9233 47.438 73.954C46.9473 73.9847 46.334 74 45.598 74ZM60.318 59.556L59.674 59.05L65.516 50.724C66.62 49.16 67.0647 47.9487 66.85 47.09C66.666 46.2313 65.8533 45.802 64.412 45.802C64.32 45.802 64.274 45.71 64.274 45.526C64.274 45.342 64.32 45.25 64.412 45.25C65.24 45.25 66.0373 45.2807 66.804 45.342C67.5707 45.3727 68.5673 45.388 69.794 45.388C70.622 45.388 71.2813 45.3727 71.772 45.342C72.2627 45.2807 72.8607 45.25 73.566 45.25C73.658 45.25 73.704 45.342 73.704 45.526C73.704 45.71 73.658 45.802 73.566 45.802C72.6153 45.802 71.542 46.216 70.346 47.044C69.15 47.872 67.9233 49.1447 66.666 50.862L60.318 59.556ZM80.806 56.29C81.6033 56.29 82.4313 56.2747 83.29 56.244C84.1793 56.1827 85.038 56.152 85.866 56.152C87.7673 56.152 89.224 56.4433 90.236 57.026C91.248 57.6087 91.754 58.4827 91.754 59.648C91.754 61.304 90.42 62.96 87.752 64.616L87.154 64.34C87.522 63.9107 87.798 63.42 87.982 62.868C88.1966 62.2853 88.304 61.5953 88.304 60.798C88.304 59.3873 87.9973 58.3907 87.384 57.808C86.8013 57.1947 85.912 56.888 84.716 56.888C83.7653 56.888 83.1213 57.0873 82.784 57.486C82.4773 57.854 82.324 58.7127 82.324 60.062V70.274C82.324 71.3167 82.5386 72.0833 82.968 72.574C83.428 73.034 84.348 73.264 85.728 73.264C87.2613 73.264 88.3806 72.942 89.086 72.298C89.7913 71.6233 90.144 70.6573 90.144 69.4C90.144 68.0813 89.7606 67.008 88.994 66.18C88.258 65.352 87.0006 64.938 85.222 64.938H80.99L80.944 64.156H86.832C91.4013 64.156 93.686 65.5667 93.686 68.388C93.686 70.044 93.0113 71.4087 91.662 72.482C90.3126 73.5553 88.6106 74.092 86.556 74.092C85.82 74.092 84.8846 74.0613 83.75 74C82.646 73.9387 81.6646 73.908 80.806 73.908C80.0086 73.908 79.2266 73.9233 78.46 73.954C77.6933 73.9847 77.0033 74 76.39 74C76.298 74 76.252 73.908 76.252 73.724C76.252 73.54 76.298 73.448 76.39 73.448C77.586 73.448 78.3526 73.2487 78.69 72.85C79.0273 72.4513 79.196 71.5927 79.196 70.274V59.97C79.196 58.6207 79.0273 57.762 78.69 57.394C78.3526 56.9953 77.6013 56.796 76.436 56.796C76.344 56.796 76.298 56.704 76.298 56.52C76.298 56.336 76.344 56.244 76.436 56.244C77.0186 56.244 77.6933 56.2593 78.46 56.29C79.2266 56.29 80.0086 56.29 80.806 56.29ZM106.031 74.598C104.16 74.598 102.535 74.1533 101.155 73.264C99.8052 72.3747 98.7625 71.194 98.0265 69.722C97.2905 68.2193 96.9225 66.6093 96.9225 64.892C96.9225 63.2973 97.2138 61.9173 97.7965 60.752C98.4098 59.5867 99.2072 58.636 100.189 57.9C101.17 57.1333 102.243 56.566 103.409 56.198C104.574 55.83 105.724 55.646 106.859 55.646C108.76 55.646 110.385 56.106 111.735 57.026C113.084 57.946 114.111 59.1267 114.817 60.568C115.553 62.0093 115.921 63.5273 115.921 65.122C115.921 67.054 115.461 68.7407 114.541 70.182C113.621 71.5927 112.409 72.6813 110.907 73.448C109.435 74.2147 107.809 74.598 106.031 74.598ZM107.365 73.724C108.867 73.724 110.033 73.1413 110.861 71.976C111.719 70.78 112.149 68.9707 112.149 66.548C112.149 64.4933 111.842 62.73 111.229 61.258C110.615 59.7553 109.787 58.6053 108.745 57.808C107.733 56.98 106.583 56.566 105.295 56.566C103.792 56.566 102.627 57.1487 101.799 58.314C101.001 59.4487 100.603 61.1353 100.603 63.374C100.603 65.306 100.894 67.0693 101.477 68.664C102.059 70.228 102.857 71.47 103.869 72.39C104.881 73.2793 106.046 73.724 107.365 73.724ZM128.176 74.552C126.06 74.552 124.327 74.1073 122.978 73.218C121.659 72.298 120.678 71.148 120.034 69.768C119.421 68.3573 119.114 66.9313 119.114 65.49C119.114 63.9567 119.421 62.592 120.034 61.396C120.647 60.2 121.445 59.188 122.426 58.36C123.438 57.532 124.557 56.9033 125.784 56.474C127.011 56.0447 128.222 55.83 129.418 55.83C130.277 55.83 131.12 55.9527 131.948 56.198C132.807 56.4433 133.512 56.796 134.064 57.256C134.616 57.6853 134.892 58.2067 134.892 58.82C134.892 59.2493 134.723 59.648 134.386 60.016C134.079 60.3533 133.619 60.522 133.006 60.522C132.423 60.522 131.948 60.3533 131.58 60.016C131.212 59.6787 130.921 59.2493 130.706 58.728C130.43 58.1147 130.093 57.6393 129.694 57.302C129.295 56.934 128.667 56.75 127.808 56.75C126.183 56.75 124.91 57.4247 123.99 58.774C123.101 60.1233 122.656 61.8867 122.656 64.064C122.656 65.5973 122.917 67.0387 123.438 68.388C123.959 69.7067 124.772 70.7647 125.876 71.562C126.98 72.3593 128.421 72.758 130.2 72.758C131.059 72.758 131.856 72.6507 132.592 72.436C133.359 72.1907 134.095 71.8227 134.8 71.332C134.892 71.2707 134.984 71.3013 135.076 71.424C135.199 71.5467 135.214 71.6387 135.122 71.7C134.079 72.6507 133.006 73.3713 131.902 73.862C130.798 74.322 129.556 74.552 128.176 74.552ZM141.886 74C141.824 74 141.794 73.908 141.794 73.724C141.794 73.54 141.824 73.448 141.886 73.448C143.112 73.448 143.894 73.2487 144.232 72.85C144.569 72.4513 144.738 71.5927 144.738 70.274V60.062C144.738 58.866 144.615 58.0687 144.37 57.67C144.124 57.2407 143.588 57.026 142.76 57.026C141.656 57.026 140.751 57.394 140.046 58.13C139.371 58.866 138.88 60.2307 138.574 62.224C138.574 62.316 138.482 62.362 138.298 62.362C138.114 62.362 138.022 62.316 138.022 62.224C138.022 61.7947 138.022 61.1507 138.022 60.292C138.022 59.4333 138.006 58.544 137.976 57.624C137.976 56.704 137.976 55.9527 137.976 55.37C137.976 55.2167 138.068 55.14 138.252 55.14C138.436 55.14 138.528 55.2167 138.528 55.37C138.528 55.7993 139.202 56.06 140.552 56.152C141.932 56.244 143.864 56.29 146.348 56.29C147.942 56.29 149.307 56.2747 150.442 56.244C151.576 56.2133 152.45 56.1367 153.064 56.014C153.677 55.8607 153.984 55.646 153.984 55.37C153.984 55.2167 154.076 55.14 154.26 55.14C154.444 55.14 154.536 55.2167 154.536 55.37C154.536 55.9527 154.536 56.704 154.536 57.624C154.536 58.544 154.52 59.4333 154.49 60.292C154.49 61.1507 154.49 61.7947 154.49 62.224C154.49 62.316 154.398 62.362 154.214 62.362C154.06 62.362 153.968 62.316 153.938 62.224C153.692 60.2307 153.202 58.866 152.466 58.13C151.73 57.394 150.81 57.026 149.706 57.026C148.908 57.026 148.402 57.2407 148.188 57.67C147.973 58.0687 147.866 58.866 147.866 60.062V70.274C147.866 71.5927 148.019 72.4513 148.326 72.85C148.663 73.2487 149.43 73.448 150.626 73.448C150.718 73.448 150.764 73.54 150.764 73.724C150.764 73.908 150.718 74 150.626 74C150.012 74 149.338 73.9847 148.602 73.954C147.866 73.9233 147.114 73.908 146.348 73.908C145.55 73.908 144.768 73.9233 144.002 73.954C143.235 73.9847 142.53 74 141.886 74ZM166.675 74.598C164.804 74.598 163.179 74.1533 161.799 73.264C160.45 72.3747 159.407 71.194 158.671 69.722C157.935 68.2193 157.567 66.6093 157.567 64.892C157.567 63.2973 157.858 61.9173 158.441 60.752C159.054 59.5867 159.852 58.636 160.833 57.9C161.814 57.1333 162.888 56.566 164.053 56.198C165.218 55.83 166.368 55.646 167.503 55.646C169.404 55.646 171.03 56.106 172.379 57.026C173.728 57.946 174.756 59.1267 175.461 60.568C176.197 62.0093 176.565 63.5273 176.565 65.122C176.565 67.054 176.105 68.7407 175.185 70.182C174.265 71.5927 173.054 72.6813 171.551 73.448C170.079 74.2147 168.454 74.598 166.675 74.598ZM168.009 73.724C169.512 73.724 170.677 73.1413 171.505 71.976C172.364 70.78 172.793 68.9707 172.793 66.548C172.793 64.4933 172.486 62.73 171.873 61.258C171.26 59.7553 170.432 58.6053 169.389 57.808C168.377 56.98 167.227 56.566 165.939 56.566C164.436 56.566 163.271 57.1487 162.443 58.314C161.646 59.4487 161.247 61.1353 161.247 63.374C161.247 65.306 161.538 67.0693 162.121 68.664C162.704 70.228 163.501 71.47 164.513 72.39C165.525 73.2793 166.69 73.724 168.009 73.724ZM184.036 56.29C184.834 56.29 185.662 56.2747 186.52 56.244C187.41 56.1827 188.268 56.152 189.096 56.152C190.998 56.152 192.454 56.4433 193.466 57.026C194.478 57.6087 194.984 58.4827 194.984 59.648C194.984 61.304 193.65 62.96 190.982 64.616L190.384 64.34C190.752 63.9107 191.028 63.42 191.212 62.868C191.427 62.2853 191.534 61.5953 191.534 60.798C191.534 59.3873 191.228 58.3907 190.614 57.808C190.032 57.1947 189.142 56.888 187.946 56.888C186.996 56.888 186.352 57.0873 186.014 57.486C185.708 57.854 185.554 58.7127 185.554 60.062V70.274C185.554 71.3167 185.769 72.0833 186.198 72.574C186.658 73.034 187.578 73.264 188.958 73.264C190.492 73.264 191.611 72.942 192.316 72.298C193.022 71.6233 193.374 70.6573 193.374 69.4C193.374 68.0813 192.991 67.008 192.224 66.18C191.488 65.352 190.231 64.938 188.452 64.938H184.22L184.174 64.156H190.062C194.632 64.156 196.916 65.5667 196.916 68.388C196.916 70.044 196.242 71.4087 194.892 72.482C193.543 73.5553 191.841 74.092 189.786 74.092C189.05 74.092 188.115 74.0613 186.98 74C185.876 73.9387 184.895 73.908 184.036 73.908C183.239 73.908 182.457 73.9233 181.69 73.954C180.924 73.9847 180.234 74 179.62 74C179.528 74 179.482 73.908 179.482 73.724C179.482 73.54 179.528 73.448 179.62 73.448C180.816 73.448 181.583 73.2487 181.92 72.85C182.258 72.4513 182.426 71.5927 182.426 70.274V59.97C182.426 58.6207 182.258 57.762 181.92 57.394C181.583 56.9953 180.832 56.796 179.666 56.796C179.574 56.796 179.528 56.704 179.528 56.52C179.528 56.336 179.574 56.244 179.666 56.244C180.249 56.244 180.924 56.2593 181.69 56.29C182.457 56.29 183.239 56.29 184.036 56.29ZM208.985 74.552C207.084 74.552 205.458 74.138 204.109 73.31C202.79 72.4513 201.794 71.3473 201.119 69.998C200.475 68.6487 200.153 67.2227 200.153 65.72C200.153 63.8493 200.598 62.178 201.487 60.706C202.376 59.2033 203.572 58.0227 205.075 57.164C206.608 56.2747 208.326 55.83 210.227 55.83C211.975 55.83 213.309 56.244 214.229 57.072C215.18 57.8693 215.655 58.9733 215.655 60.384C215.655 60.7213 215.624 60.9973 215.563 61.212C215.502 61.4267 215.364 61.534 215.149 61.534H211.883C212.006 60.062 211.776 58.8967 211.193 58.038C210.61 57.1793 209.752 56.75 208.617 56.75C207.053 56.75 205.842 57.394 204.983 58.682C204.124 59.97 203.695 61.7027 203.695 63.88C203.695 65.5973 203.971 67.1307 204.523 68.48C205.075 69.7987 205.888 70.8413 206.961 71.608C208.034 72.344 209.322 72.712 210.825 72.712C211.622 72.712 212.435 72.6047 213.263 72.39C214.091 72.1447 214.858 71.7767 215.563 71.286C215.624 71.2247 215.701 71.2707 215.793 71.424C215.916 71.5467 215.946 71.654 215.885 71.746C214.781 72.758 213.662 73.4787 212.527 73.908C211.392 74.3373 210.212 74.552 208.985 74.552ZM202.637 61.626L202.591 60.936L212.941 60.706V61.534L202.637 61.626ZM218.237 86.65C218.176 86.65 218.145 86.558 218.145 86.374C218.145 86.19 218.176 86.098 218.237 86.098C219.556 86.098 220.399 85.8987 220.767 85.5C221.166 85.1013 221.365 84.2427 221.365 82.924V59.97C221.365 58.6513 221.104 57.7927 220.583 57.394C220.092 56.9953 219.157 56.796 217.777 56.796C217.685 56.796 217.639 56.704 217.639 56.52C217.639 56.336 217.685 56.244 217.777 56.244C218.452 56.244 219.142 56.244 219.847 56.244C220.583 56.244 221.273 56.244 221.917 56.244C222.561 56.244 223.113 56.244 223.573 56.244C223.941 56.244 224.186 56.3207 224.309 56.474C224.432 56.6273 224.493 56.934 224.493 57.394V82.924C224.493 83.7827 224.6 84.442 224.815 84.902C225.03 85.362 225.459 85.6687 226.103 85.822C226.747 86.006 227.682 86.098 228.909 86.098C229.001 86.098 229.047 86.19 229.047 86.374C229.047 86.558 229.001 86.65 228.909 86.65C228.081 86.65 227.161 86.6347 226.149 86.604C225.137 86.5733 224.064 86.558 222.929 86.558C222.07 86.558 221.227 86.5733 220.399 86.604C219.571 86.6347 218.85 86.65 218.237 86.65ZM229.047 74.598C227.882 74.598 226.854 74.4753 225.965 74.23C225.106 73.9847 224.11 73.5247 222.975 72.85L223.987 70.228C224.754 71.1787 225.597 71.976 226.517 72.62C227.468 73.264 228.725 73.586 230.289 73.586C231.822 73.586 233.08 72.9113 234.061 71.562C235.073 70.182 235.579 68.1733 235.579 65.536C235.579 62.9293 234.996 60.9667 233.831 59.648C232.666 58.2987 231.27 57.624 229.645 57.624C228.357 57.624 227.222 57.9767 226.241 58.682C225.29 59.3873 224.37 60.246 223.481 61.258L223.021 60.844C224.585 59.0347 226.088 57.716 227.529 56.888C228.97 56.06 230.427 55.646 231.899 55.646C233.187 55.646 234.368 55.9833 235.441 56.658C236.514 57.302 237.388 58.2527 238.063 59.51C238.738 60.7673 239.075 62.3007 239.075 64.11C239.075 66.0113 238.753 67.6367 238.109 68.986C237.465 70.3047 236.637 71.378 235.625 72.206C234.613 73.034 233.524 73.632 232.359 74C231.224 74.3987 230.12 74.598 229.047 74.598ZM245.97 74C245.908 74 245.878 73.908 245.878 73.724C245.878 73.54 245.908 73.448 245.97 73.448C247.196 73.448 247.978 73.2487 248.316 72.85C248.653 72.4513 248.822 71.5927 248.822 70.274V60.062C248.822 58.866 248.699 58.0687 248.454 57.67C248.208 57.2407 247.672 57.026 246.844 57.026C245.74 57.026 244.835 57.394 244.13 58.13C243.455 58.866 242.964 60.2307 242.658 62.224C242.658 62.316 242.566 62.362 242.382 62.362C242.198 62.362 242.106 62.316 242.106 62.224C242.106 61.7947 242.106 61.1507 242.106 60.292C242.106 59.4333 242.09 58.544 242.06 57.624C242.06 56.704 242.06 55.9527 242.06 55.37C242.06 55.2167 242.152 55.14 242.336 55.14C242.52 55.14 242.612 55.2167 242.612 55.37C242.612 55.7993 243.286 56.06 244.636 56.152C246.016 56.244 247.948 56.29 250.432 56.29C252.026 56.29 253.391 56.2747 254.526 56.244C255.66 56.2133 256.534 56.1367 257.148 56.014C257.761 55.8607 258.068 55.646 258.068 55.37C258.068 55.2167 258.16 55.14 258.344 55.14C258.528 55.14 258.62 55.2167 258.62 55.37C258.62 55.9527 258.62 56.704 258.62 57.624C258.62 58.544 258.604 59.4333 258.574 60.292C258.574 61.1507 258.574 61.7947 258.574 62.224C258.574 62.316 258.482 62.362 258.298 62.362C258.144 62.362 258.052 62.316 258.022 62.224C257.776 60.2307 257.286 58.866 256.55 58.13C255.814 57.394 254.894 57.026 253.79 57.026C252.992 57.026 252.486 57.2407 252.272 57.67C252.057 58.0687 251.95 58.866 251.95 60.062V70.274C251.95 71.5927 252.103 72.4513 252.41 72.85C252.747 73.2487 253.514 73.448 254.71 73.448C254.802 73.448 254.848 73.54 254.848 73.724C254.848 73.908 254.802 74 254.71 74C254.096 74 253.422 73.9847 252.686 73.954C251.95 73.9233 251.198 73.908 250.432 73.908C249.634 73.908 248.852 73.9233 248.086 73.954C247.319 73.9847 246.614 74 245.97 74ZM261.283 74C261.191 74 261.145 73.908 261.145 73.724C261.145 73.54 261.191 73.448 261.283 73.448C262.479 73.448 263.246 73.2487 263.583 72.85C263.92 72.4513 264.089 71.5927 264.089 70.274V59.97C264.089 58.6207 263.92 57.762 263.583 57.394C263.246 56.9953 262.494 56.796 261.329 56.796C261.237 56.796 261.191 56.704 261.191 56.52C261.191 56.336 261.237 56.244 261.329 56.244C261.912 56.244 262.586 56.2593 263.353 56.29C264.12 56.3207 264.902 56.336 265.699 56.336C266.588 56.336 267.447 56.3207 268.275 56.29C269.134 56.2593 269.87 56.244 270.483 56.244C270.575 56.244 270.621 56.336 270.621 56.52C270.621 56.704 270.575 56.796 270.483 56.796C269.103 56.796 268.198 57.0107 267.769 57.44C267.37 57.8387 267.171 58.7127 267.171 60.062V70.274C267.171 71.5927 267.34 72.4513 267.677 72.85C268.014 73.2487 268.781 73.448 269.977 73.448C270.038 73.448 270.069 73.54 270.069 73.724C270.069 73.908 270.038 74 269.977 74C269.364 74 268.689 73.9847 267.953 73.954C267.217 73.9233 266.466 73.908 265.699 73.908C264.902 73.908 264.12 73.9233 263.353 73.954C262.586 73.9847 261.896 74 261.283 74ZM276.233 74C276.11 74 275.988 73.9847 275.865 73.954C275.742 73.8927 275.589 73.7393 275.405 73.494C275.221 73.218 274.945 72.7887 274.577 72.206C274.209 71.5927 273.703 70.7187 273.059 69.584C272.323 68.3573 271.694 67.4373 271.173 66.824C270.652 66.18 270.13 65.7507 269.609 65.536C269.118 65.2907 268.49 65.168 267.723 65.168C267.202 65.168 266.558 65.214 265.791 65.306L265.745 64.478C266.236 64.4473 266.742 64.432 267.263 64.432C267.815 64.4013 268.321 64.3707 268.781 64.34C269.241 64.3093 269.594 64.294 269.839 64.294C271.004 64.294 271.909 64.4167 272.553 64.662C273.197 64.8767 273.78 65.2907 274.301 65.904C274.822 66.5173 275.482 67.4373 276.279 68.664C276.954 69.7067 277.506 70.5807 277.935 71.286C278.364 71.9607 278.84 72.482 279.361 72.85C279.882 73.218 280.572 73.4173 281.431 73.448C281.523 73.448 281.569 73.54 281.569 73.724C281.569 73.908 281.523 74 281.431 74H276.233ZM269.839 65.122V64.294C270.146 64.294 270.437 64.1713 270.713 63.926C270.989 63.6807 271.234 63.3893 271.449 63.052C271.694 62.684 271.909 62.3313 272.093 61.994C272.829 60.5527 273.473 59.3873 274.025 58.498C274.577 57.578 275.129 56.9033 275.681 56.474C276.264 56.0447 276.908 55.83 277.613 55.83C278.41 55.83 278.993 56.014 279.361 56.382C279.729 56.7193 279.913 57.1333 279.913 57.624C279.913 58.1453 279.729 58.6053 279.361 59.004C279.024 59.372 278.533 59.556 277.889 59.556C277.552 59.556 277.276 59.4947 277.061 59.372C276.846 59.2493 276.647 59.142 276.463 59.05C276.279 58.958 276.034 58.912 275.727 58.912C275.451 58.912 275.144 59.0653 274.807 59.372C274.5 59.6787 274.178 60.0927 273.841 60.614C273.534 61.1047 273.212 61.6567 272.875 62.27C272.415 63.1593 271.94 63.8647 271.449 64.386C270.958 64.8767 270.422 65.122 269.839 65.122ZM295.96 74.276C295.837 74.3373 295.699 74.368 295.546 74.368C295.086 74.368 294.641 74.0307 294.212 73.356C293.813 72.6507 293.614 71.654 293.614 70.366V62.27C293.614 60.9207 293.491 59.8473 293.246 59.05C293.031 58.2527 292.709 57.6853 292.28 57.348C291.881 56.98 291.406 56.796 290.854 56.796C290.179 56.796 289.612 56.9647 289.152 57.302C288.692 57.6393 288.339 58.0993 288.094 58.682C287.879 59.234 287.726 59.8473 287.634 60.522C287.572 61.1047 287.388 61.5953 287.082 61.994C286.806 62.362 286.315 62.546 285.61 62.546C285.058 62.546 284.628 62.408 284.322 62.132C284.015 61.856 283.862 61.4727 283.862 60.982C283.862 60.3993 284.153 59.8167 284.736 59.234C285.318 58.6207 286.054 58.0533 286.944 57.532C287.833 57.0107 288.753 56.5967 289.704 56.29C290.685 55.9833 291.59 55.83 292.418 55.83C293.644 55.83 294.672 56.244 295.5 57.072C296.328 57.8693 296.742 59.142 296.742 60.89V69.032C296.742 70.044 296.88 70.7953 297.156 71.286C297.432 71.7767 297.876 72.022 298.49 72.022C299.011 72.022 299.686 71.8533 300.514 71.516C300.636 71.4547 300.728 71.516 300.79 71.7C300.882 71.8533 300.851 71.9607 300.698 72.022L295.96 74.276ZM286.714 74.322C285.732 74.322 284.981 74.0613 284.46 73.54C283.938 73.0187 283.678 72.3593 283.678 71.562C283.678 70.6113 284.046 69.8907 284.782 69.4C285.518 68.9093 286.698 68.388 288.324 67.836L294.074 65.858L294.212 66.41L289.52 68.204C288.784 68.48 288.262 68.7867 287.956 69.124C287.649 69.4613 287.496 69.8907 287.496 70.412C287.496 71.056 287.68 71.562 288.048 71.93C288.416 72.298 288.891 72.482 289.474 72.482C289.78 72.482 290.102 72.436 290.44 72.344C290.777 72.252 291.13 72.1293 291.498 71.976L294.994 70.136L295.04 70.78L291.084 72.942C290.194 73.402 289.397 73.7547 288.692 74C288.017 74.2147 287.358 74.322 286.714 74.322Z" fill="black"/>
<path d="M135.599 266.032L150.784 279.885C150.315 280.35 149.773 280.891 149.176 281.494C147.074 283.617 144.264 286.531 141.449 289.682C138.643 292.823 135.787 296.249 133.618 299.39C132.534 300.959 131.586 302.508 130.899 303.952C130.267 305.284 129.75 306.742 129.706 308.15C129.431 310.251 129.831 312.64 130.249 314.836C130.341 315.316 130.436 315.797 130.53 316.278C130.91 318.207 131.294 320.152 131.498 322.193C131.993 327.146 131.376 332.17 126.786 336.76C120.466 343.08 110.109 343.08 103.789 336.76C99.4911 332.462 98.0445 325.812 99.7615 320.375L101.209 315.791L96.6247 317.239C91.1878 318.955 84.5377 317.509 80.2403 313.211C73.9199 306.891 73.9199 296.534 80.2403 290.214C84.8458 285.608 89.8872 284.924 94.826 285.38C97.0191 285.582 99.1206 286.003 101.188 286.416C101.509 286.481 101.829 286.545 102.148 286.608C104.39 287.05 106.812 287.494 108.903 287.285L108.984 287.277L109.065 287.263C110.289 287.06 111.599 286.416 112.795 285.709C114.053 284.965 115.445 283.991 116.885 282.895C119.768 280.7 123.001 277.898 126.008 275.163C129.022 272.421 131.843 269.714 133.908 267.696C134.55 267.069 135.119 266.508 135.599 266.032ZM215.263 181.065L215.277 180.984L215.285 180.903C215.494 178.812 215.05 176.39 214.608 174.148C214.545 173.829 214.481 173.509 214.416 173.188C214.003 171.121 213.582 169.019 213.38 166.826C212.924 161.887 213.608 156.846 218.214 152.24C224.534 145.92 234.891 145.92 241.211 152.24C245.509 156.538 246.955 163.188 245.239 168.625L243.791 173.209L248.375 171.761C253.812 170.045 260.462 171.491 264.76 175.789C271.08 182.109 271.08 192.466 264.76 198.786C260.17 203.376 255.146 203.993 250.193 203.498C248.152 203.294 246.207 202.91 244.278 202.53C243.797 202.436 243.316 202.341 242.836 202.249C240.64 201.831 238.251 201.431 236.15 201.706C234.742 201.75 233.284 202.267 231.952 202.899C230.508 203.586 228.959 204.534 227.39 205.618C224.249 207.787 220.823 210.643 217.682 213.449C214.531 216.264 211.617 219.074 209.494 221.176C208.891 221.773 208.35 222.315 207.885 222.784L194.032 207.599C194.508 207.119 195.069 206.55 195.696 205.908C197.714 203.843 200.421 201.022 203.163 198.008C205.898 195.001 208.7 191.768 210.895 188.885C211.991 187.445 212.965 186.053 213.709 184.795C214.416 183.599 215.06 182.289 215.263 181.065Z" fill="white" stroke="#522D0B" stroke-width="5"/>
<path d="M104.449 244.596L104.455 244.574L104.46 244.552C104.525 244.261 104.748 243.682 105.259 242.766C105.751 241.885 106.438 240.819 107.314 239.582C109.064 237.111 111.483 234.08 114.394 230.676C120.212 223.873 127.886 215.703 135.836 207.752C143.786 199.802 151.978 192.107 158.823 186.248C162.248 183.316 165.306 180.869 167.811 179.087C170.421 177.229 172.123 176.32 172.935 176.115C174.191 175.81 176.282 176.057 179.299 177.264C182.235 178.439 185.696 180.379 189.495 182.939C197.082 188.053 205.737 195.453 213.808 203.524C221.878 211.594 229.278 220.249 234.392 227.836C236.952 231.635 238.892 235.096 240.067 238.032C241.276 241.054 241.522 243.147 241.214 244.402L241.209 244.424L241.204 244.446C241.139 244.735 240.917 245.312 240.403 246.229C239.909 247.11 239.219 248.175 238.34 249.412C236.581 251.883 234.15 254.914 231.226 258.319C225.383 265.122 217.677 273.293 209.706 281.244C201.734 289.195 193.531 296.892 186.699 302.753C183.28 305.686 180.234 308.134 177.749 309.918C176.506 310.811 175.432 311.517 174.541 312.029C173.63 312.553 173.037 312.801 172.718 312.886C171.461 313.187 169.374 312.938 166.365 311.734C163.428 310.559 159.967 308.62 156.169 306.06C148.581 300.946 139.926 293.545 131.856 285.475C123.786 277.405 116.386 268.75 111.272 261.162C108.711 257.364 106.772 253.903 105.597 250.966C104.388 247.944 104.142 245.852 104.449 244.596Z" fill="#CA7D45" stroke="#522D0B" stroke-width="5"/>
<path d="M211.005 244.651L146.314 197.275L147.997 195.591L211.005 244.651ZM190.81 300.07L150.01 259.269L192.015 299.166L190.81 300.07Z" fill="#F9F089" stroke="#522D0B" stroke-width="5"/>
<path d="M127.493 232.349L200.576 290.76L195.056 297.098L127.493 232.349ZM213.505 251.272L139.128 202.47L143.376 198.222L213.505 251.272Z" fill="#CA7D45" stroke="#522D0B" stroke-width="5"/>
<path d="M56.8325 231.446C57.0347 227.605 57.3064 221.113 60.2946 218.374C63.107 215.796 68.7503 217.512 72.3633 216.756C79.0042 215.366 73.9942 208.014 75.7283 203.555C77.1088 200.005 81.6697 200.534 84.7879 200.578C87.3918 200.615 91.6647 203.02 93.8151 200.869C99.2583 195.426 92.8966 185.789 97.6007 179.741C102.195 173.835 117.259 180.553 119.473 171.329C120.216 168.233 118.027 164.449 119.473 161.557C121.033 158.439 125.126 158.645 128.242 158.645C133.008 158.645 140.453 160.15 144.775 157.804C148.826 155.605 147.687 146.898 147.687 143.373C147.687 140.382 148.988 135.155 152.864 135.349C157.315 135.572 161.724 137.972 165.807 139.62C170.248 141.413 167.733 139.866 172 142" stroke="#FF9A9C" stroke-width="5" stroke-linecap="round"/>
<path d="M290.48 248C290.698 251.84 291.136 258.323 288.465 261.372C285.95 264.241 280.154 263.151 276.645 264.297C270.195 266.403 275.977 273.165 274.74 277.786C273.755 281.466 269.164 281.437 266.06 281.734C263.467 281.982 258.957 280.057 257.054 282.429C252.238 288.434 259.613 297.319 255.597 303.845C251.675 310.217 235.967 305.183 234.773 314.594C234.372 317.752 236.961 321.274 235.839 324.307C234.629 327.577 230.538 327.818 227.441 328.158C222.703 328.678 215.138 327.994 211.098 330.798C207.311 333.426 209.393 341.957 209.778 345.461C210.104 348.434 209.381 353.772 205.507 354.002C201.059 354.266 196.414 352.361 192.176 351.169C187.565 349.871 190.235 351.134 185.76 349.479" stroke="#FF9A9C" stroke-width="5" stroke-linecap="round"/>
<path d="M62.6568 186.019C62.6568 181.8 62.5977 177.567 65.31 174.08C67.6156 171.115 73.1453 173.359 76.0521 173.206C79.5533 173.022 80.1289 169.907 80.1289 167.091C80.1289 160.978 81.2152 157.96 87.4413 156.446C89.9471 155.836 93.6086 157.397 95.5626 155.443C97.5396 153.466 97.3455 148.898 98.3129 146.286C101.677 137.202 115.068 147.014 117.985 138.262" stroke="#FF9A9C" stroke-width="5" stroke-linecap="round"/>
<path d="M289.647 293.792C290.107 297.985 290.628 302.187 288.313 305.949C286.344 309.147 280.603 307.521 277.73 307.99C274.27 308.555 274.037 311.714 274.345 314.513C275.012 320.59 274.261 323.708 268.238 325.893C265.813 326.772 262.003 325.62 260.274 327.776C258.525 329.957 259.216 334.476 258.54 337.178C256.187 346.575 241.805 338.282 239.86 347.301" stroke="#FF9A9C" stroke-width="5" stroke-linecap="round"/>
</svg>
