<svg width="345" height="416" viewBox="0 0 345 416" fill="none" xmlns="http://www.w3.org/2000/svg">
<rect x="2.5" y="2.5" width="340" height="411" rx="22.5" fill="#FFC4D6" stroke="#522D0B" stroke-width="5"/>
<path d="M33.182 44.744C34.5313 44.744 35.9573 44.882 37.46 45.158C38.9933 45.4033 40.22 45.756 41.14 46.216C41.3853 46.3693 41.554 46.5073 41.646 46.63C41.738 46.7527 41.7993 46.9827 41.83 47.32L42.336 52.84C42.336 52.932 42.2593 52.9933 42.106 53.024C41.9527 53.0547 41.8607 53.0087 41.83 52.886C41.0327 50.4633 39.714 48.6847 37.874 47.55C36.0647 46.3847 33.9027 45.802 31.388 45.802C29.1187 45.802 27.156 46.3233 25.5 47.366C23.8747 48.378 22.6173 49.8193 21.728 51.69C20.8693 53.53 20.44 55.692 20.44 58.176C20.44 60.3227 20.7467 62.3467 21.36 64.248C22.004 66.1493 22.8933 67.8207 24.028 69.262C25.1627 70.6727 26.466 71.792 27.938 72.62C29.4407 73.4173 31.0507 73.816 32.768 73.816C34.8533 73.816 36.7087 73.2027 38.334 71.976C39.9593 70.7493 41.2627 68.848 42.244 66.272C42.2747 66.1493 42.3667 66.1033 42.52 66.134C42.704 66.1647 42.796 66.226 42.796 66.318L42.152 71.838C42.0907 72.206 42.014 72.4513 41.922 72.574C41.8607 72.666 41.692 72.7733 41.416 72.896C39.944 73.4787 38.4873 73.8927 37.046 74.138C35.6047 74.414 34.1787 74.552 32.768 74.552C29.824 74.552 27.294 74.1073 25.178 73.218C23.0927 72.298 21.3907 71.102 20.072 69.63C18.7533 68.1273 17.7873 66.4867 17.174 64.708C16.5607 62.9293 16.254 61.166 16.254 59.418C16.254 57.1793 16.714 55.1707 17.634 53.392C18.554 51.6133 19.8113 50.08 21.406 48.792C23.0007 47.504 24.81 46.5073 26.834 45.802C28.858 45.0967 30.974 44.744 33.182 44.744ZM55.4895 74.598C53.6188 74.598 51.9935 74.1533 50.6135 73.264C49.2642 72.3747 48.2215 71.194 47.4855 69.722C46.7495 68.2193 46.3815 66.6093 46.3815 64.892C46.3815 63.2973 46.6728 61.9173 47.2555 60.752C47.8688 59.5867 48.6662 58.636 49.6475 57.9C50.6288 57.1333 51.7022 56.566 52.8675 56.198C54.0328 55.83 55.1828 55.646 56.3175 55.646C58.2188 55.646 59.8442 56.106 61.1935 57.026C62.5428 57.946 63.5702 59.1267 64.2755 60.568C65.0115 62.0093 65.3795 63.5273 65.3795 65.122C65.3795 67.054 64.9195 68.7407 63.9995 70.182C63.0795 71.5927 61.8682 72.6813 60.3655 73.448C58.8935 74.2147 57.2682 74.598 55.4895 74.598ZM56.8235 73.724C58.3262 73.724 59.4915 73.1413 60.3195 71.976C61.1782 70.78 61.6075 68.9707 61.6075 66.548C61.6075 64.4933 61.3008 62.73 60.6875 61.258C60.0742 59.7553 59.2462 58.6053 58.2035 57.808C57.1915 56.98 56.0415 56.566 54.7535 56.566C53.2508 56.566 52.0855 57.1487 51.2575 58.314C50.4602 59.4487 50.0615 61.1353 50.0615 63.374C50.0615 65.306 50.3528 67.0693 50.9355 68.664C51.5182 70.228 52.3155 71.47 53.3275 72.39C54.3395 73.2793 55.5048 73.724 56.8235 73.724ZM69.5389 74.368C68.0976 74.368 67.3769 73.8007 67.3769 72.666C67.3769 72.0833 67.5456 71.654 67.8829 71.378C68.2202 71.102 68.5882 70.964 68.9869 70.964C69.2322 70.964 69.4622 70.9947 69.6769 71.056C69.9222 71.1173 70.1522 71.148 70.3669 71.148C71.1642 71.148 71.8389 70.7647 72.3909 69.998C72.9736 69.2007 73.4489 68.1887 73.8169 66.962C74.2156 65.7353 74.5069 64.4473 74.6909 63.098C74.8749 61.718 74.9669 60.4453 74.9669 59.28C74.9669 58.2373 74.7369 57.5627 74.2769 57.256C73.8169 56.9493 72.9429 56.7807 71.6549 56.75C71.5629 56.75 71.5169 56.658 71.5169 56.474C71.5169 56.29 71.5629 56.198 71.6549 56.198C71.9309 56.198 72.4216 56.2133 73.1269 56.244C73.8322 56.244 74.5989 56.244 75.4269 56.244C76.2856 56.244 77.0522 56.244 77.7269 56.244C78.4322 56.244 78.8769 56.244 79.0609 56.244H87.0649C87.1569 56.244 87.2029 56.336 87.2029 56.52C87.2029 56.704 87.1569 56.796 87.0649 56.796C86.2982 56.8267 85.7156 56.9187 85.3169 57.072C84.9182 57.1947 84.6422 57.486 84.4889 57.946C84.3356 58.3753 84.2589 59.0807 84.2589 60.062V70.274C84.2589 71.2247 84.3356 71.93 84.4889 72.39C84.6422 72.8193 84.9182 73.0953 85.3169 73.218C85.7156 73.3407 86.2982 73.4173 87.0649 73.448C87.1569 73.448 87.2029 73.54 87.2029 73.724C87.2029 73.908 87.1569 74 87.0649 74C86.4516 74 85.7769 73.9847 85.0409 73.954C84.3049 73.9233 83.5536 73.908 82.7869 73.908C81.9896 73.908 81.1922 73.9233 80.3949 73.954C79.6282 73.9847 78.9536 74 78.3709 74C78.2789 74 78.2329 73.908 78.2329 73.724C78.2329 73.54 78.2789 73.448 78.3709 73.448C79.1682 73.4173 79.7662 73.3407 80.1649 73.218C80.5636 73.0953 80.8242 72.8193 80.9469 72.39C81.1002 71.93 81.1769 71.2247 81.1769 70.274V59.97C81.1769 59.0193 81.1462 58.36 81.0849 57.992C81.0542 57.5933 80.9009 57.348 80.6249 57.256C80.3489 57.164 79.8889 57.118 79.2449 57.118H78.8309C78.0949 57.118 77.5429 57.1947 77.1749 57.348C76.8376 57.4707 76.6076 57.7313 76.4849 58.13C76.3622 58.498 76.2549 59.096 76.1629 59.924C76.0402 60.9667 75.9022 62.132 75.7489 63.42C75.5956 64.708 75.3809 65.996 75.1049 67.284C74.8289 68.572 74.4609 69.7527 74.0009 70.826C73.5409 71.8687 72.9429 72.7273 72.2069 73.402C71.4709 74.046 70.5816 74.368 69.5389 74.368ZM94.2754 65.582V64.662H106.649V65.582H94.2754ZM92.8034 70.274V59.97C92.8034 58.6207 92.6347 57.762 92.2974 57.394C91.9601 56.9953 91.2087 56.796 90.0434 56.796C89.9514 56.796 89.9054 56.704 89.9054 56.52C89.9054 56.336 89.9514 56.244 90.0434 56.244C90.6261 56.244 91.3007 56.2593 92.0674 56.29C92.8341 56.3207 93.6161 56.336 94.4134 56.336C95.1801 56.336 95.9314 56.3207 96.6674 56.29C97.4341 56.2593 98.1087 56.244 98.6914 56.244C98.7527 56.244 98.7834 56.336 98.7834 56.52C98.7834 56.704 98.7527 56.796 98.6914 56.796C97.4954 56.796 96.7287 57.0107 96.3914 57.44C96.0847 57.8693 95.9314 58.7433 95.9314 60.062V70.274C95.9314 71.5927 96.0847 72.4513 96.3914 72.85C96.7287 73.2487 97.4954 73.448 98.6914 73.448C98.7527 73.448 98.7834 73.54 98.7834 73.724C98.7834 73.908 98.7527 74 98.6914 74C98.0781 74 97.4034 73.9847 96.6674 73.954C95.9314 73.9233 95.1801 73.908 94.4134 73.908C93.6161 73.908 92.8341 73.9233 92.0674 73.954C91.3007 73.9847 90.6107 74 89.9974 74C89.9054 74 89.8594 73.908 89.8594 73.724C89.8594 73.54 89.9054 73.448 89.9974 73.448C91.1934 73.448 91.9601 73.2487 92.2974 72.85C92.6347 72.4513 92.8034 71.5927 92.8034 70.274ZM105.177 70.274V59.97C105.177 58.6207 105.009 57.762 104.671 57.394C104.334 56.9953 103.583 56.796 102.417 56.796C102.325 56.796 102.279 56.704 102.279 56.52C102.279 56.336 102.325 56.244 102.417 56.244C103 56.244 103.675 56.2593 104.441 56.29C105.208 56.3207 105.99 56.336 106.787 56.336C107.554 56.336 108.305 56.3207 109.041 56.29C109.808 56.2593 110.483 56.244 111.065 56.244C111.127 56.244 111.157 56.336 111.157 56.52C111.157 56.704 111.127 56.796 111.065 56.796C109.869 56.796 109.103 57.0107 108.765 57.44C108.459 57.8693 108.305 58.7433 108.305 60.062V70.274C108.305 71.5927 108.459 72.4513 108.765 72.85C109.103 73.2487 109.869 73.448 111.065 73.448C111.127 73.448 111.157 73.54 111.157 73.724C111.157 73.908 111.127 74 111.065 74C110.452 74 109.777 73.9847 109.041 73.954C108.305 73.9233 107.554 73.908 106.787 73.908C105.99 73.908 105.193 73.9233 104.395 73.954C103.629 73.9847 102.954 74 102.371 74C102.279 74 102.233 73.908 102.233 73.724C102.233 73.54 102.279 73.448 102.371 73.448C103.567 73.448 104.334 73.2487 104.671 72.85C105.009 72.4513 105.177 71.5927 105.177 70.274ZM123.001 74.552C121.099 74.552 119.474 74.138 118.125 73.31C116.806 72.4513 115.809 71.3473 115.135 69.998C114.491 68.6487 114.169 67.2227 114.169 65.72C114.169 63.8493 114.613 62.178 115.503 60.706C116.392 59.2033 117.588 58.0227 119.091 57.164C120.624 56.2747 122.341 55.83 124.243 55.83C125.991 55.83 127.325 56.244 128.245 57.072C129.195 57.8693 129.671 58.9733 129.671 60.384C129.671 60.7213 129.64 60.9973 129.579 61.212C129.517 61.4267 129.379 61.534 129.165 61.534H125.899C126.021 60.062 125.791 58.8967 125.209 58.038C124.626 57.1793 123.767 56.75 122.633 56.75C121.069 56.75 119.857 57.394 118.999 58.682C118.14 59.97 117.711 61.7027 117.711 63.88C117.711 65.5973 117.987 67.1307 118.539 68.48C119.091 69.7987 119.903 70.8413 120.977 71.608C122.05 72.344 123.338 72.712 124.841 72.712C125.638 72.712 126.451 72.6047 127.279 72.39C128.107 72.1447 128.873 71.7767 129.579 71.286C129.64 71.2247 129.717 71.2707 129.809 71.424C129.931 71.5467 129.962 71.654 129.901 71.746C128.797 72.758 127.677 73.4787 126.543 73.908C125.408 74.3373 124.227 74.552 123.001 74.552ZM116.653 61.626L116.607 60.936L126.957 60.706V61.534L116.653 61.626ZM144.029 70.274V59.97C144.029 58.6207 143.906 57.762 143.661 57.394C143.415 56.9953 142.833 56.796 141.913 56.796C141.851 56.796 141.821 56.704 141.821 56.52C141.821 56.336 141.851 56.244 141.913 56.244C142.403 56.244 142.986 56.2593 143.661 56.29C144.335 56.3207 144.995 56.336 145.639 56.336C146.405 56.336 147.157 56.3207 147.893 56.29C148.659 56.2593 149.334 56.244 149.917 56.244C150.009 56.244 150.055 56.336 150.055 56.52C150.055 56.704 150.009 56.796 149.917 56.796C148.721 56.796 147.954 57.0107 147.617 57.44C147.31 57.8693 147.157 58.7433 147.157 60.062V70.274C147.157 71.5927 147.31 72.4513 147.617 72.85C147.954 73.2487 148.721 73.448 149.917 73.448C150.009 73.448 150.055 73.54 150.055 73.724C150.055 73.908 150.009 74 149.917 74C149.303 74 148.629 73.9847 147.893 73.954C147.157 73.9233 146.405 73.908 145.639 73.908C144.841 73.908 144.044 73.9233 143.247 73.954C142.48 73.9847 141.79 74 141.177 74C141.115 74 141.085 73.908 141.085 73.724C141.085 73.54 141.115 73.448 141.177 73.448C142.373 73.448 143.139 73.2487 143.477 72.85C143.845 72.4513 144.029 71.5927 144.029 70.274ZM136.485 60.062C136.485 60.338 136.485 60.614 136.485 60.89C136.485 61.1353 136.485 61.3653 136.485 61.58C136.485 62.8987 136.776 63.8953 137.359 64.57C137.972 65.214 138.907 65.536 140.165 65.536C141.023 65.536 141.851 65.4287 142.649 65.214C143.477 64.9993 144.213 64.6927 144.857 64.294L144.995 64.662C143.829 65.674 142.664 66.3793 141.499 66.778C140.333 67.1767 139.291 67.376 138.371 67.376C136.776 67.376 135.549 66.9313 134.691 66.042C133.863 65.1527 133.449 63.8647 133.449 62.178V59.97C133.449 58.6207 133.341 57.762 133.127 57.394C132.943 56.9953 132.483 56.796 131.747 56.796C131.685 56.796 131.655 56.704 131.655 56.52C131.655 56.336 131.685 56.244 131.747 56.244C132.237 56.244 132.759 56.2593 133.311 56.29C133.863 56.3207 134.445 56.336 135.059 56.336C135.703 56.336 136.347 56.3207 136.991 56.29C137.635 56.2593 138.202 56.244 138.693 56.244C138.754 56.244 138.785 56.336 138.785 56.52C138.785 56.704 138.754 56.796 138.693 56.796C137.773 56.796 137.175 57.0107 136.899 57.44C136.623 57.8693 136.485 58.7433 136.485 60.062ZM157.121 65.582V64.662H169.495V65.582H157.121ZM155.649 70.274V59.97C155.649 58.6207 155.48 57.762 155.143 57.394C154.806 56.9953 154.054 56.796 152.889 56.796C152.797 56.796 152.751 56.704 152.751 56.52C152.751 56.336 152.797 56.244 152.889 56.244C153.472 56.244 154.146 56.2593 154.913 56.29C155.68 56.3207 156.462 56.336 157.259 56.336C158.026 56.336 158.777 56.3207 159.513 56.29C160.28 56.2593 160.954 56.244 161.537 56.244C161.598 56.244 161.629 56.336 161.629 56.52C161.629 56.704 161.598 56.796 161.537 56.796C160.341 56.796 159.574 57.0107 159.237 57.44C158.93 57.8693 158.777 58.7433 158.777 60.062V70.274C158.777 71.5927 158.93 72.4513 159.237 72.85C159.574 73.2487 160.341 73.448 161.537 73.448C161.598 73.448 161.629 73.54 161.629 73.724C161.629 73.908 161.598 74 161.537 74C160.924 74 160.249 73.9847 159.513 73.954C158.777 73.9233 158.026 73.908 157.259 73.908C156.462 73.908 155.68 73.9233 154.913 73.954C154.146 73.9847 153.456 74 152.843 74C152.751 74 152.705 73.908 152.705 73.724C152.705 73.54 152.751 73.448 152.843 73.448C154.039 73.448 154.806 73.2487 155.143 72.85C155.48 72.4513 155.649 71.5927 155.649 70.274ZM168.023 70.274V59.97C168.023 58.6207 167.854 57.762 167.517 57.394C167.18 56.9953 166.428 56.796 165.263 56.796C165.171 56.796 165.125 56.704 165.125 56.52C165.125 56.336 165.171 56.244 165.263 56.244C165.846 56.244 166.52 56.2593 167.287 56.29C168.054 56.3207 168.836 56.336 169.633 56.336C170.4 56.336 171.151 56.3207 171.887 56.29C172.654 56.2593 173.328 56.244 173.911 56.244C173.972 56.244 174.003 56.336 174.003 56.52C174.003 56.704 173.972 56.796 173.911 56.796C172.715 56.796 171.948 57.0107 171.611 57.44C171.304 57.8693 171.151 58.7433 171.151 60.062V70.274C171.151 71.5927 171.304 72.4513 171.611 72.85C171.948 73.2487 172.715 73.448 173.911 73.448C173.972 73.448 174.003 73.54 174.003 73.724C174.003 73.908 173.972 74 173.911 74C173.298 74 172.623 73.9847 171.887 73.954C171.151 73.9233 170.4 73.908 169.633 73.908C168.836 73.908 168.038 73.9233 167.241 73.954C166.474 73.9847 165.8 74 165.217 74C165.125 74 165.079 73.908 165.079 73.724C165.079 73.54 165.125 73.448 165.217 73.448C166.413 73.448 167.18 73.2487 167.517 72.85C167.854 72.4513 168.023 71.5927 168.023 70.274ZM195.184 74C195.092 74 195.046 73.908 195.046 73.724C195.046 73.54 195.092 73.448 195.184 73.448C196.38 73.448 197.147 73.2487 197.484 72.85C197.822 72.4513 197.99 71.5927 197.99 70.274V59.97C197.99 58.6207 197.822 57.762 197.484 57.394C197.147 56.9953 196.396 56.796 195.23 56.796C195.138 56.796 195.092 56.704 195.092 56.52C195.092 56.336 195.138 56.244 195.23 56.244C195.813 56.244 196.488 56.2593 197.254 56.29C198.021 56.3207 198.803 56.336 199.6 56.336C200.367 56.336 201.118 56.3207 201.854 56.29C202.621 56.2593 203.296 56.244 203.878 56.244C203.94 56.244 203.97 56.336 203.97 56.52C203.97 56.704 203.94 56.796 203.878 56.796C202.682 56.796 201.916 57.0107 201.578 57.44C201.272 57.8693 201.118 58.7433 201.118 60.062V70.274C201.118 71.5927 201.272 72.4513 201.578 72.85C201.916 73.2487 202.682 73.448 203.878 73.448C203.94 73.448 203.97 73.54 203.97 73.724C203.97 73.908 203.94 74 203.878 74C203.265 74 202.59 73.9847 201.854 73.954C201.118 73.9233 200.367 73.908 199.6 73.908C198.803 73.908 198.021 73.9233 197.254 73.954C196.488 73.9847 195.798 74 195.184 74ZM182.81 60.062V70.274C182.81 71.3473 183.025 72.1447 183.454 72.666C183.884 73.1567 184.773 73.402 186.122 73.402C187.533 73.402 188.56 73.0647 189.204 72.39C189.848 71.6847 190.17 70.6727 190.17 69.354C190.17 67.9127 189.818 66.732 189.112 65.812C188.438 64.892 187.272 64.432 185.616 64.432C184.972 64.432 184.328 64.4933 183.684 64.616C183.071 64.7387 182.412 64.9687 181.706 65.306L181.43 64.616C182.412 64.1867 183.393 63.9107 184.374 63.788C185.386 63.6347 186.337 63.558 187.226 63.558C191.489 63.558 193.62 65.1527 193.62 68.342C193.62 70.0287 192.992 71.4087 191.734 72.482C190.508 73.5553 188.944 74.092 187.042 74.092C186.552 74.092 185.969 74.0767 185.294 74.046C184.62 74.0153 183.93 73.9847 183.224 73.954C182.519 73.9233 181.875 73.908 181.292 73.908C180.495 73.908 179.713 73.9233 178.946 73.954C178.18 73.9847 177.49 74 176.876 74C176.784 74 176.738 73.908 176.738 73.724C176.738 73.54 176.784 73.448 176.876 73.448C178.072 73.448 178.839 73.2487 179.176 72.85C179.514 72.4513 179.682 71.5927 179.682 70.274V59.97C179.682 58.6207 179.514 57.762 179.176 57.394C178.839 56.9953 178.088 56.796 176.922 56.796C176.83 56.796 176.784 56.704 176.784 56.52C176.784 56.336 176.83 56.244 176.922 56.244C177.505 56.244 178.18 56.2593 178.946 56.29C179.713 56.3207 180.495 56.336 181.292 56.336C182.182 56.336 183.04 56.3207 183.868 56.29C184.696 56.2593 185.448 56.244 186.122 56.244C186.184 56.244 186.214 56.336 186.214 56.52C186.214 56.704 186.184 56.796 186.122 56.796C184.712 56.796 183.807 57.0107 183.408 57.44C183.01 57.8693 182.81 58.7433 182.81 60.062ZM211.209 71.976L210.519 71.286L223.031 58.774L223.721 59.464L211.209 71.976ZM209.645 70.274V59.97C209.645 58.6207 209.477 57.762 209.139 57.394C208.802 56.9953 208.051 56.796 206.885 56.796C206.793 56.796 206.747 56.704 206.747 56.52C206.747 56.336 206.793 56.244 206.885 56.244C207.468 56.244 208.143 56.2593 208.909 56.29C209.676 56.3207 210.458 56.336 211.255 56.336C212.022 56.336 212.773 56.3207 213.509 56.29C214.276 56.2593 214.951 56.244 215.533 56.244C215.595 56.244 215.625 56.336 215.625 56.52C215.625 56.704 215.595 56.796 215.533 56.796C214.337 56.796 213.571 57.0107 213.233 57.44C212.927 57.8693 212.773 58.7433 212.773 60.062V70.274C212.773 71.5927 212.927 72.4513 213.233 72.85C213.571 73.2487 214.337 73.448 215.533 73.448C215.595 73.448 215.625 73.54 215.625 73.724C215.625 73.908 215.595 74 215.533 74C214.92 74 214.245 73.9847 213.509 73.954C212.773 73.9233 212.022 73.908 211.255 73.908C210.458 73.908 209.676 73.9233 208.909 73.954C208.143 73.9847 207.453 74 206.839 74C206.747 74 206.701 73.908 206.701 73.724C206.701 73.54 206.747 73.448 206.839 73.448C208.035 73.448 208.802 73.2487 209.139 72.85C209.477 72.4513 209.645 71.5927 209.645 70.274ZM222.019 70.274V59.97C222.019 58.6207 221.851 57.762 221.513 57.394C221.176 56.9953 220.425 56.796 219.259 56.796C219.167 56.796 219.121 56.704 219.121 56.52C219.121 56.336 219.167 56.244 219.259 56.244C219.842 56.244 220.517 56.2593 221.283 56.29C222.05 56.3207 222.832 56.336 223.629 56.336C224.396 56.336 225.147 56.3207 225.883 56.29C226.65 56.2593 227.325 56.244 227.907 56.244C227.969 56.244 227.999 56.336 227.999 56.52C227.999 56.704 227.969 56.796 227.907 56.796C226.711 56.796 225.945 57.0107 225.607 57.44C225.301 57.8693 225.147 58.7433 225.147 60.062V70.274C225.147 71.5927 225.301 72.4513 225.607 72.85C225.945 73.2487 226.711 73.448 227.907 73.448C227.969 73.448 227.999 73.54 227.999 73.724C227.999 73.908 227.969 74 227.907 74C227.294 74 226.619 73.9847 225.883 73.954C225.147 73.9233 224.396 73.908 223.629 73.908C222.832 73.908 222.035 73.9233 221.237 73.954C220.471 73.9847 219.796 74 219.213 74C219.121 74 219.075 73.908 219.075 73.724C219.075 73.54 219.121 73.448 219.213 73.448C220.409 73.448 221.176 73.2487 221.513 72.85C221.851 72.4513 222.019 71.5927 222.019 70.274ZM217.419 51.92C218.462 51.92 219.152 51.6287 219.489 51.046C219.857 50.4633 220.118 49.8347 220.271 49.16C220.425 48.5773 220.609 48.0407 220.823 47.55C221.038 47.0593 221.483 46.814 222.157 46.814C222.679 46.814 223.062 46.952 223.307 47.228C223.553 47.504 223.675 47.872 223.675 48.332C223.675 49.0987 223.384 49.804 222.801 50.448C222.219 51.092 221.452 51.6133 220.501 52.012C219.551 52.38 218.539 52.564 217.465 52.564C216.361 52.564 215.334 52.3647 214.383 51.966C213.433 51.5673 212.666 51.046 212.083 50.402C211.501 49.7273 211.209 49.022 211.209 48.286C211.209 47.826 211.332 47.4733 211.577 47.228C211.853 46.952 212.237 46.814 212.727 46.814C213.463 46.814 213.939 47.0593 214.153 47.55C214.399 48.01 214.598 48.5773 214.751 49.252C214.843 49.6507 214.951 50.0647 215.073 50.494C215.196 50.8927 215.441 51.23 215.809 51.506C216.177 51.782 216.714 51.92 217.419 51.92ZM249.336 46.17C247.434 46.17 245.947 46.7067 244.874 47.78C243.8 48.8227 243.003 50.5093 242.482 52.84C242.451 52.9013 242.344 52.932 242.16 52.932C242.006 52.932 241.93 52.886 241.93 52.794C241.991 52.3953 242.052 51.828 242.114 51.092C242.206 50.356 242.282 49.5587 242.344 48.7C242.405 47.8413 242.451 47.0133 242.482 46.216C242.543 45.4187 242.574 44.7593 242.574 44.238C242.574 44.0847 242.666 44.008 242.85 44.008C243.034 44.008 243.126 44.0847 243.126 44.238C243.126 44.5447 243.279 44.7747 243.586 44.928C243.892 45.0507 244.245 45.1427 244.644 45.204C245.042 45.2347 245.38 45.25 245.656 45.25C248.293 45.342 251.375 45.388 254.902 45.388C257.048 45.388 258.766 45.3727 260.054 45.342C261.342 45.2807 262.584 45.25 263.78 45.25C264.822 45.25 265.62 45.1887 266.172 45.066C266.754 44.9127 267.122 44.5907 267.276 44.1C267.306 43.9773 267.398 43.916 267.552 43.916C267.736 43.916 267.828 43.9773 267.828 44.1C267.766 44.56 267.705 45.204 267.644 46.032C267.613 46.86 267.567 47.7187 267.506 48.608C267.475 49.4973 267.444 50.3253 267.414 51.092C267.383 51.8587 267.368 52.426 267.368 52.794C267.368 52.886 267.276 52.932 267.092 52.932C266.938 52.932 266.862 52.886 266.862 52.794C266.647 50.402 266.034 48.7 265.022 47.688C264.01 46.676 262.507 46.17 260.514 46.17C259.44 46.17 258.628 46.2467 258.076 46.4C257.554 46.5227 257.202 46.7833 257.018 47.182C256.864 47.5807 256.788 48.2093 256.788 49.068V70.274C256.788 71.1633 256.88 71.838 257.064 72.298C257.278 72.758 257.677 73.0647 258.26 73.218C258.873 73.3713 259.808 73.448 261.066 73.448C261.127 73.448 261.158 73.54 261.158 73.724C261.158 73.908 261.127 74 261.066 74C260.238 74 259.302 73.9847 258.26 73.954C257.248 73.9233 256.128 73.908 254.902 73.908C253.736 73.908 252.632 73.9233 251.59 73.954C250.578 73.9847 249.642 74 248.784 74C248.692 74 248.646 73.908 248.646 73.724C248.646 73.54 248.692 73.448 248.784 73.448C249.98 73.448 250.884 73.3713 251.498 73.218C252.142 73.0647 252.571 72.758 252.786 72.298C253 71.838 253.108 71.1633 253.108 70.274V48.976C253.108 48.148 253.016 47.5347 252.832 47.136C252.648 46.7067 252.28 46.446 251.728 46.354C251.176 46.2313 250.378 46.17 249.336 46.17ZM276.415 74.598C274.545 74.598 272.919 74.1533 271.539 73.264C270.19 72.3747 269.147 71.194 268.411 69.722C267.675 68.2193 267.307 66.6093 267.307 64.892C267.307 63.2973 267.599 61.9173 268.181 60.752C268.795 59.5867 269.592 58.636 270.573 57.9C271.555 57.1333 272.628 56.566 273.793 56.198C274.959 55.83 276.109 55.646 277.243 55.646C279.145 55.646 280.77 56.106 282.119 57.026C283.469 57.946 284.496 59.1267 285.201 60.568C285.937 62.0093 286.305 63.5273 286.305 65.122C286.305 67.054 285.845 68.7407 284.925 70.182C284.005 71.5927 282.794 72.6813 281.291 73.448C279.819 74.2147 278.194 74.598 276.415 74.598ZM277.749 73.724C279.252 73.724 280.417 73.1413 281.245 71.976C282.104 70.78 282.533 68.9707 282.533 66.548C282.533 64.4933 282.227 62.73 281.613 61.258C281 59.7553 280.172 58.6053 279.129 57.808C278.117 56.98 276.967 56.566 275.679 56.566C274.177 56.566 273.011 57.1487 272.183 58.314C271.386 59.4487 270.987 61.1353 270.987 63.374C270.987 65.306 271.279 67.0693 271.861 68.664C272.444 70.228 273.241 71.47 274.253 72.39C275.265 73.2793 276.431 73.724 277.749 73.724ZM298.561 74.552C296.445 74.552 294.712 74.1073 293.363 73.218C292.044 72.298 291.063 71.148 290.419 69.768C289.805 68.3573 289.499 66.9313 289.499 65.49C289.499 63.9567 289.805 62.592 290.419 61.396C291.032 60.2 291.829 59.188 292.811 58.36C293.823 57.532 294.942 56.9033 296.169 56.474C297.395 56.0447 298.607 55.83 299.803 55.83C300.661 55.83 301.505 55.9527 302.333 56.198C303.191 56.4433 303.897 56.796 304.449 57.256C305.001 57.6853 305.277 58.2067 305.277 58.82C305.277 59.2493 305.108 59.648 304.771 60.016C304.464 60.3533 304.004 60.522 303.391 60.522C302.808 60.522 302.333 60.3533 301.965 60.016C301.597 59.6787 301.305 59.2493 301.091 58.728C300.815 58.1147 300.477 57.6393 300.079 57.302C299.68 56.934 299.051 56.75 298.193 56.75C296.567 56.75 295.295 57.4247 294.375 58.774C293.485 60.1233 293.041 61.8867 293.041 64.064C293.041 65.5973 293.301 67.0387 293.823 68.388C294.344 69.7067 295.157 70.7647 296.261 71.562C297.365 72.3593 298.806 72.758 300.585 72.758C301.443 72.758 302.241 72.6507 302.977 72.436C303.743 72.1907 304.479 71.8227 305.185 71.332C305.277 71.2707 305.369 71.3013 305.461 71.424C305.583 71.5467 305.599 71.6387 305.507 71.7C304.464 72.6507 303.391 73.3713 302.287 73.862C301.183 74.322 299.941 74.552 298.561 74.552ZM312.27 74C312.209 74 312.178 73.908 312.178 73.724C312.178 73.54 312.209 73.448 312.27 73.448C313.497 73.448 314.279 73.2487 314.616 72.85C314.954 72.4513 315.122 71.5927 315.122 70.274V60.062C315.122 58.866 315 58.0687 314.754 57.67C314.509 57.2407 313.972 57.026 313.144 57.026C312.04 57.026 311.136 57.394 310.43 58.13C309.756 58.866 309.265 60.2307 308.958 62.224C308.958 62.316 308.866 62.362 308.682 62.362C308.498 62.362 308.406 62.316 308.406 62.224C308.406 61.7947 308.406 61.1507 308.406 60.292C308.406 59.4333 308.391 58.544 308.36 57.624C308.36 56.704 308.36 55.9527 308.36 55.37C308.36 55.2167 308.452 55.14 308.636 55.14C308.82 55.14 308.912 55.2167 308.912 55.37C308.912 55.7993 309.587 56.06 310.936 56.152C312.316 56.244 314.248 56.29 316.732 56.29C318.327 56.29 319.692 56.2747 320.826 56.244C321.961 56.2133 322.835 56.1367 323.448 56.014C324.062 55.8607 324.368 55.646 324.368 55.37C324.368 55.2167 324.46 55.14 324.644 55.14C324.828 55.14 324.92 55.2167 324.92 55.37C324.92 55.9527 324.92 56.704 324.92 57.624C324.92 58.544 324.905 59.4333 324.874 60.292C324.874 61.1507 324.874 61.7947 324.874 62.224C324.874 62.316 324.782 62.362 324.598 62.362C324.445 62.362 324.353 62.316 324.322 62.224C324.077 60.2307 323.586 58.866 322.85 58.13C322.114 57.394 321.194 57.026 320.09 57.026C319.293 57.026 318.787 57.2407 318.572 57.67C318.358 58.0687 318.25 58.866 318.25 60.062V70.274C318.25 71.5927 318.404 72.4513 318.71 72.85C319.048 73.2487 319.814 73.448 321.01 73.448C321.102 73.448 321.148 73.54 321.148 73.724C321.148 73.908 321.102 74 321.01 74C320.397 74 319.722 73.9847 318.986 73.954C318.25 73.9233 317.499 73.908 316.732 73.908C315.935 73.908 315.153 73.9233 314.386 73.954C313.62 73.9847 312.914 74 312.27 74Z" fill="black"/>
<path d="M133.537 324.585L133.534 324.585C99.2609 323.821 80.3149 308.295 70.6704 293.257C68.444 289.737 68.5676 284.363 71.0068 277.302C73.4049 270.36 77.8169 262.446 83.0864 254.447C91.4597 241.737 101.739 229.186 108.933 220.403C110.794 218.13 112.449 216.109 113.811 214.403L113.821 214.391L113.83 214.379C117.285 209.941 120.666 203.164 124.039 196.153C124.502 195.189 124.967 194.218 125.433 193.244C128.413 187.019 131.445 180.684 134.662 175.254C138.443 168.872 142.172 164.298 145.876 162.481C147.619 161.626 149.312 161.405 151.079 161.871C152.903 162.351 155.044 163.628 157.496 166.215C162.858 171.986 173.652 181.166 186.632 191.794C193.349 197.294 200.752 203.263 208.359 209.396C215.446 215.109 222.71 220.966 229.762 226.72C244.467 238.718 258.425 250.411 268.623 259.971C273.729 264.758 277.83 268.953 280.6 272.348C281.988 274.049 282.987 275.483 283.612 276.64C284.276 277.872 284.34 278.472 284.328 278.616L284.327 278.629C284.09 281.653 282.66 285.099 280.016 288.833C277.385 292.548 273.651 296.405 269.043 300.219C259.826 307.847 247.329 315.122 233.83 320.625L233.816 320.63L233.802 320.636C220.634 326.187 204.441 327.444 186.959 327.144C178.242 326.995 169.283 326.462 160.286 325.911L159.097 325.838C150.513 325.312 141.902 324.784 133.537 324.585Z" fill="#FED0AC" stroke="#522D0B" stroke-width="5"/>
<path d="M76.6867 280.547L76.6869 280.546L76.6933 280.533L76.6996 280.519L76.6998 280.518L76.6998 280.518L76.701 280.516L76.7068 280.503L76.7318 280.448C76.7545 280.399 76.7891 280.324 76.8354 280.225C76.9279 280.025 77.0672 279.728 77.2514 279.34C77.6199 278.565 78.1682 277.43 78.8823 276.001C80.3107 273.143 82.4005 269.114 85.0393 264.445C90.3269 255.089 97.7764 243.238 106.485 233.084L106.5 233.066L106.515 233.048C107.903 231.367 109.434 229.703 111.064 227.933L111.077 227.919C112.696 226.16 114.403 224.306 116.053 222.32C119.366 218.336 122.525 213.743 124.568 207.959C126.423 202.711 130.056 194.712 133.899 187.37C135.816 183.708 137.765 180.247 139.548 177.404C141.365 174.506 142.901 172.426 143.982 171.384L144.01 171.357L144.037 171.329C144.586 170.765 145.037 170.284 145.432 169.862C146.026 169.229 146.494 168.729 146.983 168.282C147.728 167.6 148.052 167.507 148.209 167.487C148.371 167.467 148.866 167.466 150.052 168.14C151.235 168.814 152.819 169.993 155.064 171.902L155.071 171.908C157.63 174.069 160.141 176.044 162.782 178.12C170.533 184.214 179.4 191.186 193.866 206.334L193.973 206.447L194.094 206.545L195.674 204.608C194.094 206.545 194.094 206.545 194.094 206.545L194.095 206.546L194.099 206.549L194.114 206.561L194.171 206.608L194.395 206.79C194.591 206.949 194.878 207.182 195.246 207.479C195.983 208.075 197.042 208.927 198.336 209.96C200.924 212.026 204.454 214.814 208.218 217.702C211.978 220.588 215.99 223.587 219.538 226.068C223.014 228.499 226.251 230.581 228.38 231.483C229.808 232.088 231.982 233.689 234.734 236.154C237.414 238.555 240.42 241.567 243.481 244.746C245.384 246.722 247.32 248.777 249.206 250.778C253.282 255.103 257.123 259.178 259.882 261.672C261.902 263.592 264.229 265.311 266.491 266.89C267.274 267.437 268.039 267.961 268.786 268.472C270.263 269.484 271.667 270.445 272.992 271.436C274.971 272.917 276.527 274.289 277.554 275.651C278.531 276.948 278.936 278.106 278.88 279.272C278.709 280.487 277.86 282.299 276.183 284.591C274.527 286.853 272.265 289.318 269.694 291.748C264.533 296.628 258.386 301.136 253.968 303.429C253.546 303.648 253.018 303.725 252.163 303.418C251.238 303.085 250.075 302.343 248.679 301.088C245.889 298.581 242.745 294.562 239.361 289.74C237.149 286.588 234.906 283.2 232.637 279.772C231.443 277.968 230.242 276.154 229.034 274.357C225.575 269.211 222.081 264.24 218.743 260.451C212.249 252.93 205.246 247.82 198.644 243.002C198.454 242.864 198.266 242.726 198.077 242.589C191.272 237.621 184.937 232.909 179.482 225.999C178.226 224.349 176.924 222.604 175.586 220.811C171.146 214.861 166.315 208.387 161.483 203.121C158.325 199.68 155.055 196.627 151.762 194.515C148.485 192.414 144.925 191.078 141.293 191.531C140.024 191.689 138.924 192.42 138.089 193.111C137.19 193.854 136.258 194.842 135.311 195.98C133.412 198.26 131.236 201.407 128.878 205.103C124.219 212.406 118.666 222.152 112.881 232.305L112.641 232.725C106.752 243.06 100.62 253.809 94.8701 262.985C89.0748 272.233 83.8239 279.62 79.7174 283.416L79.706 283.427L79.6948 283.437C77.5547 285.465 75.9043 286.838 74.6558 287.715C74.3985 287.896 74.1671 288.05 73.9602 288.18C74.2292 286.834 74.7945 285.152 75.3886 283.617C75.7282 282.741 76.0556 281.967 76.2979 281.412C76.4188 281.136 76.5179 280.915 76.5859 280.766C76.6199 280.691 76.6461 280.634 76.6633 280.597L76.6822 280.556L76.6863 280.548L76.6867 280.547Z" fill="#FED0AC" stroke="#522D0B" stroke-width="5"/>
<path opacity="0.67" d="M76.6866 280.547L76.6869 280.546L76.6933 280.533L76.6996 280.519L76.6997 280.518L76.6998 280.518L76.701 280.516L76.7067 280.503L76.7318 280.448C76.7545 280.399 76.7891 280.324 76.8353 280.225C76.9279 280.025 77.0671 279.728 77.2514 279.34C77.6199 278.565 78.1682 277.43 78.8822 276.001C80.3106 273.143 82.4004 269.114 85.0393 264.445C90.3269 255.089 97.7764 243.238 106.485 233.084L106.5 233.066L106.515 233.048C107.903 231.367 109.434 229.703 111.064 227.933L111.077 227.919C112.696 226.16 114.403 224.306 116.053 222.32C119.366 218.336 122.525 213.743 124.568 207.959C126.423 202.711 130.056 194.712 133.899 187.37C135.816 183.708 137.765 180.247 139.548 177.404C141.365 174.506 142.901 172.426 143.982 171.384L144.01 171.357L144.037 171.329C144.586 170.765 145.037 170.284 145.432 169.862C146.026 169.229 146.494 168.729 146.983 168.282C147.728 167.6 148.052 167.507 148.209 167.487C148.371 167.467 148.866 167.466 150.052 168.14C151.235 168.814 152.819 169.993 155.064 171.902L155.071 171.908C157.63 174.069 160.141 176.044 162.782 178.12C170.533 184.214 179.4 191.186 193.866 206.334L193.973 206.447L194.094 206.545L195.674 204.608C194.094 206.545 194.094 206.545 194.094 206.545L194.095 206.546L194.099 206.549L194.114 206.561L194.171 206.608L194.395 206.79C194.591 206.949 194.878 207.182 195.246 207.479C195.983 208.075 197.042 208.927 198.336 209.96C200.924 212.026 204.454 214.814 208.218 217.702C211.978 220.588 215.99 223.587 219.538 226.068C223.014 228.499 226.251 230.581 228.38 231.483C229.808 232.088 231.982 233.689 234.734 236.154C237.414 238.555 240.42 241.567 243.48 244.746C245.384 246.722 247.32 248.777 249.206 250.778C253.282 255.103 257.123 259.178 259.881 261.672C261.902 263.592 264.229 265.311 266.491 266.89C267.274 267.437 268.039 267.961 268.786 268.472C270.263 269.484 271.667 270.445 272.992 271.436C274.971 272.917 276.527 274.289 277.553 275.651C278.531 276.948 278.936 278.106 278.88 279.272C278.709 280.487 277.86 282.299 276.183 284.591C274.527 286.853 272.265 289.318 269.694 291.748C264.533 296.628 258.385 301.136 253.968 303.429C253.546 303.648 253.018 303.725 252.163 303.418C251.238 303.085 250.075 302.343 248.678 301.088C245.889 298.581 242.745 294.562 239.361 289.74C237.149 286.588 234.906 283.2 232.637 279.772C231.443 277.968 230.242 276.154 229.034 274.357C225.575 269.211 222.081 264.24 218.743 260.451C212.249 252.93 205.246 247.82 198.643 243.002C198.454 242.864 198.266 242.726 198.077 242.589C191.272 237.621 184.937 232.909 179.482 225.999C178.226 224.349 176.923 222.604 175.586 220.811C171.146 214.861 166.315 208.387 161.483 203.121C158.325 199.68 155.055 196.627 151.762 194.515C148.485 192.414 144.925 191.078 141.293 191.531C140.024 191.689 138.924 192.42 138.089 193.111C137.19 193.854 136.258 194.842 135.311 195.98C133.412 198.26 131.236 201.407 128.878 205.103C124.219 212.406 118.666 222.152 112.881 232.305L112.641 232.725C106.752 243.06 100.62 253.809 94.8701 262.985C89.0748 272.233 83.8239 279.62 79.7173 283.416L79.706 283.427L79.6948 283.437C77.5546 285.465 75.9043 286.838 74.6558 287.715C74.3984 287.896 74.167 288.05 73.9602 288.18C74.2292 286.834 74.7944 285.152 75.3886 283.617C75.7281 282.741 76.0555 281.967 76.2979 281.412C76.4188 281.136 76.5179 280.915 76.5859 280.766C76.6199 280.691 76.646 280.634 76.6632 280.597L76.6821 280.556L76.6862 280.548L76.6866 280.547Z" fill="white" stroke="#522D0B" stroke-width="5"/>
<path d="M92.942 238.161C96.0833 238.568 99.3711 239.319 101.427 239.862C101.153 240.752 100.632 242.001 99.8508 243.584C98.0044 247.325 95.0218 252.314 91.734 257.457C85.9064 266.573 79.3482 275.824 76.8758 279.038C76.2024 278.144 75.4167 276.713 74.5969 274.954C73.6884 273.004 72.841 270.882 72.1492 269.121C72.0698 268.918 71.9919 268.719 71.916 268.526C71.6671 267.89 71.4394 267.309 71.2474 266.836C71.1216 266.526 71.0007 266.238 70.8904 265.993C70.8167 265.83 70.7045 265.587 70.5662 265.354C70.557 265.299 70.543 265.189 70.5408 265.009C70.5356 264.587 70.5985 263.993 70.761 263.274C71.0876 261.831 71.7475 260.186 72.6425 258.863C73.4334 257.694 73.8 256.463 74.0511 255.545C74.0982 255.372 74.141 255.213 74.1807 255.065C74.3801 254.325 74.5033 253.867 74.7128 253.44C74.8995 253.06 75.1213 252.792 75.567 252.558C76.0851 252.286 77.046 251.993 78.8308 251.929C81.3496 251.934 83.4573 251.263 84.8682 249.631C86.2116 248.077 86.4914 246.125 86.5368 244.607C86.5684 243.552 86.4804 242.343 86.4072 241.337C86.3784 240.942 86.3519 240.578 86.3359 240.267C86.2776 239.136 86.336 238.53 86.4212 238.224C86.4261 238.222 86.4312 238.22 86.4365 238.217C86.6711 238.116 87.0979 238.001 87.7703 237.934C89.1116 237.8 90.9246 237.9 92.942 238.161ZM86.3159 238.279C86.3159 238.279 86.3173 238.278 86.3205 238.276C86.3176 238.278 86.316 238.279 86.3159 238.279Z" fill="#D3976E" stroke="#522D0B" stroke-width="5"/>
<path d="M102.438 239.95C102.435 239.944 102.431 239.938 102.427 239.932C102.181 239.547 101.831 238.991 101.419 238.309C100.591 236.94 99.5245 235.089 98.5499 233.13C97.5644 231.149 96.7245 229.16 96.291 227.496C96.0742 226.664 95.9851 226.01 95.9906 225.533C95.9951 225.139 96.0617 224.991 96.0688 224.975C96.5725 224.259 97.074 224.244 99.2547 224.178C99.3708 224.174 99.4916 224.17 99.6174 224.166C100.628 224.135 102.149 224.046 103.535 223.226C105.059 222.323 106.004 220.812 106.478 218.828C106.925 216.959 106.927 214.963 106.87 213.236C106.852 212.675 106.828 212.15 106.805 211.654C106.753 210.503 106.708 209.506 106.751 208.561C106.815 207.192 107.06 206.632 107.24 206.418C107.24 206.417 107.241 206.416 107.242 206.415C107.295 206.352 107.594 205.992 109.017 206.075C111.46 206.332 113.475 205.832 115.085 204.694C116.638 203.596 117.561 202.077 118.184 200.8C118.497 200.157 118.764 199.511 118.989 198.966L118.991 198.962C119.229 198.386 119.414 197.94 119.603 197.56C119.762 197.239 119.876 197.068 119.939 196.986C121.489 196.641 125.015 196.132 127.829 196.112C128.111 196.11 128.372 196.113 128.61 196.121C126.701 198.622 123.581 202.787 120.413 207.27C116.398 212.952 112.138 219.381 110.294 223.55C109.722 224.842 109.128 226.259 108.517 227.716C107.188 230.882 105.781 234.238 104.359 236.908C103.593 238.348 102.941 239.347 102.438 239.95ZM130.552 196.378C130.552 196.378 130.549 196.377 130.543 196.374C130.55 196.377 130.552 196.378 130.552 196.378ZM129.946 194.382C129.955 194.366 129.961 194.358 129.962 194.358C129.962 194.358 129.958 194.366 129.946 194.382ZM101.833 240.541C101.825 240.546 101.821 240.548 101.821 240.548C101.821 240.547 101.825 240.545 101.833 240.541ZM102.946 240.717C102.946 240.717 102.943 240.714 102.938 240.709C102.943 240.713 102.946 240.716 102.946 240.717Z" fill="#95A437" stroke="#522D0B" stroke-width="5"/>
<path d="M195.264 220.627C195.602 220.234 195.996 219.79 196.444 219.313C198.161 217.481 200.624 215.187 203.642 213.268C209.627 209.462 217.552 207.226 226.458 212.692C235.154 218.096 239.235 225.705 240.46 234.163C241.537 241.593 240.408 249.714 238.103 257.515L195.264 220.627Z" fill="#C94747" stroke="#522D0B" stroke-width="5"/>
<path d="M223.284 216.782C236.537 224.92 239.333 238.571 237.175 252.598L199.694 217.707C202.257 215.958 205.264 214.474 208.579 213.811C212.875 212.953 217.838 213.438 223.284 216.782Z" fill="#ED4C5C" stroke="#522D0B" stroke-width="5"/>
<path d="M218.063 238.707L218.1 238.998L218.2 239.266C218.2 239.266 218.2 239.266 218.2 239.266C218.2 239.266 218.2 239.268 218.201 239.268C218.201 239.269 218.201 239.268 218.201 239.269L218.201 239.27L218.213 239.303C218.225 239.339 218.245 239.397 218.27 239.474C218.32 239.63 218.387 239.857 218.453 240.126C218.593 240.697 218.69 241.317 218.669 241.814C218.666 241.904 218.659 241.977 218.651 242.035C218.487 242.035 218.218 242.011 217.809 241.913C217.812 241.914 217.814 241.914 217.814 241.914C217.814 241.914 217.742 241.893 217.581 241.819C217.407 241.74 217.179 241.623 216.893 241.459C216.32 241.131 215.596 240.664 214.733 240.059C213.011 238.852 210.848 237.177 208.425 235.172C203.584 231.166 197.809 225.932 192.62 220.697C187.395 215.427 182.899 210.291 180.5 206.464C179.419 204.74 178.965 203.589 178.85 202.956C178.856 202.955 178.862 202.954 178.868 202.953C181.538 202.62 183.748 200.694 185.377 198.964C186.62 197.645 187.846 196.071 188.914 194.7C189.293 194.214 189.651 193.754 189.984 193.34C190.659 192.498 191.231 191.834 191.726 191.36C191.733 191.353 191.74 191.346 191.747 191.339C191.826 191.557 191.908 191.819 191.992 192.133C192.811 195.2 194.29 197.249 196.368 198.417C198.316 199.512 200.441 199.614 201.999 199.631C202.348 199.635 202.652 199.635 202.933 199.635C203.366 199.634 203.747 199.634 204.161 199.65C204.796 199.674 205.225 199.733 205.532 199.824C205.805 199.906 205.918 199.995 205.987 200.069C206.061 200.15 206.229 200.374 206.359 200.946C206.725 202.552 206.889 204.177 207 205.785C207.03 206.226 207.057 206.682 207.084 207.142C207.15 208.267 207.218 209.412 207.34 210.395C207.509 211.75 207.835 213.394 208.818 214.68C209.957 216.17 211.629 216.774 213.508 216.696C214.117 216.704 214.656 216.674 215.046 216.652C215.11 216.649 215.17 216.645 215.226 216.642C215.236 216.677 215.247 216.715 215.257 216.755C215.55 217.863 215.825 219.827 216.251 223.429C216.367 224.409 216.492 225.498 216.632 226.708C216.994 229.843 217.45 233.786 218.063 238.707ZM218.605 242.235C218.605 242.235 218.606 242.232 218.608 242.228C218.606 242.233 218.605 242.235 218.605 242.235ZM218.848 242.018C218.861 242.012 218.869 242.011 218.869 242.011C218.87 242.012 218.863 242.015 218.848 242.018ZM178.52 203.031C178.52 203.031 178.522 203.03 178.526 203.028C178.522 203.03 178.52 203.031 178.52 203.031Z" fill="#95A437" stroke="#522D0B" stroke-width="5"/>
<path d="M148.66 183.534L148.685 183.503L148.71 183.471L148.71 183.471L148.71 183.471L148.711 183.47L148.717 183.463L148.741 183.431C148.764 183.402 148.799 183.357 148.846 183.299C148.939 183.181 149.079 183.006 149.261 182.78C149.625 182.329 150.158 181.678 150.828 180.885C152.169 179.298 154.048 177.154 156.205 174.924C158.366 172.689 160.775 170.399 163.176 168.501C165.612 166.575 167.879 165.182 169.763 164.57C171.81 163.905 172.768 164.055 173.159 164.207C173.467 164.327 173.781 164.584 174.115 165.354C174.443 166.107 174.646 166.998 174.909 168.146C174.943 168.293 174.977 168.444 175.013 168.599C175.285 169.779 175.673 171.416 176.533 172.707C178.587 175.791 179.721 177.21 180.981 178.296C181.473 178.72 181.98 179.087 182.463 179.436C182.56 179.506 182.656 179.576 182.751 179.645C183.343 180.077 184.051 180.609 185.02 181.439C185.093 181.503 185.289 181.723 185.495 182.3C185.699 182.868 185.862 183.641 185.967 184.63C186.179 186.616 186.122 189.124 185.942 191.882C185.823 193.701 185.657 195.538 185.494 197.352C185.409 198.295 185.324 199.231 185.247 200.155C185.03 202.769 184.867 205.323 185.007 207.28C185.244 210.586 185.261 213.404 184.903 215.04C184.871 215.014 184.838 214.987 184.804 214.958C184.029 214.298 183.057 212.928 181.799 210.813C181.261 209.911 180.708 208.937 180.119 207.902C180.046 207.773 179.972 207.644 179.898 207.514C179.231 206.342 178.524 205.106 177.779 203.875C176.298 201.425 174.61 198.895 172.668 196.788C170.732 194.688 168.402 192.853 165.6 192.029L165.555 192.016L165.51 192.004C161.091 190.881 155.537 189.359 151.736 187.431C149.777 186.437 148.713 185.541 148.317 184.886C148.161 184.628 148.162 184.496 148.17 184.423C148.18 184.327 148.243 184.035 148.66 183.534ZM184.629 215.87C184.628 215.869 184.635 215.857 184.65 215.837C184.637 215.861 184.629 215.871 184.629 215.87ZM185.604 215.508C185.61 215.509 185.614 215.511 185.614 215.511C185.614 215.511 185.61 215.51 185.604 215.508ZM215.052 238.243C216.561 237.806 217.998 236.96 219.174 236.251C219.327 236.159 219.476 236.068 219.623 235.98C220.72 235.315 221.663 234.744 222.626 234.331C223.677 233.881 224.514 233.733 225.264 233.849C225.98 233.96 226.933 234.362 228.13 235.624C229.327 236.885 230.145 238.373 230.824 240.024C231.165 240.853 231.463 241.7 231.762 242.579C231.811 242.723 231.861 242.868 231.911 243.015C232.157 243.743 232.415 244.502 232.689 245.223C233.337 246.932 234.212 248.823 235.762 250.259C237.408 251.784 239.557 252.57 242.288 252.571C245.993 252.572 248.231 253.913 249.701 255.761C251.264 257.727 252.136 260.501 252.516 263.551C252.783 265.686 253.609 267.371 254.855 268.652C256.06 269.891 257.522 270.613 258.842 271.092C259.887 271.472 260.999 271.748 261.906 271.973C262.115 272.025 262.313 272.074 262.496 272.121C263.399 272.352 263.951 272.533 264.292 272.698C264.311 272.814 264.33 273.01 264.322 273.315C264.298 274.206 264.049 275.439 263.616 276.867C262.759 279.696 261.377 282.672 260.692 283.938C260.445 284.394 260.153 284.997 259.881 285.56C259.725 285.882 259.576 286.19 259.445 286.451C259.019 287.3 258.638 287.962 258.278 288.407C258.237 288.457 258.201 288.5 258.167 288.537C258.106 288.482 258.033 288.41 257.948 288.32C257.72 288.077 257.361 287.575 256.842 286.702C256.343 285.861 255.778 284.819 255.118 283.585C255.002 283.367 254.883 283.144 254.761 282.916C253.521 280.593 252.012 277.766 250.204 274.829C246.255 268.413 240.692 261.14 232.789 256.94C225.576 253.106 218.722 248.355 215.1 244.285C213.207 242.157 212.659 240.724 212.681 240.005C212.688 239.771 212.752 239.572 212.994 239.325C213.285 239.028 213.887 238.619 215.052 238.243ZM258.428 288.729C258.428 288.73 258.421 288.727 258.406 288.719C258.421 288.724 258.428 288.728 258.428 288.729ZM264.256 272.554C264.256 272.554 264.258 272.559 264.262 272.571C264.257 272.561 264.255 272.555 264.256 272.554Z" fill="#D3976E" stroke="#522D0B" stroke-width="5"/>
<mask id="path-12-inside-1_172_518" fill="white">
<path d="M99.2482 315.859C100.111 316.858 115.918 295.706 134.723 269.015C153.528 242.324 168.11 220.217 167.247 219.218C166.385 218.219 150.578 239.372 131.773 266.063C112.604 292.799 98.068 315.269 99.2482 315.859ZM129.035 309.195C129.897 310.194 142.07 295.396 156.242 275.923C170.414 256.45 181.27 239.972 180.453 239.336C179.591 238.337 167.418 253.134 153.246 272.608C139.392 291.672 128.172 308.196 129.035 309.195Z"/>
</mask>
<path d="M99.2482 315.859C100.111 316.858 115.918 295.706 134.723 269.015C153.528 242.324 168.11 220.217 167.247 219.218C166.385 218.219 150.578 239.372 131.773 266.063C112.604 292.799 98.068 315.269 99.2482 315.859ZM129.035 309.195C129.897 310.194 142.07 295.396 156.242 275.923C170.414 256.45 181.27 239.972 180.453 239.336C179.591 238.337 167.418 253.134 153.246 272.608C139.392 291.672 128.172 308.196 129.035 309.195Z" fill="#D3976E"/>
<path d="M99.2482 315.859L103.033 312.592L102.38 311.835L101.486 311.388L99.2482 315.859ZM131.773 266.063L135.836 268.976L135.848 268.959L135.86 268.943L131.773 266.063ZM180.453 239.336L176.668 242.603L176.992 242.978L177.382 243.282L180.453 239.336ZM153.246 272.608L149.204 269.666L149.201 269.668L153.246 272.608ZM95.4631 319.126C97.1248 321.052 99.3481 320.999 100.385 320.785C101.323 320.591 101.998 320.18 102.263 320.012C102.877 319.621 103.398 319.139 103.73 318.817C104.472 318.097 105.367 317.088 106.34 315.93C108.323 313.568 111.03 310.1 114.249 305.832C120.704 297.272 129.392 285.263 138.81 271.895L130.636 266.135C121.249 279.458 112.63 291.371 106.265 299.81C103.074 304.042 100.492 307.343 98.6811 309.5C97.7565 310.601 97.1285 311.289 96.7676 311.639C96.5481 311.852 96.6223 311.748 96.901 311.571C96.9985 311.509 97.5338 311.163 98.3598 310.992C99.2854 310.801 101.426 310.73 103.033 312.592L95.4631 319.126ZM138.81 271.895C148.232 258.523 156.613 246.274 162.543 237.222C165.501 232.707 167.885 228.933 169.489 226.193C170.28 224.842 170.944 223.636 171.395 222.674C171.609 222.219 171.863 221.634 172.037 221.027C172.12 220.74 172.254 220.214 172.279 219.573C172.298 219.12 172.327 217.451 171.033 215.951L163.462 222.485C162.222 221.048 162.275 219.483 162.287 219.174C162.307 218.676 162.406 218.335 162.425 218.271C162.471 218.11 162.482 218.129 162.342 218.426C162.088 218.969 161.607 219.862 160.859 221.141C159.383 223.662 157.108 227.27 154.178 231.742C148.332 240.666 140.02 252.816 130.636 266.135L138.81 271.895ZM171.033 215.951C169.371 214.026 167.148 214.078 166.111 214.293C165.173 214.487 164.498 214.898 164.232 215.066C163.618 215.456 163.098 215.939 162.766 216.26C162.024 216.98 161.128 217.99 160.156 219.148C158.173 221.51 155.466 224.978 152.247 229.246C145.791 237.806 137.104 249.815 127.685 263.183L135.86 268.943C145.247 255.62 153.866 243.707 160.231 235.267C163.422 231.036 166.003 227.735 167.815 225.578C168.739 224.477 169.367 223.789 169.728 223.439C169.948 223.226 169.873 223.33 169.595 223.507C169.497 223.569 168.962 223.915 168.136 224.085C167.21 224.277 165.07 224.348 163.462 222.485L171.033 215.951ZM127.709 263.149C118.093 276.563 109.622 288.927 103.69 298.037C100.731 302.581 98.3659 306.372 96.8 309.101C96.0309 310.441 95.3817 311.65 94.9529 312.613C94.7579 313.051 94.4905 313.695 94.333 314.387C94.2631 314.695 94.1184 315.405 94.212 316.275C94.3041 317.131 94.7913 319.22 97.0107 320.331L101.486 311.388C103.631 312.462 104.076 314.471 104.155 315.206C104.235 315.954 104.107 316.502 104.084 316.606C104.019 316.891 103.962 316.965 104.088 316.68C104.304 316.197 104.746 315.345 105.473 314.078C106.9 311.592 109.146 307.984 112.07 303.494C117.902 294.538 126.284 282.299 135.836 268.976L127.709 263.149ZM125.25 312.462C126.392 313.786 127.904 314.225 129.076 314.242C130.087 314.257 130.868 313.974 131.248 313.816C132.024 313.493 132.633 313.038 132.953 312.787C133.687 312.212 134.488 311.429 135.27 310.612C136.887 308.922 139.028 306.441 141.515 303.405C146.514 297.302 153.16 288.655 160.285 278.865L152.199 272.981C145.152 282.665 138.625 291.153 133.779 297.067C131.344 300.04 129.394 302.288 128.044 303.699C127.341 304.434 126.939 304.795 126.787 304.914C126.664 305.011 126.909 304.79 127.406 304.583C127.645 304.484 128.307 304.23 129.221 304.243C130.295 304.259 131.731 304.666 132.82 305.928L125.25 312.462ZM160.285 278.865C167.402 269.085 173.704 260.034 178.14 253.322C180.35 249.978 182.136 247.155 183.333 245.091C183.919 244.082 184.436 243.13 184.791 242.338C184.953 241.977 185.188 241.417 185.336 240.793C185.405 240.504 185.532 239.897 185.487 239.146C185.448 238.482 185.204 236.698 183.524 235.39L177.382 243.282C175.753 242.014 175.538 240.301 175.505 239.737C175.466 239.087 175.576 238.611 175.607 238.482C175.679 238.18 175.751 238.058 175.666 238.246C175.529 238.553 175.222 239.145 174.683 240.074C173.631 241.887 171.97 244.52 169.797 247.809C165.465 254.363 159.254 263.288 152.199 272.981L160.285 278.865ZM184.238 236.069C183.096 234.745 181.584 234.306 180.412 234.289C179.401 234.274 178.62 234.557 178.24 234.715C177.464 235.038 176.855 235.493 176.535 235.744C175.801 236.319 175 237.102 174.218 237.918C172.601 239.609 170.46 242.09 167.973 245.126C162.974 251.229 156.328 259.876 149.204 269.666L157.289 275.55C164.336 265.866 170.863 257.378 175.709 251.463C178.144 248.491 180.094 246.243 181.444 244.831C182.147 244.097 182.549 243.736 182.701 243.616C182.824 243.52 182.579 243.741 182.082 243.947C181.843 244.047 181.181 244.301 180.267 244.288C179.193 244.272 177.757 243.865 176.668 242.603L184.238 236.069ZM149.201 269.668C142.256 279.227 135.944 288.184 131.462 294.901C129.231 298.246 127.405 301.108 126.175 303.238C125.574 304.28 125.035 305.284 124.666 306.143C124.493 306.546 124.26 307.136 124.121 307.794C124.052 308.118 123.958 308.677 123.998 309.353C124.035 309.984 124.224 311.274 125.25 312.462L132.82 305.928C133.791 307.053 133.95 308.25 133.98 308.759C134.013 309.313 133.934 309.72 133.904 309.863C133.841 310.16 133.775 310.274 133.853 310.092C133.986 309.782 134.291 309.182 134.836 308.237C135.901 306.392 137.584 303.744 139.781 300.451C144.158 293.89 150.383 285.053 157.291 275.547L149.201 269.668Z" fill="#522D0B" mask="url(#path-12-inside-1_172_518)"/>
<mask id="path-14-inside-2_172_518" fill="white">
<path d="M216.386 320.439C215.387 321.301 201.044 306.858 184.342 288.283C167.64 269.708 154.569 253.631 155.568 252.769C156.567 251.906 170.546 266.394 187.612 284.924C204.314 303.499 217.385 319.576 216.386 320.439Z"/>
</mask>
<path d="M216.386 320.439C215.387 321.301 201.044 306.858 184.342 288.283C167.64 269.708 154.569 253.631 155.568 252.769C156.567 251.906 170.546 266.394 187.612 284.924C204.314 303.499 217.385 319.576 216.386 320.439Z" fill="#D3976E"/>
<path d="M187.612 284.924L191.33 281.581L191.31 281.559L191.29 281.537L187.612 284.924ZM213.119 316.653C214.384 315.561 215.775 315.448 216.482 315.48C217.172 315.512 217.665 315.69 217.837 315.756C218.196 315.894 218.349 316.019 218.19 315.912C217.939 315.744 217.423 315.346 216.593 314.622C214.98 313.215 212.669 311.008 209.796 308.122C204.075 302.376 196.374 294.187 188.06 284.94L180.624 291.626C189.012 300.954 196.833 309.275 202.709 315.177C205.635 318.116 208.141 320.519 210.02 322.158C210.936 322.957 211.835 323.691 212.624 324.22C212.986 324.463 213.566 324.828 214.253 325.092C214.589 325.22 215.221 325.433 216.025 325.47C216.847 325.507 218.325 325.37 219.653 324.224L213.119 316.653ZM188.06 284.94C179.746 275.694 172.362 267.098 167.2 260.734C164.608 257.538 162.632 254.974 161.387 253.198C160.746 252.285 160.399 251.721 160.255 251.448C160.164 251.275 160.275 251.445 160.376 251.826C160.424 252.005 160.554 252.536 160.502 253.254C160.448 254.002 160.145 255.423 158.835 256.554L152.301 248.983C150.928 250.168 150.59 251.672 150.528 252.534C150.468 253.364 150.617 254.036 150.709 254.386C150.9 255.106 151.207 255.728 151.409 256.112C151.855 256.957 152.495 257.936 153.2 258.941C154.646 261.003 156.795 263.78 159.434 267.033C164.733 273.567 172.235 282.297 180.624 291.626L188.06 284.94ZM158.835 256.554C157.576 257.64 156.19 257.762 155.461 257.727C154.758 257.693 154.257 257.508 154.08 257.439C153.712 257.295 153.553 257.163 153.708 257.269C153.951 257.435 154.456 257.833 155.275 258.561C156.866 259.975 159.148 262.189 162.006 265.086C167.697 270.854 175.412 279.059 183.934 288.311L191.29 281.537C182.746 272.26 174.939 263.955 169.124 258.063C166.229 255.129 163.762 252.725 161.918 251.086C161.019 250.287 160.135 249.55 159.355 249.016C158.999 248.773 158.42 248.4 157.729 248.129C157.392 247.996 156.753 247.777 155.938 247.738C155.096 247.698 153.622 247.843 152.301 248.983L158.835 256.554ZM183.894 288.267C192.207 297.513 199.592 306.109 204.754 312.473C207.346 315.669 209.322 318.234 210.567 320.009C211.208 320.923 211.555 321.487 211.699 321.759C211.79 321.932 211.679 321.763 211.578 321.382C211.53 321.202 211.4 320.672 211.452 319.954C211.506 319.205 211.809 317.784 213.119 316.653L219.653 324.224C221.025 323.039 221.364 321.535 221.426 320.673C221.486 319.843 221.337 319.171 221.244 318.822C221.054 318.102 220.747 317.48 220.545 317.095C220.099 316.25 219.459 315.272 218.754 314.267C217.307 312.205 215.159 309.427 212.52 306.174C207.221 299.64 199.719 290.911 191.33 281.581L183.894 288.267Z" fill="#522D0B" mask="url(#path-14-inside-2_172_518)"/>
<mask id="path-16-inside-3_172_518" fill="white">
<path d="M201.333 255.915C202.15 256.551 194.246 270.079 183.299 285.83C172.351 301.582 162.813 313.837 161.996 313.201C161.179 312.565 169.083 299.038 180.03 283.287C190.614 267.581 200.153 255.325 201.333 255.915ZM160.995 319.966C159.996 320.828 149.057 310.019 136.167 295.395C123.323 281.134 113.656 268.691 114.292 267.874C115.291 267.012 126.23 277.821 139.119 292.445C152.327 306.66 161.994 319.104 160.995 319.966ZM133.299 319.73C132.3 320.592 123.494 312.099 113.646 301.154C103.388 289.891 96.2629 280.081 96.8988 279.264C97.898 278.402 106.703 286.895 116.552 297.841C126.81 309.104 134.298 318.868 133.299 319.73ZM143.639 216.26C144.456 216.896 138.414 227.609 130.01 240.092C121.607 252.575 113.885 261.654 113.068 261.018C112.251 260.382 118.293 249.669 126.697 237.185C135.146 225.066 142.822 215.624 143.639 216.26ZM220.079 273.129C220.896 273.765 214.854 284.478 206.45 296.961C198.047 309.444 190.326 318.523 189.508 317.887C188.691 317.251 194.733 306.538 203.137 294.055C211.223 281.98 218.899 272.539 220.079 273.129Z"/>
</mask>
<path d="M201.333 255.915C202.15 256.551 194.246 270.079 183.299 285.83C172.351 301.582 162.813 313.837 161.996 313.201C161.179 312.565 169.083 299.038 180.03 283.287C190.614 267.581 200.153 255.325 201.333 255.915ZM160.995 319.966C159.996 320.828 149.057 310.019 136.167 295.395C123.323 281.134 113.656 268.691 114.292 267.874C115.291 267.012 126.23 277.821 139.119 292.445C152.327 306.66 161.994 319.104 160.995 319.966ZM133.299 319.73C132.3 320.592 123.494 312.099 113.646 301.154C103.388 289.891 96.2629 280.081 96.8988 279.264C97.898 278.402 106.703 286.895 116.552 297.841C126.81 309.104 134.298 318.868 133.299 319.73ZM143.639 216.26C144.456 216.896 138.414 227.609 130.01 240.092C121.607 252.575 113.885 261.654 113.068 261.018C112.251 260.382 118.293 249.669 126.697 237.185C135.146 225.066 142.822 215.624 143.639 216.26ZM220.079 273.129C220.896 273.765 214.854 284.478 206.45 296.961C198.047 309.444 190.326 318.523 189.508 317.887C188.691 317.251 194.733 306.538 203.137 294.055C211.223 281.98 218.899 272.539 220.079 273.129Z" fill="#D3976E"/>
<path d="M201.333 255.915L204.404 251.97L204.013 251.666L203.571 251.444L201.333 255.915ZM180.03 283.287L184.136 286.14L184.157 286.111L184.177 286.081L180.03 283.287ZM136.167 295.395L139.918 292.089L139.9 292.069L139.882 292.049L136.167 295.395ZM114.292 267.874L111.025 264.089L110.65 264.412L110.346 264.803L114.292 267.874ZM139.119 292.445L135.368 295.751L135.412 295.8L135.456 295.848L139.119 292.445ZM113.646 301.154L117.362 297.81L117.352 297.798L117.342 297.787L113.646 301.154ZM96.8988 279.264L93.632 275.479L93.2572 275.803L92.9531 276.193L96.8988 279.264ZM116.552 297.841L112.836 301.185L112.846 301.196L112.856 301.207L116.552 297.841ZM126.697 237.185L122.595 234.326L122.572 234.36L122.549 234.393L126.697 237.185ZM220.079 273.129L223.15 269.183L222.759 268.879L222.317 268.658L220.079 273.129ZM203.137 294.055L207.285 296.847L207.292 296.837L203.137 294.055ZM198.262 259.861C196.997 258.877 196.601 257.609 196.476 256.964C196.35 256.316 196.395 255.813 196.418 255.618C196.463 255.214 196.554 254.995 196.515 255.106C196.463 255.259 196.292 255.673 195.922 256.417C195.208 257.853 194.03 259.97 192.434 262.641C189.261 267.956 184.612 275.179 179.193 282.977L187.404 288.684C192.932 280.731 197.709 273.313 201.02 267.768C202.668 265.009 203.996 262.64 204.877 260.868C205.304 260.009 205.702 259.139 205.968 258.369C206.089 258.018 206.276 257.428 206.353 256.748C206.391 256.415 206.436 255.798 206.293 255.061C206.151 254.327 205.72 252.994 204.404 251.97L198.262 259.861ZM179.193 282.977C173.753 290.803 168.687 297.728 164.903 302.59C162.999 305.035 161.477 306.886 160.42 308.055C159.87 308.664 159.566 308.953 159.467 309.037C159.383 309.108 159.594 308.909 160.014 308.699C160.217 308.598 160.751 308.348 161.509 308.258C162.324 308.162 163.745 308.227 165.067 309.256L158.925 317.147C160.298 318.216 161.787 318.295 162.686 318.189C163.529 318.089 164.164 317.804 164.485 317.644C165.14 317.317 165.65 316.904 165.927 316.67C166.548 316.145 167.209 315.457 167.839 314.761C169.143 313.318 170.842 311.24 172.794 308.732C176.72 303.687 181.897 296.609 187.404 288.684L179.193 282.977ZM165.067 309.256C166.332 310.24 166.728 311.508 166.853 312.153C166.979 312.8 166.934 313.304 166.911 313.499C166.865 313.903 166.775 314.122 166.813 314.011C166.866 313.858 167.037 313.444 167.407 312.7C168.121 311.264 169.299 309.147 170.894 306.476C174.068 301.16 178.716 293.938 184.136 286.14L175.925 280.433C170.397 288.386 165.62 295.803 162.309 301.349C160.661 304.108 159.333 306.477 158.452 308.248C158.025 309.107 157.627 309.978 157.361 310.748C157.24 311.099 157.053 311.689 156.975 312.368C156.938 312.702 156.893 313.319 157.036 314.056C157.178 314.79 157.609 316.123 158.925 317.147L165.067 309.256ZM184.177 286.081C189.425 278.292 194.388 271.399 198.154 266.561C200.05 264.125 201.575 262.296 202.648 261.148C203.206 260.551 203.509 260.282 203.598 260.213C203.664 260.161 203.459 260.338 203.05 260.52C202.915 260.581 201.151 261.415 199.096 260.387L203.571 251.444C201.368 250.342 199.391 251.203 198.981 251.386C198.298 251.69 197.756 252.086 197.428 252.343C196.728 252.892 196.009 253.606 195.342 254.32C193.963 255.795 192.222 257.901 190.262 260.419C186.318 265.487 181.219 272.575 175.884 280.492L184.177 286.081ZM157.728 316.181C159.607 314.559 161.674 315.083 161.933 315.149C162.221 315.223 162.421 315.308 162.511 315.348C162.609 315.392 162.662 315.423 162.663 315.424C162.667 315.426 162.645 315.413 162.592 315.378C162.541 315.344 162.471 315.296 162.381 315.23C162.199 315.098 161.965 314.917 161.676 314.68C160.489 313.707 158.755 312.108 156.556 309.933C152.191 305.615 146.314 299.345 139.918 292.089L132.416 298.701C138.91 306.069 144.948 312.516 149.524 317.043C151.796 319.29 153.789 321.146 155.337 322.414C156.083 323.025 156.895 323.642 157.676 324.091C158.037 324.299 158.669 324.636 159.453 324.837C159.988 324.974 162.257 325.481 164.262 323.751L157.728 316.181ZM139.882 292.049C133.519 284.983 127.963 278.391 124.099 273.495C122.158 271.036 120.694 269.068 119.777 267.712C119.303 267.012 119.062 266.601 118.973 266.427C118.915 266.313 119.013 266.477 119.107 266.815C119.153 266.978 119.262 267.403 119.262 267.981C119.263 268.516 119.169 269.749 118.238 270.945L110.346 264.803C109.375 266.05 109.262 267.357 109.262 267.988C109.263 268.661 109.392 269.204 109.476 269.507C109.649 270.124 109.902 270.653 110.072 270.985C110.44 271.704 110.95 272.511 111.494 273.315C112.612 274.967 114.248 277.155 116.25 279.691C120.271 284.787 125.971 291.546 132.452 298.741L139.882 292.049ZM117.559 271.659C115.679 273.281 113.613 272.757 113.354 272.691C113.066 272.617 112.865 272.532 112.776 272.492C112.678 272.448 112.624 272.417 112.623 272.416C112.619 272.414 112.642 272.427 112.694 272.461C112.746 272.496 112.816 272.544 112.906 272.609C113.088 272.742 113.322 272.923 113.611 273.16C114.798 274.133 116.532 275.732 118.73 277.907C123.096 282.225 128.973 288.495 135.368 295.751L142.87 289.139C136.376 281.771 130.339 275.324 125.763 270.797C123.491 268.55 121.497 266.694 119.949 265.426C119.204 264.815 118.392 264.198 117.61 263.748C117.25 263.541 116.617 263.204 115.834 263.003C115.299 262.866 113.029 262.359 111.025 264.089L117.559 271.659ZM135.456 295.848C141.99 302.88 147.617 309.442 151.46 314.311C153.394 316.762 154.808 318.697 155.651 320.008C155.857 320.327 156.014 320.586 156.127 320.786C156.183 320.886 156.224 320.963 156.253 321.02C156.283 321.078 156.294 321.104 156.293 321.101C156.292 321.098 156.286 321.085 156.277 321.06C156.267 321.036 156.253 320.996 156.236 320.943C156.206 320.85 156.144 320.638 156.104 320.339C156.07 320.088 155.771 317.869 157.728 316.181L164.262 323.751C166.343 321.955 166.086 319.538 166.014 319.003C165.905 318.193 165.639 317.52 165.474 317.137C165.114 316.304 164.589 315.417 164.06 314.594C162.959 312.885 161.318 310.659 159.309 308.115C155.266 302.993 149.457 296.225 142.782 289.042L135.456 295.848ZM130.032 315.945C131.535 314.647 133.181 314.755 133.733 314.835C134.336 314.921 134.712 315.11 134.739 315.123C134.835 315.169 134.684 315.103 134.205 314.741C133.313 314.067 131.973 312.898 130.237 311.247C126.805 307.983 122.235 303.225 117.362 297.81L109.929 304.499C114.905 310.028 119.662 314.99 123.345 318.493C125.166 320.225 126.83 321.702 128.178 322.72C128.819 323.205 129.597 323.746 130.404 324.134C130.787 324.319 131.464 324.611 132.31 324.733C133.106 324.847 134.938 324.921 136.566 323.515L130.032 315.945ZM117.342 297.787C112.302 292.253 108.058 287.104 105.181 283.284C103.732 281.359 102.69 279.851 102.073 278.841C101.923 278.595 101.811 278.401 101.732 278.253C101.649 278.099 101.623 278.036 101.628 278.049C101.632 278.058 101.655 278.112 101.684 278.203C101.711 278.288 101.762 278.463 101.802 278.705C101.824 278.838 102.173 280.628 100.845 282.335L92.9531 276.193C91.5448 278.003 91.875 279.965 91.9364 280.337C92.0475 281.008 92.2612 281.569 92.402 281.906C92.7018 282.623 93.1219 283.37 93.5369 284.05C94.3977 285.461 95.6587 287.262 97.1931 289.3C100.284 293.404 104.732 298.792 109.949 304.521L117.342 297.787ZM100.166 283.05C98.6624 284.347 97.0164 284.239 96.4645 284.16C95.862 284.073 95.4861 283.885 95.4587 283.872C95.363 283.826 95.5139 283.892 95.9924 284.254C96.8847 284.928 98.2251 286.096 99.961 287.748C103.393 291.012 107.962 295.769 112.836 301.185L120.269 294.496C115.293 288.966 110.536 284.005 106.853 280.502C105.031 278.769 103.368 277.292 102.02 276.274C101.379 275.79 100.601 275.249 99.7938 274.86C99.4107 274.676 98.7336 274.383 97.8875 274.262C97.092 274.147 95.2602 274.074 93.632 275.479L100.166 283.05ZM112.856 301.207C117.922 306.77 122.259 311.915 125.177 315.725C126.653 317.653 127.677 319.125 128.25 320.087C128.558 320.605 128.603 320.757 128.564 320.646C128.553 320.614 128.402 320.201 128.389 319.567C128.377 318.97 128.491 317.275 130.032 315.945L136.566 323.515C138.232 322.078 138.404 320.205 138.387 319.365C138.369 318.488 138.15 317.765 138.01 317.362C137.713 316.508 137.256 315.667 136.843 314.973C135.972 313.51 134.671 311.675 133.117 309.646C129.976 305.543 125.44 300.174 120.249 294.474L112.856 301.207ZM140.568 220.206C138.656 218.718 138.71 216.64 138.713 216.434C138.716 216.149 138.748 215.938 138.766 215.835C138.786 215.724 138.805 215.653 138.809 215.636C138.811 215.63 138.738 215.866 138.48 216.437C137.992 217.516 137.139 219.149 135.937 221.259C133.555 225.444 130.013 231.135 125.862 237.3L134.158 242.885C138.411 236.567 142.092 230.66 144.627 226.208C145.884 224 146.914 222.055 147.591 220.557C147.916 219.839 148.247 219.036 148.455 218.274C148.551 217.922 148.703 217.295 148.712 216.557C148.718 216.118 148.723 213.881 146.71 212.314L140.568 220.206ZM125.862 237.3C121.734 243.432 117.797 248.692 114.832 252.3C113.335 254.12 112.157 255.433 111.367 256.212C110.945 256.629 110.786 256.739 110.839 256.703C110.868 256.683 110.946 256.63 111.067 256.563C111.18 256.502 111.403 256.387 111.715 256.283C112.056 256.169 114.14 255.516 116.139 257.072L109.997 264.963C112.099 266.599 114.338 265.95 114.886 265.766C115.649 265.512 116.231 265.133 116.533 264.924C117.197 264.463 117.842 263.872 118.389 263.332C119.54 262.197 120.971 260.579 122.557 258.65C125.757 254.757 129.883 249.235 134.158 242.885L125.862 237.3ZM116.139 257.072C118.05 258.559 117.996 260.638 117.994 260.843C117.99 261.128 117.959 261.34 117.941 261.442C117.921 261.554 117.902 261.624 117.897 261.642C117.896 261.648 117.969 261.412 118.227 260.841C118.715 259.762 119.568 258.129 120.77 256.018C123.152 251.834 126.694 246.143 130.844 239.978L122.549 234.393C118.296 240.711 114.615 246.618 112.08 251.07C110.823 253.278 109.793 255.223 109.115 256.721C108.791 257.439 108.46 258.242 108.252 259.004C108.156 259.355 108.004 259.983 107.995 260.721C107.989 261.16 107.984 263.396 109.997 264.963L116.139 257.072ZM130.798 240.045C134.974 234.055 138.932 228.766 141.914 225.088C143.419 223.232 144.603 221.876 145.404 221.059C145.832 220.623 145.999 220.498 145.959 220.527C145.934 220.545 145.859 220.598 145.741 220.666C145.633 220.729 145.413 220.849 145.102 220.961C144.78 221.077 142.633 221.813 140.568 220.206L146.71 212.314C144.543 210.628 142.239 211.363 141.711 211.553C140.954 211.826 140.38 212.22 140.087 212.433C139.437 212.903 138.804 213.507 138.266 214.055C137.134 215.209 135.718 216.851 134.146 218.791C130.973 222.705 126.868 228.197 122.595 234.326L130.798 240.045ZM217.008 277.075C215.097 275.587 215.151 273.509 215.153 273.303C215.157 273.018 215.189 272.807 215.207 272.704C215.226 272.593 215.245 272.522 215.25 272.505C215.251 272.499 215.178 272.735 214.92 273.306C214.432 274.385 213.579 276.018 212.377 278.128C209.995 282.313 206.453 288.004 202.303 294.169L210.598 299.754C214.851 293.436 218.532 287.529 221.067 283.077C222.325 280.869 223.354 278.924 224.032 277.426C224.356 276.708 224.687 275.905 224.896 275.143C224.992 274.792 225.144 274.164 225.153 273.426C225.158 272.987 225.163 270.75 223.15 269.183L217.008 277.075ZM202.303 294.169C198.175 300.301 194.238 305.561 191.272 309.169C189.775 310.99 188.597 312.302 187.808 313.081C187.385 313.498 187.227 313.608 187.279 313.572C187.308 313.552 187.386 313.499 187.508 313.432C187.62 313.371 187.843 313.256 188.155 313.152C188.497 313.038 190.58 312.385 192.579 313.941L186.437 321.832C188.539 323.468 190.778 322.819 191.327 322.636C192.089 322.381 192.671 322.002 192.973 321.793C193.637 321.333 194.282 320.741 194.829 320.201C195.98 319.066 197.411 317.448 198.997 315.519C202.197 311.626 206.323 306.104 210.598 299.754L202.303 294.169ZM192.579 313.941C194.491 315.429 194.437 317.507 194.434 317.712C194.431 317.997 194.399 318.209 194.381 318.312C194.361 318.423 194.343 318.493 194.338 318.511C194.336 318.517 194.409 318.281 194.667 317.71C195.156 316.631 196.008 314.998 197.21 312.887C199.593 308.703 203.134 303.012 207.285 296.847L198.989 291.262C194.736 297.58 191.055 303.487 188.52 307.939C187.263 310.147 186.233 312.092 185.556 313.59C185.231 314.308 184.9 315.111 184.692 315.873C184.596 316.224 184.444 316.852 184.435 317.59C184.43 318.029 184.424 320.265 186.437 321.832L192.579 313.941ZM207.292 296.837C211.274 290.89 215.124 285.64 218.081 281.991C219.576 280.148 220.759 278.817 221.569 278.024C221.998 277.604 222.164 277.493 222.113 277.527C222.101 277.535 221.813 277.733 221.317 277.893C220.916 278.022 219.476 278.419 217.842 277.601L222.317 268.658C220.534 267.766 218.897 268.167 218.249 268.375C217.507 268.615 216.925 268.967 216.575 269.2C215.847 269.685 215.156 270.308 214.573 270.879C213.359 272.068 211.896 273.741 210.313 275.694C207.117 279.637 203.086 285.145 198.982 291.272L207.292 296.837Z" fill="#522D0B" mask="url(#path-16-inside-3_172_518)"/>
<mask id="path-18-inside-4_172_518" fill="white">
<path d="M188.691 320.2C187.691 321.063 171.216 304.304 151.881 282.368C132.183 260.477 117.024 242.447 118.023 241.585C119.023 240.723 135.498 257.482 154.833 279.418C174.486 300.945 189.69 319.338 188.691 320.2Z"/>
</mask>
<path d="M188.691 320.2C187.691 321.063 171.216 304.304 151.881 282.368C132.183 260.477 117.024 242.447 118.023 241.585C119.023 240.723 135.498 257.482 154.833 279.418C174.486 300.945 189.69 319.338 188.691 320.2Z" fill="#D3976E"/>
<path d="M151.881 282.368L155.632 279.062L155.615 279.042L155.598 279.023L151.881 282.368ZM154.833 279.418L151.082 282.724L151.111 282.756L151.14 282.789L154.833 279.418ZM185.424 316.415C186.891 315.149 188.505 315.191 189.128 315.263C189.79 315.34 190.245 315.54 190.368 315.595C190.651 315.722 190.736 315.808 190.528 315.658C190.176 315.406 189.541 314.887 188.586 314.025C186.715 312.338 184.044 309.726 180.74 306.341C174.152 299.592 165.258 289.983 155.632 279.062L148.13 285.674C157.838 296.689 166.85 306.427 173.583 313.326C176.94 316.765 179.783 319.552 181.887 321.45C182.919 322.381 183.886 323.201 184.702 323.786C185.078 324.055 185.638 324.434 186.281 324.722C186.585 324.858 187.192 325.106 187.975 325.197C188.721 325.283 190.428 325.305 191.957 323.985L185.424 316.415ZM155.598 279.023C145.771 268.103 137.103 258.174 131.032 250.89C127.986 247.236 125.645 244.307 124.146 242.275C123.379 241.236 122.926 240.556 122.712 240.185C122.584 239.963 122.669 240.068 122.771 240.378C122.815 240.513 122.977 241.014 122.977 241.717C122.976 242.409 122.797 244.07 121.29 245.37L114.757 237.8C113.187 239.154 112.977 240.902 112.977 241.714C112.976 242.538 113.169 243.192 113.274 243.511C113.498 244.191 113.826 244.793 114.054 245.189C114.555 246.055 115.276 247.096 116.098 248.211C117.776 250.486 120.268 253.595 123.35 257.292C129.533 264.711 138.293 274.742 148.164 285.712L155.598 279.023ZM121.29 245.37C119.823 246.636 118.209 246.595 117.585 246.522C116.924 246.445 116.469 246.246 116.345 246.19C116.063 246.064 115.978 245.978 116.186 246.127C116.537 246.379 117.173 246.898 118.128 247.761C119.999 249.448 122.67 252.059 125.974 255.445C132.562 262.194 141.456 271.803 151.082 282.724L158.584 276.111C148.875 265.097 139.864 255.358 133.13 248.46C129.774 245.021 126.931 242.233 124.827 240.335C123.795 239.405 122.828 238.585 122.012 238C121.636 237.73 121.075 237.351 120.433 237.064C120.129 236.928 119.522 236.68 118.739 236.589C117.993 236.502 116.286 236.48 114.757 237.8L121.29 245.37ZM151.14 282.789C160.929 293.511 169.588 303.429 175.657 310.75C178.701 314.421 181.045 317.381 182.546 319.438C183.313 320.49 183.77 321.183 183.987 321.564C184.117 321.79 184.037 321.692 183.939 321.391C183.896 321.262 183.738 320.768 183.737 320.074C183.736 319.404 183.903 317.728 185.424 316.415L191.957 323.985C193.541 322.619 193.738 320.855 193.737 320.063C193.736 319.248 193.547 318.599 193.443 318.282C193.222 317.606 192.899 317.004 192.67 316.603C192.17 315.728 191.449 314.675 190.625 313.545C188.942 311.238 186.444 308.092 183.355 304.367C177.159 296.893 168.39 286.852 158.526 276.046L151.14 282.789Z" fill="#522D0B" mask="url(#path-18-inside-4_172_518)"/>
<path d="M152.944 182.896C152.944 182.896 152.945 182.9 152.946 182.908C152.944 182.9 152.944 182.896 152.944 182.896ZM217.748 241.408C217.748 241.408 217.748 241.411 217.747 241.417C217.748 241.411 217.748 241.408 217.748 241.408Z" fill="#89664C" stroke="#522D0B" stroke-width="5"/>
<g opacity="0.67">
<mask id="path-21-inside-5_172_518" fill="white">
<path d="M183.689 200.201C181.512 194.571 176.294 182.31 163.9 180.536C151.505 178.761 157 175.494 164.038 175.723C171.075 175.952 179.609 182.266 184.009 193.891C187.321 202.7 185.232 203.698 183.689 200.201Z"/>
</mask>
<path d="M183.689 200.201C181.512 194.571 176.294 182.31 163.9 180.536C151.505 178.761 157 175.494 164.038 175.723C171.075 175.952 179.609 182.266 184.009 193.891C187.321 202.7 185.232 203.698 183.689 200.201Z" fill="#89664C"/>
<path d="M183.689 200.201L179.026 202.005L179.068 202.113L179.115 202.22L183.689 200.201ZM184.009 193.891L188.689 192.131L188.685 192.12L184.009 193.891ZM188.353 198.398C187.232 195.5 185.168 190.444 181.562 185.839C177.909 181.175 172.455 176.71 164.609 175.586L163.191 185.485C167.739 186.136 171.091 188.689 173.69 192.006C176.335 195.383 177.969 199.272 179.026 202.005L188.353 198.398ZM164.609 175.586C161.624 175.159 160.295 174.707 159.918 174.52C159.653 174.389 160.379 174.655 160.962 175.657C161.311 176.256 161.586 177.092 161.526 178.072C161.468 179.029 161.112 179.766 160.784 180.237C160.472 180.685 160.157 180.938 160.011 181.045C159.929 181.105 159.865 181.145 159.827 181.166C159.808 181.178 159.793 181.186 159.784 181.191C159.774 181.196 159.769 181.198 159.769 181.198C159.768 181.198 159.783 181.191 159.815 181.179C159.847 181.166 159.891 181.15 159.95 181.131C160.068 181.092 160.226 181.047 160.426 181.001C161.262 180.809 162.489 180.675 163.875 180.72L164.2 170.726C162.068 170.656 159.968 170.845 158.183 171.256C157.295 171.46 156.364 171.747 155.498 172.156C154.748 172.51 153.493 173.21 152.58 174.518C152.076 175.242 151.62 176.239 151.545 177.462C151.469 178.708 151.812 179.815 152.32 180.688C153.222 182.238 154.634 183.064 155.488 183.485C157.346 184.403 159.979 185.025 163.191 185.485L164.609 175.586ZM163.875 180.72C168.231 180.862 175.379 185.215 179.333 195.661L188.685 192.12C183.839 179.317 173.919 171.042 164.2 170.726L163.875 180.72ZM179.329 195.65C180.094 197.684 180.487 199.115 180.663 200.029C180.89 201.208 180.641 200.945 180.921 200.096C181.076 199.624 181.778 197.924 183.881 197.282C185.919 196.66 187.413 197.609 187.781 197.875C188.527 198.413 188.55 198.833 188.264 198.183L179.115 202.22C179.599 203.318 180.462 204.925 181.93 205.984C182.659 206.51 184.485 207.554 186.802 206.846C189.184 206.118 190.112 204.154 190.418 203.226C190.999 201.462 190.748 199.517 190.483 198.14C190.167 196.499 189.58 194.501 188.689 192.131L179.329 195.65Z" fill="#522D0B" mask="url(#path-21-inside-5_172_518)"/>
</g>
<path d="M167.237 170.433C167.237 170.433 167.24 170.438 167.243 170.447C167.238 170.438 167.236 170.433 167.237 170.433Z" fill="#89664C" stroke="#522D0B" stroke-width="5"/>
<path d="M65.438 238.148C56.8716 232.219 48.462 225.792 39.6026 220.291C38.4554 219.579 37.1739 219.045 35.9458 218.486" stroke="#F9F089" stroke-width="5" stroke-linecap="round"/>
<path d="M272.202 238.267C280.768 232.338 289.178 225.911 298.037 220.41C299.184 219.698 300.466 219.164 301.694 218.605" stroke="#F9F089" stroke-width="5" stroke-linecap="round"/>
<path d="M79.1156 218.486C70.1305 202.283 62.6334 185.652 54.7524 168.905" stroke="#F9F089" stroke-width="5" stroke-linecap="round"/>
<path d="M258.524 218.606C267.509 202.402 275.006 185.771 282.887 169.024" stroke="#F9F089" stroke-width="5" stroke-linecap="round"/>
<path d="M96.6399 201.39C91.7878 177.111 85.4709 152.469 82.535 127.825C82.4222 126.879 82.535 125.841 82.535 124.881" stroke="#F9F089" stroke-width="5" stroke-linecap="round"/>
<path d="M241 201.509C245.852 177.23 252.169 152.588 255.105 127.944C255.218 126.998 255.105 125.96 255.105 125" stroke="#F9F089" stroke-width="5" stroke-linecap="round"/>
<path d="M60.3088 340.729C64.8675 339.299 69.713 337.325 74.5088 336.74C75.533 336.615 75.7589 336.805 76.456 337.31C77.3811 337.98 78.211 338.933 78.6881 339.97C80.1629 343.176 82.2568 345.917 84.3395 348.755C85.4874 350.32 86.4439 352.659 88.2813 353.552C92.3678 355.539 98.2004 352.45 101.911 350.893C107.952 348.358 112.712 346.664 117.37 351.89C122.55 357.702 126.417 363.868 134.847 365.093C141.323 366.034 143.226 361.632 148.406 359.56C151.033 358.509 153.86 357.348 156.645 356.829C160.788 356.057 164.063 358.387 167.26 360.771C172.288 364.52 176.972 368.57 182.671 371.314C184.364 372.129 185.99 371.668 187.349 370.364C191.766 366.124 194.348 360.036 200.836 359.204C208.908 358.168 216.12 359.133 223.822 361.436C226.819 362.332 231.09 364.626 234.365 364.143C239.032 363.454 239.707 355.958 240.682 352.555C241.17 350.85 241.688 347.278 242.914 345.858C243.419 345.273 245.122 345.318 245.621 345.312C249.502 345.268 253.354 345.973 257.161 346.642C259.92 347.127 266.12 348.428 268.63 346.476C269.449 345.839 269.668 343.223 269.936 342.273C270.393 340.653 270.611 338.976 271.052 337.358C271.865 334.378 278.166 335.736 279.981 335.885C281.566 336.016 287.052 337.721 288.743 336.645C290.22 335.705 290.79 333.075 291.331 331.659C292.21 329.36 293.255 326.988 293.255 324.487" stroke="#F9F089" stroke-width="5" stroke-linecap="round"/>
</svg>
