<svg width="345" height="416" viewBox="0 0 345 416" fill="none" xmlns="http://www.w3.org/2000/svg">
<rect x="2.5" y="2.5" width="340" height="411" rx="22.5" fill="#F9F089" stroke="#522D0B" stroke-width="5"/>
<path d="M44.474 64.756L44.934 42.308L46.084 42.4L45.624 64.756C45.5933 66.3507 45.8693 67.5313 46.452 68.298C47.0653 69.0647 48.0773 69.448 49.488 69.448C49.58 69.448 49.626 69.54 49.626 69.724C49.626 69.908 49.58 70 49.488 70C48.8133 70 48.1233 69.9847 47.418 69.954C46.7127 69.9233 45.9153 69.908 45.026 69.908C44.198 69.908 43.416 69.9233 42.68 69.954C41.944 69.9847 41.254 70 40.61 70C40.5487 70 40.518 69.908 40.518 69.724C40.518 69.54 40.5487 69.448 40.61 69.448C41.898 69.448 42.8487 69.0647 43.462 68.298C44.106 67.5313 44.4433 66.3507 44.474 64.756ZM76.674 69.448C76.7353 69.448 76.766 69.54 76.766 69.724C76.766 69.908 76.7353 70 76.674 70C75.9073 70 75.0487 69.9847 74.098 69.954C73.1473 69.9233 72.1353 69.908 71.062 69.908C70.05 69.908 69.0993 69.9233 68.21 69.954C67.3207 69.9847 66.5233 70 65.818 70C65.726 70 65.68 69.908 65.68 69.724C65.68 69.54 65.726 69.448 65.818 69.448C67.3207 69.448 68.2867 69.2487 68.716 68.85C69.1453 68.4513 69.314 67.5927 69.222 66.274L68.302 44.608L70.096 42.032L58.182 69.678C58.1513 69.8007 58.0287 69.862 57.814 69.862C57.63 69.862 57.5073 69.8007 57.446 69.678L45.44 45.068C44.3667 42.8907 42.864 41.802 40.932 41.802C40.8707 41.802 40.84 41.71 40.84 41.526C40.84 41.342 40.8707 41.25 40.932 41.25C41.484 41.25 42.0513 41.2653 42.634 41.296C43.2473 41.3267 43.7687 41.342 44.198 41.342C44.7807 41.342 45.302 41.3267 45.762 41.296C46.2527 41.2653 46.6207 41.25 46.866 41.25C47.2953 41.25 47.6327 41.4033 47.878 41.71C48.1233 41.986 48.4913 42.63 48.982 43.642L59.424 64.848L57.722 67.792L68.808 42.4C68.9613 42.032 69.1453 41.756 69.36 41.572C69.6053 41.3573 69.8813 41.25 70.188 41.25C70.4027 41.25 70.6633 41.2653 70.97 41.296C71.3073 41.3267 71.6907 41.342 72.12 41.342C72.9787 41.342 73.6993 41.3267 74.282 41.296C74.8647 41.2653 75.4627 41.25 76.076 41.25C76.1373 41.25 76.168 41.342 76.168 41.526C76.168 41.71 76.1373 41.802 76.076 41.802C74.604 41.802 73.5307 42.0473 72.856 42.538C72.1813 42.998 71.8593 43.8567 71.89 45.114L72.856 66.274C72.9173 67.1633 73.04 67.838 73.224 68.298C73.408 68.758 73.7607 69.0647 74.282 69.218C74.8033 69.3713 75.6007 69.448 76.674 69.448ZM97.6867 52.244C97.7787 52.244 97.8247 52.336 97.8247 52.52C97.8247 52.704 97.7787 52.796 97.6867 52.796C96.828 52.796 96.092 53.118 95.4787 53.762C94.896 54.406 94.3593 55.4027 93.8687 56.752L88.3947 71.288C87.2907 74.232 86.2327 76.5473 85.2207 78.234C84.2087 79.9513 83.166 81.1627 82.0927 81.868C81.0193 82.5733 79.8387 82.926 78.5507 82.926C77.8453 82.926 77.2627 82.7573 76.8027 82.42C76.312 82.1133 76.0667 81.638 76.0667 80.994C76.0667 80.442 76.2353 80.028 76.5727 79.752C76.91 79.5067 77.2933 79.384 77.7227 79.384C78.3053 79.384 78.75 79.476 79.0567 79.66C79.3633 79.844 79.67 80.028 79.9767 80.212C80.2833 80.396 80.682 80.488 81.1727 80.488C81.9087 80.488 82.614 80.1507 83.2887 79.476C83.9633 78.8013 84.684 77.6513 85.4507 76.026C86.2173 74.4313 87.1067 72.2387 88.1187 69.448L88.0727 71.15L80.6207 56.062C79.946 54.7127 79.4093 53.8387 79.0107 53.44C78.6427 53.0107 78.1827 52.796 77.6307 52.796C77.5387 52.796 77.4927 52.704 77.4927 52.52C77.4927 52.336 77.5387 52.244 77.6307 52.244C78.152 52.244 78.704 52.2593 79.2867 52.29C79.8693 52.3207 80.4213 52.336 80.9427 52.336C81.9853 52.336 82.89 52.3207 83.6567 52.29C84.454 52.2593 85.1747 52.244 85.8187 52.244C85.88 52.244 85.9107 52.336 85.9107 52.52C85.9107 52.704 85.88 52.796 85.8187 52.796C84.8067 52.796 84.0707 52.9187 83.6107 53.164C83.1813 53.4093 83.1353 53.8847 83.4727 54.59L89.6827 67.24L88.3947 69.402L92.7647 56.844C93.2553 55.4333 93.2553 54.406 92.7647 53.762C92.3047 53.118 91.3233 52.796 89.8207 52.796C89.7593 52.796 89.7287 52.704 89.7287 52.52C89.7287 52.336 89.7593 52.244 89.8207 52.244C90.5567 52.244 91.2467 52.2593 91.8907 52.29C92.5653 52.3207 93.424 52.336 94.4667 52.336C95.1413 52.336 95.6933 52.3207 96.1227 52.29C96.5827 52.2593 97.104 52.244 97.6867 52.244ZM98.3601 82.65C98.2988 82.65 98.2681 82.558 98.2681 82.374C98.2681 82.19 98.2988 82.098 98.3601 82.098C99.6788 82.098 100.522 81.8987 100.89 81.5C101.289 81.1013 101.488 80.2427 101.488 78.924V55.97C101.488 54.6513 101.227 53.7927 100.706 53.394C100.215 52.9953 99.2801 52.796 97.9001 52.796C97.8081 52.796 97.7621 52.704 97.7621 52.52C97.7621 52.336 97.8081 52.244 97.9001 52.244C98.5748 52.244 99.2648 52.244 99.9701 52.244C100.706 52.244 101.396 52.244 102.04 52.244C102.684 52.244 103.236 52.244 103.696 52.244C104.064 52.244 104.309 52.3207 104.432 52.474C104.555 52.6273 104.616 52.934 104.616 53.394V78.924C104.616 79.7827 104.723 80.442 104.938 80.902C105.153 81.362 105.582 81.6687 106.226 81.822C106.87 82.006 107.805 82.098 109.032 82.098C109.124 82.098 109.17 82.19 109.17 82.374C109.17 82.558 109.124 82.65 109.032 82.65C108.204 82.65 107.284 82.6347 106.272 82.604C105.26 82.5733 104.187 82.558 103.052 82.558C102.193 82.558 101.35 82.5733 100.522 82.604C99.6941 82.6347 98.9735 82.65 98.3601 82.65ZM109.17 70.598C108.005 70.598 106.977 70.4753 106.088 70.23C105.229 69.9847 104.233 69.5247 103.098 68.85L104.11 66.228C104.877 67.1787 105.72 67.976 106.64 68.62C107.591 69.264 108.848 69.586 110.412 69.586C111.945 69.586 113.203 68.9113 114.184 67.562C115.196 66.182 115.702 64.1733 115.702 61.536C115.702 58.9293 115.119 56.9667 113.954 55.648C112.789 54.2987 111.393 53.624 109.768 53.624C108.48 53.624 107.345 53.9767 106.364 54.682C105.413 55.3873 104.493 56.246 103.604 57.258L103.144 56.844C104.708 55.0347 106.211 53.716 107.652 52.888C109.093 52.06 110.55 51.646 112.022 51.646C113.31 51.646 114.491 51.9833 115.564 52.658C116.637 53.302 117.511 54.2527 118.186 55.51C118.861 56.7673 119.198 58.3007 119.198 60.11C119.198 62.0113 118.876 63.6367 118.232 64.986C117.588 66.3047 116.76 67.378 115.748 68.206C114.736 69.034 113.647 69.632 112.482 70C111.347 70.3987 110.243 70.598 109.17 70.598ZM121.585 82.65C121.523 82.65 121.493 82.558 121.493 82.374C121.493 82.19 121.523 82.098 121.585 82.098C122.903 82.098 123.747 81.8987 124.115 81.5C124.513 81.1013 124.713 80.2427 124.713 78.924V55.97C124.713 54.6513 124.452 53.7927 123.931 53.394C123.44 52.9953 122.505 52.796 121.125 52.796C121.033 52.796 120.987 52.704 120.987 52.52C120.987 52.336 121.033 52.244 121.125 52.244C121.799 52.244 122.489 52.244 123.195 52.244C123.931 52.244 124.621 52.244 125.265 52.244C125.909 52.244 126.461 52.244 126.921 52.244C127.289 52.244 127.534 52.3207 127.657 52.474C127.779 52.6273 127.841 52.934 127.841 53.394V78.924C127.841 79.7827 127.948 80.442 128.163 80.902C128.377 81.362 128.807 81.6687 129.451 81.822C130.095 82.006 131.03 82.098 132.257 82.098C132.349 82.098 132.395 82.19 132.395 82.374C132.395 82.558 132.349 82.65 132.257 82.65C131.429 82.65 130.509 82.6347 129.497 82.604C128.485 82.5733 127.411 82.558 126.277 82.558C125.418 82.558 124.575 82.5733 123.747 82.604C122.919 82.6347 122.198 82.65 121.585 82.65ZM132.395 70.598C131.229 70.598 130.202 70.4753 129.313 70.23C128.454 69.9847 127.457 69.5247 126.323 68.85L127.335 66.228C128.101 67.1787 128.945 67.976 129.865 68.62C130.815 69.264 132.073 69.586 133.637 69.586C135.17 69.586 136.427 68.9113 137.409 67.562C138.421 66.182 138.927 64.1733 138.927 61.536C138.927 58.9293 138.344 56.9667 137.179 55.648C136.013 54.2987 134.618 53.624 132.993 53.624C131.705 53.624 130.57 53.9767 129.589 54.682C128.638 55.3873 127.718 56.246 126.829 57.258L126.369 56.844C127.933 55.0347 129.435 53.716 130.877 52.888C132.318 52.06 133.775 51.646 135.247 51.646C136.535 51.646 137.715 51.9833 138.789 52.658C139.862 53.302 140.736 54.2527 141.411 55.51C142.085 56.7673 142.423 58.3007 142.423 60.11C142.423 62.0113 142.101 63.6367 141.457 64.986C140.813 66.3047 139.985 67.378 138.973 68.206C137.961 69.034 136.872 69.632 135.707 70C134.572 70.3987 133.468 70.598 132.395 70.598ZM145.499 62.548C145.407 62.548 145.346 62.3793 145.315 62.042C145.285 61.7047 145.269 61.3673 145.269 61.03C145.3 60.662 145.346 60.478 145.407 60.478L157.413 58.316C157.505 58.2853 157.567 58.454 157.597 58.822C157.628 59.1593 157.628 59.4967 157.597 59.834C157.567 60.1713 157.505 60.3553 157.413 60.386L145.499 62.548ZM169.568 70.552C167.452 70.552 165.72 70.1073 164.37 69.218C163.052 68.298 162.07 67.148 161.426 65.768C160.813 64.3573 160.506 62.9313 160.506 61.49C160.506 59.9567 160.813 58.592 161.426 57.396C162.04 56.2 162.837 55.188 163.818 54.36C164.83 53.532 165.95 52.9033 167.176 52.474C168.403 52.0447 169.614 51.83 170.81 51.83C171.669 51.83 172.512 51.9527 173.34 52.198C174.199 52.4433 174.904 52.796 175.456 53.256C176.008 53.6853 176.284 54.2067 176.284 54.82C176.284 55.2493 176.116 55.648 175.778 56.016C175.472 56.3533 175.012 56.522 174.398 56.522C173.816 56.522 173.34 56.3533 172.972 56.016C172.604 55.6787 172.313 55.2493 172.098 54.728C171.822 54.1147 171.485 53.6393 171.086 53.302C170.688 52.934 170.059 52.75 169.2 52.75C167.575 52.75 166.302 53.4247 165.382 54.774C164.493 56.1233 164.048 57.8867 164.048 60.064C164.048 61.5973 164.309 63.0387 164.83 64.388C165.352 65.7067 166.164 66.7647 167.268 67.562C168.372 68.3593 169.814 68.758 171.592 68.758C172.451 68.758 173.248 68.6507 173.984 68.436C174.751 68.1907 175.487 67.8227 176.192 67.332C176.284 67.2707 176.376 67.3013 176.468 67.424C176.591 67.5467 176.606 67.6387 176.514 67.7C175.472 68.6507 174.398 69.3713 173.294 69.862C172.19 70.322 170.948 70.552 169.568 70.552ZM192.345 70.276C192.222 70.3373 192.084 70.368 191.931 70.368C191.471 70.368 191.026 70.0307 190.597 69.356C190.198 68.6507 189.999 67.654 189.999 66.366V58.27C189.999 56.9207 189.876 55.8473 189.631 55.05C189.416 54.2527 189.094 53.6853 188.665 53.348C188.266 52.98 187.791 52.796 187.239 52.796C186.564 52.796 185.997 52.9647 185.537 53.302C185.077 53.6393 184.724 54.0993 184.479 54.682C184.264 55.234 184.111 55.8473 184.019 56.522C183.957 57.1047 183.773 57.5953 183.467 57.994C183.191 58.362 182.7 58.546 181.995 58.546C181.443 58.546 181.013 58.408 180.707 58.132C180.4 57.856 180.247 57.4727 180.247 56.982C180.247 56.3993 180.538 55.8167 181.121 55.234C181.703 54.6207 182.439 54.0533 183.329 53.532C184.218 53.0107 185.138 52.5967 186.089 52.29C187.07 51.9833 187.975 51.83 188.803 51.83C190.029 51.83 191.057 52.244 191.885 53.072C192.713 53.8693 193.127 55.142 193.127 56.89V65.032C193.127 66.044 193.265 66.7953 193.541 67.286C193.817 67.7767 194.261 68.022 194.875 68.022C195.396 68.022 196.071 67.8533 196.899 67.516C197.021 67.4547 197.113 67.516 197.175 67.7C197.267 67.8533 197.236 67.9607 197.083 68.022L192.345 70.276ZM183.099 70.322C182.117 70.322 181.366 70.0613 180.845 69.54C180.323 69.0187 180.063 68.3593 180.063 67.562C180.063 66.6113 180.431 65.8907 181.167 65.4C181.903 64.9093 183.083 64.388 184.709 63.836L190.459 61.858L190.597 62.41L185.905 64.204C185.169 64.48 184.647 64.7867 184.341 65.124C184.034 65.4613 183.881 65.8907 183.881 66.412C183.881 67.056 184.065 67.562 184.433 67.93C184.801 68.298 185.276 68.482 185.859 68.482C186.165 68.482 186.487 68.436 186.825 68.344C187.162 68.252 187.515 68.1293 187.883 67.976L191.379 66.136L191.425 66.78L187.469 68.942C186.579 69.402 185.782 69.7547 185.077 70C184.402 70.2147 183.743 70.322 183.099 70.322ZM198.597 70C198.505 70 198.459 69.908 198.459 69.724C198.459 69.54 198.505 69.448 198.597 69.448C199.793 69.448 200.544 69.2333 200.851 68.804C201.188 68.3747 201.357 67.5007 201.357 66.182V55.97C201.357 54.6207 201.188 53.762 200.851 53.394C200.544 52.9953 199.793 52.796 198.597 52.796C198.505 52.796 198.459 52.704 198.459 52.52C198.459 52.336 198.505 52.244 198.597 52.244C199.18 52.244 199.839 52.2593 200.575 52.29C201.342 52.3207 202.093 52.336 202.829 52.336C203.565 52.336 204.286 52.3207 204.991 52.29C205.727 52.2593 206.371 52.244 206.923 52.244C206.984 52.244 207.015 52.336 207.015 52.52C207.015 52.704 206.984 52.796 206.923 52.796C205.88 52.796 205.206 52.9953 204.899 53.394C204.623 53.762 204.485 54.6207 204.485 55.97V66.274C204.485 67.1633 204.5 67.8073 204.531 68.206C204.592 68.574 204.761 68.804 205.037 68.896C205.313 68.9573 205.758 68.988 206.371 68.988H210.695C211.339 68.988 211.799 68.9573 212.075 68.896C212.351 68.804 212.52 68.574 212.581 68.206C212.642 67.8073 212.673 67.1787 212.673 66.32V55.97C212.673 54.6207 212.52 53.762 212.213 53.394C211.937 52.9953 211.232 52.796 210.097 52.796C210.005 52.796 209.959 52.704 209.959 52.52C209.959 52.336 210.005 52.244 210.097 52.244C210.649 52.244 211.278 52.2593 211.983 52.29C212.719 52.3207 213.455 52.336 214.191 52.336C214.927 52.336 215.648 52.3207 216.353 52.29C217.058 52.2593 217.687 52.244 218.239 52.244C218.331 52.244 218.377 52.336 218.377 52.52C218.377 52.704 218.331 52.796 218.239 52.796C217.227 52.796 216.568 52.9953 216.261 53.394C215.954 53.762 215.801 54.6207 215.801 55.97V66.274C215.801 67.1633 215.816 67.8073 215.847 68.206C215.908 68.574 216.077 68.804 216.353 68.896C216.66 68.9573 217.12 68.988 217.733 68.988H222.057C222.732 68.988 223.207 68.9573 223.483 68.896C223.759 68.804 223.912 68.5587 223.943 68.16C224.004 67.7613 224.035 67.102 224.035 66.182V55.97C224.035 54.6207 223.897 53.762 223.621 53.394C223.345 52.9953 222.701 52.796 221.689 52.796C221.597 52.796 221.551 52.704 221.551 52.52C221.551 52.336 221.597 52.244 221.689 52.244C222.21 52.244 222.808 52.2593 223.483 52.29C224.158 52.3207 224.848 52.336 225.553 52.336C226.35 52.336 227.132 52.3207 227.899 52.29C228.666 52.2593 229.371 52.244 230.015 52.244C230.076 52.244 230.107 52.336 230.107 52.52C230.107 52.704 230.076 52.796 230.015 52.796C228.788 52.796 228.006 52.9953 227.669 53.394C227.332 53.762 227.163 54.6207 227.163 55.97V66.228C227.163 67.5467 227.332 68.4207 227.669 68.85C228.006 69.2487 228.773 69.448 229.969 69.448C230.03 69.448 230.061 69.54 230.061 69.724C230.061 69.908 230.03 70 229.969 70H198.597ZM237.287 67.976L236.597 67.286L249.109 54.774L249.799 55.464L237.287 67.976ZM235.723 66.274V55.97C235.723 54.6207 235.555 53.762 235.217 53.394C234.88 52.9953 234.129 52.796 232.963 52.796C232.871 52.796 232.825 52.704 232.825 52.52C232.825 52.336 232.871 52.244 232.963 52.244C233.546 52.244 234.221 52.2593 234.987 52.29C235.754 52.3207 236.536 52.336 237.333 52.336C238.1 52.336 238.851 52.3207 239.587 52.29C240.354 52.2593 241.029 52.244 241.611 52.244C241.673 52.244 241.703 52.336 241.703 52.52C241.703 52.704 241.673 52.796 241.611 52.796C240.415 52.796 239.649 53.0107 239.311 53.44C239.005 53.8693 238.851 54.7433 238.851 56.062V66.274C238.851 67.5927 239.005 68.4513 239.311 68.85C239.649 69.2487 240.415 69.448 241.611 69.448C241.673 69.448 241.703 69.54 241.703 69.724C241.703 69.908 241.673 70 241.611 70C240.998 70 240.323 69.9847 239.587 69.954C238.851 69.9233 238.1 69.908 237.333 69.908C236.536 69.908 235.754 69.9233 234.987 69.954C234.221 69.9847 233.531 70 232.917 70C232.825 70 232.779 69.908 232.779 69.724C232.779 69.54 232.825 69.448 232.917 69.448C234.113 69.448 234.88 69.2487 235.217 68.85C235.555 68.4513 235.723 67.5927 235.723 66.274ZM248.097 66.274V55.97C248.097 54.6207 247.929 53.762 247.591 53.394C247.254 52.9953 246.503 52.796 245.337 52.796C245.245 52.796 245.199 52.704 245.199 52.52C245.199 52.336 245.245 52.244 245.337 52.244C245.92 52.244 246.595 52.2593 247.361 52.29C248.128 52.3207 248.91 52.336 249.707 52.336C250.474 52.336 251.225 52.3207 251.961 52.29C252.728 52.2593 253.403 52.244 253.985 52.244C254.047 52.244 254.077 52.336 254.077 52.52C254.077 52.704 254.047 52.796 253.985 52.796C252.789 52.796 252.023 53.0107 251.685 53.44C251.379 53.8693 251.225 54.7433 251.225 56.062V66.274C251.225 67.5927 251.379 68.4513 251.685 68.85C252.023 69.2487 252.789 69.448 253.985 69.448C254.047 69.448 254.077 69.54 254.077 69.724C254.077 69.908 254.047 70 253.985 70C253.372 70 252.697 69.9847 251.961 69.954C251.225 69.9233 250.474 69.908 249.707 69.908C248.91 69.908 248.113 69.9233 247.315 69.954C246.549 69.9847 245.874 70 245.291 70C245.199 70 245.153 69.908 245.153 69.724C245.153 69.54 245.199 69.448 245.291 69.448C246.487 69.448 247.254 69.2487 247.591 68.85C247.929 68.4513 248.097 67.5927 248.097 66.274ZM259.481 65.216L260.171 53.256L261.091 53.394L260.401 65.216C260.339 66.7187 260.539 67.8073 260.999 68.482C261.489 69.126 262.256 69.448 263.299 69.448C263.391 69.448 263.437 69.54 263.437 69.724C263.437 69.908 263.391 70 263.299 70C262.808 70 262.287 69.9847 261.735 69.954C261.183 69.9233 260.585 69.908 259.941 69.908C259.327 69.908 258.714 69.9233 258.101 69.954C257.518 69.9847 256.966 70 256.445 70C256.353 70 256.307 69.908 256.307 69.724C256.307 69.54 256.353 69.448 256.445 69.448C257.487 69.448 258.239 69.126 258.699 68.482C259.159 67.8073 259.419 66.7187 259.481 65.216ZM280.687 69.448C280.748 69.448 280.779 69.54 280.779 69.724C280.779 69.908 280.748 70 280.687 70C280.073 70 279.383 69.9847 278.617 69.954C277.85 69.9233 277.083 69.908 276.317 69.908C275.55 69.908 274.86 69.9233 274.247 69.954C273.633 69.9847 273.051 70 272.499 70C272.407 70 272.361 69.908 272.361 69.724C272.361 69.54 272.407 69.448 272.499 69.448C273.48 69.448 274.109 69.2487 274.385 68.85C274.691 68.4513 274.799 67.5927 274.707 66.274L273.879 53.9L274.707 52.796L268.175 68.62C268.113 68.7427 267.991 68.804 267.807 68.804C267.623 68.804 267.5 68.7427 267.439 68.62L261.091 56.062C260.416 54.682 259.741 53.7927 259.067 53.394C258.423 52.9953 257.763 52.796 257.089 52.796C257.027 52.796 256.997 52.704 256.997 52.52C256.997 52.336 257.027 52.244 257.089 52.244C257.61 52.244 258.085 52.2593 258.515 52.29C258.944 52.29 259.297 52.29 259.573 52.29C260.002 52.29 260.401 52.29 260.769 52.29C261.137 52.2593 261.413 52.244 261.597 52.244C262.118 52.244 262.517 52.3973 262.793 52.704C263.069 52.98 263.467 53.6087 263.989 54.59L269.279 65.124L267.807 67.332L273.557 53.394C273.679 53.026 273.863 52.75 274.109 52.566C274.385 52.3513 274.661 52.244 274.937 52.244C275.121 52.244 275.443 52.2593 275.903 52.29C276.363 52.29 276.838 52.29 277.329 52.29C277.942 52.29 278.433 52.29 278.801 52.29C279.169 52.2593 279.567 52.244 279.997 52.244C280.058 52.244 280.089 52.336 280.089 52.52C280.089 52.704 280.058 52.796 279.997 52.796C278.985 52.796 278.203 52.98 277.651 53.348C277.129 53.716 276.915 54.544 277.007 55.832L277.835 66.274C277.927 67.1633 278.034 67.838 278.157 68.298C278.279 68.758 278.525 69.0647 278.893 69.218C279.291 69.3713 279.889 69.448 280.687 69.448ZM287.51 67.976L286.82 67.286L299.332 54.774L300.022 55.464L287.51 67.976ZM285.946 66.274V55.97C285.946 54.6207 285.777 53.762 285.44 53.394C285.103 52.9953 284.351 52.796 283.186 52.796C283.094 52.796 283.048 52.704 283.048 52.52C283.048 52.336 283.094 52.244 283.186 52.244C283.769 52.244 284.443 52.2593 285.21 52.29C285.977 52.3207 286.759 52.336 287.556 52.336C288.323 52.336 289.074 52.3207 289.81 52.29C290.577 52.2593 291.251 52.244 291.834 52.244C291.895 52.244 291.926 52.336 291.926 52.52C291.926 52.704 291.895 52.796 291.834 52.796C290.638 52.796 289.871 53.0107 289.534 53.44C289.227 53.8693 289.074 54.7433 289.074 56.062V66.274C289.074 67.5927 289.227 68.4513 289.534 68.85C289.871 69.2487 290.638 69.448 291.834 69.448C291.895 69.448 291.926 69.54 291.926 69.724C291.926 69.908 291.895 70 291.834 70C291.221 70 290.546 69.9847 289.81 69.954C289.074 69.9233 288.323 69.908 287.556 69.908C286.759 69.908 285.977 69.9233 285.21 69.954C284.443 69.9847 283.753 70 283.14 70C283.048 70 283.002 69.908 283.002 69.724C283.002 69.54 283.048 69.448 283.14 69.448C284.336 69.448 285.103 69.2487 285.44 68.85C285.777 68.4513 285.946 67.5927 285.946 66.274ZM298.32 66.274V55.97C298.32 54.6207 298.151 53.762 297.814 53.394C297.477 52.9953 296.725 52.796 295.56 52.796C295.468 52.796 295.422 52.704 295.422 52.52C295.422 52.336 295.468 52.244 295.56 52.244C296.143 52.244 296.817 52.2593 297.584 52.29C298.351 52.3207 299.133 52.336 299.93 52.336C300.697 52.336 301.448 52.3207 302.184 52.29C302.951 52.2593 303.625 52.244 304.208 52.244C304.269 52.244 304.3 52.336 304.3 52.52C304.3 52.704 304.269 52.796 304.208 52.796C303.012 52.796 302.245 53.0107 301.908 53.44C301.601 53.8693 301.448 54.7433 301.448 56.062V66.274C301.448 67.5927 301.601 68.4513 301.908 68.85C302.245 69.2487 303.012 69.448 304.208 69.448C304.269 69.448 304.3 69.54 304.3 69.724C304.3 69.908 304.269 70 304.208 70C303.595 70 302.92 69.9847 302.184 69.954C301.448 69.9233 300.697 69.908 299.93 69.908C299.133 69.908 298.335 69.9233 297.538 69.954C296.771 69.9847 296.097 70 295.514 70C295.422 70 295.376 69.908 295.376 69.724C295.376 69.54 295.422 69.448 295.514 69.448C296.71 69.448 297.477 69.2487 297.814 68.85C298.151 68.4513 298.32 67.5927 298.32 66.274Z" fill="black"/>
<path d="M160.868 306.461C162.022 305.918 163.31 306.381 163.853 307.535L175.648 332.598C176.191 333.752 175.727 335.04 174.573 335.583C173.419 336.126 172.132 335.662 171.589 334.508L159.793 309.445C159.25 308.291 159.714 307.004 160.868 306.461Z" fill="#CA7D45" stroke="#522D0B" stroke-width="5"/>
<path d="M195.238 286.894C197.34 291.362 195.63 295.898 192.285 297.472L133.919 324.94C130.575 326.514 125.989 324.941 123.886 320.473L111.445 294.037C109.342 289.569 111.053 285.032 114.397 283.458L172.763 255.99C176.107 254.416 180.693 255.989 182.796 260.457L195.238 286.894Z" fill="#FFF4E3" stroke="#522D0B" stroke-width="5"/>
<path d="M139.379 260.796C140.533 260.253 141.821 260.717 142.364 261.871L148.666 275.26C149.209 276.414 148.745 277.702 147.591 278.245C146.437 278.788 145.15 278.325 144.606 277.171L138.305 263.781C137.762 262.627 138.225 261.339 139.379 260.796Z" fill="#CA7D45" stroke="#522D0B" stroke-width="5"/>
<path d="M162.518 224.869C169.752 240.239 161.504 259.947 143.153 268.584C124.802 277.22 104.358 271.015 97.1247 255.645C89.8909 240.275 98.1386 220.567 116.49 211.93C134.841 203.293 155.284 209.498 162.518 224.869Z" fill="#522D0B" stroke="#522D0B" stroke-width="5"/>
<path d="M111.911 202.43C113.065 201.887 114.353 202.351 114.896 203.505L121.198 216.895C121.741 218.049 121.277 219.336 120.123 219.879C118.969 220.422 117.682 219.959 117.139 218.805L110.837 205.415C110.294 204.261 110.757 202.973 111.911 202.43Z" fill="#CA7D45" stroke="#522D0B" stroke-width="5"/>
<path d="M146.199 179.129C147.947 182.843 148.039 185.868 147.165 188.481C146.263 191.179 144.227 193.75 141.151 196.283C135.481 200.952 127.058 204.898 118.224 209.036C117.352 209.444 116.476 209.854 115.598 210.268C114.402 210.83 113.214 211.395 112.034 211.955C103.552 215.983 95.5253 219.796 88.5828 221.176C84.6845 221.951 81.4196 221.889 78.7676 220.854C76.1944 219.851 73.8951 217.814 72.1004 214.001C71.7979 213.358 71.5158 212.028 71.4311 209.883C71.3495 207.817 71.4575 205.252 71.7452 202.331C72.3202 196.494 73.5937 189.421 75.3556 182.427C77.1193 175.426 79.3497 168.594 81.8084 163.212C83.0386 160.519 84.2981 158.252 85.5462 156.525C86.8213 154.761 87.9461 153.756 88.8388 153.32C89.7099 152.894 91.1656 152.641 93.3178 152.76C95.4236 152.877 97.9597 153.336 100.812 154.096C106.513 155.614 113.2 158.258 119.729 161.382C126.25 164.503 132.527 168.062 137.405 171.366C139.846 173.019 141.897 174.583 143.442 175.972C145.047 177.414 145.895 178.485 146.199 179.129Z" fill="#CA7D45" stroke="#522D0B" stroke-width="5"/>
<path d="M84.4435 144.064C85.5975 143.521 86.8851 143.985 87.4282 145.139L93.7297 158.529C94.2728 159.683 93.8093 160.97 92.6553 161.513C91.5012 162.057 90.2136 161.593 89.6705 160.439L83.369 147.049C82.8259 145.895 83.2894 144.608 84.4435 144.064Z" fill="#CA7D45" stroke="#522D0B" stroke-width="5"/>
<path d="M186.053 305.913C184.854 305.477 183.614 306.056 183.179 307.255L173.719 333.29C173.283 334.488 173.862 335.728 175.061 336.164C176.26 336.6 177.5 336.02 177.936 334.822L187.395 308.787C187.831 307.588 187.252 306.349 186.053 305.913Z" fill="#CA7D45" stroke="#522D0B" stroke-width="5"/>
<path d="M150.041 289.563C148.355 294.204 150.473 298.566 153.947 299.828L214.575 321.857C218.049 323.119 222.472 321.134 224.159 316.493L234.137 289.032C235.823 284.391 233.706 280.029 230.231 278.767L169.603 256.738C166.129 255.476 161.706 257.461 160.019 262.102L150.041 289.563Z" fill="#FFF4E3" stroke="#522D0B" stroke-width="5"/>
<path d="M203.286 258.479C202.087 258.043 200.847 258.622 200.412 259.821L195.358 273.73C194.922 274.928 195.501 276.168 196.7 276.604C197.899 277.04 199.139 276.46 199.574 275.262L204.628 261.353C205.064 260.154 204.485 258.914 203.286 258.479Z" fill="#CA7D45" stroke="#522D0B" stroke-width="5"/>
<path d="M176.966 224.812C171.165 240.778 181.176 259.651 200.239 266.578C219.301 273.504 239.093 265.46 244.895 249.494C250.696 233.528 240.685 214.655 221.622 207.728C202.56 200.802 182.768 208.846 176.966 224.812Z" fill="#522D0B" stroke="#522D0B" stroke-width="5"/>
<path d="M225.315 197.85C224.116 197.415 222.876 197.994 222.441 199.193L217.387 213.101C216.951 214.3 217.53 215.54 218.729 215.976C219.928 216.411 221.168 215.832 221.603 214.633L226.657 200.725C227.093 199.526 226.514 198.286 225.315 197.85Z" fill="#CA7D45" stroke="#522D0B" stroke-width="5"/>
<path d="M189.045 177.774C187.643 181.632 187.827 184.653 188.936 187.176C190.08 189.779 192.342 192.154 195.636 194.396C201.709 198.529 210.457 201.689 219.631 205.004C220.537 205.331 221.447 205.66 222.358 205.991C223.601 206.442 224.836 206.896 226.062 207.347C234.876 210.584 243.217 213.648 250.256 214.39C254.209 214.806 257.455 214.446 260.001 213.174C262.472 211.94 264.576 209.702 266.015 205.741C266.258 205.073 266.418 203.723 266.306 201.579C266.199 199.514 265.858 196.97 265.305 194.087C264.2 188.327 262.286 181.4 259.893 174.595C257.498 167.784 254.654 161.184 251.715 156.049C250.244 153.48 248.783 151.337 247.382 149.731C245.952 148.091 244.74 147.193 243.811 146.84C242.905 146.495 241.432 146.376 239.3 146.691C237.213 147 234.73 147.688 231.959 148.705C226.42 150.736 220.002 153.98 213.785 157.687C207.576 161.389 201.65 165.506 197.094 169.241C194.814 171.11 192.913 172.854 191.502 174.378C190.036 175.961 189.288 177.105 189.045 177.774Z" fill="#CA7D45" stroke="#522D0B" stroke-width="5"/>
<path d="M247.344 137.222C246.145 136.786 244.905 137.366 244.47 138.564L239.416 152.473C238.98 153.672 239.559 154.912 240.758 155.347C241.957 155.783 243.197 155.204 243.632 154.005L248.686 140.096C249.122 138.898 248.543 137.658 247.344 137.222Z" fill="#CA7D45" stroke="#522D0B" stroke-width="5"/>
<path d="M222.062 353.422C222.089 348.652 219.978 341.057 225.1 338.666C228.853 336.915 234.895 339.839 238.678 340.526C242.135 341.155 245.566 338.87 245.498 335.318C245.398 330.147 241.415 322.67 245.219 318.02C245.995 317.072 246.93 316.791 248.164 316.594C254.859 315.529 261.664 316.082 268.375 315.355C270.632 315.11 273.436 314.22 274.699 312.131C276.915 308.467 273.999 303.881 271.723 301.25C269.281 298.425 266.403 294.7 267.569 290.617C268.472 287.459 270.751 283.946 273.273 281.844C276.026 279.55 281.285 279.622 284.619 278.899C287.844 278.199 293.173 277.4 295.159 274.311C298.453 269.187 288.485 264.463 289.61 259.4C290.228 256.621 295.6 254.324 297.949 253.541" stroke="#71C3FF" stroke-width="5" stroke-linecap="round"/>
<path d="M113.887 351.881C113.861 347.111 115.971 339.516 110.849 337.125C107.096 335.374 101.054 338.298 97.2715 338.985C93.8139 339.614 90.3833 337.329 90.4516 333.777C90.551 328.605 94.5347 321.129 90.7306 316.479C89.9542 315.531 89.0195 315.25 87.7856 315.053C81.0901 313.988 74.2848 314.541 67.5738 313.813C65.3175 313.569 62.5135 312.679 61.2498 310.59C59.0347 306.926 61.9501 302.34 64.2258 299.709C66.6685 296.884 69.5465 293.159 68.3798 289.076C67.4777 285.918 65.1981 282.405 62.6758 280.303C59.923 278.009 54.6645 278.081 51.3299 277.358C48.1053 276.658 42.7759 275.859 40.79 272.77C37.496 267.646 47.464 262.922 46.339 257.859C45.7214 255.08 40.3494 252.783 38 252" stroke="#71C3FF" stroke-width="5" stroke-linecap="round"/>
<path d="M232.664 366.256C233.495 364.619 235.623 358.133 237.81 357.328C239.22 356.808 242.271 358.661 243.421 359.25C245.551 360.341 248.412 362.588 250.954 362.35C258.314 361.66 254.965 346.263 261.277 347.377C265.432 348.11 267.254 351.788 270.484 353.98C272.331 355.233 273.124 352.606 273.955 351.221C274.996 349.486 277.053 346.725 279.225 347.842C283.045 349.806 285.658 351.19 290.137 351.19" stroke="#71C3FF" stroke-width="5" stroke-linecap="round"/>
<path d="M103.285 364.714C102.454 363.077 100.326 356.591 98.1392 355.786C96.7286 355.266 93.6783 357.119 92.5282 357.708C90.3984 358.799 87.5365 361.046 84.9953 360.808C77.6347 360.118 80.9838 344.721 74.6724 345.835C70.5172 346.568 68.6949 350.246 65.4655 352.438C63.6184 353.691 62.8247 351.064 61.9935 349.679C60.9527 347.944 58.8963 345.183 56.7235 346.3C52.9043 348.264 50.291 349.648 45.8116 349.648" stroke="#71C3FF" stroke-width="5" stroke-linecap="round"/>
</svg>
