<svg width="477" height="295" viewBox="0 0 477 295" fill="none" xmlns="http://www.w3.org/2000/svg">
<path d="M0 24.123L281 0L364 272.912L55.6923 295L0 24.123Z" fill="#B8FFFD"/>
<path d="M52.585 74.3997C52.5271 75.6928 52.4255 77.1834 52.2318 78.7158C51.9336 81.0957 52.024 83.4994 51.4997 85.8707C50.8039 89.0644 49.6623 95.0716 47.2753 95.3211C46.3205 95.4209 44.9043 94.1854 43.615 91.3924C43.538 91.2717 43.4862 91.0841 43.4696 90.9249C43.4263 90.5112 43.6377 90.0708 44.1469 90.0176C45.1972 89.9078 45.7504 93.9683 47.0552 93.8319C48.0419 93.7288 48.8759 91.5503 49.3608 90.3413C49.871 89.0654 50.1231 87.7842 50.0034 86.6384C49.8769 85.429 49.3786 84.355 48.3325 83.2739C47.5743 82.4845 47.2736 81.4541 46.8204 80.5041C46.2099 79.281 45.7586 78.0412 44.9638 76.9016C44.7814 76.6955 44.5923 76.4256 44.5657 76.171C44.5424 75.9483 44.7286 75.5749 45.1742 75.5283C45.5561 75.4884 45.7903 75.8822 45.986 76.2156C47.207 78.6619 48.4246 81.0764 49.731 83.4173C49.875 83.5631 50.0792 83.6705 50.2702 83.6505C50.7158 83.6039 51.0543 80.9946 50.9697 79.8773C50.8271 77.8974 51.3662 75.975 51.1599 74.0017C51.09 73.3334 51.2026 72.8712 51.7755 72.8113C52.3165 72.7547 52.4619 73.2221 52.5085 73.6677C52.5284 73.8587 52.5484 74.0496 52.585 74.3997ZM64.067 74.3256C64.2234 75.8215 63.9404 78.0389 65.8181 77.8426C68.6825 77.5432 68.3608 75.389 68.1555 72.193C68.1421 72.0657 68.1288 71.9384 68.1155 71.8111C68.0656 71.3337 68.0927 70.977 68.7292 70.9104C69.2703 70.8539 69.4275 71.127 69.4641 71.4771C69.6471 73.2276 69.5251 75.1386 69.7047 76.8572C69.8312 78.0666 70.1167 79.2594 70.4944 80.4104C70.5244 80.6968 70.6213 81.0084 70.6512 81.2949C70.6878 81.645 70.6038 82.072 69.9991 82.1352C68.3759 82.3049 69.7005 78.0481 67.7273 78.2544C67.0908 78.3209 66.3383 78.8178 65.6063 78.8944C65.5427 78.901 65.5108 78.9043 65.4472 78.911C64.938 78.9642 64.7484 79.3058 64.795 79.7513C64.8549 80.3242 65.3385 80.9493 65.3917 81.4586C65.435 81.8723 65.1885 82.2842 64.6474 82.3407C64.0427 82.4039 63.6779 81.9916 63.6147 81.3869C63.292 78.2997 62.9759 75.2762 62.6599 72.2527C62.6066 71.7435 62.6204 71.2594 63.1614 71.2029C63.7343 71.143 63.8697 71.5149 63.9096 71.8968C63.9928 72.6925 63.952 73.5333 63.9715 74.3356C64.0034 74.3323 64.0352 74.329 64.067 74.3256ZM75.5744 70.2593C77.1657 70.0929 78.6336 71.516 78.9102 73.5463C79.2034 75.7357 80.1213 80.2085 82.1582 79.9955C82.2537 79.9856 82.3492 79.9756 82.4129 79.9689C82.6993 79.939 82.9705 80.0715 83.0071 80.4216C83.0537 80.8672 82.6181 81.0092 82.2362 81.0492C81.2814 81.149 80.49 80.0412 80.0126 80.0911C79.8216 80.1111 79.6473 80.2902 79.4611 80.6636C78.9529 81.6498 78.1753 82.2136 77.125 82.3234C75.2154 82.523 74.0235 81.5859 73.8439 79.8672C73.6975 78.4669 75.5562 76.8569 76.6701 76.7405C77.052 76.7006 77.566 77.0007 77.9479 76.9608C78.298 76.9242 78.5227 76.6112 78.4828 76.2293C78.2832 74.3197 77.9305 70.946 75.4481 71.2055C74.7479 71.2787 74.2534 71.7808 73.8644 72.3685L73.6497 72.777C73.5423 72.9813 73.3998 73.157 73.1771 73.1803C72.9224 73.2069 72.673 72.9756 72.6531 72.7847C72.52 71.5116 74.4319 70.4109 75.5744 70.2593ZM77.244 77.6135C76.0379 77.7718 74.9064 78.9518 75.0129 79.9703C75.0994 80.7978 76.2043 81.5188 77.0637 81.429C78.1139 81.3192 79.0093 80.0351 78.9028 79.0167C78.8064 78.0937 78.1351 77.5204 77.244 77.6135ZM84.6779 74.1982C84.6627 74.3606 84.6761 74.4879 84.6894 74.6153C84.8391 76.0475 86.4305 78.0368 88.1173 77.8605C88.2765 77.8438 88.4323 77.7954 88.5914 77.7787C89.037 77.7322 89.4322 77.8195 89.4754 78.2333C89.5453 78.9016 89.1197 79.1392 88.6741 79.1858C85.4596 79.5218 83.5442 76.2793 83.2547 73.5104C83.0651 71.6963 83.5367 70.36 85.4145 70.1637C86.242 70.0772 87.4643 70.6895 87.5607 71.6125C87.6007 71.9944 87.2169 72.3241 86.9304 72.354C86.3575 72.4139 85.9495 71.5878 85.3766 71.6477C84.8037 71.7076 84.4432 72.2601 84.5563 73.3422C84.5829 73.5968 84.6128 73.8832 84.6779 74.1982ZM104.908 72.5019L105.003 72.4919L105.369 75.9928C105.419 76.4702 105.444 77.0146 106.43 76.9114C106.94 76.8582 107.096 76.1984 107.51 76.1552C107.86 76.1186 108.02 76.4235 108.04 76.6145C108.054 76.7418 108.035 76.8724 108.017 77.003C107.858 78.564 107.695 81.9272 106.931 82.007C106.485 82.0536 106.357 81.7453 106.327 81.4589C106.23 80.5359 106.953 79.7526 106.859 78.8614C106.816 78.4477 106.708 77.719 106.358 77.7556C106.294 77.7622 106.234 77.8007 106.173 77.8392C105.602 78.2207 104.972 78.3509 104.367 78.4141C103.572 78.4972 102.763 78.4531 101.999 78.5329C100.058 78.7359 98.3788 79.2974 98.5152 80.6023C98.5851 81.2707 99.4146 83.0501 100.538 83.6405C100.71 83.7512 100.947 83.8552 100.97 84.078C101 84.3644 100.648 84.6908 100.361 84.7207C99.3429 84.8272 97.5495 81.8294 97.3433 79.8561C97.3 79.4424 97.3271 79.0856 97.5551 78.8044C99.57 76.5346 99.4682 73.7139 99.6947 70.9554C99.7251 70.6305 99.7555 70.3056 99.7222 69.9873C99.659 69.3826 98.7968 68.8293 98.7602 68.4792C98.7336 68.2246 98.9331 67.9785 99.3468 67.9352C100.684 67.7955 102.002 67.7864 103.274 68.2647C104.681 68.7933 104.75 70.6844 104.863 71.7665C104.89 72.0211 104.884 72.2791 104.908 72.5019ZM100.559 77.686L101.949 77.4442L101.956 77.5078C102.306 77.4712 102.685 77.3995 103.067 77.3596C103.29 77.3363 103.547 77.3415 103.77 77.3182C104.852 77.2051 104.413 75.1597 104.29 73.9821C104.097 72.1361 104.032 69.6655 102.064 69.0025C101.733 68.9084 101.468 68.8396 101.246 68.8629C100.768 68.9128 100.582 69.2861 100.595 70.0248C100.608 72.3078 100.52 74.5371 99.6537 76.7189C99.5781 76.9199 99.5311 77.0857 99.5478 77.2448C99.581 77.5631 99.8589 77.7592 100.368 77.706C100.432 77.6993 100.495 77.6927 100.559 77.686ZM110.383 73.6991C110.328 73.4797 110.308 73.2887 110.284 73.0659C110.205 72.3021 110.217 71.4964 110.134 70.7008C110.084 70.2234 109.903 69.7275 109.85 69.2182C109.707 67.8497 112.365 66.1884 113.574 66.062C114.37 65.9788 115.512 66.4386 115.612 67.3934C115.735 68.571 113.725 70.5828 113.815 71.4421C113.861 71.8877 116.741 72.0372 116.904 73.5967C117.047 74.9652 114.489 77.5813 113.12 77.7244C111.72 77.8707 110.652 76.2771 110.469 74.5266C110.453 74.3675 110.439 74.2402 110.426 74.1129C110.413 73.9856 110.396 73.8264 110.383 73.6991ZM112.12 72.7775C111.502 73.3248 111.669 73.6934 111.722 74.2026C111.806 74.9983 112.181 76.439 113.041 76.3492C113.868 76.2627 115.454 74.81 115.354 73.8552C115.254 72.9004 113.06 73.4515 112.12 72.7775ZM111.532 70.8442C111.539 70.9078 111.549 71.0033 111.556 71.067C111.579 71.2897 111.647 71.6365 112.061 71.5933C112.698 71.5267 114.156 67.9316 114.152 67.8998C114.119 67.5816 113.707 67.335 113.389 67.3683C112.02 67.5114 111.441 69.6633 111.532 70.8442ZM125.148 72.1558C125.244 71.5344 125.216 70.9582 125.156 70.3853C124.916 68.0938 124.537 66.6213 123.105 66.771C121.45 66.944 120.585 68.5144 119.374 69.8636C119.26 70.0042 119.136 70.0493 119.009 70.0626C118.723 70.0926 118.441 69.8646 118.408 69.5463C118.258 68.1141 121.575 65.6761 123.23 65.5031C124.726 65.3468 125.752 66.2369 125.912 67.7646C126.168 70.2152 126.898 72.5841 127.122 75.0381C127.166 75.4519 127.06 75.9777 126.487 76.0376C125.755 76.1141 125.699 74.9617 125.221 75.0116C124.553 75.0815 123.483 76.5446 122.401 76.6577C121.542 76.7475 120.698 76.0636 120.542 74.5677C120.359 72.8172 121.634 71.783 122.621 71.6799C123.066 71.6333 123.557 71.7107 124.093 71.9121C124.329 72.0161 124.515 72.2541 124.928 72.2109C124.992 72.2042 125.056 72.1976 125.148 72.1558ZM122.764 75.2041C123.097 75.0084 124.321 74.3979 124.261 73.825C124.191 73.1567 123.524 72.9368 123.015 72.99C122.379 73.0566 121.777 73.7629 121.857 74.5268C121.903 74.9724 122.156 75.2355 122.764 75.2041ZM138.07 66.5902C138.226 68.086 137.943 70.3035 139.821 70.1072C142.686 69.8078 142.364 67.6536 142.159 64.4576C142.145 64.3303 142.132 64.203 142.119 64.0757C142.069 63.5983 142.096 63.2415 142.732 63.175C143.273 63.1184 143.431 63.3916 143.467 63.7417C143.65 65.4921 143.528 67.4032 143.708 69.1218C143.834 70.3312 144.12 71.524 144.497 72.6749C144.527 72.9614 144.624 73.273 144.654 73.5594C144.691 73.9095 144.607 74.3366 144.002 74.3998C142.379 74.5695 143.704 70.3127 141.73 70.5189C141.094 70.5855 140.341 71.0824 139.609 71.1589C139.546 71.1656 139.514 71.1689 139.45 71.1755C138.941 71.2288 138.752 71.5703 138.798 72.0159C138.858 72.5888 139.342 73.2139 139.395 73.7231C139.438 74.1369 139.192 74.5487 138.65 74.6053C138.046 74.6685 137.681 74.2562 137.618 73.6515C137.295 70.5643 136.979 67.5408 136.663 64.5172C136.61 64.008 136.623 63.524 137.165 63.4674C137.737 63.4075 137.873 63.7795 137.913 64.1614C137.996 64.957 137.955 65.7978 137.975 66.6002C138.006 66.5968 138.038 66.5935 138.07 66.5902ZM151.257 62.8952C153.835 62.6257 156.441 65.0881 156.657 67.1569C156.877 69.2574 154.303 72.6473 151.662 72.9235C149.88 73.1098 147.666 71.6359 147.483 69.8854C147.38 68.8988 147.832 67.9829 148.018 66.9982C148.03 66.8039 148.233 66.5896 148.216 66.4305C148.19 66.1759 147.637 65.8154 147.614 65.5926C147.574 65.2107 148.06 64.9347 148.358 64.7104C149.196 64.1081 149.723 62.9912 150.773 62.8815C150.932 62.8648 151.095 62.88 151.257 62.8952ZM151.488 71.8798C154.06 71.5467 155.735 69.409 155.482 66.9902C155.289 65.1443 153.93 63.8385 152.37 64.0015C150.11 64.2377 148.363 67.8309 148.536 69.4859C148.692 70.9817 149.897 72.0462 151.488 71.8798ZM159.29 66.7852C159.2 66.5372 159.138 66.2541 159.108 65.9677C159.018 65.1084 159.103 64.0699 158.996 63.0515C158.979 62.8924 158.959 62.7014 158.943 62.5423C158.79 61.0782 160.616 60.6943 161.825 60.5679C163.162 60.4282 164.299 61.1459 164.445 62.5463C164.525 63.3101 163.916 65.1756 163.206 66.0862C163.035 66.2971 162.957 66.4663 162.97 66.5936C162.99 66.7845 163.159 66.8634 163.579 66.8838C164.745 66.955 166.518 68.2175 166.601 69.0132C166.767 70.6045 164.768 72.7118 162.985 72.8981C162.158 72.9846 160.48 71.7121 160.014 70.6348C159.516 69.5608 159.679 68.3532 159.29 66.7852ZM162.726 67.6486C162.475 67.7071 162.255 67.7622 162.065 67.7821C161.746 67.8154 161.316 67.6995 161.263 67.1903C161.189 66.4901 163.624 64.8521 163.398 62.6879C163.308 61.8286 162.8 61.2704 161.877 61.3669C160.317 61.5299 159.971 63.1426 160.104 64.4157C160.177 65.1159 160.314 65.8094 160.387 66.5096C160.389 66.8312 160.422 67.1495 160.455 67.4677C160.535 68.2316 160.704 68.9218 161.34 69.4666C161.448 69.5839 161.525 69.7046 161.539 69.8319C161.572 70.1502 161.029 70.4965 161.062 70.8147C161.136 71.5149 162.73 71.9918 163.303 71.9319C164.098 71.8487 165.615 70.6606 165.479 69.3557C165.359 68.21 163.617 67.5555 162.726 67.6486ZM175.645 68.7435C175.825 70.4621 174.323 72.0991 172.636 72.2754C172.159 72.3253 169.201 72.345 169.074 71.1356C169.067 71.0719 169.089 70.9731 169.114 70.9061C169.442 70.0354 169.451 69.1979 169.361 68.3386C169.264 67.4156 169.072 66.5026 168.976 65.5797C168.803 63.9247 168.795 62.9281 168.686 61.2664C168.643 60.8527 168.953 60.4342 169.335 60.3943C169.653 60.361 169.881 60.6911 169.907 60.9457C169.924 61.1049 169.88 61.3025 169.801 61.4716C169.457 62.1832 169.476 62.6639 169.532 63.205C169.555 63.4278 169.582 63.6824 169.609 63.937C169.632 64.1598 169.627 64.4177 169.657 64.7041C169.698 64.7963 169.708 64.8918 169.718 64.9873C169.755 65.3374 169.668 65.7326 169.704 66.0827C169.741 66.4328 170.042 66.8517 170.456 66.8085C171.06 66.7453 171.468 66.027 172.2 65.9505C173.76 65.7875 175.479 67.1521 175.645 68.7435ZM170.685 69.6159C170.692 69.6795 170.698 69.7432 170.705 69.8068C170.821 70.9208 171.457 71.4656 172.476 71.3591C173.59 71.2427 174.857 69.8232 174.744 68.7411C174.641 67.7545 173.469 67.0083 172.355 67.1247C171.177 67.2478 170.567 68.1803 170.685 69.6159ZM178.576 69.0806C178.232 67.0252 177.982 65.2495 177.783 63.3399C177.696 62.5124 177.61 61.685 177.545 60.7587C177.532 60.6313 177.487 60.5074 177.47 60.3482C177.447 60.1255 177.496 59.6699 177.941 59.6233C178.291 59.5867 178.65 59.9354 178.676 60.19C178.719 60.6037 178.377 61.0256 178.424 61.4712C178.441 61.6303 178.457 61.7894 178.506 61.9452C179.068 65.1682 179.723 67.7381 180.082 71.1754C180.112 71.4618 180.085 71.8186 179.639 71.8651C178.748 71.9583 178.613 69.4307 178.576 69.0806ZM184.363 59.9173C184.39 60.1719 184.528 61.7984 185.482 61.6986C185.928 61.652 185.935 61.1043 186.188 60.7561C186.98 59.7081 188.767 57.1082 189.308 57.0517C189.626 57.0184 189.956 57.4022 189.979 57.625C190.043 58.2297 187.604 60.4473 186.737 61.6961C186.202 62.4277 185.987 62.8362 186.031 63.25C186.131 64.2048 188.252 67.2648 189.143 67.1716C189.462 67.1384 189.921 66.6078 190.303 66.5678C190.653 66.5312 191.142 66.8984 191.188 67.344C191.258 68.0123 189.996 68.5625 189.424 68.6224C187.896 68.782 186.799 66.9019 185.716 65.4708C185.533 65.2646 185.329 65.1573 185.138 65.1772C184.565 65.2371 183.274 69.2008 183.407 70.4738C183.481 71.174 183.199 71.5574 182.753 71.604C182.117 71.6705 181.695 71.3285 181.655 70.9466C181.639 70.7875 181.686 70.6217 181.761 70.4207C182.59 68.5002 182.816 66.353 183.877 64.5046C184.149 64.0258 184.294 63.5603 184.247 63.1147C184.214 62.7964 184.082 62.4563 183.854 62.1262C183.325 61.3771 183.112 60.5629 183.018 59.6718C182.965 59.1625 182.822 58.4054 183.554 58.3288C184.19 58.2623 184.332 58.6979 184.392 59.2708C184.412 59.4617 184.397 59.6242 184.363 59.9173ZM205.427 62.2521C205.354 61.5519 205.312 60.8484 205.239 60.1482C205.066 58.4932 204.784 57.3323 203.829 57.4321C202.874 57.5319 202.664 58.2939 202.734 58.9622C202.771 59.3123 202.839 59.6591 202.876 60.0092C203.085 62.0142 202.667 63.8597 201.091 65.4079C200.863 65.6892 200.547 66.044 200.165 66.0839C199.846 66.1172 199.527 65.8289 199.493 65.5106C199.45 65.0969 200.199 64.5681 200.513 64.1814C201.4 63.1235 201.792 61.9564 201.666 60.7469C201.599 60.1104 201.37 59.4587 201.011 58.7884C200.931 58.636 200.854 58.5153 200.84 58.388C200.737 57.4014 203.478 55.9244 203.765 55.8944C205.579 55.7048 206.497 58.0219 206.696 59.9315C206.876 61.6502 206.804 63.4273 206.984 65.1459C207.027 65.5596 207.153 65.8361 207.63 65.7862C207.789 65.7696 208.005 65.6826 208.165 65.666C208.674 65.6128 209.109 66.0821 209.175 66.7186C209.309 67.9917 208.792 69.204 208.925 70.477C208.935 70.5725 208.945 70.668 208.958 70.7953C208.988 71.0817 208.696 71.3696 208.346 71.4062C207.933 71.4494 207.74 71.1478 207.7 70.7659C207.634 70.1294 207.659 69.451 207.593 68.8145C207.526 68.178 207.2 67.826 206.465 67.8707C204.803 67.98 203.106 68.0609 201.483 68.2305C200.783 68.3037 200.469 68.6904 200.539 69.3588C200.646 70.3772 200.744 71.6218 201.321 72.5267C201.475 72.768 201.629 73.0093 201.652 73.2321C201.675 73.4549 201.46 73.8634 200.919 73.9199C199.933 74.0231 199.239 70.4599 199.076 68.9004C198.942 67.6274 199.497 67.0868 200.834 66.947C202.075 66.8173 203.372 66.907 204.645 66.7739C205.886 66.6442 205.789 66.3326 205.566 64.2002C205.5 63.5637 205.43 62.8953 205.363 62.2588C205.395 62.2554 205.395 62.2554 205.427 62.2521ZM215.679 55.5821C215.743 55.5754 215.839 55.5654 215.902 55.5588C216.157 55.5322 216.408 55.4737 216.663 55.4471C217.427 55.3673 218.695 56.4251 218.795 57.3799C218.982 59.1622 216.432 60.0079 215.318 60.1243C214.267 60.2341 213.269 59.9201 212.324 59.1825C212.183 59.0685 212.084 59.0466 211.989 59.0566C211.479 59.1098 211.354 60.9891 211.434 61.7529C211.7 64.299 213.588 66.3539 216.707 66.0279C218.203 65.8715 218.646 65.1817 220.087 63.5832C220.226 63.3756 220.426 63.1295 220.649 63.1062C220.84 63.0863 221.156 63.3428 221.173 63.5019C221.196 63.7247 220.926 63.9138 220.755 64.1247C219.426 65.8724 218.07 66.7541 216.574 66.9105C213.646 67.2165 210.949 65.1175 210.636 62.1258C210.287 58.784 211.738 56.348 215.679 55.5821ZM215.3 59.0322C215.396 59.0222 215.491 59.0123 215.587 59.0023C216.414 58.9158 217.803 58.3523 217.713 57.493C217.617 56.57 216.391 56.5373 215.722 56.6072C214.767 56.707 212.626 57.7674 212.683 58.3084C212.726 58.7222 214.158 59.1838 214.953 59.1006C215.081 59.0873 215.176 59.0774 215.3 59.0322ZM223.733 59.6629C223.718 59.8254 223.731 59.9527 223.744 60.08C223.894 61.5122 225.485 63.5015 227.172 63.3252C227.331 63.3086 227.487 63.2601 227.646 63.2435C228.092 63.1969 228.487 63.2843 228.53 63.6981C228.6 64.3664 228.175 64.6039 227.729 64.6505C224.515 64.9865 222.599 61.7441 222.31 58.9752C222.12 57.1611 222.592 55.8248 224.469 55.6285C225.297 55.542 226.519 56.1543 226.616 57.0772C226.656 57.4592 226.272 57.7888 225.985 57.8188C225.412 57.8787 225.004 57.0526 224.431 57.1125C223.859 57.1724 223.498 57.7249 223.611 58.807C223.638 59.0616 223.668 59.348 223.733 59.6629ZM233.544 54.5513C235.145 54.4804 237.111 54.8219 237.224 55.904C237.344 57.0497 234.877 58.6911 233.509 58.8341C232.841 58.904 231.864 58.4912 231.26 58.5544C230.973 58.5844 230.834 58.792 230.871 59.1421C231.077 61.1153 233.308 63.0699 234.74 62.9202C236.236 62.7639 237.598 61.0129 238.572 59.5597C238.714 59.3839 238.86 59.24 239.051 59.22C239.369 59.1868 239.692 59.5069 239.719 59.7615C239.736 59.9207 239.689 60.0864 239.571 60.1952C238.26 61.8123 237.091 63.8649 234.704 64.1144C232.19 64.3773 229.861 61.1781 229.598 58.6638C229.355 56.3404 230.764 55.3566 233.544 54.5513ZM233.68 55.8562C233.05 55.9864 231.717 56.1579 231.8 56.9536C231.962 57.5801 232.863 57.5825 233.309 57.5359C233.691 57.496 235.319 57.0683 235.239 56.3045C235.163 55.5725 234.355 55.85 233.68 55.8562ZM243.433 68.0282C242.639 64.1216 241.786 59.9637 241.248 55.7408C241.118 54.4995 240.84 52.1477 241.381 52.0911C241.703 52.0897 241.949 52.2892 241.976 52.5438C242.019 52.9576 241.843 53.4264 241.886 53.8402C241.939 54.3494 242.084 54.8168 242.138 55.326C242.168 55.6125 242.141 55.9692 242.171 56.2557C242.39 58.3562 244.443 61.0695 246.066 60.8998C247.849 60.7135 249.16 59.0964 248.967 57.2505C248.751 55.1818 246.857 53.3848 244.683 53.5156C243.983 53.5888 243.671 54.297 243.162 54.3503C242.939 54.3736 242.597 54.184 242.564 53.8658C242.498 53.2292 243.763 52.7109 244.463 52.6377C247.295 52.3417 249.701 54.7285 249.943 57.0519C250.17 59.2161 248.632 61.436 246.5 61.6589C245.704 61.742 244.882 61.5706 244.128 61.1346C243.924 61.0272 243.752 60.9165 243.529 60.9398C243.179 60.9764 242.986 61.2861 243.016 61.5726C243.026 61.6681 243.032 61.7317 243.071 61.792C243.479 62.6181 243.633 63.4708 243.726 64.3619C243.779 64.8711 243.8 65.3837 243.854 65.8929C244.056 67.8343 244.95 69.6071 245.149 71.5167C245.173 71.7395 245.164 71.9656 245.187 72.1884C245.234 72.6339 245.882 72.9845 245.948 73.621C245.995 74.0666 245.86 74.6276 245.351 74.6808C244.969 74.7207 244.755 74.5179 244.722 74.1997C244.705 74.0405 244.689 73.8814 244.672 73.7223C244.489 71.9718 243.648 70.3867 243.448 68.4771C243.431 68.3179 243.45 68.1873 243.433 68.0282ZM258.584 58.0148C258.704 59.1606 258.823 60.3063 258.943 61.4521C258.993 61.9295 258.87 62.2962 258.298 62.3561C257.725 62.416 257.608 61.9134 257.565 61.4997C257.318 59.1445 257.171 56.8112 256.932 54.5197C256.868 53.915 256.616 53.6518 256.075 53.7084C255.088 53.8115 254.202 54.2581 253.279 54.3545C252.483 54.4377 250.994 54.6577 250.901 53.7666C250.854 53.321 251.283 53.1153 251.665 53.0754C252.429 52.9955 253.209 53.0748 253.973 52.995C255.342 52.8519 256.581 52.4006 257.56 51.3009C257.76 51.0548 257.966 50.8724 258.221 50.8457C258.539 50.8125 259.123 51.1697 259.17 51.6152C259.183 51.7425 259.133 51.8765 259.047 51.982C258.16 53.0399 258.086 54.1738 258.202 55.2877C258.299 56.2107 258.491 57.1237 258.584 58.0148ZM268.461 57.1754C268.557 56.5541 268.529 55.9779 268.469 55.405C268.229 53.1135 267.85 51.6409 266.418 51.7906C264.763 51.9636 263.898 53.5341 262.687 54.8833C262.573 55.0239 262.449 55.069 262.322 55.0823C262.036 55.1122 261.754 54.8842 261.721 54.566C261.571 53.1338 264.888 50.6958 266.543 50.5228C268.039 50.3664 269.065 51.2566 269.224 52.7843C269.481 55.2349 270.211 57.6038 270.435 60.0578C270.478 60.4715 270.373 60.9974 269.8 61.0573C269.068 61.1338 269.012 59.9814 268.534 60.0313C267.866 60.1012 266.796 61.5643 265.714 61.6774C264.855 61.7672 264.011 61.0832 263.855 59.5874C263.672 57.8369 264.947 56.8027 265.934 56.6996C266.379 56.653 266.87 56.7304 267.406 56.9318C267.642 57.0358 267.828 57.2738 268.241 57.2306C268.305 57.2239 268.369 57.2172 268.461 57.1754ZM266.077 60.2238C266.41 60.0281 267.633 59.4176 267.574 58.8447C267.504 58.1764 266.837 57.9565 266.328 58.0097C265.691 58.0762 265.09 58.7826 265.17 59.5465C265.216 59.992 265.469 60.2552 266.077 60.2238ZM56.228 114.792L56.3235 114.782L56.6894 118.283C56.7393 118.76 56.7641 119.305 57.7507 119.201C58.2599 119.148 58.4162 118.488 58.8299 118.445C59.18 118.409 59.3406 118.714 59.3605 118.904C59.3738 119.032 59.3553 119.162 59.3368 119.293C59.1782 120.854 59.015 124.217 58.2511 124.297C57.8056 124.344 57.6768 124.035 57.6469 123.749C57.5504 122.826 58.2729 122.043 58.1797 121.151C58.1365 120.738 58.0281 120.009 57.678 120.046C57.6144 120.052 57.5541 120.091 57.4937 120.129C56.9223 120.511 56.2924 120.641 55.6877 120.704C54.892 120.787 54.0831 120.743 53.3192 120.823C51.3778 121.026 49.6991 121.587 49.8355 122.892C49.9054 123.561 50.7348 125.34 51.8583 125.931C52.0308 126.041 52.2668 126.145 52.2901 126.368C52.3201 126.654 51.9681 126.981 51.6817 127.011C50.6632 127.117 48.8698 124.119 48.6636 122.146C48.6203 121.732 48.6474 121.376 48.8754 121.094C50.8903 118.825 50.7885 116.004 51.015 113.245C51.0454 112.921 51.0757 112.596 51.0425 112.277C50.9793 111.673 50.1171 111.119 50.0805 110.769C50.0539 110.515 50.2534 110.268 50.6671 110.225C52.0038 110.086 53.322 110.076 54.5946 110.555C56.0012 111.083 56.0702 112.974 56.1833 114.057C56.2099 114.311 56.2047 114.569 56.228 114.792ZM51.8794 119.976L53.2698 119.734L53.2764 119.798C53.6265 119.761 54.0051 119.69 54.387 119.65C54.6098 119.626 54.8678 119.632 55.0905 119.608C56.1727 119.495 55.7336 117.45 55.6105 116.272C55.4176 114.426 55.3524 111.956 53.3848 111.292C53.0532 111.198 52.7886 111.13 52.5658 111.153C52.0884 111.203 51.9022 111.576 51.9151 112.315C51.9285 114.598 51.8398 116.827 50.9739 119.009C50.8984 119.21 50.8514 119.376 50.868 119.535C50.9013 119.853 51.1792 120.049 51.6884 119.996C51.7521 119.989 51.8157 119.983 51.8794 119.976ZM69.0403 114.772C69.0684 115.348 69.0931 115.892 69.1497 116.433C69.2162 117.07 69.477 117.718 69.5436 118.355C69.5768 118.673 69.4476 118.976 69.0021 119.023C68.3337 119.093 67.9725 115.945 67.8162 114.449C67.7596 113.908 67.7382 113.396 67.685 112.886C67.5852 111.932 66.4655 110.762 65.5743 110.855C65.0333 110.911 64.9207 111.374 64.954 111.692C65.0106 112.233 65.1141 112.608 65.1607 113.054C65.4435 115.759 64.8775 120.194 62.2359 120.47C61.3129 120.567 60.444 119.95 60.3043 118.613C60.2278 117.881 60.7132 116.06 61.477 115.981C61.7953 115.947 62.105 116.14 62.1383 116.458C62.2115 117.159 61.6196 117.961 61.6762 118.502C61.7061 118.788 61.9655 119.115 62.4111 119.068C64.2252 118.879 64.2287 113.988 63.9925 111.728C63.9027 110.869 63.2096 110.394 61.9684 110.524C61.7774 110.544 61.5898 110.596 61.4307 110.612C61.0806 110.649 60.7523 110.587 60.7024 110.109C60.6658 109.759 60.8468 109.644 61.1014 109.617C61.2924 109.597 61.5218 109.638 61.7446 109.614C62.1584 109.571 62.5555 109.369 62.9374 109.329C64.2423 109.192 65.4579 109.741 66.749 110.089C68.1072 110.461 68.7162 111.363 68.8626 112.763C68.8673 113.117 68.9006 113.435 68.9372 113.785C68.9705 114.103 69.0071 114.453 69.0403 114.772ZM76.497 111.804C76.4956 111.483 76.5259 111.158 76.5027 110.935C76.4627 110.553 76.2988 110.216 75.8214 110.266C75.1531 110.336 74.8691 111.621 74.899 111.907C74.9223 112.13 75.0092 112.346 75.1598 112.556C75.5931 113.315 75.8658 113.769 75.9057 114.151C75.9922 114.978 73.6969 115.797 72.6287 117.582C72.4677 117.888 72.3033 118.163 72.0487 118.19C71.7623 118.219 71.4426 117.931 71.4193 117.708C71.3328 116.881 74.532 114.552 74.4488 113.756C74.4022 113.31 73.8013 112.794 73.7347 112.158C73.5784 110.662 75.1492 108.76 76.8678 108.58C77.5998 108.504 78.2226 108.921 78.2759 109.431C78.2925 109.59 78.2203 109.823 78.0778 109.998C77.6536 110.557 77.5477 111.083 77.6043 111.624C77.7673 113.184 78.5716 115.03 79.0795 116.811C79.0861 116.875 79.1246 116.935 79.1313 116.999C79.1579 117.253 78.9936 117.528 78.6435 117.565C77.9114 117.641 77.6896 116.442 77.6729 116.282C77.4681 114.631 76.7892 113.061 76.497 111.804ZM89.1772 110.929C89.162 111.092 89.1754 111.219 89.1887 111.347C89.3384 112.779 90.9298 114.768 92.6166 114.592C92.7758 114.575 92.9316 114.527 93.0907 114.51C93.5363 114.463 93.9315 114.551 93.9747 114.965C94.0446 115.633 93.619 115.87 93.1734 115.917C89.9589 116.253 88.0435 113.011 87.754 110.242C87.5644 108.428 88.036 107.091 89.9138 106.895C90.7413 106.809 91.9636 107.421 92.06 108.344C92.1 108.726 91.7162 109.055 91.4297 109.085C90.8568 109.145 90.4488 108.319 89.8759 108.379C89.303 108.439 88.9425 108.991 89.0556 110.073C89.0822 110.328 89.1121 110.615 89.1772 110.929ZM99.4072 105.517C101.985 105.247 104.591 107.71 104.808 109.778C105.027 111.879 102.454 115.269 99.8119 115.545C98.0297 115.731 95.8164 114.257 95.6335 112.507C95.5303 111.52 95.9816 110.604 96.1682 109.62C96.1801 109.425 96.3829 109.211 96.3663 109.052C96.3396 108.797 95.7872 108.437 95.7639 108.214C95.724 107.832 96.2099 107.556 96.5082 107.332C97.3461 106.729 97.8729 105.613 98.9231 105.503C99.0823 105.486 99.2447 105.501 99.4072 105.517ZM99.6385 114.501C102.21 114.168 103.885 112.03 103.632 109.612C103.439 107.766 102.08 106.46 100.52 106.623C98.2605 106.859 96.5126 110.452 96.6856 112.107C96.842 113.603 98.0472 114.668 99.6385 114.501ZM112.245 98.7372C112.265 98.9282 112.285 99.1192 112.305 99.3101C112.557 101.729 112.172 103.893 110.678 105.915C110.311 106.404 109.823 107.581 109.843 107.772C109.856 107.899 109.901 108.023 110.045 108.169C110.666 108.876 110.909 109.655 110.992 110.451C111.098 111.469 110.918 112.518 110.802 113.56C110.738 114.178 110.185 114.428 109.644 114.485C108.689 114.585 108.158 114.125 108.012 112.725C107.673 109.479 108.619 107.449 110.126 104.943C111.087 103.363 111.459 101.683 111.282 99.9961C111.199 99.2005 110.794 98.4062 110.708 97.5787C110.678 97.2923 110.794 96.8619 111.239 96.8153C112.131 96.7222 112.118 98.1392 112.245 98.7372ZM109.001 111.721C109.008 111.784 109.014 111.848 109.021 111.912C109.038 112.071 109.051 112.198 109.067 112.357C109.094 112.612 109.184 112.86 109.534 112.823C110.107 112.763 110.103 111.187 110.037 110.551C110.004 110.233 109.843 109.928 109.397 109.974C108.888 110.027 109.135 111.16 109.001 111.721ZM117.184 103.111C118.775 102.945 120.243 104.368 120.52 106.398C120.813 108.588 121.731 113.061 123.768 112.848C123.863 112.838 123.959 112.828 124.022 112.821C124.309 112.791 124.58 112.924 124.617 113.274C124.663 113.719 124.228 113.861 123.846 113.901C122.891 114.001 122.1 112.893 121.622 112.943C121.431 112.963 121.257 113.142 121.071 113.516C120.562 114.502 119.785 115.066 118.735 115.176C116.825 115.375 115.633 114.438 115.453 112.719C115.307 111.319 117.166 109.709 118.28 109.593C118.662 109.553 119.176 109.853 119.558 109.813C119.908 109.776 120.132 109.463 120.092 109.081C119.893 107.172 119.54 103.798 117.058 104.058C116.357 104.131 115.863 104.633 115.474 105.221L115.259 105.629C115.152 105.833 115.009 106.009 114.787 106.033C114.532 106.059 114.283 105.828 114.263 105.637C114.13 104.364 116.042 103.263 117.184 103.111ZM118.854 110.466C117.648 110.624 116.516 111.804 116.623 112.822C116.709 113.65 117.814 114.371 118.673 114.281C119.724 114.171 120.619 112.887 120.512 111.869C120.416 110.946 119.745 110.373 118.854 110.466ZM128.957 107.962C128.645 108.059 128.362 108.12 128.107 108.147C126.071 108.36 125.294 107.09 125.041 104.671C124.938 103.684 124.631 101.979 125.491 101.889C126.064 101.829 126.291 102.159 126.331 102.541C126.398 103.178 126.245 103.87 126.315 104.538C126.391 105.27 126.567 106.957 127.713 106.837C128.381 106.767 129.421 105.018 129.414 104.021C129.35 103.416 129.946 102.646 130.423 102.596C130.741 102.563 131.144 103.036 131.174 103.322C131.204 103.609 131.069 103.848 131 104.113C130.526 105.739 130.311 107.37 130.477 108.961C130.59 110.043 130.862 111.109 131.325 112.154C131.367 112.246 131.381 112.374 131.391 112.469C131.427 112.819 131.209 113.196 130.7 113.249C130.127 113.309 129.625 112.815 129.555 112.146C129.492 111.542 129.464 110.965 129.401 110.361C129.314 109.533 129.199 108.741 128.957 107.962ZM137.963 101.744C139.565 101.673 141.531 102.014 141.644 103.096C141.764 104.242 139.297 105.884 137.928 106.027C137.26 106.096 136.284 105.684 135.679 105.747C135.393 105.777 135.254 105.984 135.29 106.335C135.496 108.308 137.728 110.262 139.16 110.113C140.656 109.956 142.017 108.205 142.991 106.752C143.134 106.576 143.28 106.432 143.471 106.413C143.789 106.379 144.112 106.699 144.139 106.954C144.155 107.113 144.108 107.279 143.991 107.388C142.68 109.005 141.511 111.057 139.124 111.307C136.61 111.57 134.28 108.371 134.018 105.856C133.775 103.533 135.184 102.549 137.963 101.744ZM138.1 103.049C137.47 103.179 136.137 103.35 136.22 104.146C136.382 104.773 137.283 104.775 137.728 104.728C138.11 104.688 139.739 104.261 139.659 103.497C139.582 102.765 138.775 103.042 138.1 103.049ZM146.112 106.265C145.944 105.575 145.832 104.814 145.749 104.019C145.629 102.873 145.309 98.8846 146.041 98.8081C146.295 98.7815 146.605 98.9744 146.625 99.1653C146.643 99.646 146.728 100.152 146.651 100.643C146.449 101.79 146.545 103.324 146.655 104.374C146.678 104.597 146.803 104.874 147.122 104.84C147.313 104.82 147.427 104.68 147.506 104.511C148.641 102.751 150.246 101.489 151.365 99.5707C151.476 99.3983 151.643 99.1556 151.866 99.1323C152.121 99.1057 152.31 99.3755 152.323 99.5028C152.433 100.553 148.115 104.19 148.232 105.304C148.372 106.64 153.21 109.835 153.23 110.026C153.256 110.28 152.99 110.501 152.767 110.524C152.513 110.551 152.21 110.422 152.034 110.279C150.465 109.124 149.042 107.825 147.791 106.315C147.64 106.105 147.511 105.797 147.225 105.827C146.938 105.857 146.831 106.061 146.851 106.252C146.987 107.557 147.685 108.996 147.821 110.301C147.851 110.588 147.76 110.951 147.283 111.001C146.997 111.031 146.868 110.723 146.841 110.468C146.825 110.309 146.836 110.115 146.82 109.956C146.713 108.937 146.254 107.923 146.124 106.682C146.11 106.555 146.129 106.424 146.112 106.265ZM58.0706 183.822C58.1342 183.816 58.2297 183.806 58.2933 183.799C59.9483 183.626 60.916 184.265 61.0557 185.602C61.1056 186.079 60.8605 186.813 60.9204 187.385C61.0635 188.754 63.3589 190.091 63.4919 191.364C63.6516 192.891 62.4998 194.492 61.163 194.631C60.3992 194.711 58.0426 194.636 57.9095 193.363C57.8696 192.981 58.2183 192.623 58.5047 192.593C59.0139 192.54 59.7636 193.555 60.4319 193.485C61.1958 193.405 62.1462 192.341 62.0564 191.481C61.9034 190.017 59.2057 189.141 59.0826 187.964C59.0227 187.391 59.7855 186.378 59.7323 185.869C59.6857 185.423 59.1717 185.123 58.3761 185.206C57.835 185.263 57.3709 185.44 56.8935 185.49C56.5753 185.523 56.2437 185.429 56.1905 184.92C56.1006 184.06 56.9851 183.904 57.6535 183.834C57.8126 183.817 57.9751 183.832 58.0706 183.822ZM72.0089 189.315C72.1048 188.694 72.0767 188.118 72.0169 187.545C71.7773 185.253 71.3982 183.781 69.966 183.93C68.311 184.103 67.4456 185.674 66.2353 187.023C66.1213 187.164 65.9973 187.209 65.87 187.222C65.5836 187.252 65.3023 187.024 65.2691 186.706C65.1194 185.273 68.4359 182.835 70.0908 182.662C71.5867 182.506 72.6128 183.396 72.7725 184.924C73.0286 187.375 73.7589 189.743 73.9832 192.197C74.0265 192.611 73.9206 193.137 73.3477 193.197C72.6157 193.273 72.5596 192.121 72.0822 192.171C71.4138 192.241 70.3441 193.704 69.262 193.817C68.4027 193.907 67.559 193.223 67.4027 191.727C67.2197 189.977 68.4951 188.942 69.4817 188.839C69.9273 188.793 70.418 188.87 70.9538 189.071C71.1899 189.175 71.3757 189.413 71.7894 189.37C71.8531 189.364 71.9167 189.357 72.0089 189.315ZM69.6249 192.363C69.9583 192.168 71.1815 191.557 71.1216 190.984C71.0517 190.316 70.3853 190.096 69.876 190.149C69.2395 190.216 68.6377 190.922 68.7175 191.686C68.7641 192.132 69.0168 192.395 69.6249 192.363ZM76.912 187.902C76.7433 187.211 76.6317 186.451 76.5485 185.655C76.4287 184.51 76.1083 180.521 76.8404 180.445C77.095 180.418 77.4047 180.611 77.4247 180.802C77.4427 181.283 77.5278 181.789 77.4504 182.279C77.2486 183.426 77.3446 184.961 77.4544 186.011C77.4777 186.234 77.6031 186.51 77.9214 186.477C78.1123 186.457 78.2263 186.316 78.3052 186.147C79.4404 184.388 81.0459 183.126 82.1645 181.207C82.2752 181.035 82.4428 180.792 82.6656 180.769C82.9202 180.742 83.1093 181.012 83.1226 181.139C83.2324 182.19 78.9151 185.826 79.0315 186.94C79.1712 188.277 84.0095 191.471 84.0295 191.662C84.0561 191.917 83.7896 192.138 83.5669 192.161C83.3122 192.188 83.0092 192.058 82.8334 191.916C81.2648 190.761 79.842 189.462 78.5903 187.951C78.4397 187.742 78.3109 187.434 78.0245 187.464C77.738 187.494 77.6307 187.698 77.6507 187.889C77.7871 189.194 78.4845 190.633 78.6209 191.938C78.6508 192.224 78.5601 192.588 78.0827 192.638C77.7963 192.668 77.6675 192.359 77.6409 192.105C77.6243 191.946 77.6361 191.751 77.6195 191.592C77.513 190.574 77.0532 189.56 76.9234 188.319C76.9101 188.191 76.9286 188.061 76.912 187.902ZM87.8601 180.58C89.4514 180.413 90.9194 181.837 91.1959 183.867C91.4891 186.056 92.4071 190.529 94.444 190.316C94.5395 190.306 94.635 190.296 94.6986 190.289C94.9851 190.26 95.2563 190.392 95.2929 190.742C95.3395 191.188 94.9039 191.33 94.522 191.37C93.5672 191.47 92.7757 190.362 92.2983 190.412C92.1074 190.432 91.933 190.611 91.7468 190.984C91.2386 191.97 90.461 192.534 89.4107 192.644C87.5011 192.844 86.3093 191.906 86.1296 190.188C85.9832 188.787 87.8419 187.177 88.9559 187.061C89.3378 187.021 89.8518 187.321 90.2337 187.281C90.5838 187.245 90.8085 186.932 90.7685 186.55C90.5689 184.64 90.2163 181.267 87.7338 181.526C87.0336 181.599 86.5391 182.101 86.1501 182.689L85.9354 183.098C85.8281 183.302 85.6856 183.478 85.4628 183.501C85.2082 183.527 84.9588 183.296 84.9388 183.105C84.8058 181.832 86.7177 180.731 87.8601 180.58ZM89.5297 187.934C88.3236 188.092 87.1922 189.272 87.2987 190.291C87.3852 191.118 88.4901 191.839 89.3494 191.75C90.3997 191.64 91.2951 190.356 91.1886 189.337C91.0921 188.414 90.4209 187.841 89.5297 187.934ZM101.642 184.03C102.661 183.923 102.807 183.168 103.005 182.6C103.448 181.299 104.484 178.585 105.056 178.525C105.375 178.492 105.666 178.815 105.689 179.038C105.792 180.025 103.279 183.987 103.335 184.528C103.362 184.783 103.512 184.992 103.861 185.246C105.643 186.604 106.722 188.614 108.416 190.046C108.595 190.22 108.714 190.433 108.734 190.624C108.764 190.911 108.559 191.415 108.082 191.464C107.477 191.528 104.842 187.556 104.008 186.968C103.664 186.746 103.346 186.168 102.932 186.211C102.295 186.278 101.873 187.159 101.939 187.795C101.969 188.082 102.13 188.387 102.16 188.673C102.206 189.119 101.925 189.502 101.511 189.545C101.161 189.582 100.854 189.421 100.757 189.109C100.54 188.263 100.167 187.466 100.074 186.574C100.031 186.161 100.055 185.772 100.171 185.342C100.703 183.356 99.6526 179.154 100.894 179.024C101.467 178.964 101.659 179.266 101.699 179.648C101.839 180.985 101.463 182.311 101.609 183.711C101.619 183.807 101.632 183.934 101.642 184.03ZM96.1194 180.135C96.5968 180.085 97.0723 180.325 97.1122 180.707C97.1488 181.057 96.8453 181.539 96.8785 181.857C96.9717 182.748 98.0097 183.444 98.5887 184.059C99.1678 184.674 99.4405 185.129 99.4838 185.542C99.5536 186.211 98.7404 187.357 97.8569 188.447C97.6004 188.764 97.4394 189.07 97.466 189.325C97.5126 189.77 98.4152 190.094 98.4651 190.571C98.5183 191.081 98.0357 191.389 97.6856 191.425C96.7626 191.522 95.9707 191.025 95.8809 190.166C95.6813 188.256 98.1732 186.548 98.0701 185.561C97.9736 184.638 95.3281 183.338 95.1285 181.429C95.062 180.792 95.4861 180.233 96.1194 180.135ZM109.676 178.879L110.036 182.316C110.04 182.669 110.077 183.019 110.11 183.338C110.217 184.356 110.373 185.241 110.46 186.068C110.506 186.514 110.489 186.966 110.533 187.38C110.553 187.571 110.707 187.812 110.961 187.785C111.152 187.765 111.234 187.628 111.313 187.459L112.603 184.718C113.259 183.298 113.602 181.653 114.976 180.641C115.154 180.494 115.293 180.286 115.516 180.263C115.802 180.233 116.192 180.578 116.232 180.96C116.272 181.342 116.002 181.531 115.656 181.6C114.622 181.869 114.266 182.774 113.993 183.543C113.348 185.38 112.142 187.083 112.066 189.118C112.023 189.637 111.65 190.062 111.172 190.112C110.631 190.168 110.104 189.741 109.999 189.044C109.551 185.68 108.841 182.28 108.489 178.906C108.442 178.461 108.709 178.24 109.122 178.196C109.6 178.147 109.646 178.592 109.676 178.879ZM119.051 187.615L119.019 187.619C119.022 188.262 119.276 189.458 118.703 189.518C118.353 189.554 118.055 189.167 118.019 188.817C118.015 188.785 118.009 188.722 118.037 188.686C118.222 187.991 118.244 187.281 118.174 186.613C117.981 184.767 117.056 182.998 116.854 181.056C116.774 180.292 116.726 179.525 116.646 178.761C116.626 178.57 116.606 178.379 116.586 178.188C116.533 177.679 116.665 177.408 117.206 177.351C117.62 177.308 117.806 177.546 117.832 177.801C117.916 178.596 117.776 179.415 117.859 180.211C118.085 182.375 118.722 184.464 118.948 186.629L119.051 187.615ZM127.774 183.293C127.894 184.439 128.014 185.584 128.134 186.73C128.183 187.208 128.061 187.574 127.488 187.634C126.915 187.694 126.798 187.192 126.755 186.778C126.509 184.423 126.361 182.089 126.122 179.798C126.059 179.193 125.806 178.93 125.265 178.986C124.278 179.09 123.392 179.536 122.469 179.633C121.673 179.716 120.184 179.936 120.091 179.045C120.044 178.599 120.473 178.393 120.855 178.354C121.619 178.274 122.4 178.353 123.163 178.273C124.532 178.13 125.772 177.679 126.751 176.579C126.95 176.333 127.156 176.15 127.411 176.124C127.729 176.091 128.314 176.448 128.36 176.893C128.373 177.021 128.323 177.155 128.238 177.26C127.351 178.318 127.276 179.452 127.393 180.566C127.489 181.489 127.681 182.402 127.774 183.293ZM134.934 176.464C136.535 176.393 138.501 176.734 138.614 177.816C138.734 178.962 136.267 180.603 134.899 180.746C134.23 180.816 133.254 180.404 132.65 180.467C132.363 180.497 132.224 180.704 132.261 181.054C132.467 183.028 134.698 184.982 136.13 184.833C137.626 184.676 138.987 182.925 139.962 181.472C140.104 181.296 140.25 181.152 140.441 181.132C140.759 181.099 141.082 181.419 141.109 181.674C141.126 181.833 141.079 181.999 140.961 182.108C139.65 183.725 138.481 185.777 136.094 186.027C133.58 186.29 131.251 183.09 130.988 180.576C130.745 178.253 132.154 177.269 134.934 176.464ZM135.07 177.769C134.44 177.899 133.107 178.07 133.19 178.866C133.352 179.492 134.253 179.495 134.699 179.448C135.081 179.408 136.709 178.981 136.629 178.217C136.553 177.485 135.745 177.762 135.07 177.769ZM151.102 176.833C151.258 178.329 150.975 180.546 152.853 180.35C155.717 180.05 155.396 177.896 155.19 174.7C155.177 174.573 155.164 174.446 155.15 174.318C155.1 173.841 155.127 173.484 155.764 173.418C156.305 173.361 156.462 173.634 156.499 173.984C156.682 175.735 156.56 177.646 156.739 179.364C156.866 180.574 157.151 181.767 157.529 182.918C157.559 183.204 157.656 183.516 157.686 183.802C157.723 184.152 157.639 184.579 157.034 184.642C155.411 184.812 156.735 180.555 154.762 180.762C154.126 180.828 153.373 181.325 152.641 181.401C152.577 181.408 152.546 181.411 152.482 181.418C151.973 181.471 151.783 181.813 151.83 182.258C151.89 182.831 152.373 183.456 152.426 183.966C152.47 184.379 152.223 184.791 151.682 184.848C151.077 184.911 150.713 184.499 150.649 183.894C150.327 180.807 150.011 177.783 149.695 174.76C149.641 174.251 149.655 173.767 150.196 173.71C150.769 173.65 150.904 174.022 150.944 174.404C151.028 175.2 150.987 176.04 151.006 176.843C151.038 176.839 151.07 176.836 151.102 176.833ZM165.764 177.713C165.7 176.175 165.207 172.688 166.098 172.595C166.576 172.545 166.686 172.984 166.726 173.366C167.12 177.443 167.577 181.513 167.141 185.645C167.001 187.075 167.051 188.486 166.682 189.876C166.197 191.696 164.338 193.306 162.651 193.482C160.869 193.669 159.676 191.798 158.372 190.101C158.187 189.863 157.966 189.596 157.939 189.342C157.912 189.087 158.197 188.736 158.611 188.692C159.089 188.642 159.301 189.135 159.44 189.539C159.956 191.094 161.637 192.398 162.751 192.281C164.851 192.062 165.677 189.498 165.848 187.743C166.089 184.822 166.235 181.911 165.926 178.951C165.883 178.537 165.808 178.127 165.764 177.713ZM160.472 172.636C160.8 172.698 161.113 172.923 161.22 173.33C162.022 176.077 163.399 178.475 164.97 180.885C165.085 181.066 165.134 181.222 165.15 181.381C165.174 181.604 165.019 181.974 164.606 182.017C163.905 182.09 161.444 177.007 160.48 175.177C160.166 174.631 159.987 173.845 159.917 173.176C159.891 172.922 160.026 172.682 160.345 172.649C160.376 172.646 160.44 172.639 160.472 172.636ZM174.317 181.291C174.298 179.266 174.33 177.107 174.362 174.948C174.347 174.499 174.473 174.165 174.982 174.111C175.523 174.055 175.551 174.631 175.591 175.013C175.674 175.809 175.207 176.565 175.283 177.297C175.303 177.488 175.45 177.666 175.673 177.643C175.896 177.619 175.958 177.291 176.097 177.084C177.157 175.525 178.757 174.521 179.82 172.994C179.902 172.857 180.083 172.742 180.243 172.725C180.529 172.695 180.849 172.983 180.869 173.174C180.925 173.715 178.562 175.732 177.665 176.694C177.06 177.369 176.624 178.122 176.711 178.95C176.824 180.032 177.49 180.863 178.528 180.948C178.885 180.975 179.334 180.96 179.374 181.342C179.424 181.819 178.98 182.188 178.629 182.224C177.77 182.314 176.63 181.564 176.339 180.63C176.239 180.286 176.119 179.752 175.673 179.798C175.295 179.87 175.293 180.16 175.326 180.478C175.336 180.574 175.346 180.669 175.353 180.733C175.366 180.86 175.344 180.959 175.357 181.086C175.387 181.373 175.548 181.678 175.613 181.992C175.656 182.406 175.709 182.915 175.137 182.975C174.309 183.062 174.397 182.055 174.317 181.291ZM173.532 178.703C173.353 180.684 172.376 181.494 172.122 183.065C172.085 183.327 171.924 183.633 171.605 183.666C171.223 183.706 171.063 183.401 171.039 183.178C170.886 181.714 172.381 180.625 172.222 179.097C172.059 177.538 170.407 174.976 169.682 172.96C169.602 172.808 169.553 172.652 169.536 172.493C169.503 172.174 169.664 171.868 170.173 171.815C170.524 171.778 170.716 172.08 170.819 172.455C171.377 174.713 172.468 176.53 173.532 178.703ZM183.588 172.987C183.631 173.4 183.649 173.881 183.692 174.295C183.839 175.695 184.532 176.17 186.091 176.007C186.569 175.957 187.078 175.904 187.555 175.854C187.874 175.82 188.16 175.79 188.446 175.761C189.178 175.684 189.396 175.307 189.33 174.671C189.307 174.448 189.251 174.229 189.228 174.006C189.185 173.592 189.174 173.175 189.13 172.761C189.064 172.125 188.774 171.511 188.711 170.907C188.688 170.684 188.753 170.387 189.167 170.344C189.708 170.288 189.641 170.874 189.709 171.221C190.241 174.157 190.77 177.062 191.299 179.967C191.309 180.062 191.322 180.19 191.332 180.285C191.362 180.571 191.332 180.896 190.918 180.94C190.186 181.016 189.924 180.046 189.867 179.505C189.821 179.059 189.835 178.575 189.788 178.13C189.705 177.334 189.412 176.689 188.521 176.782C188.139 176.822 187.704 176.964 187.29 177.008C186.494 177.091 185.535 176.837 184.898 176.904C184.516 176.944 184.31 177.126 184.357 177.572C184.37 177.699 184.418 177.855 184.467 178.01C185.109 179.842 184.822 182.639 185.744 183.765C185.859 183.946 185.94 184.098 185.953 184.226C185.99 184.576 185.679 184.994 185.202 185.044C184.024 185.167 183.617 178.807 183.279 176.494C183.062 175.036 182.219 173.741 182.094 172.242C182.084 172.146 182.074 172.051 182.061 171.924C182.048 171.796 182.034 171.669 182.024 171.573C181.991 171.255 182.104 170.793 182.645 170.736C183.122 170.687 183.388 171.077 183.418 171.363C183.445 171.618 183.411 171.911 183.441 172.198C183.451 172.293 183.524 172.993 183.588 172.987ZM194.612 170.933C194.697 171.439 194.807 171.878 194.854 172.324C194.867 172.451 194.877 172.547 194.884 172.61C194.94 173.151 195.027 173.367 195.313 173.337C195.568 173.311 196.267 172.916 196.84 172.856C198.686 172.663 199.907 174.498 200.107 176.408C200.26 177.872 199.614 180.931 198.023 181.098C197.546 181.148 197.146 180.707 196.764 180.747C196.445 180.78 196.331 181.532 196.108 181.555C196.044 181.562 195.52 181.166 195.497 180.944C195.158 177.697 194.16 174.616 193.821 171.37C193.801 171.179 193.778 170.956 193.758 170.765C193.694 170.161 193.43 169.48 193.367 168.876C193.337 168.589 193.558 168.244 193.909 168.208C194.488 168.211 194.462 170.113 194.612 170.933ZM199.115 176.769C199.108 176.705 199.098 176.61 199.088 176.514C198.965 175.337 198.1 173.529 196.891 173.655C195.873 173.762 195.354 174.652 195.424 175.321C195.551 176.53 195.877 177.493 196.028 178.636C196.153 179.524 196.318 180.182 197.464 180.062C198.705 179.933 199.286 178.102 199.177 177.052C199.167 176.956 199.125 176.864 199.115 176.769ZM201.65 174.863C201.59 174.29 201.527 173.685 201.467 173.112C201.371 172.189 201.211 169.118 202.134 169.021C202.42 168.991 202.768 169.244 202.792 169.467C202.798 169.531 202.805 169.594 202.78 169.661C202.266 170.905 202.234 172.131 202.36 173.341C202.516 174.837 202.927 176.306 203.176 177.76C203.209 178.078 203.447 178.504 203.483 178.854C203.51 179.109 203.384 179.444 202.875 179.497C202.525 179.533 202.46 179.218 202.42 178.836C202.406 178.709 202.393 178.582 202.376 178.423C202.267 177.372 201.8 176.295 201.687 175.213C201.674 175.086 201.664 174.99 201.65 174.863ZM209.341 168.686C210.942 168.615 212.908 168.957 213.021 170.039C213.141 171.184 210.674 172.826 209.306 172.969C208.638 173.039 207.661 172.626 207.057 172.689C206.77 172.719 206.631 172.927 206.668 173.277C206.874 175.25 209.105 177.205 210.537 177.055C212.033 176.899 213.395 175.148 214.369 173.694C214.511 173.519 214.657 173.375 214.848 173.355C215.166 173.321 215.489 173.642 215.516 173.896C215.533 174.055 215.486 174.221 215.368 174.33C214.057 175.947 212.888 178 210.501 178.249C207.987 178.512 205.658 175.313 205.395 172.798C205.152 170.475 206.562 169.491 209.341 168.686ZM209.477 169.991C208.847 170.121 207.514 170.293 207.597 171.088C207.759 171.715 208.66 171.717 209.106 171.671C209.488 171.631 211.116 171.203 211.036 170.439C210.96 169.707 210.152 169.985 209.477 169.991ZM226.022 173.345C226.175 174.809 226.788 177.287 225.737 177.397C225.228 177.45 225.051 176.986 225.001 176.508C224.891 175.458 224.813 174.404 224.7 173.322C224.57 172.081 224.405 170.811 224.085 169.59C224.043 169.498 224.033 169.402 224.023 169.307C223.877 167.907 227.589 166.489 228.321 166.412C230.772 166.156 230.979 169.062 231.239 171.545C231.418 173.264 231.848 176.758 230.607 176.888C229.938 176.957 229.609 176.574 229.575 176.255C229.555 176.064 229.593 175.803 229.697 175.567C230.096 174.463 230.142 173.365 230.029 172.283C229.922 171.264 229.654 170.231 229.547 169.212C229.437 168.162 228.91 167.734 228.082 167.821C227.828 167.847 227.548 167.941 227.236 168.038C225.04 168.879 225.468 169.285 225.894 173.358C225.926 173.355 225.958 173.352 226.022 173.345ZM241.887 169.885C241.801 171.213 241.842 172.528 241.456 173.759C240.893 175.458 239.847 176.533 238.184 176.932C237.211 177.162 237.162 177.618 237.238 178.35C237.575 180.342 237.473 182.444 238.468 184.27C238.549 184.423 238.597 184.579 238.614 184.738C238.654 185.12 238.402 185.789 237.893 185.843C237.32 185.902 236.769 185.252 236.719 184.775C236.656 184.17 236.72 183.552 236.657 182.947C236.511 181.547 236.173 180.167 236.024 178.734C235.987 178.384 235.979 177.999 235.942 177.649C235.819 176.471 234.304 175.825 234.224 175.062C234.171 174.552 235.441 174.387 235.347 173.496C235.248 172.542 234.924 171.288 234.502 170.335C234.419 170.151 234.363 169.931 234.34 169.708C234.144 167.831 235.683 165.321 237.561 165.125C239.725 164.899 241.343 167.143 241.887 169.885ZM236.035 169.306C235.983 169.73 235.995 170.147 236.038 170.561C236.181 171.929 236.658 173.102 236.794 174.407C236.89 175.33 237.29 175.771 237.895 175.707C239.996 175.488 240.802 172.122 240.579 169.989C240.429 168.557 239.61 166.262 237.733 166.458C237.001 166.535 235.734 167.343 235.834 168.298C235.857 168.52 235.986 168.829 236.012 169.083C236.026 169.211 236.035 169.306 236.035 169.306ZM248.393 164.346C250.971 164.077 253.577 166.539 253.793 168.608C254.013 170.709 251.439 174.099 248.798 174.375C247.016 174.561 244.802 173.087 244.619 171.337C244.516 170.35 244.967 169.434 245.154 168.449C245.166 168.255 245.369 168.041 245.352 167.882C245.326 167.627 244.773 167.267 244.75 167.044C244.71 166.662 245.196 166.386 245.494 166.162C246.332 165.559 246.859 164.442 247.909 164.333C248.068 164.316 248.231 164.331 248.393 164.346ZM248.624 173.331C251.196 172.998 252.871 170.86 252.618 168.441C252.425 166.596 251.066 165.29 249.506 165.453C247.246 165.689 245.499 169.282 245.672 170.937C245.828 172.433 247.033 173.497 248.624 173.331ZM262.375 167.904C262.302 167.204 262.261 166.5 262.188 165.8C262.015 164.145 261.733 162.984 260.778 163.084C259.823 163.184 259.613 163.946 259.683 164.614C259.719 164.964 259.788 165.311 259.824 165.661C260.034 167.666 259.616 169.512 258.04 171.06C257.812 171.341 257.495 171.696 257.113 171.736C256.795 171.769 256.475 171.481 256.442 171.163C256.399 170.749 257.148 170.22 257.461 169.833C258.348 168.776 258.741 167.608 258.615 166.399C258.548 165.762 258.319 165.111 257.959 164.44C257.879 164.288 257.802 164.167 257.789 164.04C257.686 163.053 260.427 161.576 260.714 161.546C262.528 161.357 263.445 163.674 263.645 165.584C263.825 167.302 263.753 169.079 263.933 170.798C263.976 171.212 264.101 171.488 264.579 171.438C264.738 171.422 264.954 171.335 265.113 171.318C265.622 171.265 266.058 171.734 266.124 172.371C266.257 173.644 265.74 174.856 265.874 176.129C265.883 176.224 265.893 176.32 265.907 176.447C265.937 176.734 265.645 177.022 265.295 177.058C264.881 177.101 264.689 176.8 264.649 176.418C264.582 175.781 264.608 175.103 264.541 174.466C264.475 173.83 264.149 173.478 263.413 173.523C261.752 173.632 260.055 173.713 258.432 173.883C257.731 173.956 257.418 174.342 257.488 175.011C257.594 176.029 257.692 177.274 258.269 178.179C258.423 178.42 258.577 178.661 258.601 178.884C258.624 179.107 258.409 179.515 257.868 179.572C256.881 179.675 256.187 176.112 256.024 174.552C255.891 173.279 256.446 172.739 257.783 172.599C259.024 172.469 260.32 172.559 261.593 172.426C262.835 172.296 262.738 171.985 262.515 169.852C262.448 169.216 262.378 168.547 262.312 167.911C262.344 167.907 262.344 167.907 262.375 167.904ZM275.007 162.755C274.949 164.048 274.848 165.539 274.654 167.071C274.356 169.451 274.446 171.855 273.922 174.226C273.226 177.42 272.084 183.427 269.697 183.676C268.743 183.776 267.326 182.541 266.037 179.748C265.96 179.627 265.908 179.439 265.892 179.28C265.848 178.866 266.06 178.426 266.569 178.373C267.619 178.263 268.172 182.324 269.477 182.187C270.464 182.084 271.298 179.906 271.783 178.697C272.293 177.421 272.545 176.139 272.425 174.994C272.299 173.784 271.801 172.71 270.755 171.629C269.996 170.84 269.696 169.809 269.243 168.859C268.632 167.636 268.181 166.396 267.386 165.257C267.203 165.051 267.014 164.781 266.988 164.526C266.965 164.303 267.151 163.93 267.596 163.884C267.978 163.844 268.212 164.237 268.408 164.571C269.629 167.017 270.847 169.432 272.153 171.773C272.297 171.918 272.501 172.026 272.692 172.006C273.138 171.959 273.476 169.35 273.392 168.233C273.249 166.253 273.788 164.33 273.582 162.357C273.512 161.689 273.625 161.226 274.198 161.167C274.739 161.11 274.884 161.577 274.931 162.023C274.951 162.214 274.971 162.405 275.007 162.755ZM279.391 167.638C281.642 165.472 283.606 163.336 284.322 160.333C284.391 160.069 284.51 159.67 284.797 159.64C285.147 159.604 285.336 159.874 285.356 160.065C285.376 160.255 285.3 160.456 285.253 160.622C284.385 163.094 283.069 164.969 281.359 167.078C281.217 167.254 281.135 167.391 281.148 167.518C281.221 168.219 284.344 169.469 285.58 169.597C286.036 169.646 286.437 169.797 286.851 169.754C287.201 169.717 287.61 169.32 287.928 169.287C288.215 169.257 288.56 169.478 288.606 169.924C288.67 170.529 287.768 170.526 287.546 170.55C286.4 170.669 285.263 170.563 284.22 170.125C282.94 169.583 281.582 169.21 280.41 168.464C280.203 168.325 280.037 168.278 279.909 168.291C279.623 168.321 279.529 168.653 279.572 169.067C279.655 169.862 280.085 170.589 280.137 171.388C280.177 171.77 280.086 172.134 279.481 172.197C278.94 172.254 278.862 171.811 278.812 171.334C278.755 170.793 278.731 170.248 278.674 169.707C278.544 168.466 278.383 167.228 278.256 166.019C278.107 164.587 277.728 159.736 278.715 159.633C279.129 159.589 279.247 159.802 279.264 159.961C279.277 160.089 279.23 160.254 279.215 160.417C278.984 162.211 278.913 163.988 279.106 165.834C279.169 166.438 279.264 167.04 279.391 167.638ZM292.032 170.499L291.024 160.856C290.96 160.251 290.743 160.016 290.106 160.083C289.884 160.106 289.693 160.126 289.47 160.149C288.961 160.203 288.445 160.192 287.889 159.8C287.822 159.775 287.755 159.749 287.691 159.756C287.437 159.783 287.078 160.045 286.76 160.079C286.346 160.122 285.314 160.101 285.258 159.56C285.221 159.21 285.484 158.957 285.675 158.937C285.771 158.927 285.87 158.949 285.968 158.971C287.827 159.517 289.729 158.932 291.611 159.089C291.71 159.111 291.837 159.097 291.933 159.087C292.728 159.004 293.454 158.253 294.091 158.186C294.314 158.163 294.652 158.321 294.692 158.703C294.712 158.894 293.324 159.779 292.529 159.862C291.924 159.925 291.868 160.317 291.925 160.858C292.208 162.34 292.512 164.014 292.668 165.51C292.795 166.719 292.791 167.91 292.917 169.12C292.967 169.597 293.081 170.068 293.13 170.545C293.167 170.895 293.051 171.326 292.606 171.372C292.16 171.419 292.095 171.104 292.062 170.785C292.052 170.69 292.042 170.595 292.032 170.499ZM297.8 160.147C297.885 160.653 297.995 161.092 298.041 161.538C298.055 161.665 298.065 161.76 298.071 161.824C298.128 162.365 298.215 162.581 298.501 162.551C298.756 162.525 299.455 162.13 300.027 162.07C301.873 161.877 303.095 163.712 303.294 165.622C303.447 167.086 302.802 170.145 301.211 170.312C300.733 170.362 300.333 169.921 299.951 169.961C299.633 169.994 299.519 170.746 299.296 170.769C299.232 170.776 298.708 170.38 298.685 170.157C298.346 166.911 297.348 163.83 297.009 160.584C296.989 160.393 296.965 160.17 296.945 159.979C296.882 159.374 296.618 158.694 296.555 158.09C296.525 157.803 296.746 157.458 297.096 157.422C297.676 157.425 297.649 159.326 297.8 160.147ZM302.303 165.983C302.296 165.919 302.286 165.824 302.276 165.728C302.153 164.551 301.288 162.743 300.079 162.869C299.06 162.976 298.542 163.866 298.612 164.535C298.738 165.744 299.064 166.707 299.216 167.85C299.341 168.738 299.506 169.396 300.652 169.276C301.893 169.146 302.474 167.316 302.364 166.266C302.354 166.17 302.313 166.078 302.303 165.983ZM304.838 164.077C304.778 163.504 304.715 162.899 304.655 162.326C304.559 161.403 304.398 158.331 305.321 158.235C305.608 158.205 305.956 158.458 305.979 158.681C305.986 158.745 305.993 158.808 305.968 158.875C305.454 160.119 305.421 161.345 305.548 162.555C305.704 164.051 306.115 165.52 306.364 166.974C306.397 167.292 306.634 167.718 306.671 168.068C306.698 168.323 306.572 168.657 306.063 168.711C305.712 168.747 305.647 168.432 305.607 168.05C305.594 167.923 305.581 167.796 305.564 167.637C305.454 166.586 304.988 165.509 304.875 164.427C304.861 164.3 304.851 164.204 304.838 164.077ZM62.8718 227.6C63.0249 229.064 63.6378 231.542 62.5875 231.652C62.0783 231.705 61.9011 231.241 61.8512 230.764C61.7414 229.713 61.6634 228.66 61.5503 227.578C61.4206 226.336 61.2557 225.067 60.935 223.845C60.8932 223.753 60.8832 223.658 60.8732 223.562C60.7268 222.162 64.4396 220.744 65.1716 220.668C67.6222 220.412 67.8295 223.318 68.089 225.8C68.2686 227.519 68.6982 231.013 67.457 231.143C66.7886 231.213 66.4589 230.829 66.4257 230.511C66.4057 230.32 66.4427 230.059 66.5468 229.822C66.9462 228.719 66.9922 227.62 66.8791 226.538C66.7727 225.52 66.5037 224.486 66.3973 223.468C66.2875 222.417 65.7602 221.99 64.9327 222.076C64.6781 222.103 64.3983 222.196 64.0867 222.293C61.8902 223.134 62.3187 223.54 62.7445 227.614C62.7764 227.61 62.8082 227.607 62.8718 227.6ZM74.8934 219.684C77.4714 219.414 80.0775 221.877 80.2938 223.945C80.5133 226.046 77.9398 229.436 75.2982 229.712C73.5159 229.898 71.3027 228.424 71.1197 226.674C71.0166 225.687 71.4678 224.771 71.6544 223.787C71.6663 223.592 71.8691 223.378 71.8525 223.219C71.8259 222.964 71.2734 222.604 71.2501 222.381C71.2102 221.999 71.6961 221.723 71.9944 221.499C72.8324 220.897 73.3591 219.78 74.4094 219.67C74.5685 219.653 74.731 219.669 74.8934 219.684ZM75.1248 228.668C77.6961 228.335 79.3709 226.198 79.1181 223.779C78.9251 221.933 77.566 220.627 76.0065 220.79C73.7468 221.026 71.9989 224.619 72.1719 226.274C72.3282 227.77 73.5334 228.835 75.1248 228.668ZM88.4877 222.606C89.5061 222.5 89.6524 221.745 89.8505 221.177C90.2936 219.876 91.329 217.161 91.9019 217.102C92.2202 217.068 92.5114 217.392 92.5347 217.615C92.6378 218.601 90.1242 222.564 90.1807 223.105C90.2073 223.36 90.3579 223.569 90.7061 223.822C92.489 225.18 93.5679 227.191 95.2619 228.623C95.441 228.797 95.5597 229.01 95.5797 229.201C95.6096 229.487 95.4049 229.991 94.9275 230.041C94.3228 230.104 91.6876 226.133 90.8539 225.544C90.5091 225.323 90.1912 224.745 89.7775 224.788C89.141 224.855 88.7182 225.735 88.7848 226.372C88.8147 226.658 88.9753 226.963 89.0052 227.25C89.0518 227.695 88.7701 228.079 88.3564 228.122C88.0063 228.158 87.6999 227.997 87.603 227.686C87.3858 226.84 87.0129 226.042 86.9198 225.151C86.8765 224.737 86.9002 224.349 87.0161 223.918C87.5485 221.932 86.498 217.731 87.7393 217.601C88.3122 217.541 88.5046 217.843 88.5445 218.225C88.6842 219.561 88.308 220.888 88.4544 222.288C88.4644 222.384 88.4777 222.511 88.4877 222.606ZM82.9648 218.711C83.4422 218.661 83.9178 218.901 83.9577 219.283C83.9943 219.633 83.6907 220.116 83.724 220.434C83.8172 221.325 84.8551 222.021 85.4342 222.636C86.0133 223.251 86.286 223.705 86.3292 224.119C86.3991 224.787 85.5859 225.934 84.7024 227.024C84.4459 227.34 84.2849 227.647 84.3115 227.901C84.3581 228.347 85.2607 228.671 85.3106 229.148C85.3638 229.657 84.8812 229.965 84.5311 230.002C83.6081 230.098 82.8162 229.602 82.7264 228.743C82.5268 226.833 85.0187 225.125 84.9156 224.138C84.8191 223.215 82.1736 221.915 81.974 220.005C81.9075 219.369 82.3316 218.81 82.9648 218.711ZM97.7985 216.743C99.3899 216.576 100.858 217.999 101.134 220.03C101.428 222.219 102.346 226.692 104.382 226.479C104.478 226.469 104.573 226.459 104.637 226.452C104.923 226.422 105.195 226.555 105.231 226.905C105.278 227.35 104.842 227.493 104.46 227.532C103.506 227.632 102.714 226.525 102.237 226.574C102.046 226.594 101.871 226.773 101.685 227.147C101.177 228.133 100.399 228.697 99.3492 228.807C97.4396 229.006 96.2477 228.069 96.068 226.351C95.9216 224.95 97.7803 223.34 98.8943 223.224C99.2762 223.184 99.7902 223.484 100.172 223.444C100.522 223.408 100.747 223.094 100.707 222.713C100.507 220.803 100.155 217.429 97.6722 217.689C96.972 217.762 96.4776 218.264 96.0885 218.852L95.8739 219.26C95.7665 219.465 95.624 219.64 95.4012 219.664C95.1466 219.69 94.8972 219.459 94.8773 219.268C94.7442 217.995 96.6561 216.894 97.7985 216.743ZM99.4682 224.097C98.2621 224.255 97.1306 225.435 97.2371 226.454C97.3236 227.281 98.4285 228.002 99.2878 227.912C100.338 227.802 101.233 226.518 101.127 225.5C101.031 224.577 100.359 224.004 99.4682 224.097ZM114.147 221.662C114.175 222.238 114.2 222.782 114.257 223.323C114.323 223.96 114.584 224.608 114.651 225.245C114.684 225.563 114.555 225.866 114.109 225.913C113.441 225.982 113.079 222.835 112.923 221.339C112.867 220.798 112.845 220.285 112.792 219.776C112.692 218.821 111.572 217.652 110.681 217.745C110.14 217.801 110.028 218.263 110.061 218.582C110.117 219.123 110.221 219.498 110.268 219.944C110.55 222.649 109.984 227.084 107.343 227.36C106.42 227.456 105.551 226.839 105.411 225.503C105.335 224.771 105.82 222.95 106.584 222.87C106.902 222.837 107.212 223.03 107.245 223.348C107.318 224.048 106.727 224.85 106.783 225.391C106.813 225.678 107.072 226.005 107.518 225.958C109.332 225.768 109.336 220.878 109.099 218.618C109.01 217.759 108.317 217.284 107.075 217.414C106.884 217.434 106.697 217.485 106.538 217.502C106.188 217.539 105.859 217.477 105.809 216.999C105.773 216.649 105.954 216.534 106.208 216.507C106.399 216.487 106.629 216.527 106.852 216.504C107.265 216.461 107.662 216.258 108.044 216.219C109.349 216.082 110.565 216.631 111.856 216.978C113.214 217.351 113.823 218.253 113.97 219.653C113.974 220.007 114.008 220.325 114.044 220.675C114.077 220.993 114.114 221.343 114.147 221.662ZM122.773 219.409C122.708 217.871 122.215 214.383 123.106 214.29C123.584 214.24 123.694 214.679 123.734 215.061C124.128 219.138 124.585 223.209 124.149 227.341C124.009 228.771 124.059 230.181 123.69 231.571C123.205 233.391 121.346 235.001 119.659 235.178C117.877 235.364 116.684 233.494 115.38 231.796C115.195 231.558 114.974 231.292 114.947 231.037C114.92 230.783 115.205 230.431 115.619 230.388C116.097 230.338 116.309 230.83 116.448 231.234C116.964 232.789 118.645 234.093 119.759 233.977C121.859 233.757 122.685 231.194 122.856 229.438C123.097 226.517 123.244 223.606 122.934 220.647C122.891 220.233 122.816 219.822 122.773 219.409ZM117.48 214.331C117.808 214.394 118.121 214.618 118.228 215.025C119.03 217.773 120.407 220.171 121.978 222.58C122.093 222.761 122.142 222.917 122.159 223.076C122.182 223.299 122.027 223.669 121.614 223.712C120.914 223.786 118.452 218.702 117.488 216.872C117.174 216.326 116.995 215.54 116.925 214.872C116.899 214.617 117.034 214.378 117.353 214.345C117.385 214.341 117.448 214.335 117.48 214.331ZM137.311 219.305C137.454 220.673 137.594 222.01 137.737 223.378C137.767 223.665 137.768 223.986 137.322 224.033C136.845 224.083 136.592 223.82 136.549 223.406C136.486 222.801 136.61 222.145 136.544 221.508C136.431 220.426 136.155 219.329 136.039 218.215C135.979 217.642 136.046 217.056 135.983 216.451C135.953 216.165 135.821 215.825 135.407 215.868C135.121 215.898 134.995 216.233 134.859 216.472C133.601 218.598 132.414 220.782 130.878 222.712C130.707 222.923 130.66 223.089 130.68 223.28C130.717 223.63 131.065 223.883 131.095 224.169C131.111 224.328 130.947 224.603 130.692 224.63C130.342 224.666 130.035 224.184 129.716 224.217C129.462 224.243 129.23 224.493 128.976 224.519C128.753 224.543 128.478 224.378 128.442 224.028C128.395 223.583 129.444 223.151 129.361 222.356C129.341 222.165 129.286 221.945 129.199 221.729C128.366 219.918 128.125 217.916 127.731 215.995C127.607 215.428 127.261 214.886 127.201 214.313C127.154 213.867 127.352 213.299 127.862 213.246C128.307 213.2 128.404 213.511 128.437 213.829C128.491 214.339 128.48 214.855 128.533 215.364C128.766 217.592 129.817 221.793 130.517 221.72C130.708 221.7 130.86 221.62 131 221.412C132.112 219.43 133.463 217.583 134.272 215.472C134.524 214.802 134.891 214.313 135.559 214.243C136.673 214.127 136.852 214.913 136.932 215.676C136.975 216.09 136.983 216.475 137.026 216.889C137.109 217.685 137.228 218.509 137.311 219.305ZM132.849 209.861C131.651 209.793 129.149 209.251 129.093 208.71C129.069 208.487 129.224 208.117 129.478 208.09C129.606 208.077 129.74 208.127 129.877 208.209C130.768 208.728 131.561 208.934 132.325 208.854C133.057 208.778 133.795 208.443 134.565 207.816C134.743 207.669 134.946 207.454 135.137 207.434C135.36 207.411 135.648 207.703 135.668 207.894C135.724 208.435 133.735 209.415 132.849 209.861ZM140.554 218.805C140.496 218.553 140.437 218.302 140.408 218.016C140.145 215.501 141.655 211.483 144.456 211.19C145.029 211.13 145.68 211.512 145.773 212.403C145.82 212.849 145.501 213.494 145.087 213.537C144.642 213.584 144.161 212.99 143.716 213.037C142.188 213.196 141.363 216.693 141.579 218.762C141.776 220.64 142.756 222.629 144.124 222.486C145.525 222.339 146.012 219.618 146.713 219.545C147.063 219.508 147.428 219.92 147.458 220.207C147.521 220.811 146.438 222.147 145.868 222.85C145.497 223.307 144.941 223.526 144.336 223.589C141.44 223.892 140.802 221.481 140.632 219.858C140.596 219.508 140.591 219.155 140.554 218.805ZM155.398 217.607C155.517 218.753 155.637 219.899 155.757 221.044C155.807 221.522 155.684 221.889 155.111 221.948C154.538 222.008 154.422 221.506 154.378 221.092C154.132 218.737 153.985 216.403 153.745 214.112C153.682 213.507 153.429 213.244 152.888 213.301C151.902 213.404 151.015 213.85 150.092 213.947C149.297 214.03 147.807 214.25 147.714 213.359C147.668 212.913 148.097 212.708 148.479 212.668C149.242 212.588 150.023 212.667 150.787 212.587C152.155 212.444 153.395 211.993 154.374 210.893C154.573 210.647 154.78 210.465 155.034 210.438C155.353 210.405 155.937 210.762 155.983 211.208C155.997 211.335 155.946 211.469 155.861 211.574C154.974 212.632 154.9 213.766 155.016 214.88C155.112 215.803 155.304 216.716 155.398 217.607ZM161.296 210.105C162.888 209.939 164.356 211.362 164.632 213.392C164.925 215.582 165.843 220.054 167.88 219.841C167.976 219.832 168.071 219.822 168.135 219.815C168.421 219.785 168.693 219.917 168.729 220.268C168.776 220.713 168.34 220.855 167.958 220.895C167.003 220.995 166.212 219.887 165.735 219.937C165.544 219.957 165.369 220.136 165.183 220.51C164.675 221.496 163.897 222.06 162.847 222.169C160.937 222.369 159.745 221.432 159.566 219.713C159.419 218.313 161.278 216.703 162.392 216.586C162.774 216.546 163.288 216.847 163.67 216.807C164.02 216.77 164.245 216.457 164.205 216.075C164.005 214.166 163.652 210.792 161.17 211.051C160.47 211.125 159.975 211.627 159.586 212.214L159.372 212.623C159.264 212.827 159.122 213.003 158.899 213.026C158.644 213.053 158.395 212.822 158.375 212.631C158.242 211.358 160.154 210.257 161.296 210.105ZM162.966 217.459C161.76 217.618 160.628 218.798 160.735 219.816C160.821 220.644 161.926 221.365 162.786 221.275C163.836 221.165 164.731 219.881 164.625 218.863C164.528 217.94 163.857 217.366 162.966 217.459Z" fill="black"/>
</svg>
