<svg width="364" height="295" viewBox="0 0 364 295" fill="none" xmlns="http://www.w3.org/2000/svg">
<path d="M0 24.123L281 0L364 272.912L55.6923 295L0 24.123Z" fill="#B8FFFD"/>
<path d="M91.4803 89.5474L92.2019 89.9867C91.8327 90.9691 91.2676 91.8218 90.5066 92.5448C89.7669 93.2657 89.0681 93.6604 88.4104 93.7292C87.7526 93.7979 87.2129 93.6613 86.791 93.3193C86.3692 92.9773 86.1283 92.5199 86.0684 91.947C86.0085 91.3741 86.265 90.3392 86.8378 88.8422C87.4296 87.3218 87.69 86.2221 87.6191 85.5431C87.588 85.2461 87.433 84.9941 87.154 84.7874C86.894 84.5571 86.5942 84.4598 86.2547 84.4953C85.1726 84.6084 84.1664 85.5501 83.2361 87.3204C82.3035 89.0695 81.3202 91.5639 80.2861 94.8036L78.3066 94.3349C78.4525 91.8315 78.7747 89.374 79.2734 86.9624C79.7911 84.5274 80.3149 82.7674 80.845 81.6824L82.1931 81.9598C81.7565 83.5283 81.275 86.2062 80.7485 89.9935C83.1531 84.68 85.5861 81.8947 88.0473 81.6374C88.5778 81.582 89.0316 81.7169 89.4088 82.0421C89.8072 82.3651 90.0319 82.7706 90.0829 83.2586C90.1339 83.7466 90.1168 84.1988 90.0317 84.6153C89.9443 85.0105 89.6365 85.965 89.1084 87.4788C88.5992 88.9691 88.3635 89.8946 88.4012 90.2553C88.4389 90.616 88.5749 90.8914 88.8093 91.0814C89.0414 91.2502 89.253 91.3246 89.4439 91.3046C89.6349 91.2846 89.7907 91.2362 89.9114 91.1592C90.032 91.0823 90.1599 90.9724 90.2952 90.8295C90.4516 90.6845 90.5879 90.5523 90.7041 90.4329C90.8203 90.3135 90.9545 90.16 91.1065 89.9725C91.2775 89.7616 91.4021 89.6199 91.4803 89.5474ZM98.0935 86.8291C99.4532 84.2417 100.682 82.451 101.779 81.4569C102.874 80.4415 103.867 79.8873 104.758 79.7941C105.649 79.701 106.368 79.9047 106.913 80.4054C107.457 80.8848 107.772 81.5383 107.858 82.3658C108.098 84.6573 107.492 86.8655 106.041 88.9906C104.609 91.0922 102.864 92.2505 100.806 92.4657C99.8938 92.561 99.1558 92.4773 98.5921 92.2145L99.2129 90.7661C100.353 90.7971 101.05 90.7992 101.305 90.7726C102.451 90.6529 103.452 89.8725 104.31 88.4315C105.167 86.9906 105.523 85.5699 105.376 84.1696C105.321 83.6391 105.116 83.2208 104.763 82.9146C104.428 82.5849 104.017 82.4456 103.529 82.4966C102.362 82.6186 101.143 83.7863 99.8729 85.9996C98.624 88.2108 97.511 90.9011 96.5339 94.0705C95.5802 97.2589 94.8056 100.622 94.2101 104.159L92.2306 103.69C92.2598 103.558 92.5476 102.413 93.0941 100.254C93.6216 98.1179 94.1395 95.9939 94.648 93.8815C96.057 88.0716 96.7337 84.9014 96.6783 84.3709C96.5363 83.013 96.1319 81.8112 95.4649 80.7655L96.9731 79.8035C97.7262 80.6471 98.156 81.5782 98.2624 82.5966C98.3667 83.5939 98.3104 85.0047 98.0935 86.8291ZM118.426 81.0681C119.073 81.9228 119.454 82.9019 119.569 84.0052C119.749 85.7238 119.315 87.3242 118.269 88.8063C117.221 90.2673 115.89 91.082 114.278 91.2505C113.047 91.3792 112.045 91.13 111.272 90.503C110.517 89.8526 110.075 88.9014 109.944 87.6496C109.733 85.6339 110.33 83.7483 111.733 81.9929C113.135 80.2162 114.812 79.2259 116.764 79.0218C117.124 78.9841 117.38 78.9681 117.531 78.9738L117.736 80.0141C116.039 80.1915 114.679 80.827 113.656 81.9206C112.634 83.0141 112.202 84.3248 112.362 85.8524C112.457 86.7648 112.758 87.4841 113.263 88.0104C113.767 88.5155 114.442 88.7237 115.291 88.635C116.161 88.5441 116.811 88.0901 117.24 87.273C117.67 86.4559 117.831 85.5382 117.725 84.5197C117.616 83.4801 117.316 82.5569 116.824 81.7504L118.426 81.0681ZM140.593 84.5746L141.318 85.0458C141.05 85.9746 140.556 86.7877 139.835 87.4851C139.136 88.1803 138.468 88.5611 137.831 88.6276C137.216 88.692 136.706 88.5308 136.301 88.1441C135.893 87.7363 135.653 87.1822 135.58 86.4821C135.507 85.7819 135.529 84.8679 135.647 83.7402C134.814 85.4146 133.871 86.7572 132.819 87.7681C131.766 88.779 130.847 89.3255 130.062 89.4075C128.874 89.5317 128.201 88.8406 128.044 87.3342C128.028 87.1856 128.081 86.2577 128.203 84.5505C127.368 86.2036 126.482 87.476 125.546 88.3675C124.628 89.2355 123.766 89.7117 122.96 89.796C121.772 89.9202 121.099 89.2291 120.942 87.7226L122.031 86.4504C122.071 86.8324 122.244 87.1468 122.548 87.3938C122.874 87.6386 123.228 87.741 123.61 87.7011C124.31 87.6279 125.192 86.9351 126.256 85.6227C127.341 84.3081 128.282 82.6333 129.077 80.5982C129.245 80.1517 129.437 79.6276 129.653 79.0259C129.888 78.4007 130.056 77.9542 130.156 77.6863C130.257 77.4183 130.377 77.127 130.515 76.8122C130.742 76.3166 131.004 76.0532 131.301 76.0222C131.598 75.9911 131.855 76.0823 132.07 76.2958C132.285 76.5092 132.41 76.7751 132.443 77.0933C132.474 77.3904 132.415 77.7504 132.266 78.1735C132.139 78.5944 131.91 79.176 131.58 79.9183C131.248 80.6394 130.988 81.235 130.802 81.705C130.401 83.2054 130.228 84.2209 130.283 84.7513C130.339 85.2818 130.519 85.6705 130.824 85.9175C131.149 86.1623 131.503 86.2647 131.885 86.2248C132.607 86.1494 133.408 85.5079 134.29 84.3003C135.191 83.0693 136.067 81.2939 136.919 78.9742C137.017 78.6851 137.134 78.3619 137.268 78.0046C137.4 77.6262 137.5 77.3477 137.567 77.1691C137.632 76.9692 137.705 76.7471 137.787 76.5026C137.889 76.2559 137.967 76.0762 138.02 75.9634C138.091 75.8272 138.164 75.7017 138.238 75.5867C138.409 75.3758 138.611 75.2581 138.844 75.2337C139.099 75.2071 139.334 75.3005 139.549 75.514C139.765 75.7274 139.889 75.9933 139.922 76.3115C139.953 76.6086 139.56 77.9795 138.743 80.4244C137.946 82.8458 137.572 84.3005 137.623 84.7885C137.674 85.2765 137.807 85.6272 138.023 85.8406C138.259 86.0519 138.473 86.1475 138.664 86.1275C138.876 86.1054 139.034 86.0781 139.138 86.0458C139.242 86.0135 139.344 85.96 139.443 85.8852C139.542 85.8105 139.622 85.7486 139.681 85.6995C139.761 85.6482 139.849 85.5639 139.944 85.4468L140.144 85.2007C140.201 85.1304 140.275 85.026 140.368 84.8876C140.48 84.7258 140.555 84.6214 140.593 84.5746ZM151.775 77.5822C152.422 78.4369 152.803 79.4159 152.919 80.5192C153.098 82.2378 152.665 83.8382 151.619 85.3203C150.57 86.7813 149.24 87.596 147.627 87.7646C146.397 87.8932 145.395 87.644 144.621 87.017C143.867 86.3666 143.424 85.4154 143.293 84.1636C143.083 82.1479 143.679 80.2623 145.083 78.5069C146.485 76.7302 148.161 75.7399 150.113 75.5358C150.474 75.4981 150.73 75.4821 150.88 75.4878L151.086 76.5281C149.388 76.7055 148.028 77.341 147.006 78.4346C145.983 79.5282 145.552 80.8388 145.712 82.3665C145.807 83.2788 146.107 83.9982 146.613 84.5245C147.116 85.0295 147.792 85.2377 148.641 85.149C149.511 85.0581 150.16 84.6041 150.59 83.787C151.019 82.9699 151.181 82.0522 151.074 81.0337C150.965 79.9941 150.665 79.0709 150.173 78.2644L151.775 77.5822ZM165.939 82.0861L166.808 82.7031C165.788 84.8474 164.588 85.9916 163.209 86.1358C162.424 86.2179 161.564 85.7929 160.631 84.861C159.718 83.9268 159.127 82.9912 158.857 82.0541C158.754 82.3008 158.458 82.9538 157.968 84.0132C157.478 85.0725 157.139 85.9338 156.951 86.5969L154.972 86.1281C155.144 83.4718 155.428 80.954 155.823 78.5747C156.239 76.1932 156.685 74.5057 157.16 73.5123L158.508 73.7896C158.228 74.8056 157.863 77.4713 157.413 81.7868C158.33 79.2672 159.324 77.3936 160.397 76.1661C161.468 74.9174 162.695 74.0383 164.079 73.529L164.299 75.6296C162.778 75.8529 161.411 77.0361 160.197 79.1792C160.427 80.5495 160.949 81.6531 161.766 82.4901C162.604 83.3248 163.352 83.7078 164.01 83.639C164.328 83.6058 164.971 83.0881 165.939 82.0861ZM176.671 74.9798C177.318 75.8345 177.699 76.8136 177.814 77.9169C177.994 79.6355 177.561 81.2359 176.514 82.718C175.466 84.179 174.135 84.9937 172.523 85.1623C171.292 85.2909 170.29 85.0417 169.517 84.4147C168.762 83.7643 168.32 82.8131 168.189 81.5613C167.978 79.5456 168.575 77.66 169.979 75.9046C171.38 74.1279 173.057 73.1376 175.009 72.9335C175.37 72.8958 175.625 72.8798 175.776 72.8855L175.981 73.9258C174.284 74.1032 172.924 74.7387 171.901 75.8323C170.879 76.9259 170.448 78.2365 170.607 79.7641C170.703 80.6765 171.003 81.3958 171.508 81.9221C172.012 82.4272 172.688 82.6354 173.536 82.5467C174.406 82.4558 175.056 82.0018 175.485 81.1847C175.915 80.3676 176.076 79.4499 175.97 78.4314C175.861 77.3918 175.561 76.4686 175.069 75.6621L176.671 74.9798ZM193.344 81.6346L193.455 82.3951C193.256 82.5445 192.331 83.0274 190.679 83.8436C190.423 87.9671 189.732 90.9994 188.605 92.9404C187.478 94.8814 185.96 95.9517 184.05 96.1514C183.159 96.2445 182.419 96.0324 181.828 95.5149C181.238 94.9975 180.895 94.2826 180.8 93.3702C180.609 91.5455 181.269 89.7499 182.778 87.9833C184.29 86.238 186.399 84.7628 189.105 83.5577C189.274 82.1028 189.638 80.0379 190.194 77.3628C188.999 79.6756 187.858 81.2749 186.771 82.1607C185.705 83.0443 184.705 83.5349 183.771 83.6325C182.838 83.7301 182.1 83.5498 181.559 83.0916C181.039 82.6311 180.735 81.9766 180.646 81.1279C180.5 79.7275 180.935 78.2449 181.951 76.6801C182.965 75.0941 184.305 73.7529 185.97 72.6565C187.655 71.5366 189.325 70.8901 190.98 70.7171L191.351 71.8045C189.022 72.3053 187.083 73.3446 185.531 74.9224C184.002 76.4979 183.304 77.9329 183.44 79.2271C183.497 79.7788 183.715 80.2172 184.092 80.5425C184.469 80.8677 184.902 81.0048 185.39 80.9538C186.111 80.8784 187.124 80.0003 188.428 78.3196C189.733 76.6389 190.625 75.2264 191.106 74.0822L192.354 74.6275C191.513 77.8685 190.982 80.5838 190.76 82.7733L193.344 81.6346ZM189.013 84.5324C187.256 85.5741 185.835 86.7522 184.75 88.0668C183.665 89.3815 183.173 90.5268 183.275 91.5028C183.328 92.012 183.52 92.4102 183.85 92.6974C184.181 92.9847 184.569 93.105 185.014 93.0584C185.905 92.9653 186.72 92.2473 187.459 90.9045C188.199 89.5617 188.717 87.4377 189.013 84.5324ZM221.489 67.3351L222.76 67.4918C222.754 67.6425 222.514 68.3218 222.04 69.5297C221.584 70.7141 221.124 72.2636 220.659 74.1783C220.192 76.0718 219.961 77.9621 219.965 79.8492L217.912 79.903C217.79 78.736 218.004 77.1908 218.553 75.2672C218.36 75.2659 217.966 75.2964 217.372 75.3585C216.799 75.4183 215.753 75.6672 214.233 76.1049C213.404 78.6368 213.079 80.7621 213.259 82.4807L211.096 82.4172C210.939 80.9107 211.307 78.9954 212.201 76.6712C211.136 76.9541 210.081 77.3218 209.034 77.7744L208.586 76.5664C208.58 76.5028 209.123 76.2636 210.217 75.8491C211.331 75.4322 212.16 75.1526 212.703 75.01C213.992 70.9285 214.912 68.548 215.463 67.8683L216.888 68.2663C216.804 68.4896 216.61 68.9925 216.306 69.7751C215.544 71.7208 215.048 73.2313 214.817 74.3064C216.643 73.9225 217.736 73.7117 218.097 73.674C218.479 73.6341 218.798 73.6114 219.055 73.606C220.183 70.0347 220.995 67.9444 221.489 67.3351ZM238.783 74.7935L239.572 75.258C239.341 75.9256 238.853 76.5879 238.107 77.2451C237.381 77.9 236.69 78.2619 236.032 78.3306C234.78 78.4615 234.086 77.8692 233.948 76.5537C233.884 75.9384 233.966 75.1897 234.196 74.3077L233.145 75.6402C232.121 76.927 231.206 77.8163 230.399 78.3081C229.614 78.7978 228.818 79.0847 228.012 79.169C227.206 79.2533 226.567 79.0948 226.096 78.6936C225.644 78.2689 225.376 77.6535 225.292 76.8472C225.137 75.362 225.556 73.8381 226.551 72.2755C227.544 70.6917 228.884 69.3505 230.571 68.2518C232.258 67.1531 233.991 66.5001 235.771 66.2925L235.945 67.3362L234.638 67.7623C232.751 68.3885 231.132 69.4158 229.78 70.8441C228.449 72.2702 227.85 73.6197 227.983 74.8928C228.114 76.1447 228.689 76.7174 229.707 76.6109C230.662 76.5111 231.77 75.7196 233.03 74.2365C234.291 72.7534 235.294 71.0614 236.039 69.1603L237.459 69.8162C236.42 72.6059 235.939 74.3615 236.014 75.0829C236.046 75.3799 236.168 75.6246 236.381 75.8168C236.613 75.9856 236.824 76.06 237.015 76.04C237.228 76.0178 237.364 75.9928 237.426 75.9649C237.487 75.9371 237.549 75.9092 237.61 75.8813C237.669 75.8322 237.738 75.7714 237.816 75.6989C237.916 75.6242 237.994 75.5516 238.051 75.4813C238.129 75.4088 238.246 75.3 238.403 75.155C238.559 75.0099 238.686 74.8894 238.783 74.7935ZM90.8586 129.155L91.689 129.711C91.3017 130.932 90.5824 131.95 89.5311 132.768C88.4797 133.586 87.4236 134.05 86.3627 134.161C85.323 134.27 84.4187 134.032 83.6498 133.447C82.9021 132.861 82.4683 131.994 82.3486 130.849C82.2288 129.703 82.5977 128.409 83.4552 126.968C84.3127 125.528 85.481 124.29 86.9602 123.256C88.4606 122.22 89.9746 121.622 91.5023 121.462C91.7145 121.44 92.035 121.428 92.4638 121.426L92.498 122.677C90.1752 123.027 88.3081 123.941 86.8967 125.418C85.5065 126.893 84.889 128.374 85.0443 129.859C85.1086 130.474 85.3517 130.953 85.7735 131.295C86.1954 131.637 86.7139 131.776 87.3293 131.711C88.3053 131.609 89.4817 130.757 90.8586 129.155ZM106.04 128.565L106.909 129.182C105.889 131.326 104.689 132.471 103.31 132.615C102.525 132.697 101.666 132.272 100.732 131.34C99.819 130.406 99.2279 129.47 98.9584 128.533C98.8554 128.78 98.5591 129.433 98.0692 130.492C97.5794 131.552 97.2404 132.413 97.0523 133.076L95.0728 132.607C95.2456 129.951 95.5294 127.433 95.9242 125.054C96.3402 122.672 96.7858 120.985 97.2611 119.991L98.6093 120.269C98.3294 121.285 97.9645 123.95 97.5147 128.266C98.4311 125.746 99.4257 123.873 100.499 122.645C101.569 121.396 102.796 120.517 104.18 120.008L104.4 122.109C102.879 122.332 101.512 123.515 100.299 125.658C100.528 127.029 101.051 128.132 101.867 128.969C102.705 129.804 103.453 130.187 104.111 130.118C104.429 130.085 105.072 129.567 106.04 128.565ZM122.255 126.677L122.98 127.148C122.712 128.077 122.218 128.89 121.497 129.588C120.798 130.283 120.13 130.664 119.493 130.73C118.878 130.795 118.368 130.633 117.963 130.247C117.555 129.839 117.315 129.285 117.242 128.585C117.169 127.884 117.191 126.971 117.309 125.843C116.476 127.517 115.533 128.86 114.481 129.871C113.428 130.882 112.509 131.428 111.724 131.51C110.536 131.634 109.868 130.986 109.719 129.564C109.57 128.142 109.859 126.182 110.584 123.682C111.329 121.159 111.895 119.706 112.284 119.322L113.882 119.831C113.158 121.322 112.645 122.77 112.341 124.174C112.037 125.579 111.91 126.514 111.959 126.981C112.005 127.427 112.181 127.773 112.486 128.02C112.811 128.265 113.165 128.367 113.547 128.327C114.396 128.239 115.365 127.354 116.455 125.675C117.564 123.972 118.615 121.502 119.606 118.267L121.306 118.829C121.281 119.003 120.922 120.285 120.228 122.674C119.555 125.061 119.243 126.488 119.292 126.955C119.338 127.4 119.469 127.73 119.685 127.943C119.921 128.154 120.135 128.25 120.326 128.23C120.538 128.208 120.696 128.181 120.8 128.148C120.904 128.116 121.005 128.063 121.105 127.988C121.204 127.913 121.284 127.851 121.343 127.802C121.423 127.751 121.511 127.667 121.606 127.549L121.802 127.271C121.861 127.222 121.937 127.129 122.03 126.99C122.142 126.828 122.217 126.724 122.255 126.677ZM138.915 127.542L139.027 128.302C138.828 128.452 137.902 128.935 136.25 129.751C135.995 133.874 135.304 136.907 134.177 138.848C133.05 140.789 131.532 141.859 129.622 142.059C128.731 142.152 127.99 141.94 127.4 141.422C126.809 140.905 126.467 140.19 126.371 139.278C126.18 137.453 126.84 135.657 128.35 133.891C129.862 132.145 131.971 130.67 134.676 129.465C134.846 128.01 135.209 125.945 135.766 123.27C134.571 125.583 133.429 127.182 132.342 128.068C131.276 128.952 130.276 129.442 129.343 129.54C128.409 129.637 127.672 129.457 127.131 128.999C126.611 128.538 126.306 127.884 126.218 127.035C126.071 125.635 126.506 124.152 127.522 122.587C128.536 121.001 129.876 119.66 131.542 118.564C133.226 117.444 134.896 116.797 136.551 116.624L136.922 117.712C134.594 118.213 132.654 119.252 131.103 120.83C129.573 122.405 128.876 123.84 129.011 125.134C129.069 125.686 129.286 126.125 129.663 126.45C130.041 126.775 130.473 126.912 130.961 126.861C131.683 126.786 132.695 125.908 134 124.227C135.304 122.546 136.197 121.134 136.678 119.99L137.925 120.535C137.084 123.776 136.553 126.491 136.331 128.681L138.915 127.542ZM134.585 130.44C132.828 131.481 131.406 132.66 130.321 133.974C129.236 135.289 128.744 136.434 128.846 137.41C128.9 137.919 129.091 138.318 129.422 138.605C129.752 138.892 130.14 139.012 130.586 138.966C131.477 138.873 132.292 138.155 133.031 136.812C133.77 135.469 134.288 133.345 134.585 130.44ZM151.325 123.832L152.193 124.449C151.174 126.593 149.974 127.737 148.595 127.881C147.81 127.963 146.95 127.538 146.016 126.607C145.104 125.672 144.512 124.737 144.243 123.8C144.14 124.046 143.844 124.699 143.354 125.759C142.864 126.818 142.525 127.679 142.337 128.342L140.357 127.874C140.53 125.217 140.814 122.7 141.209 120.32C141.625 117.939 142.07 116.251 142.546 115.258L143.894 115.535C143.614 116.551 143.249 119.217 142.799 123.532C143.716 121.013 144.71 119.139 145.783 117.912C146.854 116.663 148.081 115.784 149.465 115.275L149.684 117.375C148.163 117.598 146.796 118.782 145.583 120.925C145.812 122.295 146.335 123.399 147.152 124.236C147.99 125.07 148.738 125.453 149.396 125.385C149.714 125.351 150.357 124.834 151.325 123.832ZM167.56 123.679L167.742 124.496C167.664 124.569 166.717 125.054 164.902 125.952C164.794 127.379 164.609 128.792 164.348 130.192C164.11 131.611 163.826 132.692 163.496 133.434C163.19 134.196 162.808 134.954 162.35 135.71C161.436 137.221 160.077 138.071 158.273 138.259C157.382 138.353 156.643 138.151 156.055 137.655C155.466 137.159 155.122 136.433 155.023 135.478C154.639 131.808 157.407 128.537 163.328 125.666L164.414 119.439C162.875 122.367 161.407 124.226 160.01 125.015C159.324 125.43 158.578 125.68 157.772 125.764C156.987 125.846 156.323 125.658 155.782 125.2C155.262 124.739 154.951 124.021 154.849 123.045C154.747 122.069 154.934 120.677 155.41 118.868C155.905 117.036 156.504 115.483 157.207 114.208L158.837 114.713C158.78 114.784 158.541 115.377 158.122 116.493C157.39 118.522 157.073 120.003 157.17 120.936C157.268 121.87 157.514 122.477 157.908 122.757C158.302 123.038 158.849 123.142 159.549 123.068C160.249 122.995 160.991 122.499 161.774 121.581C162.577 120.639 163.771 118.831 165.358 116.155L166.573 116.704C166.477 117.422 166.228 118.735 165.827 120.643C165.445 122.527 165.199 123.969 165.088 124.967L167.56 123.679ZM163.236 126.64C161.964 127.395 160.86 128.219 159.923 129.11C158.164 130.753 157.356 132.253 157.498 133.611C157.551 134.12 157.743 134.518 158.073 134.805C158.404 135.093 158.792 135.213 159.237 135.166C161.359 134.945 162.692 132.103 163.236 126.64ZM107.083 192.644C107.455 192.712 107.655 192.884 107.684 193.16C107.693 193.245 107.585 193.449 107.362 193.773C106.517 195.127 105.925 196.133 105.586 196.79C105.268 197.445 104.909 198.523 104.508 200.024C104.129 201.522 103.786 202.963 103.48 204.346C103.193 205.706 103.051 206.396 103.053 206.418C102.387 208.461 101.349 210.124 99.9391 211.408C98.5289 212.693 96.9858 213.422 95.3096 213.597C94.1214 213.722 93.126 213.536 92.3235 213.041C91.54 212.522 91.0973 211.775 90.9952 210.799C90.8356 209.271 91.6758 207.768 93.516 206.288C95.3562 204.809 97.2629 203.966 99.2361 203.76L99.4732 204.797C97.9364 205.279 96.6394 206.005 95.5824 206.973C94.5465 207.939 94.0808 208.921 94.185 209.918C94.2515 210.555 94.4862 211.056 94.8891 211.421C95.3131 211.785 95.8116 211.936 96.3845 211.876C97.4666 211.763 98.348 211.167 99.0288 210.088C99.7074 208.987 100.316 207.111 100.854 204.46C101.413 201.806 101.959 199.85 102.493 198.593C103.047 197.334 103.792 196.248 104.726 195.336C104.427 195.345 104.097 195.369 103.736 195.407C101.911 195.598 100.159 196.07 98.479 196.825C96.8203 197.578 96.0408 198.431 96.1406 199.386C96.2027 199.98 96.5267 200.515 97.1126 200.99L96.5022 201.922C94.9764 201.074 94.1448 199.992 94.0072 198.676C93.9163 197.806 94.2089 197.014 94.885 196.3C95.5823 195.584 96.5497 194.989 97.7873 194.516C100.159 193.604 102.861 192.989 105.895 192.672C106.553 192.603 106.949 192.594 107.083 192.644ZM114.295 208.717L120.935 208.216C121.869 208.119 122.738 207.717 123.544 207.01L124.523 208.066C124.15 208.599 123.849 209.006 123.621 209.287C123.391 209.547 123.033 209.82 122.548 210.107C122.085 210.391 121.545 210.566 120.93 210.63L114.952 210.997C112.299 211.275 111.009 211.442 111.079 211.499C110.292 211.56 109.862 211.25 109.791 210.572C109.811 210.141 110.024 209.41 110.431 208.381C110.836 207.331 111.338 205.466 111.938 202.786C110.622 202.924 109.404 202.654 108.282 201.978L108.827 200.73C109.802 201.229 110.947 201.41 112.262 201.272C113.178 198.131 114.501 195.708 116.232 194.004C117.963 192.3 119.857 191.341 121.916 191.126C122.892 191.024 123.703 191.196 124.351 191.643C124.996 192.069 125.361 192.696 125.448 193.523C125.634 195.306 124.632 197.105 122.441 198.921C120.269 200.714 117.697 201.862 114.725 202.366C114.073 205.566 113.201 207.791 112.109 209.042C112.633 208.923 113.362 208.815 114.295 208.717ZM120.345 193.027C119.029 193.165 117.879 193.961 116.894 195.415C115.909 196.869 115.284 198.683 115.018 200.856C117.124 200.485 118.914 199.655 120.388 198.364C121.862 197.073 122.534 195.812 122.405 194.581C122.354 194.093 122.131 193.699 121.735 193.397C121.338 193.095 120.875 192.972 120.345 193.027ZM136.33 193.576C137.518 193.452 138.498 193.693 139.269 194.299C140.062 194.902 140.525 195.851 140.661 197.146C140.794 198.419 140.416 200.035 139.527 201.994C138.637 203.953 137.395 205.713 135.799 207.274C134.223 208.811 132.649 209.662 131.079 209.826C128.512 210.095 127.078 208.797 126.779 205.932C126.604 204.256 126.956 202.493 127.835 200.642C128.733 198.768 129.96 197.17 131.516 195.849C133.092 194.505 134.696 193.747 136.33 193.576ZM135.43 205.897C136.385 204.767 137.106 203.459 137.594 201.971C138.103 200.48 138.302 199.205 138.191 198.144C138.078 197.062 137.749 196.27 137.203 195.77C136.655 195.248 135.957 195.031 135.108 195.12C133.623 195.275 132.238 196.396 130.955 198.482C129.691 200.544 129.159 202.541 129.361 204.472C129.47 205.512 129.804 206.345 130.363 206.973C130.919 207.58 131.665 207.835 132.598 207.737C133.553 207.637 134.497 207.024 135.43 205.897ZM157.355 187.518L158.421 188.79C156.386 190.461 154.272 193.009 152.077 196.435C149.881 199.839 148.247 203.291 147.176 206.792C146.952 207.524 146.735 208.018 146.526 208.276C146.339 208.532 146.033 208.682 145.608 208.726C145.205 208.768 144.819 208.669 144.451 208.429C144.102 208.165 143.897 207.747 143.837 207.174C143.775 206.58 143.733 205.458 143.711 203.809C143.707 202.136 143.67 200.96 143.599 200.281C143.1 195.507 142.167 191.711 140.8 188.894L143.057 188.015C144.486 189.989 145.487 193.713 146.059 199.187C146.245 200.97 146.362 202.395 146.409 203.462C149.077 196.148 152.725 190.833 157.355 187.518ZM172.253 192.653C172.362 193.692 171.897 194.685 170.859 195.63C169.842 196.573 168.789 197.273 167.7 197.73C168.623 198.148 169.331 198.557 169.823 198.956C170.336 199.352 170.623 199.837 170.683 200.41C170.829 201.81 170.173 203.123 168.714 204.348C167.252 205.552 165.62 206.248 163.816 206.437C162.946 206.527 162.062 206.481 161.163 206.296C160.286 206.108 159.657 205.842 159.278 205.495L160.57 204.009C160.898 204.275 161.319 204.499 161.831 204.681C162.365 204.862 162.812 204.933 163.173 204.895C164.424 204.764 165.526 204.327 166.478 203.584C167.449 202.818 167.887 201.979 167.792 201.066C167.734 200.515 167.428 200.053 166.875 199.682C166.321 199.311 165.608 199.053 164.735 198.908C164.231 198.811 163.962 198.592 163.926 198.253C163.877 197.786 164.784 197.23 166.647 196.585C167.33 196.342 167.948 195.998 168.502 195.554C169.054 195.089 169.306 194.623 169.257 194.156C169.206 193.668 168.998 193.315 168.631 193.096C168.284 192.853 167.867 192.757 167.379 192.808C166.891 192.859 166.165 193.203 165.202 193.84C164.258 194.454 163.288 195.231 162.293 196.171L161.674 195.174C162.454 194.02 163.566 192.96 165.009 191.994C166.474 191.026 167.673 190.493 168.607 190.396C169.54 190.298 170.364 190.48 171.077 190.942C171.788 191.382 172.18 191.953 172.253 192.653ZM199.313 206.137L199.054 207.354C198.507 207.454 198.095 207.519 197.819 207.548C196.546 207.681 195.45 207.248 194.531 206.25C193.635 205.272 193.097 203.923 192.917 202.204C192.809 201.165 192.837 199.178 193.002 196.243C193.186 193.285 193.471 190.574 193.857 188.11C193.929 187.566 193.956 187.21 193.938 187.04C193.921 186.87 193.837 186.793 193.689 186.809C193.54 186.824 193.146 187.67 192.506 189.345C191.885 190.997 191.144 193.038 190.282 195.466C189.419 197.872 188.92 199.255 188.785 199.612C188.67 199.946 188.571 200.224 188.487 200.447C188.422 200.647 188.268 201.028 188.027 201.589C187.804 202.127 187.587 202.611 187.374 203.041C186.785 204.175 186.289 204.763 185.886 204.805C185.61 204.834 185.294 204.792 184.939 204.679C184.606 204.564 184.377 204.427 184.253 204.268C183.982 203.932 183.748 202.82 183.55 200.931C183.138 196.985 183.062 193.185 183.324 189.533C183.412 188.323 183.453 187.686 183.446 187.622C183.424 187.41 183.328 187.312 183.158 187.33C182.819 187.366 182.388 188.483 181.868 190.683L181.221 193.421C180.264 197.403 179.198 200.539 178.021 202.828C176.866 205.115 175.432 206.788 173.72 207.847L172.709 206.183C174.608 204.44 176.026 202.715 176.962 201.008C177.921 199.3 178.872 196.605 179.817 192.924L180.597 189.914C181.129 187.821 181.626 186.321 182.089 185.415C182.55 184.487 183.12 183.988 183.799 183.917C184.923 183.8 185.556 184.42 185.698 185.778C185.709 185.884 185.733 188.058 185.769 192.302C185.803 196.524 185.89 199.303 186.029 200.64C186.069 201.022 186.154 201.217 186.283 201.225C186.39 201.213 186.495 201.095 186.6 200.87C188.02 197.826 189.338 194.535 190.555 190.997C190.702 190.553 190.954 189.786 191.312 188.698C191.671 187.609 192.03 186.639 192.392 185.786C192.753 184.933 193.041 184.41 193.257 184.215C193.47 184 193.832 183.866 194.341 183.813C194.85 183.759 195.305 183.905 195.706 184.249C196.125 184.57 196.362 184.985 196.415 185.494C196.468 186.003 196.455 186.595 196.375 187.268C195.565 195.525 195.243 200.449 195.41 202.04C195.574 203.61 195.94 204.655 196.51 205.175C197.081 205.716 198.015 206.036 199.313 206.137ZM211.965 201.211L212.923 201.143C213.004 200.684 213.202 199.805 213.516 198.507C213.852 197.206 214.095 196.344 214.244 195.921C212.254 198.231 210.677 199.661 209.512 200.212C208.879 200.514 208.223 200.701 207.544 200.772C206.419 200.889 205.51 200.609 204.817 199.931C204.124 199.252 203.708 198.245 203.568 196.908C203.369 194.999 203.983 192.36 205.412 188.994C206.838 185.606 208.581 182.892 210.642 180.854L212.038 181.898C207.858 187.462 205.945 191.941 206.3 195.336C206.506 197.309 207.384 198.215 208.932 198.053C210.481 197.891 211.899 196.885 213.186 195.034C214.472 193.184 215.714 190.394 216.912 186.665C217.395 185.135 217.782 184.119 218.073 183.616C218.364 183.114 218.668 182.846 218.987 182.813C219.305 182.78 219.559 182.85 219.749 183.023C219.959 183.194 220.082 183.438 220.115 183.757C220.257 185.115 219.491 187.232 217.819 190.11C216.754 193.053 215.749 196.675 214.804 200.978C215.808 200.938 216.895 201.071 218.064 201.377L217.858 202.493L214.435 202.368C213.502 205.554 212.224 207.994 210.599 209.687C208.998 211.398 206.966 212.383 204.505 212.64C203.232 212.773 202.134 212.534 201.213 211.922C200.272 211.334 199.747 210.521 199.638 209.481C199.439 207.571 200.551 205.803 202.977 204.177C205.404 202.572 208.401 201.583 211.965 201.211ZM205.708 210.294C207.426 210.115 208.87 209.256 210.039 207.718C211.232 206.199 212.049 204.473 212.49 202.539C209.647 202.836 207.31 203.563 205.479 204.72C203.65 205.898 202.808 207.176 202.952 208.555C203.014 209.15 203.297 209.603 203.802 209.914C204.33 210.245 204.965 210.372 205.708 210.294ZM232.481 181.66C234.096 180.29 235.209 179.444 235.819 179.123C236.427 178.781 237.155 178.565 238.004 178.476C238.874 178.385 239.573 178.613 240.102 179.158C240.631 179.703 240.953 180.528 241.068 181.631C241.275 183.604 240.86 185.792 239.824 188.196C238.788 190.599 237.397 192.675 235.649 194.424C233.899 196.151 232.175 197.103 230.478 197.281C230.054 197.325 229.563 197.355 229.007 197.37C228.198 199.685 227.428 201.45 226.697 202.663C225.966 203.876 225.176 204.527 224.327 204.616C223.797 204.671 223.363 204.524 223.026 204.173C222.689 203.822 222.485 203.307 222.414 202.628C222.186 200.443 222.889 197.42 224.523 193.56C226.155 189.678 228.065 186.508 230.253 184.048C230.446 182.612 230.509 181.576 230.443 180.94C230.374 180.282 230.301 179.786 230.223 179.451L232.474 178.829C232.49 178.978 232.492 179.921 232.481 181.66ZM226.54 195.311L227.478 195.664C228.541 192.914 229.36 189.869 229.933 186.527C228.236 189.171 226.894 191.821 225.906 194.477C224.918 197.133 224.495 199.139 224.637 200.497C224.679 200.9 224.827 201.089 225.082 201.062C225.273 201.042 225.571 200.614 225.977 199.778C226.381 198.921 226.709 198.061 226.962 197.198C226.673 197.099 226.388 196.936 226.107 196.708L226.54 195.311ZM229.529 195.9L230.137 195.868C232.195 195.653 234.013 194.369 235.59 192.017C236.478 190.658 237.188 189.136 237.719 187.451C238.272 185.763 238.49 184.356 238.372 183.232C238.308 182.616 238.087 182.146 237.71 181.821C237.354 181.494 236.89 181.36 236.317 181.42C235.277 181.528 233.958 182.245 232.359 183.571C232.276 186.475 231.333 190.585 229.529 195.9ZM256.015 183.897C256.124 184.937 255.659 185.929 254.621 186.874C253.605 187.817 252.552 188.517 251.463 188.974C252.386 189.392 253.093 189.801 253.586 190.2C254.099 190.597 254.386 191.082 254.445 191.654C254.592 193.055 253.935 194.367 252.476 195.593C251.015 196.796 249.382 197.492 247.579 197.681C246.709 197.772 245.824 197.725 244.926 197.54C244.048 197.353 243.42 197.086 243.04 196.74L244.333 195.253C244.661 195.519 245.081 195.743 245.593 195.926C246.127 196.106 246.574 196.177 246.935 196.14C248.187 196.009 249.289 195.572 250.241 194.829C251.212 194.062 251.649 193.223 251.554 192.311C251.496 191.759 251.191 191.298 250.637 190.926C250.083 190.555 249.37 190.297 248.497 190.153C247.993 190.055 247.724 189.837 247.689 189.497C247.64 189.03 248.547 188.474 250.41 187.829C251.092 187.586 251.711 187.243 252.265 186.799C252.817 186.334 253.068 185.868 253.02 185.401C252.969 184.913 252.76 184.559 252.394 184.34C252.047 184.098 251.629 184.002 251.141 184.053C250.653 184.104 249.928 184.448 248.965 185.085C248.021 185.698 247.051 186.475 246.055 187.416L245.436 186.419C246.216 185.265 247.328 184.205 248.772 183.239C250.236 182.271 251.435 181.738 252.369 181.64C253.303 181.542 254.126 181.725 254.839 182.186C255.55 182.627 255.942 183.197 256.015 183.897ZM269.174 177.663L264.613 178.044C259.966 178.529 257.749 179.791 257.962 181.828C258.018 182.358 258.254 182.773 258.671 183.073C259.108 183.349 259.718 183.446 260.504 183.364C261.289 183.282 262.28 182.813 263.478 181.959L264.042 182.736C263.457 183.505 262.772 184.135 261.987 184.624C261.201 185.114 260.395 185.402 259.567 185.489C258.74 185.575 258 185.373 257.348 184.884C256.697 184.394 256.328 183.736 256.241 182.908C256.066 181.232 256.815 179.674 258.487 178.234C260.181 176.791 262.577 175.908 265.675 175.584C265.929 175.557 266.846 175.504 268.425 175.425C270.004 175.346 271.25 175.259 272.162 175.163C273.075 175.068 273.898 174.842 274.633 174.487C274.921 174.371 275.097 174.309 275.161 174.303C275.458 174.272 275.627 174.447 275.666 174.829C275.724 175.381 275.288 175.93 274.359 176.478C273.451 177.023 272.371 177.361 271.119 177.492C269.86 178.997 268.878 181.502 268.172 185.007C267.485 188.49 266.503 191.198 265.225 193.134C263.966 195.046 262.34 196.106 260.345 196.314C259.56 196.396 258.791 196.219 258.037 195.783L258.643 194.497C258.911 194.598 259.21 194.685 259.539 194.758L259.991 194.775C260.099 194.785 260.26 194.779 260.472 194.757C261.533 194.646 262.424 194.038 263.145 192.933C263.887 191.826 264.567 189.814 265.184 186.896C265.821 183.955 266.346 182.002 266.76 181.037C267.192 180.048 267.997 178.923 269.174 177.663Z" fill="black"/>
</svg>
