<svg width="364" height="295" viewBox="0 0 364 295" fill="none" xmlns="http://www.w3.org/2000/svg">
<path d="M0 24.123L281 0L364 272.912L55.6923 295L0 24.123Z" fill="#D9E974"/>
<path d="M60.6818 104.216C60.6803 103.895 60.7107 103.57 60.6874 103.347C60.6475 102.965 60.4836 102.628 60.0062 102.678C59.3379 102.748 59.0539 104.033 59.0838 104.319C59.1071 104.542 59.194 104.758 59.3446 104.967C59.7779 105.727 60.0506 106.181 60.0905 106.563C60.177 107.39 57.8817 108.209 56.8135 109.994C56.6524 110.3 56.4881 110.575 56.2335 110.601C55.947 110.631 55.6273 110.343 55.604 110.12C55.5176 109.293 58.7167 106.964 58.6336 106.168C58.587 105.722 57.9861 105.206 57.9195 104.569C57.7632 103.074 59.334 101.172 61.0526 100.992C61.7846 100.916 62.4074 101.333 62.4606 101.843C62.4773 102.002 62.4051 102.234 62.2626 102.41C61.8384 102.969 61.7325 103.495 61.7891 104.036C61.9521 105.596 62.7564 107.442 63.2643 109.223C63.2709 109.287 63.3094 109.347 63.3161 109.411C63.3427 109.665 63.1783 109.94 62.8282 109.976C62.0962 110.053 61.8743 108.854 61.8577 108.694C61.6529 107.043 60.974 105.473 60.6818 104.216ZM76.3502 98.6855C78.9281 98.416 81.5343 100.878 81.7505 102.947C81.9701 105.048 79.3965 108.438 76.7549 108.714C74.9726 108.9 72.7594 107.426 72.5764 105.676C72.4733 104.689 72.9245 103.773 73.1112 102.788C73.123 102.594 73.3259 102.38 73.3092 102.221C73.2826 101.966 72.7302 101.606 72.7069 101.383C72.6669 101.001 73.1529 100.725 73.4512 100.501C74.2891 99.8983 74.8159 98.7815 75.8661 98.6717C76.0253 98.6551 76.1877 98.6703 76.3502 98.6855ZM76.5815 107.67C79.1528 107.337 80.8276 105.199 80.5748 102.78C80.3818 100.935 79.0227 99.6288 77.4632 99.7918C75.2035 100.028 73.4556 103.621 73.6286 105.276C73.785 106.772 74.9902 107.836 76.5815 107.67ZM90.3417 103.561C90.4614 104.707 90.5812 105.853 90.7009 106.999C90.7508 107.476 90.6283 107.843 90.0554 107.903C89.4826 107.962 89.3657 107.46 89.3224 107.046C89.0762 104.691 88.9289 102.358 88.6893 100.066C88.6261 99.4615 88.3734 99.1983 87.8323 99.2549C86.8457 99.358 85.9593 99.8046 85.0364 99.901C84.2407 99.9842 82.7515 100.204 82.6584 99.3131C82.6118 98.8675 83.0407 98.6618 83.4226 98.6219C84.1865 98.542 84.967 98.6213 85.7308 98.5415C87.0993 98.3984 88.3391 97.9471 89.3181 96.8474C89.5176 96.6013 89.7238 96.4189 89.9784 96.3923C90.2966 96.359 90.8809 96.7162 90.9275 97.1617C90.9408 97.2891 90.8905 97.423 90.805 97.5285C89.9182 98.5864 89.8436 99.7203 89.9601 100.834C90.0565 101.757 90.2485 102.67 90.3417 103.561ZM97.9202 96.4308C100.498 96.1613 103.104 98.6238 103.32 100.692C103.54 102.793 100.967 106.183 98.3249 106.459C96.5426 106.645 94.3294 105.171 94.1464 103.421C94.0433 102.434 94.4945 101.519 94.6812 100.534C94.693 100.339 94.8959 100.125 94.8792 99.9661C94.8526 99.7115 94.3001 99.351 94.2768 99.1282C94.2369 98.7463 94.7229 98.4703 95.0212 98.246C95.8591 97.6437 96.3858 96.5268 97.4361 96.4171C97.5952 96.4004 97.7577 96.4156 97.9202 96.4308ZM98.1515 105.415C100.723 105.082 102.398 102.945 102.145 100.526C101.952 98.6799 100.593 97.3741 99.0332 97.5371C96.7735 97.7733 95.0256 101.366 95.1986 103.021C95.355 104.517 96.5601 105.582 98.1515 105.415ZM108.624 105.254C107.001 105.423 106.366 105.2 106.32 104.755C106.29 104.468 106.443 103.777 106.363 103.013C106.273 102.153 105.989 101.282 105.903 100.455C105.746 98.9589 106.382 95.8037 106.954 95.7439C107.368 95.7006 107.561 96.0023 107.587 96.2569C107.601 96.3842 107.585 96.5466 107.532 96.6488C106.886 98.1641 107.214 99.7707 107.024 101.335C107.022 101.625 107.024 101.946 107.057 102.265C107.443 103.801 107.853 104.337 108.967 104.221C109.508 104.164 110.223 103.928 111.186 103.602C112.811 103.143 113.946 102.606 113.786 101.079C113.646 99.7418 113.338 98.3263 112.883 97.0546C112.834 96.8988 112.789 96.7749 112.773 96.6157C112.723 96.1383 112.803 95.6794 112.754 95.202C112.73 94.9793 112.608 94.7346 112.585 94.5118C112.562 94.2891 112.828 94.0682 113.115 94.0382C113.439 94.0686 113.711 94.2011 113.737 94.4557C113.791 94.965 113.621 95.4975 113.674 96.0067C113.847 97.6617 114.685 99.215 114.862 100.902C115.054 102.748 114.53 103.575 112.489 104.367C111.901 104.59 111.273 104.43 110.733 104.808C110.375 105.071 109.961 105.114 109.42 105.171C109.165 105.197 108.911 105.224 108.624 105.254ZM109.998 100.541C109.858 99.8161 109.746 99.0556 109.669 98.3236C109.526 96.9551 109.131 94.712 110.118 94.6089C110.531 94.5656 110.657 94.8421 110.683 95.0967C110.806 96.2743 110.646 97.5136 110.776 98.7549C110.873 99.6778 110.853 101.031 111.554 101.891C111.663 102.008 111.744 102.161 111.757 102.288C111.78 102.511 111.524 102.827 111.269 102.854C110.505 102.934 110.124 101.751 110.064 101.178C110.051 101.051 110.038 100.923 110.024 100.796C110.014 100.701 110.008 100.637 109.998 100.541ZM122.062 93.3282C122.126 93.3215 122.221 93.3115 122.285 93.3049C122.539 93.2783 122.791 93.2198 123.045 93.1932C123.809 93.1134 125.078 94.1712 125.178 95.126C125.364 96.9083 122.814 97.754 121.7 97.8704C120.65 97.9802 119.652 97.6662 118.706 96.9286C118.565 96.8146 118.467 96.7927 118.371 96.8027C117.862 96.8559 117.737 98.7351 117.816 99.499C118.083 102.045 119.97 104.1 123.089 103.774C124.585 103.618 125.028 102.928 126.47 101.329C126.609 101.122 126.808 100.876 127.031 100.852C127.222 100.832 127.538 101.089 127.555 101.248C127.578 101.471 127.309 101.66 127.138 101.871C125.808 103.618 124.452 104.5 122.956 104.657C120.028 104.963 117.332 102.864 117.019 99.8719C116.67 96.5301 118.12 94.0941 122.062 93.3282ZM121.683 96.7783C121.778 96.7683 121.874 96.7583 121.969 96.7484C122.796 96.6619 124.185 96.0984 124.096 95.2391C123.999 94.3161 122.773 94.2834 122.105 94.3533C121.15 94.4531 119.009 95.5134 119.065 96.0545C119.108 96.4682 120.54 96.9299 121.336 96.8467C121.463 96.8334 121.559 96.8234 121.683 96.7783ZM137.36 98.3891C137.389 98.9653 137.413 99.5097 137.47 100.051C137.536 100.687 137.797 101.336 137.864 101.972C137.897 102.29 137.768 102.594 137.322 102.64C136.654 102.71 136.293 99.5625 136.136 98.0666C136.08 97.5256 136.058 97.013 136.005 96.5038C135.905 95.549 134.786 94.3791 133.894 94.4722C133.353 94.5288 133.241 94.991 133.274 95.3093C133.331 95.8503 133.434 96.2256 133.481 96.6711C133.764 99.3764 133.198 103.811 130.556 104.087C129.633 104.184 128.764 103.567 128.624 102.23C128.548 101.498 129.033 99.6778 129.797 99.598C130.115 99.5647 130.425 99.7575 130.458 100.076C130.532 100.776 129.94 101.578 129.996 102.119C130.026 102.405 130.286 102.732 130.731 102.686C132.545 102.496 132.549 97.6051 132.313 95.3454C132.223 94.4861 131.53 94.0116 130.289 94.1413C130.098 94.1613 129.91 94.2131 129.751 94.2297C129.401 94.2663 129.072 94.2041 129.023 93.7267C128.986 93.3766 129.167 93.2611 129.422 93.2345C129.613 93.2146 129.842 93.2549 130.065 93.2317C130.478 93.1884 130.876 92.986 131.258 92.9461C132.562 92.8097 133.778 93.3583 135.069 93.706C136.427 94.0788 137.036 94.9803 137.183 96.3807C137.187 96.7341 137.221 97.0524 137.257 97.4025C137.291 97.7208 137.327 98.0709 137.36 98.3891ZM149.101 93.3975C149.258 94.8933 148.975 97.1108 150.852 96.9145C153.717 96.6151 153.395 94.4609 153.19 91.2649C153.176 91.1376 153.163 91.0103 153.15 90.883C153.1 90.4056 153.127 90.0488 153.763 89.9823C154.304 89.9257 154.462 90.1989 154.498 90.549C154.681 92.2994 154.559 94.2105 154.739 95.9291C154.865 97.1385 155.151 98.3313 155.529 99.4822C155.559 99.7687 155.655 100.08 155.685 100.367C155.722 100.717 155.638 101.144 155.033 101.207C153.41 101.377 154.735 97.12 152.761 97.3262C152.125 97.3928 151.372 97.8897 150.64 97.9662C150.577 97.9729 150.545 97.9762 150.481 97.9828C149.972 98.0361 149.783 98.3776 149.829 98.8232C149.889 99.3961 150.373 100.021 150.426 100.53C150.469 100.944 150.223 101.356 149.682 101.413C149.077 101.476 148.712 101.063 148.649 100.459C148.326 97.3716 148.01 94.3481 147.694 91.3245C147.641 90.8153 147.655 90.3313 148.196 90.2747C148.768 90.2148 148.904 90.5868 148.944 90.9687C149.027 91.7643 148.986 92.6051 149.006 93.4075C149.037 93.4041 149.069 93.4008 149.101 93.3975ZM164.587 95.9936C164.683 95.3723 164.655 94.7961 164.595 94.2232C164.355 91.9317 163.976 90.4591 162.544 90.6088C160.889 90.7818 160.023 92.3523 158.813 93.7015C158.699 93.8421 158.575 93.8872 158.448 93.9005C158.161 93.9304 157.88 93.7024 157.847 93.3842C157.697 91.952 161.014 89.514 162.669 89.341C164.165 89.1846 165.191 90.0748 165.35 91.6025C165.606 94.0531 166.337 96.422 166.561 98.876C166.604 99.2897 166.498 99.8156 165.926 99.8755C165.194 99.952 165.137 98.7996 164.66 98.8495C163.992 98.9194 162.922 100.382 161.84 100.496C160.981 100.585 160.137 99.9014 159.981 98.4056C159.798 96.6551 161.073 95.6209 162.06 95.5178C162.505 95.4712 162.996 95.5486 163.532 95.75C163.768 95.854 163.954 96.092 164.367 96.0487C164.431 96.0421 164.495 96.0354 164.587 95.9936ZM162.203 99.042C162.536 98.8463 163.759 98.2358 163.699 97.6629C163.63 96.9946 162.963 96.7747 162.454 96.8279C161.817 96.8944 161.216 97.6008 161.295 98.3647C161.342 98.8102 161.595 99.0734 162.203 99.042ZM178.022 94.718C178.175 96.182 178.788 98.6597 177.737 98.7695C177.228 98.8227 177.051 98.3586 177.001 97.8812C176.891 96.831 176.813 95.7774 176.7 94.6953C176.57 93.454 176.405 92.1843 176.085 90.963C176.043 90.8709 176.033 90.7754 176.023 90.6799C175.877 89.2795 179.589 87.8619 180.321 87.7853C182.772 87.5292 182.979 90.4354 183.239 92.9179C183.418 94.6365 183.848 98.1308 182.607 98.2605C181.938 98.3304 181.609 97.9466 181.575 97.6283C181.556 97.4373 181.593 97.1761 181.697 96.94C182.096 95.8365 182.142 94.7377 182.029 93.6556C181.922 92.6372 181.654 91.6035 181.547 90.5851C181.437 89.5348 180.91 89.1073 180.083 89.1938C179.828 89.2204 179.548 89.314 179.236 89.4109C177.04 90.2518 177.469 90.6575 177.894 94.7313C177.926 94.728 177.958 94.7246 178.022 94.718ZM189.624 87.1025C191.226 87.0316 193.192 87.3731 193.305 88.4552C193.425 89.6009 190.958 91.2423 189.589 91.3853C188.921 91.4552 187.945 91.0424 187.34 91.1057C187.054 91.1356 186.914 91.3432 186.951 91.6933C187.157 93.6665 189.389 95.6212 190.821 95.4714C192.317 95.3151 193.678 93.5641 194.652 92.1109C194.795 91.9351 194.941 91.7912 195.132 91.7712C195.45 91.738 195.773 92.0581 195.799 92.3127C195.816 92.4719 195.769 92.6377 195.652 92.7464C194.341 94.3635 193.172 96.4162 190.785 96.6657C188.27 96.9285 185.941 93.7293 185.678 91.215C185.436 88.8917 186.845 87.9078 189.624 87.1025ZM189.761 88.4074C189.131 88.5376 187.797 88.7091 187.881 89.5048C188.043 90.1313 188.944 90.1337 189.389 90.0871C189.771 90.0472 191.4 89.6196 191.32 88.8557C191.243 88.1237 190.436 88.4012 189.761 88.4074ZM205.045 90.0915C204.959 91.4197 205 92.7345 204.614 93.9653C204.051 95.665 203.005 96.7396 201.342 97.1387C200.369 97.3691 200.32 97.8247 200.396 98.5567C200.733 100.548 200.631 102.65 201.626 104.477C201.707 104.629 201.755 104.785 201.772 104.944C201.812 105.326 201.56 105.996 201.051 106.049C200.478 106.109 199.927 105.459 199.877 104.981C199.814 104.377 199.878 103.759 199.815 103.154C199.669 101.754 199.331 100.373 199.182 98.941C199.145 98.5909 199.137 98.2057 199.1 97.8556C198.977 96.678 197.462 96.0321 197.382 95.2682C197.329 94.759 198.599 94.5941 198.505 93.703C198.406 92.7482 198.082 91.4951 197.66 90.5417C197.577 90.3574 197.521 90.1379 197.498 89.9152C197.302 88.0374 198.841 85.5277 200.719 85.3315C202.883 85.1052 204.501 87.3492 205.045 90.0915ZM199.193 89.5127C199.141 89.9364 199.153 90.3535 199.196 90.7673C199.339 92.1358 199.815 93.3086 199.952 94.6135C200.048 95.5365 200.448 95.9773 201.053 95.9141C203.154 95.6945 203.96 92.3284 203.737 90.1961C203.587 88.7639 202.768 86.4686 200.891 86.6648C200.159 86.7414 198.892 87.5494 198.992 88.5042C199.015 88.727 199.144 89.0353 199.17 89.2899C199.183 89.4172 199.193 89.5127 199.193 89.5127ZM211.132 84.8543C212.733 84.7834 214.7 85.1249 214.813 86.207C214.932 87.3528 212.466 88.9941 211.097 89.1371C210.429 89.207 209.453 88.7943 208.848 88.8575C208.561 88.8874 208.422 89.095 208.459 89.4451C208.665 91.4183 210.896 93.373 212.329 93.2233C213.824 93.0669 215.186 91.3159 216.16 89.8627C216.303 89.687 216.448 89.543 216.639 89.5231C216.958 89.4898 217.281 89.8099 217.307 90.0646C217.324 90.2237 217.277 90.3895 217.16 90.4983C215.849 92.1153 214.68 94.168 212.293 94.4175C209.778 94.6803 207.449 91.4811 207.186 88.9668C206.943 86.6435 208.353 85.6596 211.132 84.8543ZM211.269 86.1592C210.639 86.2894 209.305 86.4609 209.388 87.2566C209.55 87.8832 210.452 87.8855 210.897 87.8389C211.279 87.799 212.907 87.3714 212.828 86.6075C212.751 85.8755 211.944 86.153 211.269 86.1592ZM221.022 98.3312C220.227 94.4246 219.374 90.2668 218.836 86.0438C218.707 84.8026 218.429 82.4507 218.97 82.3942C219.291 82.3927 219.537 82.5922 219.564 82.8468C219.607 83.2606 219.431 83.7294 219.474 84.1432C219.527 84.6524 219.673 85.1198 219.726 85.6291C219.756 85.9155 219.729 86.2723 219.759 86.5587C219.978 88.6592 222.032 91.3725 223.655 91.2028C225.437 91.0165 226.748 89.3995 226.555 87.5535C226.339 85.4848 224.446 83.6879 222.272 83.8186C221.571 83.8918 221.259 84.6001 220.75 84.6533C220.527 84.6766 220.186 84.4871 220.152 84.1688C220.086 83.5323 221.351 83.014 222.051 82.9408C224.884 82.6447 227.289 85.0316 227.532 87.3549C227.758 89.5191 226.22 91.739 224.088 91.9619C223.292 92.0451 222.47 91.8736 221.717 91.4376C221.512 91.3302 221.34 91.2196 221.117 91.2429C220.767 91.2795 220.574 91.5892 220.604 91.8756C220.614 91.9711 220.621 92.0348 220.659 92.0951C221.067 92.9211 221.221 93.7738 221.314 94.6649C221.367 95.1742 221.389 95.6867 221.442 96.1959C221.645 98.1374 222.538 99.9101 222.738 101.82C222.761 102.042 222.752 102.269 222.776 102.491C222.822 102.937 223.47 103.288 223.537 103.924C223.583 104.37 223.449 104.931 222.94 104.984C222.558 105.024 222.343 104.821 222.31 104.503C222.293 104.344 222.277 104.184 222.26 104.025C222.077 102.275 221.236 100.69 221.036 98.7801C221.02 98.621 221.038 98.4903 221.022 98.3312ZM237.244 90.2649C237.424 91.9836 235.922 93.6206 234.235 93.7969C233.758 93.8468 230.8 93.8664 230.673 92.657C230.667 92.5934 230.689 92.4946 230.714 92.4276C231.041 91.5568 231.05 90.7194 230.96 89.8601C230.864 88.9371 230.672 88.0241 230.575 87.1011C230.402 85.4461 230.395 84.4495 230.285 82.7879C230.242 82.3741 230.552 81.9556 230.934 81.9157C231.252 81.8824 231.48 82.2126 231.507 82.4672C231.523 82.6263 231.48 82.8239 231.401 82.9931C231.057 83.7047 231.075 84.1854 231.131 84.7264C231.155 84.9492 231.181 85.2038 231.208 85.4584C231.231 85.6812 231.226 85.9392 231.256 86.2256C231.298 86.3178 231.308 86.4132 231.318 86.5087C231.354 86.8588 231.267 87.254 231.304 87.6041C231.34 87.9542 231.641 88.3732 232.055 88.3299C232.66 88.2667 233.067 87.5485 233.799 87.472C235.359 87.3089 237.078 88.6736 237.244 90.2649ZM232.284 91.1373C232.291 91.201 232.297 91.2646 232.304 91.3283C232.421 92.4422 233.057 92.987 234.075 92.8806C235.189 92.7642 236.456 91.3447 236.343 90.2626C236.24 89.276 235.068 88.5298 233.954 88.6462C232.777 88.7693 232.166 89.7018 232.284 91.1373ZM240.175 90.6021C239.832 88.5466 239.582 86.771 239.382 84.8614C239.296 84.0339 239.209 83.2064 239.145 82.2801C239.131 82.1528 239.086 82.0288 239.069 81.8697C239.046 81.6469 239.095 81.1914 239.541 81.1448C239.891 81.1082 240.249 81.4568 240.276 81.7115C240.319 82.1252 239.977 82.547 240.023 82.9926C240.04 83.1517 240.057 83.3109 240.105 83.4667C240.667 86.6897 241.322 89.2596 241.681 92.6968C241.711 92.9833 241.684 93.34 241.239 93.3866C240.347 93.4798 240.212 90.9521 240.175 90.6021ZM243.951 85.896C243.861 85.6481 243.799 85.3649 243.769 85.0785C243.679 84.2192 243.764 83.1808 243.657 82.1623C243.641 82.0032 243.621 81.8122 243.604 81.6531C243.451 80.1891 245.277 79.8052 246.486 79.6787C247.823 79.539 248.96 80.2567 249.106 81.6571C249.186 82.4209 248.577 84.2864 247.868 85.1971C247.697 85.408 247.618 85.5771 247.631 85.7044C247.651 85.8954 247.82 85.9742 248.24 85.9946C249.406 86.0658 251.179 87.3283 251.262 88.124C251.429 89.7153 249.429 91.8226 247.647 92.0089C246.819 92.0954 245.142 90.8229 244.675 89.7456C244.177 88.6716 244.34 87.4641 243.951 85.896ZM247.387 86.7594C247.136 86.8179 246.917 86.873 246.726 86.893C246.407 86.9262 245.977 86.8103 245.924 86.3011C245.851 85.6009 248.286 83.9629 248.059 81.7987C247.969 80.9394 247.461 80.3813 246.538 80.4777C244.978 80.6408 244.632 82.2535 244.765 83.5265C244.838 84.2267 244.975 84.9203 245.048 85.6205C245.05 85.942 245.083 86.2603 245.116 86.5786C245.196 87.3424 245.365 88.0326 246.001 88.5774C246.11 88.6948 246.187 88.8154 246.2 88.9427C246.233 89.261 245.69 89.6073 245.724 89.9256C245.797 90.6258 247.391 91.1026 247.964 91.0427C248.759 90.9596 250.276 89.7714 250.14 88.4666C250.02 87.3208 248.279 86.6663 247.387 86.7594ZM254.406 82.8084C254.134 81.1316 253.924 79.7379 253.781 78.3693C253.664 77.2554 253.089 71.138 254.012 71.0415C254.302 71.0434 254.421 71.2562 254.444 71.479C254.657 73.5159 254.259 74.3297 254.426 75.921C254.456 76.2074 254.489 76.5257 254.557 76.8725C254.674 77.9864 254.727 79.107 254.84 80.1891C254.953 81.2712 255.26 82.3652 255.373 83.4473C255.403 83.7337 255.36 83.9313 254.946 83.9746C254.532 84.0178 254.517 83.5689 254.424 83.2891C254.41 83.1618 254.426 82.9994 254.406 82.8084ZM256.891 89.6591C256.898 89.7228 256.908 89.8182 256.915 89.8819C256.981 90.5184 256.748 91.0576 256.143 91.1208C255.825 91.1541 255.336 90.7869 255.296 90.405C255.236 89.8321 255.765 89.0369 256.465 88.9637C256.783 88.9304 256.831 89.0862 256.848 89.2454C256.861 89.3727 256.875 89.5 256.885 89.5955C256.888 89.6273 256.888 89.6273 256.891 89.6591ZM69.0016 168.419C69.0215 168.61 69.0415 168.801 69.0614 168.992C69.3143 171.411 68.9291 173.575 67.4353 175.597C67.0681 176.086 66.5798 177.263 66.5998 177.454C66.6131 177.581 66.6582 177.705 66.8022 177.851C67.4231 178.558 67.6654 179.337 67.7486 180.133C67.855 181.152 67.675 182.2 67.5587 183.242C67.4946 183.86 66.9417 184.111 66.4006 184.167C65.4458 184.267 64.9152 183.808 64.7688 182.407C64.4295 179.161 65.3756 177.132 66.8833 174.625C67.8442 173.045 68.2155 171.365 68.0392 169.678C67.956 168.883 67.5513 168.088 67.4648 167.261C67.4348 166.974 67.5507 166.544 67.9963 166.497C68.8874 166.404 68.8747 167.821 69.0016 168.419ZM65.7578 181.403C65.7644 181.467 65.7711 181.53 65.7777 181.594C65.7944 181.753 65.8077 181.88 65.8243 182.039C65.8509 182.294 65.9412 182.542 66.2913 182.505C66.8642 182.446 66.8603 180.869 66.7938 180.233C66.7605 179.915 66.5999 179.61 66.1543 179.656C65.6451 179.709 65.8922 180.842 65.7578 181.403ZM77.0962 177.74C77.032 176.203 76.5387 172.715 77.4299 172.622C77.9073 172.572 78.0175 173.011 78.0574 173.393C78.4514 177.47 78.9091 181.54 78.4723 185.672C78.3322 187.103 78.3831 188.513 78.0136 189.903C77.5282 191.723 75.6695 193.333 73.9827 193.509C72.2004 193.696 71.0075 191.826 69.704 190.128C69.5182 189.89 69.2973 189.624 69.2707 189.369C69.2441 189.114 69.5291 188.763 69.9429 188.719C70.4203 188.67 70.6326 189.162 70.7713 189.566C71.2878 191.121 72.9685 192.425 74.0824 192.309C76.183 192.089 77.0089 189.525 77.1794 187.77C77.421 184.849 77.5672 181.938 77.2578 178.978C77.2145 178.564 77.1394 178.154 77.0962 177.74ZM71.8037 172.663C72.1319 172.725 72.445 172.95 72.5519 173.357C73.3539 176.105 74.7306 178.502 76.3016 180.912C76.4171 181.093 76.4655 181.249 76.4822 181.408C76.5055 181.631 76.3511 182.001 75.9374 182.044C75.2372 182.117 72.7753 177.034 71.8119 175.204C71.4974 174.658 71.3187 173.872 71.2489 173.204C71.2223 172.949 71.3581 172.71 71.6764 172.676C71.7082 172.673 71.7718 172.666 71.8037 172.663ZM88.0489 176.885C87.9757 176.185 87.9343 175.481 87.8611 174.781C87.6881 173.126 87.4059 171.965 86.4511 172.065C85.4963 172.165 85.2864 172.927 85.3563 173.595C85.3929 173.945 85.4613 174.292 85.4979 174.642C85.7075 176.647 85.2891 178.493 83.7135 180.041C83.4855 180.322 83.1686 180.677 82.7867 180.717C82.4685 180.75 82.1488 180.462 82.1155 180.144C82.0722 179.73 82.8213 179.201 83.1348 178.814C84.0216 177.756 84.4144 176.589 84.288 175.38C84.2215 174.743 83.9925 174.092 83.6329 173.421C83.5526 173.269 83.4756 173.148 83.4623 173.021C83.3592 172.034 86.1005 170.557 86.3869 170.527C88.201 170.338 89.1189 172.655 89.3185 174.564C89.4982 176.283 89.4265 178.06 89.6062 179.779C89.6494 180.193 89.7748 180.469 90.2522 180.419C90.4114 180.402 90.6275 180.316 90.7866 180.299C91.2959 180.246 91.731 180.715 91.7975 181.352C91.9306 182.625 91.4138 183.837 91.5469 185.11C91.5569 185.205 91.5669 185.301 91.5802 185.428C91.6101 185.715 91.3185 186.003 90.9684 186.039C90.5546 186.082 90.3622 185.781 90.3223 185.399C90.2558 184.762 90.2814 184.084 90.2149 183.447C90.1483 182.811 89.822 182.459 89.0866 182.504C87.425 182.613 85.7282 182.694 84.105 182.863C83.4049 182.937 83.0914 183.323 83.1612 183.992C83.2677 185.01 83.3656 186.255 83.9428 187.16C84.0967 187.401 84.2506 187.642 84.2739 187.865C84.2972 188.088 84.0825 188.496 83.5415 188.553C82.5548 188.656 81.8607 185.093 81.6976 183.533C81.5646 182.26 82.1194 181.72 83.4561 181.58C84.6973 181.45 85.9937 181.54 87.2667 181.407C88.508 181.277 88.4111 180.965 88.1882 178.833C88.1216 178.197 88.0518 177.528 87.9852 176.892C88.0171 176.888 88.0171 176.888 88.0489 176.885ZM98.3015 170.215C98.3652 170.208 98.4606 170.198 98.5243 170.192C98.7789 170.165 99.0302 170.107 99.2848 170.08C100.049 170 101.317 171.058 101.417 172.013C101.604 173.795 99.0537 174.641 97.9398 174.757C96.8895 174.867 95.8914 174.553 94.9456 173.815C94.805 173.701 94.7062 173.68 94.6107 173.69C94.1015 173.743 93.9762 175.622 94.056 176.386C94.3222 178.932 96.21 180.987 99.329 180.661C100.825 180.504 101.268 179.815 102.709 178.216C102.848 178.009 103.048 177.762 103.271 177.739C103.462 177.719 103.778 177.976 103.795 178.135C103.818 178.358 103.548 178.547 103.377 178.758C102.048 180.505 100.692 181.387 99.1961 181.543C96.268 181.849 93.5712 179.75 93.2585 176.759C92.9092 173.417 94.3598 170.981 98.3015 170.215ZM97.9221 173.665C98.0176 173.655 98.1131 173.645 98.2086 173.635C99.0361 173.549 100.425 172.985 100.335 172.126C100.239 171.203 99.0127 171.17 98.3443 171.24C97.3895 171.34 95.2481 172.4 95.3047 172.941C95.3479 173.355 96.7797 173.817 97.5754 173.734C97.7027 173.72 97.7982 173.71 97.9221 173.665ZM111.431 175.76C111.55 176.906 111.67 178.052 111.79 179.197C111.84 179.675 111.717 180.042 111.144 180.101C110.572 180.161 110.455 179.659 110.411 179.245C110.165 176.89 110.018 174.556 109.778 172.265C109.715 171.66 109.462 171.397 108.921 171.454C107.935 171.557 107.048 172.003 106.125 172.1C105.33 172.183 103.84 172.403 103.747 171.512C103.701 171.066 104.13 170.861 104.512 170.821C105.275 170.741 106.056 170.82 106.82 170.74C108.188 170.597 109.428 170.146 110.407 169.046C110.607 168.8 110.813 168.618 111.067 168.591C111.386 168.558 111.97 168.915 112.016 169.361C112.03 169.488 111.979 169.622 111.894 169.727C111.007 170.785 110.933 171.919 111.049 173.033C111.146 173.956 111.337 174.869 111.431 175.76ZM123.158 167.778C123.222 167.771 123.317 167.761 123.381 167.754C125.036 167.581 126.004 168.22 126.143 169.557C126.193 170.034 125.948 170.768 126.008 171.341C126.151 172.709 128.447 174.046 128.58 175.319C128.739 176.847 127.588 178.447 126.251 178.587C125.487 178.667 123.13 178.591 122.997 177.318C122.957 176.936 123.306 176.578 123.592 176.548C124.102 176.495 124.851 177.51 125.52 177.44C126.284 177.361 127.234 176.296 127.144 175.437C126.991 173.973 124.293 173.096 124.17 171.919C124.11 171.346 124.873 170.333 124.82 169.824C124.773 169.378 124.259 169.078 123.464 169.161C122.923 169.218 122.459 169.395 121.981 169.445C121.663 169.478 121.331 169.384 121.278 168.875C121.188 168.016 122.073 167.859 122.741 167.789C122.9 167.772 123.063 167.788 123.158 167.778ZM133.118 166.608C134.71 166.441 136.178 167.865 136.454 169.895C136.747 172.084 137.665 176.557 139.702 176.344C139.798 176.334 139.893 176.324 139.957 176.317C140.243 176.288 140.515 176.42 140.551 176.77C140.598 177.216 140.162 177.358 139.78 177.398C138.825 177.497 138.034 176.39 137.557 176.44C137.366 176.46 137.191 176.639 137.005 177.012C136.497 177.998 135.719 178.562 134.669 178.672C132.759 178.872 131.568 177.934 131.388 176.216C131.242 174.815 133.1 173.205 134.214 173.089C134.596 173.049 135.11 173.349 135.492 173.309C135.842 173.273 136.067 172.96 136.027 172.578C135.827 170.668 135.475 167.295 132.992 167.554C132.292 167.627 131.797 168.129 131.408 168.717L131.194 169.126C131.086 169.33 130.944 169.506 130.721 169.529C130.466 169.555 130.217 169.324 130.197 169.133C130.064 167.86 131.976 166.759 133.118 166.608ZM134.788 173.962C133.582 174.12 132.45 175.3 132.557 176.319C132.643 177.146 133.748 177.867 134.608 177.777C135.658 177.668 136.553 176.384 136.447 175.365C136.35 174.442 135.679 173.869 134.788 173.962ZM143.321 172.748C143.474 174.212 144.087 176.69 143.036 176.8C142.527 176.853 142.35 176.389 142.3 175.912C142.19 174.861 142.112 173.808 141.999 172.726C141.87 171.484 141.705 170.215 141.384 168.993C141.342 168.901 141.332 168.806 141.322 168.71C141.176 167.31 144.889 165.892 145.621 165.816C148.071 165.56 148.278 168.466 148.538 170.948C148.718 172.667 149.147 176.161 147.906 176.291C147.238 176.361 146.908 175.977 146.875 175.659C146.855 175.468 146.892 175.206 146.996 174.97C147.395 173.867 147.441 172.768 147.328 171.686C147.222 170.668 146.953 169.634 146.846 168.615C146.736 167.565 146.209 167.138 145.382 167.224C145.127 167.251 144.847 167.344 144.536 167.441C142.339 168.282 142.768 168.688 143.194 172.762C143.225 172.758 143.257 172.755 143.321 172.748ZM157.641 171.123C157.737 170.502 157.709 169.925 157.649 169.352C157.409 167.061 157.03 165.588 155.598 165.738C153.943 165.911 153.078 167.482 151.867 168.831C151.753 168.971 151.629 169.016 151.502 169.03C151.216 169.06 150.934 168.832 150.901 168.513C150.751 167.081 154.068 164.643 155.723 164.47C157.219 164.314 158.245 165.204 158.405 166.732C158.661 169.182 159.391 171.551 159.615 174.005C159.659 174.419 159.553 174.945 158.98 175.005C158.248 175.081 158.192 173.929 157.714 173.979C157.046 174.049 155.976 175.512 154.894 175.625C154.035 175.715 153.191 175.031 153.035 173.535C152.852 171.784 154.127 170.75 155.114 170.647C155.559 170.6 156.05 170.678 156.586 170.879C156.822 170.983 157.008 171.221 157.421 171.178C157.485 171.171 157.549 171.165 157.641 171.123ZM155.257 174.171C155.59 173.975 156.814 173.365 156.754 172.792C156.684 172.124 156.017 171.904 155.508 171.957C154.872 172.024 154.27 172.73 154.35 173.494C154.396 173.939 154.649 174.203 155.257 174.171ZM169.816 168.177C169.73 169.505 169.771 170.82 169.385 172.051C168.822 173.751 167.776 174.825 166.113 175.224C165.139 175.455 165.091 175.91 165.167 176.642C165.504 178.634 165.402 180.736 166.397 182.563C166.477 182.715 166.526 182.871 166.543 183.03C166.582 183.412 166.331 184.082 165.822 184.135C165.249 184.195 164.698 183.544 164.648 183.067C164.585 182.462 164.649 181.844 164.586 181.24C164.439 179.839 164.102 178.459 163.952 177.027C163.916 176.677 163.908 176.291 163.871 175.941C163.748 174.764 162.233 174.118 162.153 173.354C162.1 172.845 163.369 172.68 163.276 171.789C163.176 170.834 162.852 169.581 162.431 168.627C162.347 168.443 162.292 168.224 162.269 168.001C162.073 166.123 163.612 163.613 165.49 163.417C167.654 163.191 169.272 165.435 169.816 168.177ZM163.964 167.598C163.912 168.022 163.923 168.439 163.967 168.853C164.11 170.221 164.586 171.394 164.723 172.699C164.819 173.622 165.219 174.063 165.824 174C167.924 173.78 168.731 170.414 168.508 168.282C168.358 166.849 167.539 164.554 165.661 164.75C164.929 164.827 163.663 165.635 163.762 166.59C163.786 166.813 163.914 167.121 163.941 167.376C163.954 167.503 163.964 167.598 163.964 167.598ZM178.62 168.93C178.716 168.309 178.688 167.732 178.628 167.159C178.389 164.868 178.01 163.395 176.577 163.545C174.923 163.718 174.057 165.289 172.847 166.638C172.733 166.778 172.609 166.823 172.482 166.837C172.195 166.867 171.914 166.639 171.881 166.32C171.731 164.888 175.047 162.45 176.702 162.277C178.198 162.121 179.224 163.011 179.384 164.539C179.64 166.989 180.37 169.358 180.595 171.812C180.638 172.226 180.532 172.752 179.959 172.812C179.227 172.888 179.171 171.736 178.694 171.786C178.025 171.856 176.956 173.319 175.874 173.432C175.014 173.522 174.171 172.838 174.014 171.342C173.831 169.591 175.107 168.557 176.093 168.454C176.539 168.407 177.029 168.485 177.565 168.686C177.801 168.79 177.987 169.028 178.401 168.985C178.465 168.978 178.528 168.972 178.62 168.93ZM176.236 171.978C176.57 171.783 177.793 171.172 177.733 170.599C177.663 169.931 176.997 169.711 176.488 169.764C175.851 169.831 175.249 170.537 175.329 171.301C175.376 171.746 175.628 172.01 176.236 171.978ZM191.101 160.676C191.164 160.669 191.26 160.659 191.323 160.652C192.978 160.479 193.946 161.118 194.086 162.455C194.136 162.932 193.891 163.666 193.95 164.239C194.094 165.607 196.389 166.944 196.522 168.217C196.682 169.745 195.53 171.345 194.193 171.485C193.429 171.565 191.073 171.489 190.94 170.216C190.9 169.834 191.248 169.476 191.535 169.446C192.044 169.393 192.794 170.408 193.462 170.339C194.226 170.259 195.176 169.194 195.086 168.335C194.933 166.871 192.236 165.994 192.113 164.817C192.053 164.244 192.816 163.231 192.762 162.722C192.716 162.276 192.202 161.976 191.406 162.059C190.865 162.116 190.401 162.293 189.924 162.343C189.605 162.376 189.274 162.282 189.221 161.773C189.131 160.914 190.015 160.757 190.684 160.687C190.843 160.67 191.005 160.686 191.101 160.676ZM202.74 159.877C205.318 159.608 207.925 162.07 208.141 164.139C208.36 166.239 205.787 169.629 203.145 169.906C201.363 170.092 199.15 168.618 198.967 166.867C198.864 165.881 199.315 164.965 199.501 163.98C199.513 163.786 199.716 163.572 199.7 163.413C199.673 163.158 199.12 162.797 199.097 162.575C199.057 162.193 199.543 161.917 199.841 161.692C200.679 161.09 201.206 159.973 202.256 159.864C202.416 159.847 202.578 159.862 202.74 159.877ZM202.972 168.862C205.543 168.529 207.218 166.391 206.965 163.972C206.772 162.126 205.413 160.821 203.853 160.984C201.594 161.22 199.846 164.813 200.019 166.468C200.175 167.964 201.38 169.028 202.972 168.862ZM211.564 165.486C211.509 165.267 211.489 165.076 211.466 164.853C211.386 164.089 211.398 163.284 211.315 162.488C211.265 162.011 211.085 161.515 211.031 161.005C210.888 159.637 213.546 157.976 214.755 157.849C215.551 157.766 216.693 158.226 216.793 159.181C216.916 160.358 214.906 162.37 214.996 163.229C215.043 163.675 217.922 163.824 218.085 165.384C218.228 166.752 215.67 169.368 214.301 169.512C212.901 169.658 211.834 168.064 211.651 166.314C211.634 166.155 211.621 166.027 211.607 165.9C211.594 165.773 211.577 165.614 211.564 165.486ZM213.302 164.565C212.683 165.112 212.851 165.481 212.904 165.99C212.987 166.785 213.363 168.226 214.222 168.136C215.05 168.05 216.635 166.597 216.535 165.642C216.435 164.688 214.241 165.239 213.302 164.565ZM212.714 162.631C212.72 162.695 212.73 162.79 212.737 162.854C212.76 163.077 212.829 163.424 213.242 163.38C213.879 163.314 215.337 159.719 215.334 159.687C215.3 159.369 214.889 159.122 214.57 159.155C213.202 159.299 212.622 161.45 212.714 162.631ZM221.074 157.993L221.433 161.43C221.438 161.784 221.475 162.134 221.508 162.452C221.615 163.471 221.771 164.355 221.858 165.183C221.904 165.628 221.887 166.08 221.931 166.494C221.951 166.685 222.104 166.926 222.359 166.9C222.55 166.88 222.632 166.742 222.711 166.573L224.001 163.832C224.657 162.412 225 160.768 226.374 159.756C226.552 159.608 226.691 159.401 226.914 159.377C227.2 159.347 227.59 159.693 227.63 160.075C227.67 160.457 227.4 160.646 227.053 160.714C226.02 160.983 225.664 161.889 225.39 162.658C224.746 164.495 223.54 166.197 223.464 168.232C223.421 168.751 223.048 169.176 222.57 169.226C222.029 169.283 221.502 168.855 221.397 168.159C220.949 164.795 220.239 161.394 219.887 158.021C219.84 157.575 220.106 157.354 220.52 157.311C220.998 157.261 221.044 157.707 221.074 157.993ZM230.449 166.73L230.417 166.733C230.42 167.376 230.674 168.572 230.101 168.632C229.751 168.669 229.453 168.282 229.417 167.932C229.413 167.9 229.407 167.836 229.435 167.801C229.62 167.106 229.642 166.396 229.572 165.727C229.379 163.882 228.454 162.112 228.251 160.171C228.172 159.407 228.124 158.64 228.044 157.876C228.024 157.685 228.004 157.494 227.984 157.303C227.931 156.794 228.063 156.522 228.604 156.466C229.018 156.423 229.204 156.661 229.23 156.915C229.313 157.711 229.174 158.53 229.257 159.326C229.483 161.49 230.12 163.579 230.346 165.743L230.449 166.73Z" fill="black"/>
</svg>
