<svg width="364" height="295" viewBox="0 0 364 295" fill="none" xmlns="http://www.w3.org/2000/svg">
<path d="M0 24.123L281 0L364 272.912L55.6923 295L0 24.123Z" fill="#D9E974"/>
<path d="M58.4854 60.6934C58.6384 62.1575 59.2514 64.6352 58.2011 64.745C57.6919 64.7982 57.5146 64.3341 57.4647 63.8567C57.355 62.8064 57.277 61.7528 57.1639 60.6707C57.0341 59.4295 56.8692 58.1597 56.5485 56.9385C56.5067 56.8463 56.4968 56.7508 56.4868 56.6553C56.3404 55.255 60.0531 53.8373 60.7851 53.7608C63.2358 53.5046 63.443 56.4108 63.7025 58.8933C63.8822 60.6119 64.3118 64.1062 63.0705 64.236C62.4022 64.3058 62.0725 63.922 62.0392 63.6037C62.0193 63.4128 62.0563 63.1515 62.1603 62.9154C62.5598 61.8119 62.6058 60.7132 62.4927 59.6311C62.3862 58.6126 62.1173 57.579 62.0108 56.5605C61.9011 55.5103 61.3738 55.0828 60.5463 55.1693C60.2917 55.1959 60.0119 55.2895 59.7003 55.3864C57.5038 56.2273 57.9323 56.6329 58.3581 60.7067C58.3899 60.7034 58.4218 60.7001 58.4854 60.6934ZM74.3512 57.2332C74.2648 58.5614 74.3057 59.8763 73.9196 61.1071C73.3572 62.8068 72.3113 63.8813 70.6477 64.2805C69.6744 64.5109 69.6255 64.9664 69.702 65.6985C70.0389 67.6902 69.9369 69.7922 70.9322 71.6186C71.0125 71.7711 71.0609 71.9269 71.0775 72.0861C71.1175 72.468 70.8657 73.1378 70.3565 73.191C69.7836 73.2509 69.233 72.6006 69.1831 72.1232C69.1199 71.5185 69.184 70.9005 69.1208 70.2958C68.9744 68.8954 68.6371 67.515 68.4874 66.0828C68.4508 65.7327 68.4427 65.3475 68.4061 64.9974C68.283 63.8198 66.7677 63.1738 66.6878 62.41C66.6346 61.9008 67.9043 61.7359 67.8112 60.8447C67.7114 59.8899 67.3873 58.6368 66.9659 57.6835C66.8823 57.4992 66.8272 57.2797 66.8039 57.0569C66.6076 55.1792 68.1471 52.6695 70.0248 52.4732C72.1891 52.247 73.8071 54.4909 74.3512 57.2332ZM68.4993 56.6545C68.447 57.0782 68.4585 57.4953 68.5017 57.909C68.6448 59.2776 69.1213 60.4504 69.2577 61.7553C69.3542 62.6783 69.7541 63.1191 70.3589 63.0559C72.4594 62.8363 73.2658 59.4702 73.0429 57.3378C72.8932 55.9056 72.0742 53.6103 70.1964 53.8066C69.4644 53.8831 68.1975 54.6912 68.2973 55.646C68.3206 55.8688 68.4494 56.1771 68.476 56.4317C68.4893 56.559 68.4993 56.6545 68.4993 56.6545ZM79.0512 58.7368C80.0387 57.4109 80.8604 56.0381 81.4494 54.593C81.9091 53.451 82.9484 52.3128 83.7441 52.2296C85.6855 52.0267 85.4288 57.2658 86.217 60.4973C86.2589 60.5895 86.2622 60.6213 86.2688 60.685C86.3002 61.293 86.1943 61.8189 85.5578 61.8854C84.9531 61.9486 84.6619 61.6251 84.6086 61.1159C84.5022 60.0974 84.714 59.0457 84.6075 58.0273C84.4412 56.4359 84.2653 54.1378 83.2787 54.2409C82.6422 54.3074 79.6645 60.6031 79.0138 61.7651C78.8813 62.0363 78.7454 62.2757 78.459 62.3057C78.0453 62.3489 77.7507 61.9936 77.7175 61.6754C77.6409 60.9433 77.7236 60.1947 77.647 59.4627C77.5273 58.3169 77.3472 57.2096 77.2307 56.0957C77.0844 54.6953 76.9983 53.2565 76.8519 51.8561C76.7754 51.1241 76.8495 50.6016 77.4542 50.5384C77.8076 50.5336 78.0219 50.7364 78.0585 51.0865C78.2148 52.5824 78.2187 54.1585 78.3784 55.6862C78.4848 56.7046 78.655 57.7164 79.0512 58.7368ZM89.7894 56.8421C89.4767 53.8504 88.849 50.9238 91.8426 50.3213C92.9147 50.1128 93.7878 49.5389 94.8314 49.3654C95.2133 49.3255 95.6907 49.2756 95.7506 49.8485C95.9103 51.3762 90.3083 50.4174 90.7141 54.3002C90.937 56.4326 91.2872 58.5517 91.475 60.6556C91.5182 61.0693 91.3957 61.436 90.9183 61.4859C89.9953 61.5824 89.7927 56.874 89.7894 56.8421ZM101.494 49.5377C104.072 49.2682 106.679 51.7306 106.895 53.7993C107.114 55.8999 104.541 59.2898 101.899 59.5659C100.117 59.7522 97.9037 58.2783 97.7207 56.5279C97.6176 55.5412 98.0688 54.6254 98.2554 53.6406C98.2673 53.4464 98.4701 53.2321 98.4535 53.073C98.4269 52.8184 97.8744 52.4578 97.8511 52.2351C97.8112 51.8531 98.2971 51.5771 98.5954 51.3529C99.4334 50.7505 99.9601 49.6337 101.01 49.5239C101.17 49.5073 101.332 49.5225 101.494 49.5377ZM101.726 58.5223C104.297 58.1892 105.972 56.0515 105.719 53.6327C105.526 51.7867 104.167 50.4809 102.607 50.6439C100.348 50.8802 98.5999 54.4733 98.7729 56.1283C98.9292 57.6242 100.134 58.6886 101.726 58.5223ZM115.486 54.4135C115.606 55.5593 115.725 56.705 115.845 57.8508C115.895 58.3282 115.773 58.6949 115.2 58.7548C114.627 58.8147 114.51 58.3121 114.467 57.8983C114.22 55.5432 114.073 53.2099 113.834 50.9183C113.77 50.3136 113.518 50.0505 112.977 50.107C111.99 50.2102 111.104 50.6567 110.181 50.7532C109.385 50.8364 107.896 51.0564 107.803 50.1653C107.756 49.7197 108.185 49.514 108.567 49.4741C109.331 49.3942 110.111 49.4735 110.875 49.3937C112.244 49.2506 113.483 48.7993 114.462 47.6995C114.662 47.4535 114.868 47.271 115.123 47.2444C115.441 47.2112 116.025 47.5683 116.072 48.0139C116.085 48.1412 116.035 48.2752 115.949 48.3806C115.062 49.4386 114.988 50.5725 115.104 51.6864C115.201 52.6094 115.393 53.5224 115.486 54.4135ZM123.064 47.283C125.642 47.0135 128.248 49.4759 128.465 51.5446C128.684 53.6452 126.111 57.0351 123.469 57.3112C121.687 57.4975 119.474 56.0237 119.291 54.2732C119.188 53.2866 119.639 52.3707 119.825 51.386C119.837 51.1917 120.04 50.9774 120.023 50.8183C119.997 50.5637 119.444 50.2032 119.421 49.9804C119.381 49.5985 119.867 49.3224 120.165 49.0982C121.003 48.4958 121.53 47.379 122.58 47.2692C122.739 47.2526 122.902 47.2678 123.064 47.283ZM123.296 56.2676C125.867 55.9345 127.542 53.7968 127.289 51.378C127.096 49.532 125.737 48.2263 124.177 48.3893C121.918 48.6255 120.17 52.2187 120.343 53.8736C120.499 55.3695 121.704 56.434 123.296 56.2676ZM131.888 52.892C131.833 52.6726 131.813 52.4816 131.79 52.2588C131.71 51.495 131.722 50.6894 131.639 49.8937C131.589 49.4163 131.409 48.9204 131.355 48.4112C131.212 47.0426 133.87 45.3813 135.079 45.2549C135.875 45.1717 137.017 45.6315 137.117 46.5863C137.24 47.7639 135.23 49.7757 135.32 50.635C135.367 51.0806 138.246 51.2301 138.409 52.7896C138.552 54.1581 135.994 56.7742 134.625 56.9173C133.225 57.0637 132.158 55.47 131.975 53.7195C131.958 53.5604 131.945 53.4331 131.931 53.3058C131.918 53.1785 131.901 53.0194 131.888 52.892ZM133.626 51.9704C133.007 52.5177 133.174 52.8863 133.228 53.3955C133.311 54.1912 133.687 55.6319 134.546 55.5421C135.374 55.4556 136.959 54.0029 136.859 53.0481C136.759 52.0933 134.565 52.6444 133.626 51.9704ZM133.038 50.0371C133.044 50.1007 133.054 50.1962 133.061 50.2599C133.084 50.4827 133.153 50.8294 133.566 50.7862C134.203 50.7196 135.661 47.1246 135.658 47.0927C135.624 46.7745 135.212 46.528 134.894 46.5612C133.526 46.7043 132.946 48.8562 133.038 50.0371ZM141.398 45.3988L141.757 48.836C141.762 49.1895 141.799 49.5395 141.832 49.8578C141.939 50.8763 142.095 51.7608 142.182 52.5882C142.228 53.0338 142.211 53.486 142.255 53.8998C142.275 54.0907 142.428 54.3321 142.683 54.3054C142.874 54.2855 142.956 54.1482 143.035 53.9791L144.325 51.2381C144.981 49.8182 145.324 48.1737 146.698 47.1613C146.876 47.014 147.015 46.8065 147.238 46.7832C147.524 46.7532 147.914 47.0986 147.954 47.4805C147.994 47.8624 147.724 48.0515 147.377 48.1199C146.344 48.3888 145.988 49.2947 145.714 50.0633C145.07 51.9003 143.864 53.6028 143.788 55.6378C143.745 56.157 143.371 56.5822 142.894 56.6321C142.353 56.6887 141.826 56.2612 141.721 55.5643C141.273 52.2007 140.563 48.8 140.211 45.4264C140.164 44.9808 140.43 44.7599 140.844 44.7167C141.322 44.6667 141.368 45.1123 141.398 45.3988ZM150.773 54.1354L150.741 54.1388C150.744 54.782 150.998 55.9781 150.425 56.0379C150.075 56.0745 149.777 55.6874 149.741 55.3373C149.737 55.3055 149.731 55.2418 149.759 55.2067C149.944 54.5117 149.966 53.8015 149.896 53.1332C149.703 51.2872 148.778 49.5178 148.575 47.5764C148.496 46.8126 148.448 46.0454 148.368 45.2816C148.348 45.0906 148.328 44.8996 148.308 44.7087C148.255 44.1994 148.387 43.9282 148.928 43.8716C149.342 43.8284 149.528 44.0664 149.554 44.321C149.637 45.1167 149.498 45.9356 149.581 46.7313C149.807 48.8955 150.444 50.9846 150.67 53.1488L150.773 54.1354ZM157.721 54.3745L156.713 44.731C156.649 44.1263 156.432 43.8916 155.795 43.9582C155.573 43.9815 155.382 44.0014 155.159 44.0247C154.65 44.0779 154.134 44.0675 153.578 43.6752C153.511 43.65 153.444 43.6248 153.38 43.6315C153.126 43.6581 152.767 43.9208 152.449 43.9541C152.035 43.9973 151.003 43.9765 150.947 43.4354C150.91 43.0853 151.173 42.8326 151.364 42.8126C151.46 42.8027 151.559 42.8245 151.657 42.8464C153.516 43.3921 155.418 42.8072 157.3 42.9644C157.399 42.9862 157.526 42.9729 157.622 42.9629C158.417 42.8797 159.143 42.1282 159.78 42.0617C160.003 42.0384 160.341 42.1961 160.381 42.578C160.401 42.769 159.013 43.654 158.218 43.7372C157.613 43.8004 157.557 44.1923 157.614 44.7333C157.897 46.2159 158.201 47.8894 158.357 49.3852C158.484 50.5946 158.48 51.7855 158.606 52.9949C158.656 53.4723 158.77 53.9431 158.819 54.4205C158.856 54.7706 158.74 55.201 158.295 55.2475C157.849 55.2941 157.784 54.9792 157.751 54.6609C157.741 54.5654 157.731 54.4699 157.721 54.3745ZM165.297 53.9364C163.928 54.0795 164.342 51.8806 163.021 51.2465C162.922 51.2246 162.88 51.1325 162.874 51.0688C162.854 50.8779 163.018 50.6033 163.129 50.4309C164.065 48.9174 163.99 47.2842 163.878 45.5908C163.895 44.5272 164.098 42.1573 164.607 42.104C164.925 42.0708 165.044 42.2836 165.064 42.4745C165.077 42.6019 165.062 42.7643 165.015 42.9301C164.719 44.4089 164.527 46.2629 164.673 47.6633C164.717 48.077 164.867 48.2865 165.492 48.4143C166.378 48.579 167.317 49.8644 167.416 50.8192C167.549 52.0923 166.372 53.7597 165.297 53.9364ZM164.594 51.2108C164.607 51.3381 164.624 51.4972 164.609 51.6597C164.658 52.1371 164.732 52.8373 165.495 52.7574C166.387 52.6643 166.448 50.7917 166.458 50.8872C166.392 50.2507 165.694 49.4227 165.185 49.476C164.58 49.5392 164.474 50.065 164.507 50.3833C164.527 50.5742 164.582 50.7937 164.599 50.9528C164.609 51.0483 164.616 51.112 164.594 51.2108ZM173.079 51.2247C173.089 51.3202 173.096 51.3838 173.106 51.4793C173.182 52.2113 172.118 53.4165 171.545 53.4764C171.258 53.5064 170.882 53.2883 170.845 52.9382C170.788 52.3972 171.494 51.4547 171.577 50.7061C171.636 50.346 171.874 50.1602 172.16 50.1303C173.051 50.0372 173.001 50.7825 173.079 51.2247ZM171.711 43.0667C171.728 43.2258 171.91 44.6547 171.178 44.7312C170.7 44.7811 170.618 44.307 170.515 43.9318C170.267 43.4107 169.839 43.005 169.776 42.4003C169.732 41.9866 169.912 41.5495 170.644 41.473C171.471 41.3865 171.546 42.4083 171.711 43.0667ZM64.64 133.424C64.4713 132.733 64.3596 131.973 64.2765 131.177C64.1567 130.032 63.8363 126.043 64.5683 125.967C64.823 125.94 65.1327 126.133 65.1526 126.324C65.1707 126.805 65.2558 127.311 65.1784 127.801C64.9765 128.948 65.0726 130.483 65.1824 131.533C65.2056 131.756 65.3311 132.032 65.6493 131.999C65.8403 131.979 65.9543 131.838 66.0331 131.669C67.1684 129.91 68.7739 128.648 69.8925 126.729C70.0031 126.557 70.1708 126.314 70.3936 126.291C70.6482 126.264 70.8373 126.534 70.8506 126.661C70.9604 127.712 66.6431 131.348 66.7595 132.462C66.8992 133.799 71.7375 136.993 71.7575 137.184C71.7841 137.439 71.5176 137.66 71.2948 137.683C71.0402 137.71 70.7371 137.58 70.5614 137.438C68.9928 136.283 67.57 134.984 66.3182 133.473C66.1676 133.264 66.0389 132.956 65.7525 132.986C65.466 133.016 65.3587 133.22 65.3786 133.411C65.515 134.716 66.2124 136.155 66.3488 137.46C66.3788 137.746 66.2881 138.11 65.8107 138.16C65.5242 138.19 65.3955 137.881 65.3689 137.627C65.3522 137.468 65.3641 137.273 65.3475 137.114C65.241 136.096 64.7811 135.082 64.6514 133.841C64.6381 133.713 64.6566 133.583 64.64 133.424ZM75.5881 126.102C77.1794 125.935 78.6473 127.359 78.9239 129.389C79.2171 131.578 80.1351 136.051 82.172 135.838C82.2675 135.828 82.3629 135.818 82.4266 135.812C82.713 135.782 82.9843 135.914 83.0209 136.264C83.0675 136.71 82.6319 136.852 82.2499 136.892C81.2951 136.992 80.5037 135.884 80.0263 135.934C79.8353 135.954 79.661 136.133 79.4748 136.506C78.9666 137.492 78.189 138.056 77.1387 138.166C75.2291 138.366 74.0372 137.428 73.8576 135.71C73.7112 134.309 75.5699 132.699 76.6838 132.583C77.0658 132.543 77.5797 132.843 77.9617 132.803C78.3118 132.767 78.5364 132.454 78.4965 132.072C78.2969 130.162 77.9443 126.789 75.4618 127.048C74.7616 127.121 74.2671 127.623 73.8781 128.211L73.6634 128.62C73.5561 128.824 73.4136 129 73.1908 129.023C72.9362 129.05 72.6868 128.818 72.6668 128.627C72.5337 127.354 74.4457 126.253 75.5881 126.102ZM77.2577 133.456C76.0516 133.614 74.9202 134.794 75.0266 135.813C75.1131 136.64 76.2181 137.361 77.0774 137.272C78.1277 137.162 79.023 135.878 78.9166 134.859C78.8201 133.936 78.1489 133.363 77.2577 133.456ZM85.7905 132.242C85.9436 133.706 86.5565 136.184 85.5062 136.294C84.997 136.347 84.8198 135.883 84.7699 135.406C84.6601 134.355 84.5821 133.302 84.469 132.22C84.3393 130.978 84.1744 129.709 83.8537 128.487C83.8118 128.395 83.8019 128.3 83.7919 128.204C83.6455 126.804 87.3582 125.386 88.0903 125.31C90.5409 125.054 90.7482 127.96 91.0076 130.442C91.1873 132.161 91.6169 135.655 90.3757 135.785C89.7073 135.855 89.3776 135.471 89.3443 135.153C89.3244 134.962 89.3614 134.701 89.4654 134.464C89.8649 133.361 89.9109 132.262 89.7978 131.18C89.6913 130.162 89.4224 129.128 89.316 128.11C89.2062 127.059 88.6789 126.632 87.8514 126.718C87.5968 126.745 87.317 126.838 87.0054 126.935C84.8089 127.776 85.2374 128.182 85.6632 132.256C85.695 132.252 85.7269 132.249 85.7905 132.242ZM99.2878 128.901C99.2236 127.363 98.7303 123.876 99.6215 123.783C100.099 123.733 100.209 124.172 100.249 124.554C100.643 128.631 101.101 132.701 100.664 136.833C100.524 138.263 100.575 139.674 100.205 141.064C99.7198 142.884 97.8611 144.494 96.1743 144.67C94.392 144.857 93.1991 142.986 91.8956 141.289C91.7098 141.051 91.4889 140.784 91.4623 140.53C91.4357 140.275 91.7207 139.924 92.1344 139.88C92.6118 139.83 92.8242 140.323 92.9629 140.727C93.4794 142.281 95.1601 143.586 96.274 143.469C98.3746 143.25 99.2005 140.686 99.371 138.931C99.6126 136.01 99.7588 133.099 99.4494 130.139C99.4061 129.725 99.331 129.315 99.2878 128.901ZM93.9953 123.824C94.3235 123.886 94.6366 124.111 94.7435 124.518C95.5455 127.265 96.9222 129.663 98.4932 132.073C98.6087 132.254 98.6571 132.41 98.6738 132.569C98.6971 132.792 98.5427 133.162 98.1289 133.205C97.4288 133.278 94.9669 128.195 94.0035 126.365C93.689 125.818 93.5103 125.033 93.4405 124.364C93.4138 124.11 93.5497 123.87 93.868 123.837C93.8998 123.834 93.9634 123.827 93.9953 123.824ZM107.843 128.811C107.531 128.908 107.248 128.97 106.994 128.997C104.957 129.209 104.181 127.939 103.928 125.52C103.825 124.534 103.518 122.828 104.377 122.739C104.95 122.679 105.177 123.009 105.217 123.391C105.284 124.027 105.131 124.719 105.201 125.387C105.277 126.119 105.454 127.806 106.599 127.686C107.268 127.617 108.307 125.867 108.3 124.87C108.237 124.266 108.832 123.496 109.309 123.446C109.627 123.412 110.031 123.885 110.061 124.172C110.091 124.458 109.955 124.697 109.886 124.962C109.412 126.588 109.197 128.219 109.363 129.811C109.476 130.893 109.749 131.958 110.212 133.004C110.254 133.096 110.267 133.223 110.277 133.319C110.313 133.669 110.095 134.045 109.586 134.099C109.013 134.159 108.511 133.664 108.441 132.996C108.378 132.391 108.35 131.815 108.287 131.21C108.2 130.383 108.085 129.59 107.843 128.811ZM114.312 122.633L114.671 126.07C114.676 126.424 114.713 126.774 114.746 127.092C114.852 128.111 115.009 128.995 115.096 129.823C115.142 130.268 115.125 130.72 115.169 131.134C115.188 131.325 115.342 131.566 115.597 131.54C115.788 131.52 115.87 131.383 115.949 131.214L117.239 128.473C117.895 127.053 118.238 125.408 119.612 124.396C119.79 124.248 119.929 124.041 120.152 124.018C120.438 123.988 120.828 124.333 120.868 124.715C120.908 125.097 120.638 125.286 120.291 125.354C119.258 125.623 118.902 126.529 118.628 127.298C117.984 129.135 116.778 130.837 116.702 132.872C116.659 133.391 116.285 133.817 115.808 133.867C115.267 133.923 114.74 133.496 114.635 132.799C114.187 129.435 113.477 126.034 113.125 122.661C113.078 122.215 113.344 121.994 113.758 121.951C114.236 121.901 114.282 122.347 114.312 122.633ZM123.687 131.37L123.655 131.373C123.658 132.016 123.912 133.213 123.339 133.272C122.989 133.309 122.691 132.922 122.655 132.572C122.651 132.54 122.645 132.476 122.673 132.441C122.858 131.746 122.88 131.036 122.81 130.368C122.617 128.522 121.692 126.752 121.489 124.811C121.41 124.047 121.362 123.28 121.282 122.516C121.262 122.325 121.242 122.134 121.222 121.943C121.169 121.434 121.301 121.163 121.842 121.106C122.256 121.063 122.442 121.301 122.468 121.555C122.551 122.351 122.412 123.17 122.495 123.966C122.721 126.13 123.358 128.219 123.584 130.383L123.687 131.37ZM127.92 123.495C128.077 124.991 127.794 127.208 129.672 127.012C132.536 126.713 132.214 124.558 132.009 121.363C131.996 121.235 131.982 121.108 131.969 120.981C131.919 120.503 131.946 120.146 132.583 120.08C133.124 120.023 133.281 120.296 133.318 120.647C133.501 122.397 133.379 124.308 133.558 126.027C133.685 127.236 133.97 128.429 134.348 129.58C134.378 129.866 134.475 130.178 134.505 130.464C134.541 130.814 134.457 131.242 133.852 131.305C132.229 131.474 133.554 127.218 131.581 127.424C130.944 127.49 130.192 127.987 129.46 128.064C129.396 128.07 129.364 128.074 129.301 128.08C128.791 128.134 128.602 128.475 128.648 128.921C128.708 129.494 129.192 130.119 129.245 130.628C129.288 131.042 129.042 131.454 128.501 131.51C127.896 131.573 127.531 131.161 127.468 130.556C127.145 127.469 126.829 124.446 126.513 121.422C126.46 120.913 126.474 120.429 127.015 120.372C127.588 120.312 127.723 120.684 127.763 121.066C127.846 121.862 127.805 122.703 127.825 123.505C127.857 123.502 127.889 123.498 127.92 123.495ZM137.045 127.11C136.783 124.596 137.363 121.221 138.986 121.051C139.273 121.022 139.601 121.084 139.996 121.171C142.145 121.719 143.366 122.942 143.556 124.756C143.729 126.411 142.624 130.613 140.173 130.869C138.264 131.069 137.192 128.51 137.075 127.396C137.065 127.301 137.055 127.206 137.045 127.11ZM138.263 126.758C138.51 127.89 138.97 129.515 140.02 129.405C141.739 129.226 142.352 126.169 142.173 124.451C142.06 123.368 140.705 122.416 139.814 122.509C138.318 122.666 138.079 124.685 138.263 126.758ZM163.49 122.383C163.952 126.807 161.498 129.187 158.793 129.47C156.056 129.756 153.52 127.962 153.353 126.371C153.343 126.275 153.364 125.855 153.586 125.831C154.096 125.778 154.11 126.227 154.338 126.557C155.149 127.856 157.092 128.586 158.938 128.393C160.656 128.213 162.972 126.363 162.587 122.671C162.35 120.411 160.895 118.182 158.19 118.465C156.662 118.625 155.638 118.989 155.046 119.791C155.096 120.268 154.732 120.789 154.255 120.839C153.714 120.895 153.495 120.339 153.482 120.212C153.472 120.116 153.493 120.018 153.512 119.887C153.81 118.118 153.447 116.805 153.447 115.261C153.439 114.875 153.427 114.458 153.384 114.045C153.341 113.631 153.269 113.252 153.226 112.839C153.043 111.088 154.005 109.829 155.692 109.653C156.01 109.62 156.3 109.622 156.586 109.592C156.968 109.552 157.347 109.48 157.697 109.443L157.7 109.475C158.333 109.377 158.998 109.275 159.66 109.142C160.297 109.075 161.437 109.213 161.504 109.85C161.54 110.2 161.261 110.293 161.038 110.317C160.306 110.393 159.592 110.339 158.86 110.416C158.001 110.505 157.113 110.63 156.254 110.72C156.031 110.744 155.776 110.77 155.522 110.797C153.58 111 154.213 113.668 154.333 114.814C154.463 116.055 154.624 117.293 154.781 118.789C155.396 118.21 156.266 117.604 157.857 117.438C161.39 117.069 163.233 119.933 163.49 122.383ZM173.512 122.397C173.454 122.146 173.395 121.895 173.365 121.608C173.102 119.094 174.613 115.075 177.414 114.782C177.986 114.723 178.638 115.105 178.731 115.996C178.777 116.442 178.459 117.086 178.045 117.13C177.599 117.176 177.119 116.583 176.674 116.629C175.146 116.789 174.321 120.286 174.537 122.355C174.733 124.232 175.714 126.221 177.082 126.078C178.482 125.932 178.97 123.21 179.67 123.137C180.02 123.101 180.385 123.513 180.415 123.799C180.478 124.404 179.395 125.74 178.825 126.443C178.455 126.9 177.899 127.119 177.294 127.182C174.398 127.485 173.76 125.074 173.59 123.451C173.553 123.101 173.549 122.747 173.512 122.397ZM188.355 121.2C188.475 122.345 188.595 123.491 188.715 124.637C188.764 125.114 188.642 125.481 188.069 125.541C187.496 125.601 187.379 125.098 187.336 124.685C187.09 122.329 186.942 119.996 186.703 117.705C186.64 117.1 186.387 116.837 185.846 116.893C184.859 116.996 183.973 117.443 183.05 117.539C182.254 117.623 180.765 117.843 180.672 116.951C180.625 116.506 181.054 116.3 181.436 116.26C182.2 116.18 182.981 116.26 183.744 116.18C185.113 116.037 186.353 115.585 187.332 114.486C187.531 114.24 187.737 114.057 187.992 114.031C188.31 113.997 188.895 114.355 188.941 114.8C188.954 114.927 188.904 115.061 188.819 115.167C187.932 116.225 187.857 117.359 187.974 118.473C188.07 119.396 188.262 120.309 188.355 121.2ZM195.934 114.069C198.512 113.8 201.118 116.262 201.334 118.331C201.554 120.431 198.98 123.821 196.339 124.097C194.556 124.284 192.343 122.81 192.16 121.059C192.057 120.073 192.508 119.157 192.695 118.172C192.707 117.978 192.909 117.764 192.893 117.605C192.866 117.35 192.314 116.989 192.29 116.767C192.251 116.385 192.736 116.109 193.035 115.884C193.873 115.282 194.399 114.165 195.45 114.055C195.609 114.039 195.771 114.054 195.934 114.069ZM196.165 123.054C198.736 122.721 200.411 120.583 200.158 118.164C199.965 116.318 198.606 115.012 197.047 115.175C194.787 115.412 193.039 119.005 193.212 120.66C193.369 122.156 194.574 123.22 196.165 123.054ZM209.269 113.287C209.04 113.246 208.842 113.203 208.683 113.219C208.079 113.282 208.142 113.887 208.088 114.601C207.884 117.582 208.207 120.669 205.432 123.05C205.08 123.377 204.612 123.522 204.167 123.569C203.148 123.675 201.506 123.043 201.376 121.801C201.326 121.324 202.1 120.728 202.578 120.678C202.864 120.648 203.273 120.863 203.303 121.15C203.332 121.436 203.086 121.848 203.106 122.039C203.143 122.389 203.566 122.441 204.012 122.395C205.38 122.251 206.048 121.249 206.574 120.132C207.227 118.68 207.265 116.585 207.106 115.057C207.036 114.389 206.086 114.231 206.026 113.658C205.98 113.212 206.734 112.425 207.275 112.369C207.434 112.352 207.597 112.367 207.756 112.351C208.392 112.284 209.009 112.027 209.646 111.96C210.982 111.821 211.878 112.692 212.004 113.902C212.024 114.093 212.012 114.287 212 114.481C211.901 115.682 211.96 116.866 212.087 118.076C212.126 118.458 212.202 118.868 212.241 119.25C212.321 120.014 212.172 120.737 212.252 121.501C212.292 121.883 212.032 122.168 211.682 122.204C211.268 122.247 211.085 122.041 211.062 121.818C211.049 121.691 211.096 121.525 211.143 121.36C211.526 120.097 211.527 118.874 211.397 117.633C211.294 116.646 211.127 115.666 211.024 114.68C211 114.457 210.977 114.234 210.951 113.98C210.874 113.248 210.409 113.103 209.899 113.156C209.708 113.176 209.489 113.231 209.269 113.287ZM68.8825 174.011L76.2026 173.245C77.0068 172.936 77.5317 172.109 78.1364 172.046C78.5501 172.003 78.848 172.39 78.8812 172.708C79.001 173.854 77.0244 174.028 75.0512 174.234C73.7145 174.374 72.2756 174.46 71.1298 174.58C69.5703 174.743 68.9353 175.131 68.6806 175.158C68.1078 175.218 67.8702 174.792 67.7871 173.996C67.2082 168.459 76.8854 167.157 76.21 160.697C75.9738 158.437 73.963 157.36 72.1489 157.55C70.3029 157.743 68.875 158.857 68.3464 160.264C68.1954 160.666 68.2705 161.076 67.7294 161.133C67.5218 160.993 67.4415 160.841 67.4216 160.65C67.2519 159.027 69.111 156.806 71.8481 156.519C74.5216 156.24 76.8569 157.959 77.113 160.409C77.8815 167.761 68.459 169.036 68.8977 173.848L68.8825 174.011ZM89.94 161.803C91.5313 161.637 92.9992 163.06 93.2758 165.09C93.569 167.28 94.4869 171.752 96.5239 171.54C96.6193 171.53 96.7148 171.52 96.7785 171.513C97.0649 171.483 97.3362 171.615 97.3727 171.966C97.4193 172.411 96.9837 172.553 96.6018 172.593C95.647 172.693 94.8556 171.585 94.3782 171.635C94.1872 171.655 94.0129 171.834 93.8267 172.208C93.3185 173.194 92.5409 173.758 91.4906 173.867C89.581 174.067 88.3891 173.13 88.2095 171.411C88.0631 170.011 89.9218 168.401 91.0357 168.284C91.4176 168.245 91.9316 168.545 92.3135 168.505C92.6636 168.468 92.8883 168.155 92.8484 167.773C92.6488 165.864 92.2961 162.49 89.8137 162.749C89.1135 162.823 88.619 163.325 88.23 163.912L88.0153 164.321C87.9079 164.525 87.7654 164.701 87.5427 164.724C87.288 164.751 87.0386 164.52 87.0187 164.329C86.8856 163.056 88.7975 161.955 89.94 161.803ZM91.6096 169.158C90.4035 169.316 89.272 170.496 89.3785 171.514C89.465 172.342 90.5699 173.063 91.4293 172.973C92.4795 172.863 93.3749 171.579 93.2684 170.561C93.172 169.638 92.5007 169.064 91.6096 169.158ZM98.933 168.07C98.9349 167.78 98.9368 167.491 98.9035 167.172C98.8469 166.631 98.7234 166.065 98.6635 165.492C98.5471 164.378 98.7897 162.39 99.9355 162.271C100.515 162.274 100.682 162.643 100.859 163.107C101.23 164.194 101.913 165.185 102.04 166.394C102.076 166.744 102.282 167.173 102.791 167.12C103.205 167.077 103.334 166.774 103.46 166.439C103.833 165.081 104.643 163.902 104.85 162.497C104.905 162.105 105.063 161.767 105.445 161.727C105.922 161.677 106.016 161.957 106.049 162.275C106.059 162.371 106.072 162.498 106.082 162.593C106.405 165.069 106.757 167.51 107.017 169.992C107.05 170.311 106.984 170.607 106.571 170.65C106.093 170.7 106.025 170.353 105.988 170.003C105.838 168.571 105.778 167.065 105.631 165.665C105.598 165.347 105.473 165.07 105.059 165.113C104.136 165.21 104.063 168.821 102.79 168.954C101.262 169.114 101.256 164.127 100.014 164.257C99.5052 164.31 99.443 164.639 99.4729 164.925C99.6027 166.166 99.8882 167.359 100.018 168.6C100.164 170.001 100.531 172.279 99.7992 172.355C99.4173 172.395 99.3588 172.144 99.3322 171.889C99.3189 171.762 99.3056 171.635 99.2956 171.539C99.2557 171.157 99.1839 170.779 99.144 170.397C99.0675 169.665 99.0162 168.866 98.933 168.07ZM113.268 160.169C114.869 160.098 116.835 160.44 116.949 161.522C117.068 162.668 114.602 164.309 113.233 164.452C112.565 164.522 111.588 164.109 110.984 164.172C110.697 164.202 110.558 164.41 110.595 164.76C110.801 166.733 113.032 168.688 114.465 168.538C115.96 168.382 117.322 166.631 118.296 165.178C118.438 165.002 118.584 164.858 118.775 164.838C119.093 164.805 119.417 165.125 119.443 165.379C119.46 165.539 119.413 165.704 119.295 165.813C117.984 167.43 116.815 169.483 114.428 169.732C111.914 169.995 109.585 166.796 109.322 164.282C109.079 161.958 110.489 160.974 113.268 160.169ZM113.404 161.474C112.775 161.604 111.441 161.776 111.524 162.571C111.686 163.198 112.587 163.2 113.033 163.154C113.415 163.114 115.043 162.686 114.963 161.922C114.887 161.19 114.079 161.468 113.404 161.474ZM128.689 163.158C128.603 164.486 128.644 165.801 128.257 167.032C127.695 168.732 126.649 169.806 124.986 170.205C124.012 170.436 123.963 170.891 124.04 171.623C124.377 173.615 124.275 175.717 125.27 177.544C125.35 177.696 125.399 177.852 125.415 178.011C125.455 178.393 125.204 179.063 124.694 179.116C124.122 179.176 123.571 178.525 123.521 178.048C123.458 177.443 123.522 176.825 123.459 176.221C123.312 174.82 122.975 173.44 122.825 172.008C122.789 171.658 122.781 171.272 122.744 170.922C122.621 169.745 121.106 169.099 121.026 168.335C120.972 167.826 122.242 167.661 122.149 166.77C122.049 165.815 121.725 164.562 121.304 163.608C121.22 163.424 121.165 163.205 121.142 162.982C120.946 161.104 122.485 158.594 124.363 158.398C126.527 158.172 128.145 160.416 128.689 163.158ZM122.837 162.579C122.785 163.003 122.796 163.42 122.84 163.834C122.983 165.202 123.459 166.375 123.596 167.68C123.692 168.603 124.092 169.044 124.697 168.981C126.797 168.761 127.604 165.395 127.381 163.263C127.231 161.831 126.412 159.535 124.534 159.732C123.802 159.808 122.535 160.616 122.635 161.571C122.659 161.794 122.787 162.102 122.814 162.357C122.827 162.484 122.837 162.579 122.837 162.579ZM133.389 164.662C134.377 163.336 135.198 161.963 135.787 160.518C136.247 159.376 137.286 158.238 138.082 158.155C140.023 157.952 139.767 163.191 140.555 166.422C140.597 166.514 140.6 166.546 140.607 166.61C140.638 167.218 140.532 167.744 139.896 167.81C139.291 167.873 139 167.55 138.947 167.041C138.84 166.022 139.052 164.971 138.945 163.952C138.779 162.361 138.603 160.063 137.617 160.166C136.98 160.232 134.002 166.528 133.352 167.69C133.219 167.961 133.083 168.201 132.797 168.231C132.383 168.274 132.089 167.919 132.055 167.6C131.979 166.868 132.061 166.12 131.985 165.388C131.865 164.242 131.685 163.135 131.569 162.021C131.422 160.62 131.336 159.181 131.19 157.781C131.113 157.049 131.187 156.526 131.792 156.463C132.146 156.458 132.36 156.661 132.396 157.011C132.553 158.507 132.557 160.083 132.716 161.611C132.823 162.63 132.993 163.641 133.389 164.662ZM143.826 162.348C143.657 161.658 143.546 160.897 143.463 160.102C143.343 158.956 143.022 154.968 143.754 154.891C144.009 154.864 144.319 155.057 144.339 155.248C144.357 155.729 144.442 156.235 144.365 156.726C144.163 157.873 144.259 159.407 144.368 160.457C144.392 160.68 144.517 160.957 144.835 160.923C145.026 160.903 145.14 160.763 145.219 160.594C146.354 158.834 147.96 157.572 149.079 155.654C149.189 155.481 149.357 155.239 149.58 155.215C149.834 155.189 150.023 155.458 150.037 155.586C150.147 156.636 145.829 160.273 145.946 161.387C146.085 162.723 150.924 165.918 150.944 166.108C150.97 166.363 150.704 166.584 150.481 166.607C150.226 166.634 149.923 166.505 149.748 166.362C148.179 165.207 146.756 163.908 145.504 162.398C145.354 162.188 145.225 161.88 144.939 161.91C144.652 161.94 144.545 162.144 144.565 162.335C144.701 163.64 145.399 165.079 145.535 166.384C145.565 166.671 145.474 167.034 144.997 167.084C144.71 167.114 144.582 166.806 144.555 166.551C144.538 166.392 144.55 166.198 144.534 166.039C144.427 165.02 143.967 164.006 143.838 162.765C143.824 162.638 143.843 162.507 143.826 162.348ZM154.774 155.026C156.366 154.86 157.833 156.283 158.11 158.313C158.403 160.503 159.321 164.975 161.358 164.762C161.454 164.752 161.549 164.743 161.613 164.736C161.899 164.706 162.17 164.838 162.207 165.189C162.254 165.634 161.818 165.776 161.436 165.816C160.481 165.916 159.69 164.808 159.212 164.858C159.021 164.878 158.847 165.057 158.661 165.431C158.153 166.417 157.375 166.981 156.325 167.09C154.415 167.29 153.223 166.353 153.044 164.634C152.897 163.234 154.756 161.624 155.87 161.507C156.252 161.467 156.766 161.768 157.148 161.728C157.498 161.691 157.723 161.378 157.683 160.996C157.483 159.087 157.13 155.713 154.648 155.972C153.948 156.046 153.453 156.548 153.064 157.135L152.85 157.544C152.742 157.748 152.6 157.924 152.377 157.947C152.122 157.974 151.873 157.743 151.853 157.552C151.72 156.279 153.632 155.178 154.774 155.026ZM156.444 162.38C155.238 162.539 154.106 163.719 154.213 164.737C154.299 165.565 155.404 166.286 156.264 166.196C157.314 166.086 158.209 164.802 158.103 163.784C158.006 162.861 157.335 162.287 156.444 162.38ZM164.464 156.877C164.62 158.373 164.337 160.59 166.215 160.394C169.079 160.094 168.758 157.94 168.552 154.744C168.539 154.617 168.526 154.49 168.512 154.362C168.463 153.885 168.49 153.528 169.126 153.462C169.667 153.405 169.824 153.678 169.861 154.028C170.044 155.779 169.922 157.69 170.102 159.408C170.228 160.618 170.514 161.811 170.891 162.962C170.921 163.248 171.018 163.56 171.048 163.846C171.085 164.196 171.001 164.623 170.396 164.686C168.773 164.856 170.097 160.599 168.124 160.806C167.488 160.872 166.735 161.369 166.003 161.446C165.94 161.452 165.908 161.456 165.844 161.462C165.335 161.515 165.145 161.857 165.192 162.303C165.252 162.875 165.735 163.501 165.789 164.01C165.832 164.424 165.585 164.835 165.044 164.892C164.44 164.955 164.075 164.543 164.012 163.938C163.689 160.851 163.373 157.827 163.057 154.804C163.004 154.295 163.017 153.811 163.558 153.754C164.131 153.694 164.267 154.066 164.307 154.448C164.39 155.244 164.349 156.085 164.368 156.887C164.4 156.884 164.432 156.88 164.464 156.877ZM173.589 160.492C173.326 157.977 173.906 154.603 175.53 154.433C175.816 154.403 176.144 154.465 176.539 154.553C178.688 155.1 179.91 156.324 180.099 158.138C180.272 159.793 179.167 163.995 176.717 164.251C174.807 164.451 173.735 161.892 173.619 160.778C173.609 160.683 173.599 160.587 173.589 160.492ZM174.807 160.139C175.054 161.272 175.513 162.897 176.564 162.787C178.282 162.607 178.896 159.551 178.716 157.832C178.603 156.75 177.249 155.798 176.358 155.891C174.862 156.047 174.622 158.067 174.807 160.139ZM190.82 154.122C190.977 155.618 190.694 157.835 192.571 157.639C195.436 157.339 195.114 155.185 194.909 151.989C194.895 151.862 194.882 151.735 194.869 151.607C194.819 151.13 194.846 150.773 195.483 150.707C196.024 150.65 196.181 150.923 196.217 151.273C196.4 153.024 196.278 154.935 196.458 156.653C196.584 157.863 196.87 159.056 197.248 160.207C197.278 160.493 197.375 160.805 197.405 161.091C197.441 161.441 197.357 161.868 196.752 161.931C195.129 162.101 196.454 157.844 194.481 158.051C193.844 158.117 193.092 158.614 192.36 158.691C192.296 158.697 192.264 158.701 192.2 158.707C191.691 158.76 191.502 159.102 191.548 159.548C191.608 160.12 192.092 160.746 192.145 161.255C192.188 161.669 191.942 162.08 191.401 162.137C190.796 162.2 190.431 161.788 190.368 161.183C190.045 158.096 189.729 155.072 189.413 152.049C189.36 151.54 189.374 151.056 189.915 150.999C190.488 150.939 190.623 151.311 190.663 151.693C190.746 152.489 190.705 153.33 190.725 154.132C190.757 154.129 190.788 154.125 190.82 154.122ZM202.328 150.055C203.919 149.889 205.387 151.312 205.663 153.343C205.957 155.532 206.875 160.005 208.912 159.792C209.007 159.782 209.102 159.772 209.166 159.765C209.453 159.735 209.724 159.868 209.76 160.218C209.807 160.663 209.371 160.805 208.989 160.845C208.035 160.945 207.243 159.837 206.766 159.887C206.575 159.907 206.401 160.086 206.214 160.46C205.706 161.446 204.929 162.01 203.878 162.12C201.969 162.319 200.777 161.382 200.597 159.663C200.451 158.263 202.309 156.653 203.423 156.537C203.805 156.497 204.319 156.797 204.701 156.757C205.051 156.72 205.276 156.407 205.236 156.025C205.036 154.116 204.684 150.742 202.201 151.002C201.501 151.075 201.007 151.577 200.618 152.165L200.403 152.573C200.296 152.777 200.153 152.953 199.93 152.977C199.676 153.003 199.426 152.772 199.406 152.581C199.273 151.308 201.185 150.207 202.328 150.055ZM203.997 157.41C202.791 157.568 201.66 158.748 201.766 159.766C201.853 160.594 202.958 161.315 203.817 161.225C204.867 161.115 205.763 159.831 205.656 158.813C205.56 157.89 204.888 157.317 203.997 157.41ZM210.548 154.473C210.458 154.225 210.396 153.942 210.366 153.655C210.276 152.796 210.361 151.758 210.254 150.739C210.238 150.58 210.218 150.389 210.201 150.23C210.048 148.766 211.874 148.382 213.084 148.256C214.42 148.116 215.557 148.834 215.703 150.234C215.783 150.998 215.174 152.863 214.465 153.774C214.294 153.985 214.215 154.154 214.228 154.281C214.248 154.472 214.417 154.551 214.838 154.571C216.003 154.643 217.776 155.905 217.859 156.701C218.026 158.292 216.026 160.399 214.244 160.586C213.416 160.672 211.739 159.4 211.272 158.322C210.774 157.248 210.937 156.041 210.548 154.473ZM213.985 155.336C213.733 155.395 213.514 155.45 213.323 155.47C213.005 155.503 212.574 155.387 212.521 154.878C212.448 154.178 214.883 152.54 214.656 150.375C214.567 149.516 214.058 148.958 213.135 149.055C211.575 149.218 211.229 150.83 211.362 152.103C211.435 152.804 211.572 153.497 211.645 154.197C211.647 154.519 211.68 154.837 211.713 155.155C211.793 155.919 211.962 156.609 212.598 157.154C212.707 157.272 212.784 157.392 212.797 157.52C212.83 157.838 212.287 158.184 212.321 158.502C212.394 159.203 213.988 159.679 214.561 159.62C215.357 159.536 216.873 158.348 216.737 157.043C216.617 155.898 214.876 155.243 213.985 155.336ZM226.903 156.431C227.083 158.15 225.581 159.787 223.894 159.963C223.417 160.013 220.459 160.033 220.332 158.823C220.326 158.76 220.348 158.661 220.373 158.594C220.7 157.723 220.709 156.886 220.619 156.026C220.523 155.103 220.331 154.19 220.234 153.267C220.061 151.612 220.054 150.616 219.944 148.954C219.901 148.54 220.211 148.122 220.593 148.082C220.911 148.049 221.139 148.379 221.166 148.633C221.182 148.792 221.139 148.99 221.06 149.159C220.716 149.871 220.734 150.352 220.79 150.893C220.814 151.115 220.84 151.37 220.867 151.625C220.89 151.847 220.885 152.105 220.915 152.392C220.957 152.484 220.967 152.579 220.977 152.675C221.013 153.025 220.926 153.42 220.963 153.77C220.999 154.12 221.3 154.539 221.714 154.496C222.319 154.433 222.726 153.715 223.458 153.638C225.018 153.475 226.737 154.84 226.903 156.431ZM221.943 157.303C221.95 157.367 221.957 157.431 221.963 157.494C222.08 158.608 222.716 159.153 223.734 159.047C224.848 158.93 226.115 157.511 226.002 156.429C225.899 155.442 224.727 154.696 223.613 154.812C222.436 154.935 221.825 155.868 221.943 157.303ZM229.834 156.768C229.491 154.713 229.241 152.937 229.041 151.028C228.955 150.2 228.868 149.373 228.804 148.446C228.79 148.319 228.745 148.195 228.728 148.036C228.705 147.813 228.754 147.358 229.2 147.311C229.55 147.274 229.908 147.623 229.935 147.878C229.978 148.291 229.636 148.713 229.682 149.159C229.699 149.318 229.716 149.477 229.764 149.633C230.326 152.856 230.981 155.426 231.34 158.863C231.37 159.149 231.343 159.506 230.898 159.553C230.006 159.646 229.871 157.118 229.834 156.768ZM235.079 149.496C235.236 150.991 234.953 153.209 236.83 153.013C239.695 152.713 239.373 150.559 239.168 147.363C239.154 147.236 239.141 147.108 239.128 146.981C239.078 146.504 239.105 146.147 239.741 146.08C240.282 146.024 240.44 146.297 240.476 146.647C240.659 148.397 240.537 150.309 240.717 152.027C240.843 153.237 241.129 154.429 241.507 155.58C241.537 155.867 241.633 156.178 241.663 156.465C241.7 156.815 241.616 157.242 241.011 157.305C239.388 157.475 240.713 153.218 238.739 153.424C238.103 153.491 237.35 153.988 236.618 154.064C236.555 154.071 236.523 154.074 236.459 154.081C235.95 154.134 235.761 154.476 235.807 154.921C235.867 155.494 236.351 156.119 236.404 156.628C236.447 157.042 236.201 157.454 235.66 157.511C235.055 157.574 234.69 157.162 234.627 156.557C234.304 153.47 233.988 150.446 233.672 147.423C233.619 146.913 233.633 146.429 234.174 146.373C234.746 146.313 234.882 146.685 234.922 147.067C235.005 147.862 234.964 148.703 234.984 149.506C235.016 149.502 235.047 149.499 235.079 149.496ZM248.266 145.801C250.844 145.531 253.45 147.993 253.667 150.062C253.886 152.163 251.313 155.553 248.671 155.829C246.889 156.015 244.675 154.541 244.492 152.791C244.389 151.804 244.841 150.888 245.027 149.904C245.039 149.709 245.242 149.495 245.225 149.336C245.199 149.081 244.646 148.721 244.623 148.498C244.583 148.116 245.069 147.84 245.367 147.616C246.205 147.013 246.732 145.897 247.782 145.787C247.941 145.77 248.104 145.785 248.266 145.801ZM248.498 154.785C251.069 154.452 252.744 152.314 252.491 149.896C252.298 148.05 250.939 146.744 249.379 146.907C247.12 147.143 245.372 150.736 245.545 152.391C245.701 153.887 246.906 154.952 248.498 154.785ZM256.397 150.935C256.338 150.684 256.28 150.433 256.25 150.146C255.987 147.632 257.498 143.613 260.298 143.32C260.871 143.26 261.522 143.643 261.616 144.534C261.662 144.979 261.343 145.624 260.93 145.667C260.484 145.714 260.004 145.121 259.558 145.167C258.031 145.327 257.206 148.824 257.422 150.892C257.618 152.77 258.598 154.759 259.967 154.616C261.367 154.47 261.855 151.748 262.555 151.675C262.905 151.638 263.27 152.051 263.3 152.337C263.363 152.942 262.28 154.278 261.71 154.981C261.34 155.438 260.783 155.657 260.179 155.72C257.283 156.023 256.644 153.612 256.475 151.989C256.438 151.639 256.433 151.285 256.397 150.935ZM80.0181 206.67C80.0462 207.246 80.0709 207.79 80.1275 208.331C80.194 208.968 80.4548 209.616 80.5214 210.253C80.5546 210.571 80.4255 210.874 79.9799 210.921C79.3115 210.991 78.9503 207.843 78.794 206.347C78.7374 205.806 78.716 205.294 78.6628 204.785C78.563 203.83 77.4433 202.66 76.5522 202.753C76.0111 202.81 75.8985 203.272 75.9318 203.59C75.9884 204.131 76.0919 204.506 76.1385 204.952C76.4213 207.657 75.8553 212.092 73.2137 212.368C72.2907 212.465 71.4219 211.848 71.2821 210.511C71.2056 209.779 71.691 207.959 72.4548 207.879C72.7731 207.845 73.0828 208.038 73.1161 208.357C73.1893 209.057 72.5974 209.859 72.654 210.4C72.6839 210.686 72.9433 211.013 73.3889 210.966C75.203 210.777 75.2066 205.886 74.9704 203.626C74.8805 202.767 74.1874 202.292 72.9462 202.422C72.7553 202.442 72.5676 202.494 72.4085 202.51C72.0584 202.547 71.7301 202.485 71.6802 202.007C71.6436 201.657 71.8246 201.542 72.0792 201.515C72.2702 201.495 72.4996 201.536 72.7224 201.512C73.1362 201.469 73.5333 201.267 73.9152 201.227C75.2201 201.09 76.4357 201.639 77.7269 201.987C79.085 202.36 79.694 203.261 79.8404 204.661C79.8452 205.015 79.8784 205.333 79.915 205.683C79.9483 206.001 79.9849 206.352 80.0181 206.67ZM85.488 199.47C87.0794 199.304 88.5473 200.727 88.8238 202.757C89.117 204.947 90.035 209.419 92.0719 209.206C92.1674 209.196 92.2629 209.187 92.3265 209.18C92.613 209.15 92.8842 209.282 92.9208 209.633C92.9674 210.078 92.5318 210.22 92.1499 210.26C91.1951 210.36 90.4036 209.252 89.9262 209.302C89.7353 209.322 89.5609 209.501 89.3748 209.874C88.8665 210.861 88.0889 211.425 87.0387 211.534C85.1291 211.734 83.9372 210.797 83.7575 209.078C83.6111 207.678 85.4698 206.068 86.5838 205.951C86.9657 205.911 87.4797 206.212 87.8616 206.172C88.2117 206.135 88.4364 205.822 88.3965 205.44C88.1968 203.531 87.8442 200.157 85.3617 200.416C84.6615 200.49 84.1671 200.992 83.7781 201.579L83.5634 201.988C83.456 202.192 83.3135 202.368 83.0907 202.391C82.8361 202.418 82.5867 202.187 82.5668 201.996C82.4337 200.723 84.3456 199.622 85.488 199.47ZM87.1577 206.824C85.9516 206.983 84.8201 208.163 84.9266 209.181C85.0131 210.009 86.118 210.73 86.9773 210.64C88.0276 210.53 88.923 209.246 88.8165 208.228C88.72 207.305 88.0488 206.731 87.1577 206.824ZM97.8919 209.435L96.8839 199.791C96.8207 199.186 96.6031 198.952 95.9666 199.018C95.7438 199.042 95.5529 199.062 95.3301 199.085C94.8208 199.138 94.305 199.128 93.7492 198.735C93.6822 198.71 93.6152 198.685 93.5515 198.692C93.2969 198.718 92.9383 198.981 92.62 199.014C92.2063 199.057 91.1745 199.037 91.118 198.496C91.0814 198.146 91.3445 197.893 91.5355 197.873C91.631 197.863 91.7298 197.885 91.8286 197.907C93.6874 198.452 95.5889 197.867 97.4714 198.025C97.5702 198.046 97.6975 198.033 97.793 198.023C98.5887 197.94 99.3145 197.188 99.951 197.122C100.174 197.099 100.512 197.256 100.552 197.638C100.572 197.829 99.1844 198.714 98.3887 198.797C97.784 198.861 97.7285 199.252 97.785 199.794C98.0687 201.276 98.3723 202.95 98.5287 204.445C98.6551 205.655 98.6509 206.846 98.7773 208.055C98.8272 208.533 98.9408 209.003 98.9907 209.481C99.0273 209.831 98.9114 210.261 98.4658 210.308C98.0202 210.354 97.9551 210.039 97.9219 209.721C97.9119 209.626 97.9019 209.53 97.8919 209.435ZM109.085 203.889C109.205 205.035 109.324 206.18 109.444 207.326C109.494 207.804 109.371 208.17 108.799 208.23C108.226 208.29 108.109 207.788 108.066 207.374C107.819 205.019 107.672 202.685 107.432 200.394C107.369 199.789 107.117 199.526 106.575 199.582C105.589 199.686 104.702 200.132 103.78 200.229C102.984 200.312 101.495 200.532 101.401 199.641C101.355 199.195 101.784 198.989 102.166 198.95C102.93 198.87 103.71 198.949 104.474 198.869C105.842 198.726 107.082 198.275 108.061 197.175C108.261 196.929 108.467 196.746 108.722 196.72C109.04 196.687 109.624 197.044 109.671 197.489C109.684 197.617 109.634 197.751 109.548 197.856C108.661 198.914 108.587 200.048 108.703 201.162C108.8 202.085 108.992 202.998 109.085 203.889ZM116.244 197.06C117.846 196.989 119.812 197.33 119.925 198.412C120.045 199.558 117.578 201.199 116.209 201.342C115.541 201.412 114.565 201 113.96 201.063C113.674 201.093 113.535 201.3 113.571 201.65C113.777 203.624 116.009 205.578 117.441 205.429C118.937 205.272 120.298 203.521 121.272 202.068C121.415 201.892 121.561 201.748 121.752 201.728C122.07 201.695 122.393 202.015 122.419 202.27C122.436 202.429 122.389 202.595 122.272 202.704C120.961 204.321 119.792 206.373 117.405 206.623C114.891 206.886 112.561 203.686 112.299 201.172C112.056 198.849 113.465 197.865 116.244 197.06ZM116.381 198.365C115.751 198.495 114.417 198.666 114.501 199.462C114.663 200.088 115.564 200.091 116.009 200.044C116.391 200.004 118.02 199.577 117.94 198.813C117.863 198.081 117.056 198.358 116.381 198.365ZM132.412 197.429C132.569 198.925 132.286 201.142 134.163 200.946C137.028 200.646 136.706 198.492 136.501 195.296C136.487 195.169 136.474 195.042 136.461 194.914C136.411 194.437 136.438 194.08 137.075 194.014C137.616 193.957 137.773 194.23 137.809 194.58C137.992 196.331 137.87 198.242 138.05 199.96C138.176 201.17 138.462 202.363 138.84 203.514C138.87 203.8 138.967 204.112 138.997 204.398C139.033 204.748 138.949 205.175 138.344 205.238C136.721 205.408 138.046 201.151 136.073 201.358C135.436 201.424 134.684 201.921 133.952 201.997C133.888 202.004 133.856 202.007 133.793 202.014C133.283 202.067 133.094 202.409 133.14 202.854C133.2 203.427 133.684 204.052 133.737 204.562C133.78 204.975 133.534 205.387 132.993 205.444C132.388 205.507 132.023 205.095 131.96 204.49C131.637 201.403 131.321 198.379 131.005 195.356C130.952 194.847 130.966 194.363 131.507 194.306C132.08 194.246 132.215 194.618 132.255 195C132.338 195.796 132.297 196.636 132.317 197.439C132.349 197.435 132.381 197.432 132.412 197.429ZM143.92 193.362C145.511 193.196 146.979 194.619 147.255 196.649C147.549 198.839 148.467 203.312 150.504 203.099C150.599 203.089 150.695 203.079 150.758 203.072C151.045 203.042 151.316 203.175 151.352 203.525C151.399 203.97 150.963 204.112 150.582 204.152C149.627 204.252 148.835 203.144 148.358 203.194C148.167 203.214 147.993 203.393 147.806 203.767C147.298 204.753 146.521 205.317 145.47 205.427C143.561 205.626 142.369 204.689 142.189 202.97C142.043 201.57 143.901 199.96 145.015 199.844C145.397 199.804 145.911 200.104 146.293 200.064C146.643 200.027 146.868 199.714 146.828 199.332C146.628 197.423 146.276 194.049 143.793 194.309C143.093 194.382 142.599 194.884 142.21 195.472L141.995 195.88C141.888 196.084 141.745 196.26 141.522 196.283C141.268 196.31 141.018 196.079 140.998 195.888C140.865 194.615 142.777 193.514 143.92 193.362ZM145.589 200.717C144.383 200.875 143.252 202.055 143.358 203.073C143.445 203.901 144.55 204.622 145.409 204.532C146.459 204.422 147.355 203.138 147.248 202.12C147.152 201.197 146.48 200.624 145.589 200.717ZM152.14 197.78C152.05 197.532 151.988 197.249 151.958 196.962C151.868 196.103 151.953 195.064 151.846 194.046C151.83 193.887 151.81 193.696 151.793 193.537C151.64 192.073 153.466 191.689 154.676 191.562C156.012 191.423 157.149 192.14 157.295 193.541C157.375 194.305 156.766 196.17 156.057 197.081C155.886 197.292 155.807 197.461 155.82 197.588C155.84 197.779 156.009 197.858 156.43 197.878C157.595 197.949 159.368 199.212 159.451 200.008C159.618 201.599 157.618 203.706 155.836 203.893C155.008 203.979 153.331 202.707 152.864 201.629C152.366 200.555 152.529 199.348 152.14 197.78ZM155.577 198.643C155.325 198.702 155.106 198.757 154.915 198.777C154.597 198.81 154.166 198.694 154.113 198.185C154.04 197.485 156.475 195.847 156.249 193.682C156.159 192.823 155.65 192.265 154.727 192.361C153.167 192.524 152.821 194.137 152.954 195.41C153.027 196.11 153.164 196.804 153.238 197.504C153.239 197.826 153.272 198.144 153.305 198.462C153.385 199.226 153.554 199.916 154.19 200.461C154.299 200.578 154.376 200.699 154.389 200.826C154.422 201.145 153.879 201.491 153.913 201.809C153.986 202.509 155.58 202.986 156.153 202.926C156.949 202.843 158.465 201.655 158.329 200.35C158.209 199.204 156.468 198.55 155.577 198.643ZM168.495 199.738C168.675 201.457 167.173 203.094 165.486 203.27C165.009 203.32 162.051 203.339 161.925 202.13C161.918 202.066 161.94 201.968 161.965 201.901C162.292 201.03 162.301 200.192 162.211 199.333C162.115 198.41 161.923 197.497 161.826 196.574C161.653 194.919 161.646 193.923 161.536 192.261C161.493 191.847 161.803 191.429 162.185 191.389C162.503 191.356 162.731 191.686 162.758 191.94C162.774 192.099 162.731 192.297 162.652 192.466C162.308 193.178 162.326 193.658 162.383 194.199C162.406 194.422 162.432 194.677 162.459 194.932C162.482 195.154 162.477 195.412 162.507 195.699C162.549 195.791 162.559 195.886 162.569 195.982C162.605 196.332 162.518 196.727 162.555 197.077C162.591 197.427 162.892 197.846 163.306 197.803C163.911 197.74 164.318 197.022 165.05 196.945C166.61 196.782 168.329 198.147 168.495 199.738ZM163.535 200.61C163.542 200.674 163.549 200.738 163.555 200.801C163.672 201.915 164.308 202.46 165.326 202.354C166.44 202.237 167.707 200.818 167.594 199.736C167.491 198.749 166.319 198.003 165.205 198.119C164.028 198.242 163.417 199.175 163.535 200.61ZM171.426 200.075C171.083 198.02 170.833 196.244 170.633 194.334C170.547 193.507 170.46 192.679 170.396 191.753C170.382 191.626 170.337 191.502 170.321 191.343C170.297 191.12 170.346 190.664 170.792 190.618C171.142 190.581 171.5 190.93 171.527 191.185C171.57 191.598 171.228 192.02 171.274 192.466C171.291 192.625 171.308 192.784 171.356 192.94C171.918 196.163 172.573 198.733 172.932 202.17C172.962 202.456 172.935 202.813 172.49 202.86C171.598 202.953 171.463 200.425 171.426 200.075ZM176.671 192.802C176.828 194.298 176.545 196.516 178.422 196.319C181.287 196.02 180.965 193.866 180.76 190.67C180.746 190.543 180.733 190.415 180.72 190.288C180.67 189.811 180.697 189.454 181.333 189.387C181.874 189.331 182.032 189.604 182.068 189.954C182.251 191.704 182.129 193.615 182.309 195.334C182.435 196.543 182.721 197.736 183.099 198.887C183.129 199.174 183.225 199.485 183.255 199.772C183.292 200.122 183.208 200.549 182.603 200.612C180.98 200.782 182.305 196.525 180.331 196.731C179.695 196.798 178.943 197.295 178.211 197.371C178.147 197.378 178.115 197.381 178.051 197.388C177.542 197.441 177.353 197.783 177.399 198.228C177.459 198.801 177.943 199.426 177.996 199.935C178.039 200.349 177.793 200.761 177.252 200.818C176.647 200.881 176.282 200.468 176.219 199.864C175.896 196.777 175.58 193.753 175.264 190.729C175.211 190.22 175.225 189.736 175.766 189.68C176.339 189.62 176.474 189.992 176.514 190.374C176.597 191.169 176.556 192.01 176.576 192.812C176.608 192.809 176.639 192.806 176.671 192.802ZM189.858 189.107C192.436 188.838 195.042 191.3 195.259 193.369C195.478 195.47 192.905 198.86 190.263 199.136C188.481 199.322 186.268 197.848 186.085 196.098C185.981 195.111 186.433 194.195 186.619 193.21C186.631 193.016 186.834 192.802 186.817 192.643C186.791 192.388 186.238 192.028 186.215 191.805C186.175 191.423 186.661 191.147 186.959 190.923C187.797 190.32 188.324 189.203 189.374 189.094C189.533 189.077 189.696 189.092 189.858 189.107ZM190.09 198.092C192.661 197.759 194.336 195.621 194.083 193.202C193.89 191.356 192.531 190.051 190.971 190.214C188.712 190.45 186.964 194.043 187.137 195.698C187.293 197.194 188.498 198.258 190.09 198.092ZM197.989 194.242C197.93 193.991 197.872 193.739 197.842 193.453C197.579 190.939 199.09 186.92 201.89 186.627C202.463 186.567 203.115 186.95 203.208 187.841C203.254 188.286 202.936 188.931 202.522 188.974C202.076 189.021 201.596 188.427 201.15 188.474C199.623 188.634 198.798 192.13 199.014 194.199C199.21 196.077 200.19 198.066 201.559 197.923C202.959 197.776 203.447 195.055 204.147 194.982C204.497 194.945 204.862 195.357 204.892 195.644C204.955 196.249 203.872 197.584 203.302 198.288C202.932 198.745 202.376 198.964 201.771 199.027C198.875 199.329 198.236 196.919 198.067 195.296C198.03 194.946 198.025 194.592 197.989 194.242ZM83.4519 242.29C83.3655 243.618 83.4064 244.933 83.0203 246.164C82.4579 247.863 81.412 248.938 79.7485 249.337C78.7752 249.568 78.7262 250.023 78.8028 250.755C79.1397 252.747 79.0376 254.849 80.0329 256.675C80.1132 256.828 80.1617 256.984 80.1783 257.143C80.2182 257.525 79.9665 258.194 79.4573 258.248C78.8844 258.308 78.3338 257.657 78.2839 257.18C78.2207 256.575 78.2848 255.957 78.2216 255.352C78.0752 253.952 77.7378 252.572 77.5881 251.139C77.5515 250.789 77.5435 250.404 77.5069 250.054C77.3838 248.876 75.8684 248.23 75.7886 247.467C75.7353 246.957 77.0051 246.793 76.9119 245.901C76.8121 244.947 76.4881 243.693 76.0667 242.74C75.9831 242.556 75.928 242.336 75.9047 242.114C75.7084 240.236 77.2478 237.726 79.1256 237.53C81.2898 237.304 82.9078 239.548 83.4519 242.29ZM77.6 241.711C77.5478 242.135 77.5592 242.552 77.6025 242.966C77.7455 244.334 78.222 245.507 78.3584 246.812C78.4549 247.735 78.8549 248.176 79.4596 248.112C81.5601 247.893 82.3666 244.527 82.1437 242.394C81.994 240.962 81.1749 238.667 79.2971 238.863C78.5651 238.94 77.2983 239.748 77.3981 240.703C77.4214 240.925 77.5501 241.234 77.5767 241.488C77.59 241.616 77.6 241.711 77.6 241.711ZM88.2779 236.38C89.8692 236.214 91.3371 237.637 91.6137 239.667C91.9069 241.857 92.8249 246.329 94.8618 246.116C94.9573 246.106 95.0527 246.096 95.1164 246.09C95.4028 246.06 95.6741 246.192 95.7107 246.542C95.7573 246.988 95.3217 247.13 94.9397 247.17C93.9849 247.27 93.1935 246.162 92.7161 246.212C92.5251 246.232 92.3508 246.411 92.1646 246.784C91.6564 247.771 90.8788 248.335 89.8285 248.444C87.9189 248.644 86.727 247.707 86.5474 245.988C86.401 244.588 88.2597 242.978 89.3736 242.861C89.7556 242.821 90.2696 243.122 90.6515 243.082C91.0016 243.045 91.2262 242.732 91.1863 242.35C90.9867 240.441 90.6341 237.067 88.1516 237.326C87.4514 237.4 86.9569 237.902 86.5679 238.489L86.3532 238.898C86.2459 239.102 86.1034 239.278 85.8806 239.301C85.626 239.328 85.3766 239.096 85.3566 238.906C85.2235 237.632 87.1355 236.532 88.2779 236.38ZM89.9475 243.734C88.7414 243.893 87.61 245.073 87.7164 246.091C87.8029 246.919 88.9079 247.64 89.7672 247.55C90.8175 247.44 91.7128 246.156 91.6064 245.138C91.5099 244.215 90.8387 243.641 89.9475 243.734ZM96.2976 242.878C96.4941 239.833 97.2683 237.081 100.068 236.467C101.038 236.205 101.093 235.813 101.013 235.049C100.68 233.089 100.812 231.273 99.8164 229.447C99.7361 229.295 99.6876 229.139 99.6743 229.011C99.6311 228.598 99.8861 227.96 100.395 227.906C100.936 227.85 101.519 228.497 101.565 228.942C101.629 229.547 101.529 230.137 101.586 230.678C101.709 231.855 102.035 232.819 102.168 234.092C102.198 234.378 102.228 234.665 102.229 234.986C102.472 235.765 102.264 236.237 102.727 236.672C102.91 236.266 104.204 235.713 104.872 235.643C107.705 235.347 110.11 237.734 110.353 240.057C110.589 242.317 108.842 244.687 106.646 244.917C105.945 244.99 105.225 244.872 104.571 244.458C104.296 244.294 104.162 244.243 104.067 244.253C103.908 244.27 104.001 244.55 103.815 244.923C104.496 247.748 104.829 250.93 105.885 254.263C105.989 254.638 106.146 254.911 106.179 255.229C106.219 255.611 106.008 256.051 105.594 256.095C105.212 256.135 104.998 255.932 104.965 255.614C104.961 255.582 104.958 255.55 104.955 255.518L102.853 246.182C102.239 247.083 101.455 247.583 100.627 247.669C98.463 247.896 96.845 245.652 96.2976 242.878ZM102.616 239.611C102.953 241.603 104.311 244.131 106.38 243.915C108.162 243.729 109.582 242.229 109.376 240.256C109.16 238.187 107.267 236.39 105.092 236.521C103.079 236.957 102.457 238.083 102.616 239.611ZM102.149 243.456C102.17 243.036 102.162 242.651 102.125 242.301C102.002 241.123 101.594 240.297 101.458 238.992C101.361 238.069 100.964 237.66 100.36 237.723C98.3229 237.936 97.4428 241.214 97.6225 242.932C97.7489 244.142 98.5779 246.532 100.456 246.336C101.188 246.26 102.451 245.42 102.355 244.497C102.328 244.242 102.199 243.934 102.173 243.679C102.163 243.584 102.153 243.488 102.149 243.456ZM119.689 239.628C119.631 239.377 119.572 239.126 119.542 238.839C119.28 236.325 120.79 232.306 123.591 232.013C124.164 231.953 124.815 232.336 124.908 233.227C124.955 233.672 124.636 234.317 124.222 234.36C123.777 234.407 123.296 233.814 122.851 233.86C121.323 234.02 120.498 237.517 120.714 239.585C120.911 241.463 121.891 243.452 123.259 243.309C124.66 243.163 125.147 240.441 125.848 240.368C126.198 240.331 126.562 240.744 126.592 241.03C126.656 241.635 125.573 242.971 125.003 243.674C124.632 244.131 124.076 244.35 123.471 244.413C120.575 244.716 119.937 242.305 119.767 240.682C119.731 240.332 119.726 239.978 119.689 239.628ZM130.043 234.878C130.199 236.374 129.916 238.591 131.794 238.395C134.658 238.096 134.337 235.941 134.131 232.745C134.118 232.618 134.105 232.491 134.091 232.364C134.041 231.886 134.068 231.529 134.705 231.463C135.246 231.406 135.403 231.679 135.44 232.029C135.623 233.78 135.501 235.691 135.681 237.41C135.807 238.619 136.093 239.812 136.47 240.963C136.5 241.249 136.597 241.561 136.627 241.847C136.664 242.197 136.58 242.624 135.975 242.688C134.352 242.857 135.676 238.601 133.703 238.807C133.067 238.873 132.314 239.37 131.582 239.447C131.518 239.453 131.487 239.457 131.423 239.463C130.914 239.517 130.724 239.858 130.771 240.304C130.831 240.877 131.314 241.502 131.368 242.011C131.411 242.425 131.164 242.837 130.623 242.893C130.019 242.956 129.654 242.544 129.59 241.939C129.268 238.852 128.952 235.829 128.636 232.805C128.582 232.296 128.596 231.812 129.137 231.755C129.71 231.695 129.846 232.067 129.885 232.449C129.969 233.245 129.928 234.086 129.947 234.888C129.979 234.885 130.011 234.881 130.043 234.878ZM141.424 238.225C142.412 236.899 143.233 235.526 143.822 234.081C144.282 232.939 145.321 231.801 146.117 231.718C148.059 231.515 147.802 236.754 148.59 239.985C148.632 240.078 148.635 240.109 148.642 240.173C148.673 240.781 148.567 241.307 147.931 241.374C147.326 241.437 147.035 241.113 146.982 240.604C146.875 239.586 147.087 238.534 146.981 237.515C146.814 235.924 146.638 233.626 145.652 233.729C145.015 233.796 142.038 240.091 141.387 241.253C141.254 241.524 141.118 241.764 140.832 241.794C140.418 241.837 140.124 241.482 140.09 241.164C140.014 240.431 140.097 239.683 140.02 238.951C139.9 237.805 139.72 236.698 139.604 235.584C139.457 234.184 139.371 232.745 139.225 231.344C139.148 230.612 139.222 230.09 139.827 230.027C140.181 230.022 140.395 230.225 140.431 230.575C140.588 232.071 140.592 233.647 140.751 235.174C140.858 236.193 141.028 237.205 141.424 238.225ZM151.861 235.911C151.693 235.221 151.581 234.461 151.498 233.665C151.378 232.519 151.058 228.531 151.79 228.454C152.044 228.428 152.354 228.621 152.374 228.812C152.392 229.292 152.477 229.798 152.4 230.289C152.198 231.436 152.294 232.97 152.404 234.021C152.427 234.243 152.552 234.52 152.871 234.487C153.062 234.467 153.176 234.326 153.254 234.157C154.39 232.397 155.995 231.136 157.114 229.217C157.224 229.045 157.392 228.802 157.615 228.779C157.869 228.752 158.059 229.022 158.072 229.149C158.182 230.199 153.864 233.836 153.981 234.95C154.12 236.286 158.959 239.481 158.979 239.672C159.005 239.926 158.739 240.147 158.516 240.171C158.261 240.197 157.958 240.068 157.783 239.925C156.214 238.77 154.791 237.471 153.539 235.961C153.389 235.752 153.26 235.443 152.974 235.473C152.687 235.503 152.58 235.708 152.6 235.898C152.736 237.203 153.434 238.643 153.57 239.948C153.6 240.234 153.509 240.597 153.032 240.647C152.745 240.677 152.617 240.369 152.59 240.114C152.573 239.955 152.585 239.761 152.569 239.602C152.462 238.583 152.002 237.57 151.873 236.328C151.859 236.201 151.878 236.07 151.861 235.911ZM164.07 229.262C165.671 229.191 167.638 229.533 167.751 230.615C167.87 231.76 165.404 233.402 164.035 233.545C163.367 233.615 162.391 233.202 161.786 233.265C161.499 233.295 161.36 233.503 161.397 233.853C161.603 235.826 163.834 237.781 165.267 237.631C166.762 237.475 168.124 235.724 169.098 234.27C169.241 234.095 169.386 233.951 169.577 233.931C169.896 233.898 170.219 234.218 170.245 234.472C170.262 234.631 170.215 234.797 170.098 234.906C168.787 236.523 167.618 238.576 165.231 238.825C162.716 239.088 160.387 235.889 160.124 233.375C159.881 231.051 161.291 230.067 164.07 229.262ZM164.206 230.567C163.577 230.697 162.243 230.869 162.326 231.664C162.488 232.291 163.39 232.293 163.835 232.247C164.217 232.207 165.845 231.779 165.766 231.015C165.689 230.283 164.881 230.561 164.206 230.567ZM173.96 242.739C173.165 238.832 172.312 234.675 171.774 230.452C171.645 229.21 171.366 226.858 171.908 226.802C172.229 226.8 172.475 227 172.502 227.255C172.545 227.668 172.369 228.137 172.412 228.551C172.465 229.06 172.611 229.528 172.664 230.037C172.694 230.323 172.667 230.68 172.697 230.966C172.916 233.067 174.97 235.78 176.593 235.611C178.375 235.424 179.686 233.807 179.493 231.961C179.277 229.893 177.384 228.096 175.21 228.226C174.509 228.3 174.197 229.008 173.688 229.061C173.465 229.084 173.124 228.895 173.09 228.577C173.024 227.94 174.289 227.422 174.989 227.349C177.822 227.052 180.227 229.439 180.47 231.763C180.696 233.927 179.158 236.147 177.026 236.37C176.23 236.453 175.408 236.281 174.655 235.845C174.45 235.738 174.278 235.627 174.055 235.651C173.705 235.687 173.512 235.997 173.542 236.283C173.552 236.379 173.559 236.442 173.597 236.503C174.005 237.329 174.159 238.182 174.252 239.073C174.305 239.582 174.327 240.094 174.38 240.604C174.583 242.545 175.476 244.318 175.675 246.227C175.699 246.45 175.69 246.676 175.714 246.899C175.76 247.345 176.408 247.695 176.475 248.332C176.521 248.777 176.387 249.338 175.878 249.392C175.496 249.432 175.281 249.229 175.248 248.91C175.231 248.751 175.215 248.592 175.198 248.433C175.015 246.683 174.174 245.097 173.974 243.188C173.958 243.029 173.976 242.898 173.96 242.739ZM184.034 231.261C184.019 231.424 184.032 231.551 184.046 231.678C184.195 233.111 185.787 235.1 187.474 234.924C187.633 234.907 187.789 234.859 187.948 234.842C188.393 234.795 188.789 234.883 188.832 235.296C188.902 235.965 188.476 236.202 188.031 236.249C184.816 236.585 182.901 233.342 182.611 230.574C182.422 228.759 182.893 227.423 184.771 227.227C185.598 227.14 186.821 227.753 186.917 228.676C186.957 229.058 186.573 229.387 186.287 229.417C185.714 229.477 185.306 228.651 184.733 228.711C184.16 228.771 183.8 229.323 183.913 230.405C183.939 230.66 183.969 230.946 184.034 231.261ZM202.451 225.765C202.582 225.783 202.677 225.773 202.805 225.76C205.319 225.497 206.208 221.994 205.968 219.702C205.788 217.984 205.049 216.452 203.012 216.665C201.707 216.802 199.65 218.046 198.821 219.356C198.654 219.598 198.457 219.876 198.139 219.909C197.916 219.933 197.617 219.835 197.59 219.581C197.573 219.422 197.687 219.281 197.801 219.14C199.22 217.319 200.949 216.012 203.368 215.759C205.023 215.586 206.667 217.152 206.86 218.998C207.109 221.385 206.538 223.922 204.999 225.82C204.771 226.102 204.66 226.274 204.673 226.401C204.693 226.592 204.901 226.731 205.402 226.904C207.213 227.616 209.636 229.55 209.845 231.556C210.095 233.943 207.03 235.711 204.802 235.944C201.078 236.333 198.437 233.842 196.299 231.234C196.186 231.085 196.074 230.936 196.058 230.777C196.034 230.554 196.323 230.234 196.641 230.201C196.991 230.164 197.244 230.428 197.485 230.885C198.673 233.946 201.845 235.352 204.9 235.033C206.555 234.86 208.889 233.489 208.683 231.516C208.443 229.225 204.554 226.8 202.645 226.999C202.295 227.036 201.983 227.133 201.665 227.166C201.283 227.206 200.983 227.109 200.923 226.536C200.867 225.995 201.207 225.863 201.525 225.83C201.843 225.796 202.133 225.798 202.451 225.765ZM218.992 229.248C218.934 228.997 218.875 228.746 218.845 228.459C218.582 225.945 220.093 221.926 222.893 221.633C223.466 221.573 224.118 221.956 224.211 222.847C224.257 223.292 223.939 223.937 223.525 223.98C223.079 224.027 222.599 223.434 222.153 223.48C220.626 223.64 219.801 227.137 220.017 229.205C220.213 231.083 221.193 233.072 222.562 232.929C223.962 232.783 224.45 230.061 225.15 229.988C225.5 229.951 225.865 230.364 225.895 230.65C225.958 231.255 224.875 232.591 224.305 233.294C223.935 233.751 223.379 233.97 222.774 234.033C219.878 234.336 219.24 231.925 219.07 230.302C219.033 229.952 219.029 229.598 218.992 229.248ZM233.835 228.051C233.955 229.196 234.075 230.342 234.194 231.488C234.244 231.965 234.122 232.332 233.549 232.392C232.976 232.452 232.859 231.949 232.816 231.535C232.57 229.18 232.422 226.847 232.183 224.555C232.12 223.951 231.867 223.688 231.326 223.744C230.339 223.847 229.453 224.294 228.53 224.39C227.734 224.473 226.245 224.693 226.152 223.802C226.105 223.357 226.534 223.151 226.916 223.111C227.68 223.031 228.46 223.111 229.224 223.031C230.593 222.888 231.833 222.436 232.812 221.337C233.011 221.09 233.217 220.908 233.472 220.881C233.79 220.848 234.374 221.205 234.421 221.651C234.434 221.778 234.384 221.912 234.298 222.018C233.412 223.076 233.337 224.209 233.454 225.323C233.55 226.246 233.742 227.159 233.835 228.051ZM241.414 220.92C243.992 220.651 246.598 223.113 246.814 225.182C247.034 227.282 244.46 230.672 241.818 230.948C240.036 231.135 237.823 229.661 237.64 227.91C237.537 226.924 237.988 226.008 238.175 225.023C238.187 224.829 238.389 224.614 238.373 224.455C238.346 224.201 237.794 223.84 237.77 223.617C237.73 223.235 238.216 222.959 238.515 222.735C239.353 222.133 239.879 221.016 240.93 220.906C241.089 220.89 241.251 220.905 241.414 220.92ZM241.645 229.905C244.216 229.572 245.891 227.434 245.638 225.015C245.445 223.169 244.086 221.863 242.527 222.026C240.267 222.262 238.519 225.856 238.692 227.511C238.848 229.007 240.054 230.071 241.645 229.905ZM254.749 220.137C254.52 220.097 254.322 220.053 254.163 220.07C253.558 220.133 253.622 220.738 253.568 221.451C253.364 224.433 253.687 227.52 250.912 229.901C250.56 230.228 250.092 230.373 249.647 230.42C248.628 230.526 246.986 229.893 246.856 228.652C246.806 228.175 247.58 227.579 248.058 227.529C248.344 227.499 248.753 227.714 248.782 228C248.812 228.287 248.566 228.699 248.586 228.89C248.622 229.24 249.046 229.292 249.492 229.245C250.86 229.102 251.528 228.099 252.054 226.983C252.707 225.531 252.745 223.436 252.586 221.908C252.516 221.24 251.566 221.081 251.506 220.509C251.46 220.063 252.214 219.276 252.755 219.22C252.914 219.203 253.077 219.218 253.236 219.202C253.872 219.135 254.489 218.878 255.125 218.811C256.462 218.671 257.358 219.543 257.484 220.752C257.504 220.943 257.492 221.138 257.48 221.332C257.381 222.533 257.44 223.717 257.566 224.926C257.606 225.308 257.681 225.719 257.721 226.101C257.801 226.865 257.652 227.588 257.731 228.352C257.771 228.734 257.512 229.018 257.161 229.055C256.748 229.098 256.565 228.892 256.542 228.669C256.529 228.542 256.576 228.376 256.623 228.21C257.006 226.948 257.006 225.725 256.877 224.484C256.774 223.497 256.607 222.517 256.504 221.531C256.48 221.308 256.457 221.085 256.43 220.83C256.354 220.098 255.888 219.954 255.379 220.007C255.188 220.027 254.969 220.082 254.749 220.137Z" fill="black"/>
</svg>
