<svg width="791" height="373" viewBox="0 0 791 373" fill="none" xmlns="http://www.w3.org/2000/svg">
<rect x="2.5" y="2.5" width="786" height="367.822" rx="27.5" fill="#FFC4D6" stroke="black" stroke-width="5"/>
<path d="M606.857 20.8635L606.857 351.959" stroke="black" stroke-width="5" stroke-linecap="round" stroke-dasharray="10 10"/>
<path d="M95.24 115.344C97.352 115.344 99.08 115.664 100.424 116.304C101.8 116.912 103.016 117.632 104.072 118.464C104.712 118.944 105.192 119.008 105.512 118.656C105.864 118.272 106.104 117.392 106.232 116.016H107.336C107.272 117.232 107.224 118.704 107.192 120.432C107.16 122.128 107.144 124.4 107.144 127.248H106.04C105.816 125.84 105.592 124.688 105.368 123.792C105.176 122.896 104.904 122.128 104.552 121.488C104.232 120.848 103.784 120.224 103.208 119.616C102.28 118.464 101.144 117.632 99.8 117.12C98.456 116.608 97.032 116.352 95.528 116.352C93.896 116.352 92.456 116.768 91.208 117.6C89.96 118.4 88.904 119.552 88.04 121.056C87.208 122.56 86.568 124.336 86.12 126.384C85.672 128.432 85.448 130.672 85.448 133.104C85.448 135.6 85.688 137.872 86.168 139.92C86.648 141.936 87.336 143.68 88.232 145.152C89.16 146.592 90.264 147.712 91.544 148.512C92.856 149.28 94.312 149.664 95.912 149.664C97.224 149.664 98.584 149.408 99.992 148.896C101.4 148.352 102.52 147.536 103.352 146.448C104.248 145.488 104.856 144.416 105.176 143.232C105.528 142.016 105.816 140.368 106.04 138.288H107.144C107.144 141.232 107.16 143.616 107.192 145.44C107.224 147.232 107.272 148.752 107.336 150H106.232C106.104 148.624 105.88 147.76 105.56 147.408C105.272 147.056 104.776 147.104 104.072 147.552C102.888 148.384 101.624 149.12 100.28 149.76C98.968 150.368 97.272 150.672 95.192 150.672C92.024 150.672 89.256 149.984 86.888 148.608C84.52 147.232 82.68 145.248 81.368 142.656C80.056 140.064 79.4 136.944 79.4 133.296C79.4 129.712 80.072 126.576 81.416 123.888C82.792 121.2 84.664 119.104 87.032 117.6C89.4 116.096 92.136 115.344 95.24 115.344ZM133.08 124.56C134.36 124.56 135.272 124.864 135.816 125.472C136.36 126.08 136.632 126.784 136.632 127.584C136.632 128.448 136.376 129.152 135.864 129.696C135.352 130.24 134.648 130.512 133.752 130.512C133.176 130.512 132.648 130.384 132.168 130.128C131.688 129.872 131.304 129.504 131.016 129.024C130.728 128.544 130.584 127.968 130.584 127.296C130.584 127.104 130.632 126.912 130.728 126.72C130.824 126.496 130.968 126.32 131.16 126.192C130.648 126.32 130.232 126.608 129.912 127.056C129.592 127.472 129.288 128.064 129 128.832C128.712 129.568 128.376 130.496 127.992 131.616C127.704 132.48 127.368 133.312 126.984 134.112C126.6 134.88 126.056 135.536 125.352 136.08C124.68 136.592 123.736 136.928 122.52 137.088L122.856 136.752C124.968 136.624 126.76 136.8 128.232 137.28C129.736 137.76 130.904 138.624 131.736 139.872C132.312 140.704 132.776 141.728 133.128 142.944C133.512 144.16 133.928 145.296 134.376 146.352C134.728 147.152 135.112 147.776 135.528 148.224C135.976 148.64 136.664 148.896 137.592 148.992V150C137.08 150.096 136.552 150.176 136.008 150.24C135.464 150.304 134.952 150.336 134.472 150.336C132.904 150.336 131.704 149.984 130.872 149.28C130.072 148.576 129.496 147.552 129.144 146.208C128.984 145.696 128.792 145.056 128.568 144.288C128.376 143.488 128.104 142.688 127.752 141.888C127.432 141.056 127.048 140.352 126.6 139.776C125.96 138.88 125.112 138.288 124.056 138C123.032 137.712 121.704 137.6 120.072 137.664V136.848C121.768 136.752 123.064 136.464 123.96 135.984C124.856 135.504 125.544 134.832 126.024 133.968C126.504 133.104 126.952 132.048 127.368 130.8C127.688 129.776 128.04 128.784 128.424 127.824C128.808 126.864 129.352 126.08 130.056 125.472C130.792 124.864 131.8 124.56 133.08 124.56ZM123.336 125.28V126.288C122.216 126.288 121.416 126.528 120.936 127.008C120.488 127.488 120.264 128.4 120.264 129.744V145.536C120.264 146.88 120.488 147.792 120.936 148.272C121.416 148.752 122.216 148.992 123.336 148.992V150C122.792 149.968 121.976 149.936 120.888 149.904C119.8 149.84 118.696 149.808 117.576 149.808C116.488 149.808 115.368 149.84 114.216 149.904C113.064 149.936 112.2 149.968 111.624 150V148.992C112.872 148.992 113.752 148.752 114.264 148.272C114.808 147.792 115.08 146.88 115.08 145.536V129.744C115.08 128.4 114.808 127.488 114.264 127.008C113.752 126.528 112.872 126.288 111.624 126.288V125.28C112.2 125.312 113.064 125.36 114.216 125.424C115.4 125.456 116.552 125.472 117.672 125.472C118.76 125.472 119.848 125.456 120.936 125.424C122.024 125.36 122.824 125.312 123.336 125.28ZM167.637 125.28V126.288C166.389 126.288 165.493 126.528 164.949 127.008C164.437 127.488 164.181 128.4 164.181 129.744V145.536C164.181 146.88 164.437 147.792 164.949 148.272C165.493 148.752 166.389 148.992 167.637 148.992V150C167.093 149.968 166.245 149.936 165.093 149.904C163.941 149.84 162.805 149.808 161.685 149.808C160.597 149.808 159.509 149.84 158.421 149.904C157.365 149.936 156.565 149.968 156.021 150V148.992C157.109 148.992 157.877 148.752 158.325 148.272C158.773 147.792 158.997 146.88 158.997 145.536V129.744C158.997 128.4 158.773 127.488 158.325 127.008C157.877 126.528 157.109 126.288 156.021 126.288V125.28C156.565 125.312 157.349 125.36 158.373 125.424C159.429 125.456 160.501 125.472 161.589 125.472C162.709 125.472 163.845 125.456 164.997 125.424C166.181 125.36 167.061 125.312 167.637 125.28ZM151.365 125.28V126.288C150.309 126.288 149.541 126.528 149.061 127.008C148.613 127.488 148.389 128.4 148.389 129.744V145.536C148.389 146.88 148.613 147.792 149.061 148.272C149.541 148.752 150.309 148.992 151.365 148.992V150C150.853 149.968 150.069 149.936 149.013 149.904C147.989 149.84 146.917 149.808 145.797 149.808C144.709 149.808 143.573 149.84 142.389 149.904C141.205 149.936 140.325 149.968 139.749 150V148.992C140.997 148.992 141.877 148.752 142.389 148.272C142.933 147.792 143.205 146.88 143.205 145.536V129.744C143.205 128.4 142.933 127.488 142.389 127.008C141.877 126.528 140.997 126.288 139.749 126.288V125.28C140.325 125.312 141.189 125.36 142.341 125.424C143.493 125.456 144.613 125.472 145.701 125.472C146.821 125.472 147.909 125.456 148.965 125.424C150.053 125.36 150.853 125.312 151.365 125.28ZM159.525 128.496L160.293 129.024L147.717 147.648L146.901 147.072L159.525 128.496ZM192.825 125.28V126.288C191.609 126.288 190.745 126.528 190.233 127.008C189.721 127.488 189.465 128.4 189.465 129.744V145.536C189.465 146.88 189.721 147.792 190.233 148.272C190.777 148.752 191.881 148.992 193.545 148.992C193.417 150.112 193.321 151.184 193.257 152.208C193.225 153.232 193.209 154.016 193.209 154.56C193.209 155.136 193.225 155.68 193.257 156.192C193.289 156.736 193.321 157.184 193.353 157.536H192.249C192.025 155.648 191.737 154.128 191.385 152.976C191.033 151.856 190.489 151.056 189.753 150.576C189.049 150.096 188.025 149.856 186.681 149.856C185.913 149.856 185.193 149.872 184.521 149.904C183.881 149.904 183.177 149.92 182.409 149.952C181.641 149.952 180.761 149.968 179.769 150C178.777 150 177.577 150 176.169 150C174.825 150 173.785 150.224 173.049 150.672C172.313 151.152 171.769 151.936 171.417 153.024C171.065 154.144 170.793 155.648 170.601 157.536H169.497C169.561 157.184 169.593 156.736 169.593 156.192C169.625 155.68 169.641 155.136 169.641 154.56C169.641 154.016 169.609 153.232 169.545 152.208C169.513 151.184 169.433 150.112 169.305 148.992H181.113C182.265 148.992 183.081 148.752 183.561 148.272C184.041 147.792 184.281 146.88 184.281 145.536V129.744C184.281 128.4 184.057 127.488 183.609 127.008C183.161 126.528 182.393 126.288 181.305 126.288H180.873C179.753 126.288 179.001 126.544 178.617 127.056C178.265 127.536 178.025 128.432 177.897 129.744C177.769 131.536 177.593 133.392 177.369 135.312C177.177 137.2 176.905 139.04 176.553 140.832C176.233 142.592 175.769 144.192 175.161 145.632C174.745 146.624 174.201 147.504 173.529 148.272C172.889 149.008 172.041 149.456 170.985 149.616L170.217 148.992C171.241 148.992 172.089 148.624 172.761 147.888C173.465 147.152 173.993 146.32 174.345 145.392C174.889 143.984 175.321 142.432 175.641 140.736C175.993 139.04 176.281 137.264 176.505 135.408C176.729 133.52 176.905 131.632 177.033 129.744C177.129 128.4 176.841 127.488 176.169 127.008C175.529 126.528 174.553 126.288 173.241 126.288V125.28C173.497 125.312 173.897 125.36 174.441 125.424C175.017 125.456 175.689 125.472 176.457 125.472C177.225 125.472 178.009 125.44 178.809 125.376C179.609 125.312 180.489 125.28 181.449 125.28C182.473 125.28 183.385 125.312 184.185 125.376C184.985 125.44 185.913 125.472 186.969 125.472C188.057 125.472 189.161 125.456 190.281 125.424C191.401 125.36 192.249 125.312 192.825 125.28ZM217.268 124.56C218.548 124.56 219.46 124.864 220.004 125.472C220.548 126.08 220.82 126.784 220.82 127.584C220.82 128.448 220.564 129.152 220.052 129.696C219.54 130.24 218.836 130.512 217.94 130.512C217.364 130.512 216.836 130.384 216.356 130.128C215.876 129.872 215.492 129.504 215.204 129.024C214.916 128.544 214.772 127.968 214.772 127.296C214.772 127.104 214.82 126.912 214.916 126.72C215.012 126.496 215.156 126.32 215.348 126.192C214.836 126.32 214.42 126.608 214.1 127.056C213.78 127.472 213.476 128.064 213.188 128.832C212.9 129.568 212.564 130.496 212.18 131.616C211.892 132.48 211.556 133.312 211.172 134.112C210.788 134.88 210.244 135.536 209.54 136.08C208.868 136.592 207.924 136.928 206.708 137.088L207.044 136.752C209.156 136.624 210.948 136.8 212.42 137.28C213.924 137.76 215.092 138.624 215.924 139.872C216.5 140.704 216.964 141.728 217.316 142.944C217.7 144.16 218.116 145.296 218.564 146.352C218.916 147.152 219.3 147.776 219.716 148.224C220.164 148.64 220.852 148.896 221.78 148.992V150C221.268 150.096 220.74 150.176 220.196 150.24C219.652 150.304 219.14 150.336 218.66 150.336C217.092 150.336 215.892 149.984 215.06 149.28C214.26 148.576 213.684 147.552 213.332 146.208C213.172 145.696 212.98 145.056 212.756 144.288C212.564 143.488 212.292 142.688 211.94 141.888C211.62 141.056 211.236 140.352 210.788 139.776C210.148 138.88 209.3 138.288 208.244 138C207.22 137.712 205.892 137.6 204.26 137.664V136.848C205.956 136.752 207.252 136.464 208.148 135.984C209.044 135.504 209.732 134.832 210.212 133.968C210.692 133.104 211.14 132.048 211.556 130.8C211.876 129.776 212.228 128.784 212.612 127.824C212.996 126.864 213.54 126.08 214.244 125.472C214.98 124.864 215.988 124.56 217.268 124.56ZM207.524 125.28V126.288C206.404 126.288 205.604 126.528 205.124 127.008C204.676 127.488 204.452 128.4 204.452 129.744V145.536C204.452 146.88 204.676 147.792 205.124 148.272C205.604 148.752 206.404 148.992 207.524 148.992V150C206.98 149.968 206.164 149.936 205.076 149.904C203.988 149.84 202.884 149.808 201.764 149.808C200.676 149.808 199.556 149.84 198.404 149.904C197.252 149.936 196.388 149.968 195.812 150V148.992C197.06 148.992 197.94 148.752 198.452 148.272C198.996 147.792 199.268 146.88 199.268 145.536V129.744C199.268 128.4 198.996 127.488 198.452 127.008C197.94 126.528 197.06 126.288 195.812 126.288V125.28C196.388 125.312 197.252 125.36 198.404 125.424C199.588 125.456 200.74 125.472 201.86 125.472C202.948 125.472 204.036 125.456 205.124 125.424C206.212 125.36 207.012 125.312 207.524 125.28ZM230.705 150.336C229.361 150.336 228.209 150.08 227.249 149.568C226.289 149.056 225.569 148.352 225.089 147.456C224.609 146.56 224.369 145.536 224.369 144.384C224.369 142.976 224.689 141.84 225.329 140.976C225.969 140.08 226.785 139.36 227.777 138.816C228.801 138.272 229.873 137.824 230.993 137.472C232.145 137.088 233.217 136.736 234.209 136.416C235.233 136.064 236.065 135.664 236.705 135.216C237.377 134.768 237.713 134.176 237.713 133.44V130.176C237.713 129.024 237.521 128.112 237.137 127.44C236.785 126.736 236.289 126.24 235.649 125.952C235.041 125.664 234.305 125.52 233.441 125.52C232.705 125.52 231.921 125.632 231.089 125.856C230.257 126.048 229.601 126.448 229.121 127.056C229.825 127.248 230.401 127.632 230.849 128.208C231.329 128.752 231.569 129.44 231.569 130.272C231.569 131.168 231.265 131.872 230.657 132.384C230.081 132.896 229.345 133.152 228.449 133.152C227.457 133.152 226.721 132.848 226.241 132.24C225.761 131.6 225.521 130.864 225.521 130.032C225.521 129.168 225.729 128.464 226.145 127.92C226.593 127.376 227.169 126.864 227.873 126.384C228.641 125.872 229.617 125.44 230.801 125.088C232.017 124.736 233.361 124.56 234.833 124.56C236.209 124.56 237.393 124.72 238.385 125.04C239.409 125.328 240.257 125.808 240.929 126.48C241.729 127.216 242.257 128.144 242.513 129.264C242.769 130.352 242.897 131.68 242.897 133.248V146.496C242.897 147.296 242.993 147.872 243.185 148.224C243.409 148.544 243.761 148.704 244.241 148.704C244.561 148.704 244.865 148.624 245.153 148.464C245.473 148.304 245.841 148.064 246.257 147.744L246.737 148.56C246.065 149.104 245.377 149.536 244.673 149.856C244.001 150.176 243.137 150.336 242.081 150.336C241.057 150.336 240.225 150.176 239.585 149.856C238.945 149.536 238.465 149.072 238.145 148.464C237.857 147.856 237.713 147.104 237.713 146.208C236.881 147.552 235.889 148.576 234.737 149.28C233.585 149.984 232.241 150.336 230.705 150.336ZM233.009 148.032C233.905 148.032 234.737 147.776 235.505 147.264C236.305 146.752 237.041 145.984 237.713 144.96V135.408C237.361 135.92 236.849 136.368 236.177 136.752C235.505 137.104 234.785 137.472 234.017 137.856C233.249 138.24 232.513 138.688 231.809 139.2C231.137 139.68 230.577 140.304 230.129 141.072C229.681 141.84 229.457 142.816 229.457 144C229.457 145.248 229.777 146.24 230.417 146.976C231.057 147.68 231.921 148.032 233.009 148.032ZM282.45 125.28V126.288C281.234 126.288 280.37 126.528 279.858 127.008C279.346 127.488 279.09 128.4 279.09 129.744V145.536C279.09 146.88 279.346 147.792 279.858 148.272C280.402 148.752 281.506 148.992 283.17 148.992C283.042 150.112 282.946 151.184 282.882 152.208C282.85 153.232 282.834 154.016 282.834 154.56C282.834 155.136 282.85 155.68 282.882 156.192C282.914 156.736 282.946 157.184 282.978 157.536H281.874C281.65 155.648 281.362 154.128 281.01 152.976C280.658 151.856 280.114 151.056 279.378 150.576C278.674 150.096 277.65 149.856 276.306 149.856C275.538 149.856 274.818 149.872 274.146 149.904C273.506 149.904 272.802 149.92 272.034 149.952C271.266 149.952 270.386 149.968 269.394 150C268.402 150 267.202 150 265.794 150C264.45 150 263.41 150.224 262.674 150.672C261.938 151.152 261.394 151.936 261.042 153.024C260.69 154.144 260.418 155.648 260.226 157.536H259.122C259.186 157.184 259.218 156.736 259.218 156.192C259.25 155.68 259.266 155.136 259.266 154.56C259.266 154.016 259.234 153.232 259.17 152.208C259.138 151.184 259.058 150.112 258.93 148.992H270.738C271.89 148.992 272.706 148.752 273.186 148.272C273.666 147.792 273.906 146.88 273.906 145.536V129.744C273.906 128.4 273.682 127.488 273.234 127.008C272.786 126.528 272.018 126.288 270.93 126.288H270.498C269.378 126.288 268.626 126.544 268.242 127.056C267.89 127.536 267.65 128.432 267.522 129.744C267.394 131.536 267.218 133.392 266.994 135.312C266.802 137.2 266.53 139.04 266.178 140.832C265.858 142.592 265.394 144.192 264.786 145.632C264.37 146.624 263.826 147.504 263.154 148.272C262.514 149.008 261.666 149.456 260.61 149.616L259.842 148.992C260.866 148.992 261.714 148.624 262.386 147.888C263.09 147.152 263.618 146.32 263.97 145.392C264.514 143.984 264.946 142.432 265.266 140.736C265.618 139.04 265.906 137.264 266.13 135.408C266.354 133.52 266.53 131.632 266.658 129.744C266.754 128.4 266.466 127.488 265.794 127.008C265.154 126.528 264.178 126.288 262.866 126.288V125.28C263.122 125.312 263.522 125.36 264.066 125.424C264.642 125.456 265.314 125.472 266.082 125.472C266.85 125.472 267.634 125.44 268.434 125.376C269.234 125.312 270.114 125.28 271.074 125.28C272.098 125.28 273.01 125.312 273.81 125.376C274.61 125.44 275.538 125.472 276.594 125.472C277.682 125.472 278.786 125.456 279.906 125.424C281.026 125.36 281.874 125.312 282.45 125.28ZM310.446 125.28V126.288C309.23 126.288 308.366 126.528 307.854 127.008C307.342 127.488 307.086 128.4 307.086 129.744V145.536C307.086 146.88 307.342 147.792 307.854 148.272C308.398 148.752 309.262 148.992 310.446 148.992V150C309.902 149.968 309.086 149.936 307.998 149.904C306.942 149.84 305.774 149.808 304.494 149.808C303.246 149.808 301.966 149.84 300.654 149.904C299.374 149.936 298.382 149.968 297.678 150V148.992C299.054 148.992 300.094 148.768 300.798 148.32C301.534 147.84 301.902 146.912 301.902 145.536V129.744C301.902 128.4 301.678 127.488 301.23 127.008C300.782 126.528 300.014 126.288 298.926 126.288H298.494C297.694 126.288 297.166 126.544 296.91 127.056C296.686 127.536 296.51 128.432 296.382 129.744C296.126 132.72 295.806 135.568 295.422 138.288C295.07 141.008 294.462 143.456 293.598 145.632C293.246 146.464 292.814 147.28 292.302 148.08C291.822 148.848 291.23 149.472 290.526 149.952C289.854 150.432 289.054 150.672 288.126 150.672C287.518 150.672 286.926 150.544 286.35 150.288C285.774 150.064 285.294 149.712 284.91 149.232C284.526 148.72 284.334 148.08 284.334 147.312C284.334 146.352 284.606 145.616 285.15 145.104C285.726 144.56 286.462 144.288 287.358 144.288C288.158 144.288 288.814 144.528 289.326 145.008C289.838 145.488 290.094 146.144 290.094 146.976C290.094 147.648 289.902 148.224 289.518 148.704C289.134 149.184 288.59 149.568 287.886 149.856C287.95 149.888 288.03 149.904 288.126 149.904C288.254 149.904 288.35 149.904 288.414 149.904C289.182 149.904 289.838 149.664 290.382 149.184C290.958 148.672 291.438 148.064 291.822 147.36C292.238 146.656 292.558 146 292.782 145.392C293.326 144.048 293.758 142.528 294.078 140.832C294.43 139.136 294.718 137.344 294.942 135.456C295.166 133.568 295.342 131.664 295.47 129.744C295.566 128.4 295.278 127.488 294.606 127.008C293.966 126.528 292.99 126.288 291.678 126.288V125.28C291.934 125.312 292.334 125.36 292.878 125.424C293.454 125.456 294.126 125.472 294.894 125.472C295.534 125.472 296.19 125.472 296.862 125.472C297.534 125.44 298.27 125.424 299.07 125.424C299.774 125.424 300.398 125.44 300.942 125.472C301.518 125.472 302.094 125.472 302.67 125.472C303.278 125.472 303.934 125.472 304.638 125.472C305.342 125.472 306.062 125.456 306.798 125.424C307.566 125.392 308.27 125.36 308.91 125.328C309.582 125.296 310.094 125.28 310.446 125.28ZM336.996 125.28V126.288C335.812 126.288 334.948 126.528 334.404 127.008C333.892 127.488 333.636 128.4 333.636 129.744V145.536C333.636 146.88 333.86 147.792 334.308 148.272C334.788 148.752 335.556 148.992 336.612 148.992V150C336.1 149.968 335.316 149.936 334.26 149.904C333.236 149.84 332.164 149.808 331.044 149.808C329.956 149.808 328.836 149.84 327.684 149.904C326.532 149.936 325.668 149.968 325.092 150V148.992C326.308 148.992 327.172 148.752 327.684 148.272C328.196 147.792 328.452 146.88 328.452 145.536V129.408C328.452 128.256 328.228 127.456 327.78 127.008C327.332 126.528 326.532 126.288 325.38 126.288C323.972 126.288 322.9 126.56 322.164 127.104C321.428 127.616 320.932 128.288 320.676 129.12C320.42 129.952 320.292 130.864 320.292 131.856C320.292 133.936 320.772 135.488 321.732 136.512C322.724 137.536 324.452 138.064 326.916 138.096C327.652 138.128 328.388 138.144 329.124 138.144C329.892 138.144 330.628 138.144 331.332 138.144L331.428 139.056C329.86 139.056 328.484 139.072 327.3 139.104C326.148 139.136 325.22 139.152 324.516 139.152C322.5 139.152 320.868 138.96 319.62 138.576C318.372 138.192 317.412 137.664 316.74 136.992C316.068 136.32 315.604 135.584 315.348 134.784C315.124 133.984 315.012 133.168 315.012 132.336C315.012 130.96 315.3 129.744 315.876 128.688C316.452 127.632 317.444 126.8 318.852 126.192C320.292 125.584 322.244 125.28 324.708 125.28C325.668 125.28 326.676 125.312 327.732 125.376C328.82 125.44 329.956 125.472 331.14 125.472C332.228 125.472 333.332 125.456 334.452 125.424C335.604 125.36 336.452 125.312 336.996 125.28ZM327.108 138.624V139.104C326.276 139.136 325.444 139.216 324.612 139.344C323.812 139.44 323.108 139.776 322.5 140.352C322.02 140.8 321.636 141.392 321.348 142.128C321.092 142.864 320.868 143.664 320.676 144.528C320.484 145.36 320.228 146.208 319.908 147.072C319.492 148.16 318.9 148.944 318.132 149.424C317.364 149.904 316.116 150.144 314.388 150.144C313.972 150.144 313.524 150.128 313.044 150.096C312.564 150.064 312.052 150.032 311.508 150V148.992C312.404 148.896 313.076 148.768 313.524 148.608C313.972 148.416 314.292 148.144 314.484 147.792C314.708 147.408 314.932 146.912 315.156 146.304C315.668 144.992 316.068 143.968 316.356 143.232C316.676 142.464 316.996 141.872 317.316 141.456C317.636 141.008 318.036 140.624 318.516 140.304C318.868 140.048 319.284 139.824 319.764 139.632C320.244 139.408 320.82 139.216 321.492 139.056C322.164 138.896 322.964 138.784 323.892 138.72C324.82 138.624 325.892 138.592 327.108 138.624ZM375.679 125.28C375.551 126.496 375.455 127.648 375.391 128.736C375.359 129.824 375.343 130.656 375.343 131.232C375.343 131.84 375.359 132.416 375.391 132.96C375.423 133.504 375.455 133.952 375.487 134.304H374.383C374.127 132.064 373.711 130.368 373.135 129.216C372.591 128.064 371.887 127.28 371.023 126.864C370.159 126.448 369.135 126.24 367.951 126.24H366.175V145.056C366.175 146.624 366.607 147.68 367.471 148.224C368.367 148.736 369.567 148.992 371.071 148.992V150C370.303 149.968 369.247 149.936 367.903 149.904C366.559 149.84 365.119 149.808 363.583 149.808C362.079 149.808 360.639 149.84 359.263 149.904C357.919 149.936 356.863 149.968 356.095 150V148.992C357.631 148.992 358.831 148.752 359.695 148.272C360.559 147.76 360.991 146.72 360.991 145.152V126.24H358.831C357.647 126.24 356.655 126.448 355.855 126.864C355.055 127.28 354.399 128.08 353.887 129.264C353.407 130.416 353.039 132.112 352.783 134.352H351.679C351.743 134 351.775 133.552 351.775 133.008C351.807 132.464 351.823 131.888 351.823 131.28C351.823 130.704 351.791 129.872 351.727 128.784C351.695 127.664 351.615 126.512 351.487 125.328H356.239C357.263 125.328 358.415 125.344 359.695 125.376C360.975 125.408 362.255 125.424 363.535 125.424C364.815 125.424 366.095 125.408 367.375 125.376C368.687 125.312 369.855 125.28 370.879 125.28H375.679ZM390.341 124.56C393.157 124.56 395.365 125.408 396.965 127.104C398.565 128.8 399.365 131.488 399.365 135.168H382.805L382.709 134.256H394.277C394.309 132.688 394.181 131.248 393.893 129.936C393.605 128.592 393.157 127.52 392.549 126.72C391.941 125.92 391.141 125.52 390.149 125.52C388.773 125.52 387.573 126.256 386.549 127.728C385.557 129.168 384.949 131.488 384.725 134.688L384.869 134.928C384.837 135.376 384.805 135.872 384.773 136.416C384.741 136.928 384.725 137.44 384.725 137.952C384.725 140.16 385.061 142.016 385.733 143.52C386.405 145.024 387.285 146.16 388.373 146.928C389.461 147.664 390.565 148.032 391.685 148.032C392.549 148.032 393.381 147.904 394.181 147.648C395.013 147.36 395.797 146.896 396.533 146.256C397.269 145.584 397.925 144.672 398.501 143.52L399.461 143.904C399.077 144.992 398.485 146.064 397.685 147.12C396.885 148.176 395.861 149.04 394.613 149.712C393.365 150.352 391.909 150.672 390.245 150.672C388.005 150.672 386.053 150.176 384.389 149.184C382.725 148.16 381.445 146.704 380.549 144.816C379.653 142.928 379.205 140.688 379.205 138.096C379.205 135.248 379.669 132.816 380.597 130.8C381.525 128.784 382.821 127.248 384.485 126.192C386.181 125.104 388.133 124.56 390.341 124.56ZM426.095 112.272L426.815 112.464C426.495 113.744 426.095 114.864 425.615 115.824C425.167 116.752 424.623 117.472 423.983 117.984C423.407 118.432 422.703 118.8 421.871 119.088C421.039 119.376 420.015 119.552 418.799 119.616C418.287 119.648 417.567 119.696 416.639 119.76C415.743 119.824 414.815 119.92 413.855 120.048C412.447 120.272 411.247 120.64 410.255 121.152C409.295 121.664 408.495 122.416 407.855 123.408C407.247 124.4 406.735 125.712 406.319 127.344C405.935 128.976 405.615 131.008 405.359 133.44L408.191 135.696L404.975 135.456C405.359 132.992 406.079 131.056 407.135 129.648C408.191 128.208 409.471 127.184 410.975 126.576C412.511 125.936 414.143 125.616 415.871 125.616C418.335 125.616 420.335 126.144 421.871 127.2C423.439 128.256 424.591 129.696 425.327 131.52C426.095 133.312 426.479 135.344 426.479 137.616C426.479 140.336 425.983 142.672 424.991 144.624C424.031 146.576 422.671 148.08 420.911 149.136C419.183 150.16 417.151 150.672 414.815 150.672C413.087 150.672 411.567 150.384 410.255 149.808C408.943 149.2 407.839 148.272 406.943 147.024C406.047 145.776 405.359 144.176 404.879 142.224C404.431 140.24 404.207 137.872 404.207 135.12C404.207 134.544 404.223 133.744 404.255 132.72C404.319 131.696 404.415 130.544 404.543 129.264C404.703 127.984 404.927 126.688 405.215 125.376C405.535 124.064 405.951 122.816 406.463 121.632C406.975 120.448 407.615 119.44 408.383 118.608C409.055 117.904 409.871 117.328 410.831 116.88C411.823 116.432 412.959 116.096 414.239 115.872C415.359 115.712 416.463 115.616 417.551 115.584C418.671 115.52 419.567 115.472 420.239 115.44C421.999 115.312 423.279 115.008 424.079 114.528C424.911 114.048 425.583 113.296 426.095 112.272ZM415.583 126.624C414.559 126.624 413.599 126.976 412.703 127.68C411.807 128.352 411.071 129.504 410.495 131.136C409.951 132.768 409.679 135.024 409.679 137.904C409.679 140.72 409.951 143.008 410.495 144.768C411.071 146.496 411.807 147.76 412.703 148.56C413.599 149.328 414.543 149.712 415.535 149.712C416.623 149.712 417.519 149.344 418.223 148.608C418.927 147.84 419.471 146.864 419.855 145.68C420.271 144.464 420.559 143.136 420.719 141.696C420.879 140.256 420.959 138.848 420.959 137.472C420.959 133.536 420.447 130.752 419.423 129.12C418.431 127.456 417.151 126.624 415.583 126.624ZM452.59 125.28V126.288C451.406 126.288 450.542 126.528 449.998 127.008C449.486 127.488 449.23 128.4 449.23 129.744V145.536C449.23 146.88 449.454 147.792 449.902 148.272C450.382 148.752 451.15 148.992 452.206 148.992V150C451.694 149.968 450.91 149.936 449.854 149.904C448.83 149.84 447.758 149.808 446.638 149.808C445.55 149.808 444.43 149.84 443.278 149.904C442.126 149.936 441.262 149.968 440.686 150V148.992C441.902 148.992 442.766 148.752 443.278 148.272C443.79 147.792 444.046 146.88 444.046 145.536V129.408C444.046 128.256 443.822 127.456 443.374 127.008C442.926 126.528 442.126 126.288 440.974 126.288C439.566 126.288 438.494 126.56 437.758 127.104C437.022 127.616 436.526 128.288 436.27 129.12C436.014 129.952 435.886 130.864 435.886 131.856C435.886 133.936 436.366 135.488 437.326 136.512C438.318 137.536 440.046 138.064 442.51 138.096C443.246 138.128 443.982 138.144 444.718 138.144C445.486 138.144 446.222 138.144 446.926 138.144L447.022 139.056C445.454 139.056 444.078 139.072 442.894 139.104C441.742 139.136 440.814 139.152 440.109 139.152C438.094 139.152 436.462 138.96 435.214 138.576C433.966 138.192 433.006 137.664 432.334 136.992C431.662 136.32 431.198 135.584 430.942 134.784C430.718 133.984 430.605 133.168 430.605 132.336C430.605 130.96 430.894 129.744 431.47 128.688C432.046 127.632 433.038 126.8 434.446 126.192C435.886 125.584 437.838 125.28 440.302 125.28C441.262 125.28 442.27 125.312 443.326 125.376C444.414 125.44 445.55 125.472 446.734 125.472C447.822 125.472 448.926 125.456 450.046 125.424C451.198 125.36 452.046 125.312 452.59 125.28ZM442.702 138.624V139.104C441.87 139.136 441.038 139.216 440.206 139.344C439.406 139.44 438.702 139.776 438.094 140.352C437.614 140.8 437.23 141.392 436.942 142.128C436.686 142.864 436.462 143.664 436.27 144.528C436.078 145.36 435.822 146.208 435.502 147.072C435.086 148.16 434.494 148.944 433.726 149.424C432.958 149.904 431.71 150.144 429.982 150.144C429.566 150.144 429.118 150.128 428.638 150.096C428.158 150.064 427.646 150.032 427.101 150V148.992C427.998 148.896 428.67 148.768 429.118 148.608C429.566 148.416 429.886 148.144 430.078 147.792C430.302 147.408 430.526 146.912 430.75 146.304C431.262 144.992 431.662 143.968 431.95 143.232C432.27 142.464 432.59 141.872 432.91 141.456C433.23 141.008 433.63 140.624 434.11 140.304C434.462 140.048 434.878 139.824 435.358 139.632C435.838 139.408 436.414 139.216 437.086 139.056C437.758 138.896 438.558 138.784 439.486 138.72C440.414 138.624 441.486 138.592 442.702 138.624ZM106.184 189.28V190.288C104.936 190.288 104.04 190.528 103.496 191.008C102.984 191.488 102.728 192.4 102.728 193.744V209.536C102.728 210.88 102.984 211.792 103.496 212.272C104.04 212.752 104.936 212.992 106.184 212.992V214C105.64 213.968 104.792 213.936 103.64 213.904C102.488 213.84 101.352 213.808 100.232 213.808C99.144 213.808 98.056 213.84 96.968 213.904C95.912 213.936 95.112 213.968 94.568 214V212.992C95.656 212.992 96.424 212.752 96.872 212.272C97.32 211.792 97.544 210.88 97.544 209.536V193.744C97.544 192.4 97.32 191.488 96.872 191.008C96.424 190.528 95.656 190.288 94.568 190.288V189.28C95.112 189.312 95.896 189.36 96.92 189.424C97.976 189.456 99.048 189.472 100.136 189.472C101.256 189.472 102.392 189.456 103.544 189.424C104.728 189.36 105.608 189.312 106.184 189.28ZM89.912 189.28V190.288C88.856 190.288 88.088 190.528 87.608 191.008C87.16 191.488 86.936 192.4 86.936 193.744V209.536C86.936 210.88 87.16 211.792 87.608 212.272C88.088 212.752 88.856 212.992 89.912 212.992V214C89.4 213.968 88.616 213.936 87.56 213.904C86.536 213.84 85.464 213.808 84.344 213.808C83.256 213.808 82.12 213.84 80.936 213.904C79.752 213.936 78.872 213.968 78.296 214V212.992C79.544 212.992 80.424 212.752 80.936 212.272C81.48 211.792 81.752 210.88 81.752 209.536V193.744C81.752 192.4 81.48 191.488 80.936 191.008C80.424 190.528 79.544 190.288 78.296 190.288V189.28C78.872 189.312 79.736 189.36 80.888 189.424C82.04 189.456 83.16 189.472 84.248 189.472C85.368 189.472 86.456 189.456 87.512 189.424C88.6 189.36 89.4 189.312 89.912 189.28ZM98.072 192.496L98.84 193.024L86.264 211.648L85.448 211.072L98.072 192.496ZM144.866 189.28C144.738 190.496 144.642 191.648 144.578 192.736C144.546 193.824 144.53 194.656 144.53 195.232C144.53 195.84 144.546 196.416 144.578 196.96C144.61 197.504 144.642 197.952 144.674 198.304H143.57C143.314 196.064 142.898 194.368 142.322 193.216C141.778 192.064 141.074 191.28 140.21 190.864C139.346 190.448 138.322 190.24 137.138 190.24H135.362V209.056C135.362 210.624 135.794 211.68 136.658 212.224C137.554 212.736 138.754 212.992 140.258 212.992V214C139.49 213.968 138.434 213.936 137.09 213.904C135.746 213.84 134.306 213.808 132.77 213.808C131.266 213.808 129.826 213.84 128.45 213.904C127.106 213.936 126.05 213.968 125.282 214V212.992C126.818 212.992 128.018 212.752 128.882 212.272C129.746 211.76 130.178 210.72 130.178 209.152V190.24H128.018C126.834 190.24 125.842 190.448 125.042 190.864C124.242 191.28 123.586 192.08 123.074 193.264C122.594 194.416 122.226 196.112 121.97 198.352H120.866C120.93 198 120.962 197.552 120.962 197.008C120.994 196.464 121.01 195.888 121.01 195.28C121.01 194.704 120.978 193.872 120.914 192.784C120.882 191.664 120.802 190.512 120.674 189.328H125.426C126.45 189.328 127.602 189.344 128.882 189.376C130.162 189.408 131.442 189.424 132.722 189.424C134.002 189.424 135.282 189.408 136.562 189.376C137.874 189.312 139.042 189.28 140.066 189.28H144.866ZM160.248 189.28C162.648 189.28 164.536 189.52 165.912 190C167.288 190.48 168.264 191.168 168.84 192.064C169.416 192.928 169.704 193.92 169.704 195.04C169.704 196.736 168.808 198.208 167.016 199.456C165.224 200.704 162.488 201.328 158.808 201.328C158.808 201.328 158.728 201.312 158.568 201.28C158.408 201.216 158.232 201.152 158.04 201.088C157.88 201.024 157.8 200.992 157.8 200.992C159.624 200.96 161.016 200.752 161.976 200.368C162.936 199.952 163.576 199.344 163.896 198.544C164.248 197.712 164.424 196.688 164.424 195.472C164.424 194.512 164.296 193.648 164.04 192.88C163.816 192.08 163.336 191.456 162.6 191.008C161.896 190.528 160.84 190.288 159.432 190.288C158.28 190.288 157.464 190.528 156.984 191.008C156.504 191.488 156.264 192.4 156.264 193.744V209.536C156.264 210.912 156.504 211.84 156.984 212.32C157.464 212.768 158.328 212.992 159.576 212.992C161.24 212.992 162.52 212.72 163.416 212.176C164.312 211.632 164.92 210.928 165.24 210.064C165.592 209.168 165.768 208.208 165.768 207.184C165.768 205.168 165.224 203.776 164.136 203.008C163.08 202.24 161.64 201.856 159.816 201.856H153.096C153.096 201.856 153.096 201.712 153.096 201.424C153.096 201.136 153.096 200.992 153.096 200.992H159.864L160.392 201.088C163.016 201.088 165.112 201.328 166.68 201.808C168.248 202.256 169.384 202.928 170.088 203.824C170.792 204.72 171.144 205.824 171.144 207.136C171.144 208.416 170.808 209.584 170.136 210.64C169.464 211.664 168.344 212.48 166.776 213.088C165.24 213.696 163.176 214 160.584 214C159.592 214 158.504 213.968 157.32 213.904C156.136 213.84 154.904 213.808 153.624 213.808C152.568 213.808 151.448 213.84 150.264 213.904C149.08 213.936 148.2 213.968 147.624 214V212.992C148.872 212.992 149.752 212.752 150.264 212.272C150.808 211.792 151.08 210.88 151.08 209.536V193.744C151.08 192.4 150.808 191.488 150.264 191.008C149.752 190.528 148.872 190.288 147.624 190.288V189.28C148.2 189.312 149.064 189.36 150.216 189.424C151.368 189.456 152.472 189.472 153.528 189.472C154.776 189.472 155.976 189.44 157.128 189.376C158.312 189.312 159.352 189.28 160.248 189.28ZM186.249 188.56C188.393 188.56 190.297 189.008 191.961 189.904C193.625 190.8 194.953 192.208 195.945 194.128C196.937 196.048 197.433 198.56 197.433 201.664C197.433 204.768 196.937 207.28 195.945 209.2C194.953 211.088 193.625 212.48 191.961 213.376C190.297 214.24 188.393 214.672 186.249 214.672C184.137 214.672 182.233 214.24 180.537 213.376C178.841 212.48 177.497 211.088 176.505 209.2C175.545 207.28 175.065 204.768 175.065 201.664C175.065 198.56 175.545 196.048 176.505 194.128C177.497 192.208 178.841 190.8 180.537 189.904C182.233 189.008 184.137 188.56 186.249 188.56ZM186.249 189.52C184.585 189.52 183.225 190.48 182.169 192.4C181.113 194.288 180.585 197.376 180.585 201.664C180.585 205.952 181.113 209.04 182.169 210.928C183.225 212.784 184.585 213.712 186.249 213.712C187.881 213.712 189.225 212.784 190.281 210.928C191.369 209.04 191.913 205.952 191.913 201.664C191.913 197.376 191.369 194.288 190.281 192.4C189.225 190.48 187.881 189.52 186.249 189.52ZM212.731 188.56C215.547 188.56 217.755 189.408 219.355 191.104C220.955 192.8 221.755 195.488 221.755 199.168H205.195L205.099 198.256H216.667C216.699 196.688 216.571 195.248 216.283 193.936C215.995 192.592 215.547 191.52 214.939 190.72C214.331 189.92 213.531 189.52 212.539 189.52C211.163 189.52 209.963 190.256 208.939 191.728C207.947 193.168 207.339 195.488 207.115 198.688L207.259 198.928C207.227 199.376 207.195 199.872 207.163 200.416C207.131 200.928 207.115 201.44 207.115 201.952C207.115 204.16 207.451 206.016 208.123 207.52C208.795 209.024 209.675 210.16 210.763 210.928C211.851 211.664 212.955 212.032 214.075 212.032C214.939 212.032 215.771 211.904 216.571 211.648C217.403 211.36 218.187 210.896 218.923 210.256C219.659 209.584 220.315 208.672 220.891 207.52L221.851 207.904C221.467 208.992 220.875 210.064 220.075 211.12C219.275 212.176 218.251 213.04 217.003 213.712C215.755 214.352 214.299 214.672 212.635 214.672C210.395 214.672 208.443 214.176 206.779 213.184C205.115 212.16 203.835 210.704 202.939 208.816C202.043 206.928 201.595 204.688 201.595 202.096C201.595 199.248 202.059 196.816 202.987 194.8C203.915 192.784 205.211 191.248 206.875 190.192C208.571 189.104 210.523 188.56 212.731 188.56ZM244.742 189.28C244.614 190.496 244.518 191.648 244.454 192.736C244.422 193.824 244.406 194.656 244.406 195.232C244.406 195.84 244.422 196.416 244.454 196.96C244.486 197.504 244.518 197.952 244.55 198.304H243.446C243.222 196.32 242.918 194.752 242.534 193.6C242.182 192.416 241.654 191.568 240.95 191.056C240.278 190.512 239.35 190.24 238.166 190.24C237.91 190.24 237.638 190.24 237.35 190.24C237.094 190.24 236.822 190.24 236.534 190.24C235.51 190.24 234.774 190.48 234.326 190.96C233.91 191.44 233.702 192.304 233.702 193.552V209.056C233.702 210.624 234.134 211.68 234.998 212.224C235.894 212.736 237.094 212.992 238.598 212.992V214C237.83 213.968 236.742 213.936 235.334 213.904C233.958 213.84 232.486 213.808 230.918 213.808C229.798 213.808 228.678 213.84 227.558 213.904C226.47 213.936 225.638 213.968 225.062 214V212.992C226.31 212.992 227.19 212.752 227.702 212.272C228.246 211.792 228.518 210.88 228.518 209.536V193.744C228.518 192.4 228.246 191.488 227.702 191.008C227.19 190.528 226.31 190.288 225.062 190.288V189.28C225.638 189.312 226.502 189.36 227.654 189.424C228.806 189.456 229.926 189.472 231.014 189.472C232.134 189.472 233.238 189.44 234.326 189.376C235.446 189.312 236.438 189.28 237.302 189.28H244.742ZM259.421 188.56C261.565 188.56 263.469 189.008 265.133 189.904C266.797 190.8 268.125 192.208 269.117 194.128C270.109 196.048 270.605 198.56 270.605 201.664C270.605 204.768 270.109 207.28 269.117 209.2C268.125 211.088 266.797 212.48 265.133 213.376C263.469 214.24 261.565 214.672 259.421 214.672C257.309 214.672 255.405 214.24 253.709 213.376C252.013 212.48 250.669 211.088 249.677 209.2C248.717 207.28 248.237 204.768 248.237 201.664C248.237 198.56 248.717 196.048 249.677 194.128C250.669 192.208 252.013 190.8 253.709 189.904C255.405 189.008 257.309 188.56 259.421 188.56ZM259.421 189.52C257.757 189.52 256.397 190.48 255.341 192.4C254.285 194.288 253.757 197.376 253.757 201.664C253.757 205.952 254.285 209.04 255.341 210.928C256.397 212.784 257.757 213.712 259.421 213.712C261.053 213.712 262.397 212.784 263.453 210.928C264.541 209.04 265.085 205.952 265.085 201.664C265.085 197.376 264.541 194.288 263.453 192.4C262.397 190.48 261.053 189.52 259.421 189.52ZM295.126 189.232V190.24C294.518 190.24 294.022 190.384 293.638 190.672C293.254 190.96 293.222 191.36 293.542 191.872L306.31 210.592C306.79 211.328 307.238 211.888 307.654 212.272C308.102 212.624 308.614 212.864 309.19 212.992V214C308.806 213.968 308.23 213.936 307.462 213.904C306.726 213.84 305.974 213.808 305.206 213.808C304.15 213.808 303.046 213.84 301.894 213.904C300.742 213.936 299.894 213.968 299.35 214V212.992C299.99 212.992 300.502 212.848 300.886 212.56C301.27 212.24 301.286 211.84 300.934 211.36L288.166 192.64C287.558 191.776 287.062 191.184 286.678 190.864C286.326 190.512 285.862 190.304 285.286 190.24V189.232C285.702 189.264 286.31 189.312 287.11 189.376C287.91 189.408 288.694 189.424 289.462 189.424C290.518 189.424 291.59 189.408 292.678 189.376C293.798 189.312 294.614 189.264 295.126 189.232ZM295.654 201.808C295.654 201.808 295.67 201.904 295.702 202.096C295.766 202.288 295.83 202.496 295.894 202.72C295.99 202.944 296.038 203.056 296.038 203.056L292.726 207.328C291.862 208.448 291.398 209.44 291.334 210.304C291.27 211.136 291.558 211.776 292.198 212.224C292.838 212.672 293.718 212.944 294.838 213.04V214C294.262 213.968 293.606 213.952 292.87 213.952C292.134 213.92 291.414 213.904 290.71 213.904C290.006 213.872 289.398 213.856 288.886 213.856C288.15 213.856 287.494 213.872 286.918 213.904C286.342 213.904 285.814 213.936 285.334 214V213.04C285.974 212.912 286.614 212.592 287.254 212.08C287.926 211.536 288.71 210.704 289.606 209.584L295.654 201.808ZM308.086 189.232V190.192C307.446 190.32 306.758 190.672 306.022 191.248C305.318 191.824 304.582 192.64 303.814 193.696L298.342 200.992C298.342 200.992 298.31 200.896 298.246 200.704C298.214 200.48 298.166 200.272 298.102 200.08C298.038 199.888 298.006 199.792 298.006 199.792L301.318 195.232C302.054 194.176 302.518 193.296 302.71 192.592C302.902 191.888 302.79 191.328 302.374 190.912C301.958 190.496 301.174 190.256 300.022 190.192V189.232C300.886 189.264 301.654 189.296 302.326 189.328C303.03 189.36 303.766 189.376 304.534 189.376C305.27 189.376 305.926 189.36 306.502 189.328C307.078 189.296 307.606 189.264 308.086 189.232ZM323.561 189.28C325.961 189.28 327.849 189.52 329.225 190C330.601 190.48 331.577 191.168 332.153 192.064C332.729 192.928 333.017 193.92 333.017 195.04C333.017 196.736 332.121 198.208 330.329 199.456C328.537 200.704 325.801 201.328 322.121 201.328C322.121 201.328 322.041 201.312 321.881 201.28C321.721 201.216 321.545 201.152 321.353 201.088C321.193 201.024 321.113 200.992 321.113 200.992C322.937 200.96 324.329 200.752 325.289 200.368C326.249 199.952 326.889 199.344 327.209 198.544C327.561 197.712 327.737 196.688 327.737 195.472C327.737 194.512 327.609 193.648 327.353 192.88C327.129 192.08 326.649 191.456 325.913 191.008C325.209 190.528 324.153 190.288 322.745 190.288C321.593 190.288 320.777 190.528 320.297 191.008C319.817 191.488 319.577 192.4 319.577 193.744V209.536C319.577 210.912 319.817 211.84 320.297 212.32C320.777 212.768 321.641 212.992 322.889 212.992C324.553 212.992 325.833 212.72 326.729 212.176C327.625 211.632 328.233 210.928 328.553 210.064C328.905 209.168 329.081 208.208 329.081 207.184C329.081 205.168 328.537 203.776 327.449 203.008C326.393 202.24 324.953 201.856 323.129 201.856H316.409C316.409 201.856 316.409 201.712 316.409 201.424C316.409 201.136 316.409 200.992 316.409 200.992H323.177L323.705 201.088C326.329 201.088 328.425 201.328 329.993 201.808C331.561 202.256 332.697 202.928 333.401 203.824C334.105 204.72 334.457 205.824 334.457 207.136C334.457 208.416 334.121 209.584 333.449 210.64C332.777 211.664 331.657 212.48 330.089 213.088C328.553 213.696 326.489 214 323.897 214C322.905 214 321.817 213.968 320.633 213.904C319.449 213.84 318.217 213.808 316.937 213.808C315.881 213.808 314.761 213.84 313.577 213.904C312.393 213.936 311.513 213.968 310.937 214V212.992C312.185 212.992 313.065 212.752 313.577 212.272C314.121 211.792 314.393 210.88 314.393 209.536V193.744C314.393 192.4 314.121 191.488 313.577 191.008C313.065 190.528 312.185 190.288 310.937 190.288V189.28C311.513 189.312 312.377 189.36 313.529 189.424C314.681 189.456 315.785 189.472 316.841 189.472C318.089 189.472 319.289 189.44 320.441 189.376C321.625 189.312 322.665 189.28 323.561 189.28ZM349.562 188.56C351.706 188.56 353.61 189.008 355.274 189.904C356.938 190.8 358.266 192.208 359.258 194.128C360.25 196.048 360.746 198.56 360.746 201.664C360.746 204.768 360.25 207.28 359.258 209.2C358.266 211.088 356.938 212.48 355.274 213.376C353.61 214.24 351.706 214.672 349.562 214.672C347.45 214.672 345.546 214.24 343.85 213.376C342.154 212.48 340.81 211.088 339.818 209.2C338.858 207.28 338.378 204.768 338.378 201.664C338.378 198.56 338.858 196.048 339.818 194.128C340.81 192.208 342.154 190.8 343.85 189.904C345.546 189.008 347.45 188.56 349.562 188.56ZM349.562 189.52C347.898 189.52 346.538 190.48 345.482 192.4C344.426 194.288 343.898 197.376 343.898 201.664C343.898 205.952 344.426 209.04 345.482 210.928C346.538 212.784 347.898 213.712 349.562 213.712C351.194 213.712 352.538 212.784 353.594 210.928C354.682 209.04 355.226 205.952 355.226 201.664C355.226 197.376 354.682 194.288 353.594 192.4C352.538 190.48 351.194 189.52 349.562 189.52ZM376.332 188.56C377.42 188.56 378.46 188.704 379.452 188.992C380.444 189.248 381.308 189.616 382.044 190.096C382.812 190.576 383.388 191.152 383.772 191.824C384.188 192.496 384.396 193.232 384.396 194.032C384.396 194.992 384.124 195.744 383.58 196.288C383.036 196.832 382.332 197.104 381.468 197.104C380.604 197.104 379.884 196.864 379.308 196.384C378.732 195.904 378.444 195.216 378.444 194.32C378.444 193.488 378.684 192.816 379.164 192.304C379.644 191.76 380.204 191.408 380.844 191.248C380.556 190.768 380.044 190.368 379.308 190.048C378.604 189.696 377.836 189.52 377.004 189.52C376.14 189.52 375.308 189.744 374.508 190.192C373.74 190.64 373.052 191.328 372.444 192.256C371.836 193.184 371.34 194.384 370.956 195.856C370.604 197.328 370.428 199.104 370.428 201.184C370.428 203.872 370.732 206.016 371.34 207.616C371.98 209.184 372.812 210.304 373.836 210.976C374.86 211.648 375.964 211.984 377.148 211.984C377.916 211.984 378.7 211.84 379.5 211.552C380.332 211.264 381.116 210.784 381.852 210.112C382.62 209.44 383.292 208.528 383.868 207.376L384.78 207.712C384.428 208.768 383.868 209.84 383.1 210.928C382.364 212.016 381.388 212.912 380.172 213.616C378.956 214.32 377.468 214.672 375.708 214.672C373.692 214.672 371.868 214.176 370.236 213.184C368.604 212.192 367.308 210.752 366.348 208.864C365.388 206.944 364.908 204.608 364.908 201.856C364.908 199.168 365.388 196.832 366.348 194.848C367.34 192.832 368.7 191.28 370.428 190.192C372.156 189.104 374.124 188.56 376.332 188.56ZM411.96 189.28C411.832 190.496 411.736 191.648 411.672 192.736C411.64 193.824 411.624 194.656 411.624 195.232C411.624 195.84 411.64 196.416 411.672 196.96C411.704 197.504 411.736 197.952 411.768 198.304H410.664C410.408 196.064 409.992 194.368 409.416 193.216C408.872 192.064 408.168 191.28 407.304 190.864C406.44 190.448 405.416 190.24 404.232 190.24H402.456V209.056C402.456 210.624 402.888 211.68 403.752 212.224C404.648 212.736 405.848 212.992 407.352 212.992V214C406.584 213.968 405.528 213.936 404.184 213.904C402.84 213.84 401.4 213.808 399.864 213.808C398.36 213.808 396.92 213.84 395.544 213.904C394.2 213.936 393.144 213.968 392.376 214V212.992C393.912 212.992 395.112 212.752 395.976 212.272C396.84 211.76 397.272 210.72 397.272 209.152V190.24H395.112C393.928 190.24 392.936 190.448 392.136 190.864C391.336 191.28 390.68 192.08 390.168 193.264C389.688 194.416 389.32 196.112 389.064 198.352H387.96C388.024 198 388.056 197.552 388.056 197.008C388.088 196.464 388.104 195.888 388.104 195.28C388.104 194.704 388.072 193.872 388.008 192.784C387.976 191.664 387.896 190.512 387.768 189.328H392.52C393.544 189.328 394.696 189.344 395.976 189.376C397.256 189.408 398.536 189.424 399.816 189.424C401.096 189.424 402.376 189.408 403.656 189.376C404.968 189.312 406.136 189.28 407.16 189.28H411.96ZM442.606 189.28V190.288C441.358 190.288 440.462 190.528 439.918 191.008C439.406 191.488 439.15 192.4 439.15 193.744V209.536C439.15 210.88 439.406 211.792 439.918 212.272C440.462 212.752 441.358 212.992 442.606 212.992V214C442.062 213.968 441.214 213.936 440.062 213.904C438.91 213.84 437.774 213.808 436.654 213.808C435.566 213.808 434.478 213.84 433.39 213.904C432.334 213.936 431.534 213.968 430.99 214V212.992C432.078 212.992 432.846 212.752 433.294 212.272C433.742 211.792 433.966 210.88 433.966 209.536V193.744C433.966 192.4 433.742 191.488 433.294 191.008C432.846 190.528 432.078 190.288 430.99 190.288V189.28C431.534 189.312 432.318 189.36 433.342 189.424C434.398 189.456 435.47 189.472 436.558 189.472C437.678 189.472 438.814 189.456 439.966 189.424C441.15 189.36 442.03 189.312 442.606 189.28ZM426.334 189.28V190.288C425.278 190.288 424.51 190.528 424.03 191.008C423.582 191.488 423.358 192.4 423.358 193.744V209.536C423.358 210.88 423.582 211.792 424.03 212.272C424.51 212.752 425.278 212.992 426.334 212.992V214C425.822 213.968 425.038 213.936 423.982 213.904C422.958 213.84 421.886 213.808 420.766 213.808C419.678 213.808 418.542 213.84 417.358 213.904C416.174 213.936 415.294 213.968 414.718 214V212.992C415.966 212.992 416.846 212.752 417.358 212.272C417.902 211.792 418.174 210.88 418.174 209.536V193.744C418.174 192.4 417.902 191.488 417.358 191.008C416.846 190.528 415.966 190.288 414.718 190.288V189.28C415.294 189.312 416.158 189.36 417.31 189.424C418.462 189.456 419.582 189.472 420.67 189.472C421.79 189.472 422.878 189.456 423.934 189.424C425.022 189.36 425.822 189.312 426.334 189.28ZM434.494 192.496L435.262 193.024L422.686 211.648L421.87 211.072L434.494 192.496ZM466.69 188.56C467.97 188.56 468.882 188.864 469.426 189.472C469.97 190.08 470.242 190.784 470.242 191.584C470.242 192.448 469.986 193.152 469.474 193.696C468.962 194.24 468.258 194.512 467.362 194.512C466.786 194.512 466.258 194.384 465.778 194.128C465.298 193.872 464.914 193.504 464.626 193.024C464.338 192.544 464.194 191.968 464.194 191.296C464.194 191.104 464.242 190.912 464.338 190.72C464.434 190.496 464.578 190.32 464.77 190.192C464.258 190.32 463.842 190.608 463.522 191.056C463.202 191.472 462.898 192.064 462.61 192.832C462.322 193.568 461.986 194.496 461.602 195.616C461.314 196.48 460.978 197.312 460.594 198.112C460.21 198.88 459.666 199.536 458.962 200.08C458.29 200.592 457.346 200.928 456.13 201.088L456.466 200.752C458.578 200.624 460.37 200.8 461.842 201.28C463.346 201.76 464.514 202.624 465.346 203.872C465.922 204.704 466.386 205.728 466.738 206.944C467.122 208.16 467.538 209.296 467.986 210.352C468.338 211.152 468.722 211.776 469.138 212.224C469.586 212.64 470.274 212.896 471.202 212.992V214C470.69 214.096 470.162 214.176 469.618 214.24C469.074 214.304 468.562 214.336 468.082 214.336C466.514 214.336 465.314 213.984 464.482 213.28C463.682 212.576 463.106 211.552 462.754 210.208C462.594 209.696 462.402 209.056 462.178 208.288C461.986 207.488 461.714 206.688 461.362 205.888C461.042 205.056 460.658 204.352 460.21 203.776C459.57 202.88 458.722 202.288 457.666 202C456.642 201.712 455.314 201.6 453.682 201.664V200.848C455.378 200.752 456.674 200.464 457.57 199.984C458.466 199.504 459.154 198.832 459.634 197.968C460.114 197.104 460.562 196.048 460.978 194.8C461.298 193.776 461.65 192.784 462.034 191.824C462.418 190.864 462.962 190.08 463.666 189.472C464.402 188.864 465.41 188.56 466.69 188.56ZM456.946 189.28V190.288C455.826 190.288 455.026 190.528 454.546 191.008C454.098 191.488 453.874 192.4 453.874 193.744V209.536C453.874 210.88 454.098 211.792 454.546 212.272C455.026 212.752 455.826 212.992 456.946 212.992V214C456.402 213.968 455.586 213.936 454.498 213.904C453.41 213.84 452.306 213.808 451.186 213.808C450.098 213.808 448.978 213.84 447.826 213.904C446.674 213.936 445.81 213.968 445.234 214V212.992C446.481 212.992 447.362 212.752 447.874 212.272C448.418 211.792 448.69 210.88 448.69 209.536V193.744C448.69 192.4 448.418 191.488 447.874 191.008C447.362 190.528 446.481 190.288 445.234 190.288V189.28C445.81 189.312 446.674 189.36 447.826 189.424C449.01 189.456 450.162 189.472 451.282 189.472C452.37 189.472 453.458 189.456 454.546 189.424C455.634 189.36 456.434 189.312 456.946 189.28ZM480.127 214.336C478.783 214.336 477.631 214.08 476.671 213.568C475.711 213.056 474.991 212.352 474.511 211.456C474.031 210.56 473.791 209.536 473.791 208.384C473.791 206.976 474.111 205.84 474.751 204.976C475.391 204.08 476.207 203.36 477.199 202.816C478.223 202.272 479.295 201.824 480.415 201.472C481.567 201.088 482.639 200.736 483.631 200.416C484.655 200.064 485.487 199.664 486.127 199.216C486.799 198.768 487.135 198.176 487.135 197.44V194.176C487.135 193.024 486.943 192.112 486.559 191.44C486.207 190.736 485.711 190.24 485.071 189.952C484.463 189.664 483.727 189.52 482.863 189.52C482.127 189.52 481.343 189.632 480.511 189.856C479.679 190.048 479.023 190.448 478.543 191.056C479.247 191.248 479.823 191.632 480.271 192.208C480.751 192.752 480.991 193.44 480.991 194.272C480.991 195.168 480.687 195.872 480.079 196.384C479.503 196.896 478.767 197.152 477.871 197.152C476.879 197.152 476.143 196.848 475.663 196.24C475.183 195.6 474.943 194.864 474.943 194.032C474.943 193.168 475.151 192.464 475.567 191.92C476.015 191.376 476.591 190.864 477.295 190.384C478.063 189.872 479.039 189.44 480.223 189.088C481.439 188.736 482.783 188.56 484.255 188.56C485.631 188.56 486.815 188.72 487.807 189.04C488.831 189.328 489.679 189.808 490.351 190.48C491.151 191.216 491.679 192.144 491.935 193.264C492.191 194.352 492.319 195.68 492.319 197.248V210.496C492.319 211.296 492.415 211.872 492.607 212.224C492.831 212.544 493.183 212.704 493.663 212.704C493.983 212.704 494.287 212.624 494.575 212.464C494.895 212.304 495.263 212.064 495.679 211.744L496.159 212.56C495.487 213.104 494.799 213.536 494.095 213.856C493.423 214.176 492.559 214.336 491.503 214.336C490.479 214.336 489.647 214.176 489.007 213.856C488.367 213.536 487.887 213.072 487.567 212.464C487.279 211.856 487.135 211.104 487.135 210.208C486.303 211.552 485.311 212.576 484.159 213.28C483.007 213.984 481.663 214.336 480.127 214.336ZM482.431 212.032C483.327 212.032 484.159 211.776 484.927 211.264C485.727 210.752 486.463 209.984 487.135 208.96V199.408C486.783 199.92 486.271 200.368 485.599 200.752C484.927 201.104 484.207 201.472 483.439 201.856C482.671 202.24 481.935 202.688 481.231 203.2C480.559 203.68 479.999 204.304 479.551 205.072C479.103 205.84 478.879 206.816 478.879 208C478.879 209.248 479.199 210.24 479.839 210.976C480.479 211.68 481.343 212.032 482.431 212.032ZM502.777 176.464C503.545 176.464 504.201 176.736 504.745 177.28C505.289 177.824 505.561 178.672 505.561 179.824C505.561 181.104 505.449 182.656 505.225 184.48C505.001 186.304 504.729 188.304 504.409 190.48C504.121 192.624 503.849 194.896 503.593 197.296C503.369 199.696 503.241 202.128 503.209 204.592H502.345C502.345 202.128 502.217 199.696 501.961 197.296C501.737 194.896 501.465 192.624 501.145 190.48C500.857 188.304 500.585 186.304 500.329 184.48C500.105 182.656 499.993 181.104 499.993 179.824C499.993 178.672 500.265 177.824 500.809 177.28C501.353 176.736 502.009 176.464 502.777 176.464ZM502.777 208.096C503.769 208.096 504.585 208.416 505.225 209.056C505.865 209.664 506.185 210.448 506.185 211.408C506.185 212.336 505.865 213.12 505.225 213.76C504.585 214.368 503.769 214.672 502.777 214.672C501.817 214.672 501.001 214.368 500.329 213.76C499.689 213.12 499.369 212.336 499.369 211.408C499.369 210.448 499.689 209.664 500.329 209.056C501.001 208.416 501.817 208.096 502.777 208.096Z" fill="black"/>
<path d="M719.456 113.664L664.928 113.664C660.917 113.664 658.187 114.517 656.736 116.224C655.371 117.931 654.688 120.832 654.688 124.928L652 124.928C652.085 123.221 652.171 120.704 652.256 117.376C652.427 114.133 652.512 110.763 652.512 107.264C652.512 103.168 652.427 99.2427 652.256 95.488C652.171 91.7333 652.085 88.832 652 86.784L654.688 86.784C654.688 90.88 655.371 94.08 656.736 96.384C658.187 98.688 661.003 99.84 665.184 99.84L696.288 99.84C700.384 99.84 703.413 99.4133 705.376 98.56C707.339 97.792 708.619 96.3413 709.216 94.208C709.813 92.16 710.112 89.344 710.112 85.76L712.928 85.76C713.099 92.2453 713.653 97.664 714.592 102.016C715.531 106.368 717.152 110.251 719.456 113.664ZM723.936 171.303C718.816 171.303 714.805 171.346 711.904 171.431C709.088 171.516 706.528 171.644 704.224 171.815C704.395 171.132 704.523 169.81 704.608 167.847C704.693 165.97 704.736 163.794 704.736 161.319C704.821 158.844 704.864 156.412 704.864 154.023L704.864 138.407L681.184 136.743C682.293 138.62 683.275 140.839 684.128 143.399C684.981 146.044 685.408 149.287 685.408 153.127C685.408 158.503 684.512 162.898 682.72 166.311C681.013 169.81 678.667 172.37 675.68 173.991C672.693 175.698 669.323 176.551 665.568 176.551C660.619 176.551 656.139 175.228 652.128 172.583C648.117 169.938 644.704 166.396 641.888 161.959C639.072 157.607 636.896 152.786 635.36 147.495C633.824 142.204 633.056 136.871 633.056 131.495L635.36 131.495C635.36 135.335 636 139.047 637.28 142.631C638.475 146.3 640.309 149.586 642.784 152.487C645.259 155.388 648.288 157.692 651.872 159.399C655.456 161.191 659.637 162.087 664.416 162.087C669.792 162.087 673.973 160.722 676.96 157.991C679.947 155.346 681.44 151.506 681.44 146.471C681.44 144.167 681.184 142.204 680.672 140.583C680.245 139.047 679.605 137.383 678.752 135.591L679.648 134.183L718.432 137.127C718.261 138.066 718.133 139.132 718.048 140.327C717.963 141.607 717.92 142.844 717.92 144.039L717.92 160.679C717.92 163.836 718.347 165.884 719.2 166.823C720.139 167.847 721.717 168.487 723.936 168.743L723.936 171.303ZM749.408 205.439C749.408 211.327 747.573 216.063 743.904 219.647C740.235 223.231 735.115 225.023 728.544 225.023C724.277 225.023 720.523 224.17 717.28 222.463C714.037 220.756 711.52 218.41 709.728 215.423C707.936 212.522 707.04 209.194 707.04 205.439C707.04 199.551 708.875 194.772 712.544 191.103C716.213 187.519 721.333 185.727 727.904 185.727C732.171 185.727 735.925 186.58 739.168 188.287C742.411 190.079 744.928 192.426 746.72 195.327C748.512 198.314 749.408 201.684 749.408 205.439ZM690.272 251.263C690.272 248.106 688.651 245.759 685.408 244.223C682.165 242.687 677.429 241.919 671.2 241.919C664.971 241.919 660.277 242.815 657.12 244.607C654.048 246.399 652.512 248.788 652.512 251.775C652.512 254.932 654.133 257.236 657.376 258.687C660.619 260.223 665.312 260.991 671.456 260.991C677.771 260.991 682.464 260.138 685.536 258.431C688.693 256.724 690.272 254.335 690.272 251.263ZM692.576 251.519C692.576 257.407 690.741 262.143 687.072 265.727C683.403 269.311 678.283 271.103 671.712 271.103C667.445 271.103 663.691 270.25 660.448 268.543C657.205 266.836 654.688 264.49 652.896 261.503C651.104 258.602 650.208 255.274 650.208 251.519C650.208 245.631 652.043 240.852 655.712 237.183C659.381 233.599 664.501 231.807 671.072 231.807C675.339 231.807 679.093 232.66 682.336 234.367C685.579 236.159 688.096 238.506 689.888 241.407C691.68 244.394 692.576 247.764 692.576 251.519ZM747.104 205.183C747.104 202.026 745.483 199.679 742.24 198.143C738.997 196.607 734.261 195.839 728.032 195.839C721.803 195.839 717.109 196.735 713.952 198.527C710.88 200.319 709.344 202.708 709.344 205.695C709.344 208.852 710.965 211.156 714.208 212.607C717.451 214.143 722.144 214.911 728.288 214.911C734.603 214.911 739.296 214.058 742.368 212.351C745.525 210.644 747.104 208.255 747.104 205.183ZM757.472 265.471L755.808 267.903L644.96 193.023L646.624 190.591L757.472 265.471Z" fill="black"/>
<path d="M83.768 241.148C82.28 241.148 81.152 241.532 80.384 242.3C79.64 243.068 79.1 244.376 78.764 246.224C78.764 246.272 78.692 246.296 78.548 246.296C78.428 246.296 78.368 246.272 78.368 246.224C78.416 245.912 78.464 245.48 78.512 244.928C78.56 244.352 78.608 243.74 78.656 243.092C78.728 242.444 78.776 241.82 78.8 241.22C78.848 240.596 78.872 240.092 78.872 239.708C78.872 239.588 78.932 239.528 79.052 239.528C79.196 239.528 79.268 239.588 79.268 239.708C79.268 239.948 79.388 240.128 79.628 240.248C79.868 240.344 80.132 240.416 80.42 240.464C80.732 240.488 80.996 240.5 81.212 240.5C83.276 240.572 85.688 240.608 88.448 240.608C90.152 240.608 91.496 240.596 92.48 240.572C93.488 240.524 94.46 240.5 95.396 240.5C96.212 240.5 96.836 240.452 97.268 240.356C97.724 240.236 98.012 239.984 98.132 239.6C98.156 239.504 98.228 239.456 98.348 239.456C98.468 239.456 98.528 239.504 98.528 239.6C98.504 239.96 98.468 240.452 98.42 241.076C98.372 241.7 98.336 242.348 98.312 243.02C98.288 243.692 98.264 244.316 98.24 244.892C98.216 245.468 98.204 245.912 98.204 246.224C98.204 246.272 98.132 246.296 97.988 246.296C97.844 246.296 97.772 246.272 97.772 246.224C97.7 244.352 97.316 243.044 96.62 242.3C95.924 241.532 94.772 241.148 93.164 241.148C92.156 241.148 91.4 241.196 90.896 241.292C90.392 241.388 90.056 241.604 89.888 241.94C89.744 242.252 89.672 242.768 89.672 243.488V260.084C89.672 260.78 89.756 261.308 89.924 261.668C90.092 262.028 90.416 262.268 90.896 262.388C91.4 262.508 92.156 262.568 93.164 262.568C93.236 262.568 93.272 262.64 93.272 262.784C93.272 262.928 93.236 263 93.164 263C92.54 263 91.832 262.988 91.04 262.964C90.248 262.94 89.384 262.928 88.448 262.928C87.56 262.928 86.72 262.94 85.928 262.964C85.136 262.988 84.416 263 83.768 263C83.72 263 83.696 262.928 83.696 262.784C83.696 262.64 83.72 262.568 83.768 262.568C84.752 262.568 85.496 262.508 86 262.388C86.528 262.268 86.876 262.028 87.044 261.668C87.212 261.308 87.296 260.78 87.296 260.084V243.416C87.296 242.696 87.212 242.18 87.044 241.868C86.876 241.532 86.54 241.328 86.036 241.256C85.532 241.184 84.776 241.148 83.768 241.148ZM105.179 263.468C103.763 263.468 102.527 263.12 101.471 262.424C100.415 261.728 99.5993 260.804 99.0233 259.652C98.4473 258.476 98.1593 257.216 98.1593 255.872C98.1593 254.624 98.3873 253.544 98.8433 252.632C99.2993 251.72 99.9113 250.976 100.679 250.4C101.447 249.8 102.275 249.356 103.163 249.068C104.075 248.78 104.963 248.636 105.827 248.636C107.291 248.636 108.539 248.996 109.571 249.716C110.627 250.436 111.431 251.36 111.983 252.488C112.535 253.616 112.811 254.804 112.811 256.052C112.811 257.588 112.463 258.908 111.767 260.012C111.071 261.116 110.147 261.968 108.995 262.568C107.843 263.168 106.571 263.468 105.179 263.468ZM106.223 262.784C107.495 262.784 108.503 262.34 109.247 261.452C109.991 260.54 110.363 259.076 110.363 257.06C110.363 255.548 110.111 254.216 109.607 253.064C109.127 251.888 108.455 250.976 107.591 250.328C106.727 249.656 105.743 249.32 104.639 249.32C103.367 249.32 102.371 249.788 101.651 250.724C100.931 251.66 100.571 253.004 100.571 254.756C100.571 256.22 100.811 257.564 101.291 258.788C101.771 260.012 102.431 260.984 103.271 261.704C104.135 262.424 105.119 262.784 106.223 262.784ZM116.106 263.288C115.05 263.288 114.522 262.892 114.522 262.1C114.522 261.716 114.63 261.416 114.846 261.2C115.086 260.984 115.35 260.876 115.638 260.876C115.782 260.876 115.938 260.9 116.106 260.948C116.298 260.972 116.478 260.984 116.646 260.984C117.318 260.984 117.882 260.672 118.338 260.048C118.818 259.424 119.214 258.62 119.526 257.636C119.838 256.652 120.066 255.608 120.21 254.504C120.354 253.4 120.426 252.356 120.426 251.372C120.426 250.604 120.246 250.124 119.886 249.932C119.55 249.716 118.842 249.572 117.762 249.5C117.69 249.5 117.654 249.44 117.654 249.32C117.654 249.176 117.69 249.104 117.762 249.104C117.978 249.104 118.362 249.104 118.914 249.104C119.49 249.104 120.102 249.104 120.75 249.104C121.422 249.104 122.022 249.104 122.55 249.104C123.078 249.104 123.414 249.104 123.558 249.104H129.75C129.798 249.104 129.822 249.176 129.822 249.32C129.822 249.464 129.798 249.536 129.75 249.536C129.126 249.56 128.646 249.632 128.31 249.752C127.998 249.848 127.77 250.064 127.626 250.4C127.506 250.736 127.446 251.3 127.446 252.092V260.084C127.446 260.828 127.506 261.38 127.626 261.74C127.746 262.076 127.974 262.292 128.31 262.388C128.646 262.46 129.126 262.52 129.75 262.568C129.798 262.568 129.822 262.64 129.822 262.784C129.822 262.928 129.798 263 129.75 263C129.27 263 128.754 262.988 128.202 262.964C127.65 262.94 127.086 262.928 126.51 262.928C125.886 262.928 125.274 262.94 124.674 262.964C124.098 262.988 123.582 263 123.126 263C123.054 263 123.018 262.928 123.018 262.784C123.018 262.64 123.054 262.568 123.126 262.568C123.774 262.52 124.254 262.46 124.566 262.388C124.902 262.292 125.13 262.076 125.25 261.74C125.37 261.38 125.43 260.828 125.43 260.084V252.02C125.43 251.276 125.406 250.76 125.358 250.472C125.31 250.16 125.166 249.968 124.926 249.896C124.686 249.824 124.278 249.788 123.702 249.788H123.486C122.91 249.788 122.478 249.848 122.19 249.968C121.926 250.064 121.746 250.268 121.65 250.58C121.554 250.892 121.458 251.36 121.362 251.984C121.266 252.896 121.146 253.868 121.002 254.9C120.858 255.932 120.666 256.94 120.426 257.924C120.186 258.908 119.886 259.808 119.526 260.624C119.166 261.416 118.698 262.064 118.122 262.568C117.57 263.048 116.898 263.288 116.106 263.288ZM136.331 252.092V260.084C136.331 260.948 136.511 261.572 136.871 261.956C137.255 262.34 138.023 262.532 139.175 262.532C140.327 262.532 141.167 262.268 141.695 261.74C142.247 261.188 142.523 260.408 142.523 259.4C142.523 258.248 142.235 257.312 141.659 256.592C141.083 255.848 140.123 255.476 138.779 255.476C138.251 255.476 137.735 255.524 137.231 255.62C136.751 255.716 136.235 255.896 135.683 256.16L135.467 255.692C136.235 255.356 137.003 255.128 137.771 255.008C138.563 254.888 139.319 254.828 140.039 254.828C143.207 254.828 144.791 256.076 144.791 258.572C144.791 259.892 144.323 260.972 143.387 261.812C142.451 262.652 141.275 263.072 139.859 263.072C139.475 263.072 139.019 263.06 138.491 263.036C137.963 263.012 137.423 262.988 136.871 262.964C136.319 262.94 135.815 262.928 135.359 262.928C134.759 262.928 134.171 262.94 133.595 262.964C133.019 262.988 132.491 263 132.011 263C131.939 263 131.903 262.928 131.903 262.784C131.903 262.64 131.939 262.568 132.011 262.568C132.995 262.568 133.619 262.412 133.883 262.1C134.171 261.788 134.315 261.116 134.315 260.084V252.02C134.315 250.964 134.171 250.292 133.883 250.004C133.619 249.692 133.007 249.536 132.047 249.536C131.975 249.536 131.939 249.464 131.939 249.32C131.939 249.176 131.975 249.104 132.047 249.104C132.503 249.104 133.019 249.116 133.595 249.14C134.171 249.164 134.759 249.176 135.359 249.176C136.031 249.176 136.679 249.164 137.303 249.14C137.951 249.116 138.527 249.104 139.031 249.104C139.103 249.104 139.139 249.176 139.139 249.32C139.139 249.464 139.103 249.536 139.031 249.536C137.879 249.536 137.135 249.704 136.799 250.04C136.487 250.376 136.331 251.06 136.331 252.092ZM146.705 263C146.633 263 146.597 262.928 146.597 262.784C146.597 262.64 146.633 262.568 146.705 262.568C147.689 262.568 148.313 262.412 148.577 262.1C148.841 261.788 148.973 261.116 148.973 260.084V252.02C148.973 250.964 148.841 250.292 148.577 250.004C148.313 249.692 147.701 249.536 146.741 249.536C146.669 249.536 146.633 249.464 146.633 249.32C146.633 249.176 146.669 249.104 146.741 249.104C147.173 249.104 147.677 249.116 148.253 249.14C148.829 249.164 149.429 249.176 150.053 249.176C150.725 249.176 151.373 249.164 151.997 249.14C152.645 249.116 153.209 249.104 153.689 249.104C153.761 249.104 153.797 249.176 153.797 249.32C153.797 249.464 153.761 249.536 153.689 249.536C152.561 249.536 151.829 249.704 151.493 250.04C151.181 250.352 151.025 251.036 151.025 252.092V260.084C151.025 261.116 151.157 261.788 151.421 262.1C151.685 262.412 152.309 262.568 153.293 262.568C153.341 262.568 153.365 262.64 153.365 262.784C153.365 262.928 153.341 263 153.293 263C152.837 263 152.321 262.988 151.745 262.964C151.193 262.94 150.629 262.928 150.053 262.928C149.429 262.928 148.829 262.94 148.253 262.964C147.677 262.988 147.161 263 146.705 263ZM158.189 263C158.093 263 158.009 262.988 157.937 262.964C157.865 262.916 157.769 262.796 157.649 262.604C157.553 262.388 157.361 262.052 157.073 261.596C156.809 261.116 156.425 260.432 155.921 259.544C155.345 258.584 154.841 257.864 154.409 257.384C154.001 256.88 153.581 256.544 153.149 256.376C152.741 256.184 152.225 256.088 151.601 256.088C151.169 256.088 150.641 256.124 150.017 256.196L149.981 255.548C150.437 255.524 150.857 255.512 151.241 255.512C151.649 255.488 152.021 255.464 152.357 255.44C152.717 255.416 153.017 255.404 153.257 255.404C154.073 255.404 154.709 255.5 155.165 255.692C155.645 255.86 156.089 256.184 156.497 256.664C156.905 257.144 157.409 257.864 158.009 258.824C158.537 259.64 158.969 260.324 159.305 260.876C159.665 261.404 160.049 261.812 160.457 262.1C160.889 262.388 161.465 262.544 162.185 262.568C162.233 262.568 162.257 262.64 162.257 262.784C162.257 262.928 162.233 263 162.185 263H158.189ZM153.257 256.016V255.404C153.521 255.404 153.761 255.32 153.977 255.152C154.193 254.984 154.385 254.768 154.553 254.504C154.721 254.24 154.889 253.964 155.057 253.676C155.609 252.644 156.077 251.768 156.461 251.048C156.869 250.304 157.289 249.74 157.721 249.356C158.153 248.972 158.669 248.78 159.269 248.78C159.821 248.78 160.229 248.912 160.493 249.176C160.781 249.416 160.925 249.704 160.925 250.04C160.925 250.4 160.793 250.724 160.529 251.012C160.289 251.276 159.941 251.408 159.485 251.408C159.245 251.408 159.041 251.36 158.873 251.264C158.729 251.168 158.585 251.084 158.441 251.012C158.321 250.94 158.165 250.904 157.973 250.904C157.781 250.904 157.541 251.06 157.253 251.372C156.989 251.684 156.713 252.068 156.425 252.524C156.137 252.98 155.861 253.424 155.597 253.856C155.285 254.48 154.937 254.996 154.553 255.404C154.169 255.812 153.737 256.016 153.257 256.016ZM169.867 263.468C168.451 263.468 167.215 263.12 166.159 262.424C165.103 261.728 164.287 260.804 163.711 259.652C163.135 258.476 162.847 257.216 162.847 255.872C162.847 254.624 163.075 253.544 163.531 252.632C163.987 251.72 164.599 250.976 165.367 250.4C166.135 249.8 166.963 249.356 167.851 249.068C168.763 248.78 169.651 248.636 170.515 248.636C171.979 248.636 173.227 248.996 174.259 249.716C175.315 250.436 176.119 251.36 176.671 252.488C177.223 253.616 177.499 254.804 177.499 256.052C177.499 257.588 177.151 258.908 176.455 260.012C175.759 261.116 174.835 261.968 173.683 262.568C172.531 263.168 171.259 263.468 169.867 263.468ZM170.911 262.784C172.183 262.784 173.191 262.34 173.935 261.452C174.679 260.54 175.051 259.076 175.051 257.06C175.051 255.548 174.799 254.216 174.295 253.064C173.815 251.888 173.143 250.976 172.279 250.328C171.415 249.656 170.431 249.32 169.327 249.32C168.055 249.32 167.059 249.788 166.339 250.724C165.619 251.66 165.259 253.004 165.259 254.756C165.259 256.22 165.499 257.564 165.979 258.788C166.459 260.012 167.119 260.984 167.959 261.704C168.823 262.424 169.807 262.784 170.911 262.784ZM191.715 249.14C192.339 249.14 192.987 249.128 193.659 249.104C194.355 249.056 195.039 249.032 195.711 249.032C197.103 249.032 198.171 249.26 198.915 249.716C199.683 250.172 200.067 250.856 200.067 251.768C200.067 253.064 199.095 254.36 197.151 255.656L196.683 255.44C197.043 255.104 197.319 254.72 197.511 254.288C197.703 253.832 197.799 253.268 197.799 252.596C197.799 251.516 197.535 250.736 197.007 250.256C196.503 249.776 195.759 249.536 194.775 249.536C193.959 249.536 193.407 249.692 193.119 250.004C192.831 250.292 192.687 250.988 192.687 252.092V260.084C192.687 260.924 192.867 261.536 193.227 261.92C193.611 262.304 194.391 262.496 195.567 262.496C196.839 262.496 197.763 262.232 198.339 261.704C198.939 261.176 199.239 260.42 199.239 259.436C199.239 258.38 198.927 257.528 198.303 256.88C197.679 256.208 196.635 255.872 195.171 255.872H191.859L191.823 255.296H196.431C199.863 255.296 201.579 256.4 201.579 258.608C201.579 259.904 201.075 260.972 200.067 261.812C199.059 262.652 197.775 263.072 196.215 263.072C195.639 263.072 194.907 263.048 194.019 263C193.155 262.952 192.387 262.928 191.715 262.928C191.115 262.928 190.527 262.94 189.951 262.964C189.375 262.988 188.847 263 188.367 263C188.295 263 188.259 262.928 188.259 262.784C188.259 262.64 188.295 262.568 188.367 262.568C189.351 262.568 189.975 262.412 190.239 262.1C190.527 261.788 190.671 261.116 190.671 260.084V252.02C190.671 250.964 190.527 250.292 190.239 250.004C189.975 249.692 189.363 249.536 188.403 249.536C188.331 249.536 188.295 249.464 188.295 249.32C188.295 249.176 188.331 249.104 188.403 249.104C188.859 249.104 189.375 249.116 189.951 249.14C190.527 249.14 191.115 249.14 191.715 249.14ZM220.475 263.468C219.539 263.468 218.615 263.312 217.703 263C216.791 262.712 215.915 262.208 215.075 261.488L216.767 258.284C216.767 259.388 217.043 260.276 217.595 260.948C218.147 261.596 218.795 262.064 219.539 262.352C220.307 262.64 220.991 262.784 221.591 262.784C222.983 262.784 224.063 262.244 224.831 261.164C225.623 260.084 226.019 258.536 226.019 256.52C226.019 254.288 225.587 252.62 224.723 251.516C223.859 250.388 222.755 249.824 221.411 249.824C220.427 249.824 219.515 250.136 218.675 250.76C217.835 251.36 217.055 252.044 216.335 252.812L216.047 252.56C216.551 252.008 217.115 251.432 217.739 250.832C218.363 250.208 219.071 249.692 219.863 249.284C220.679 248.852 221.591 248.636 222.599 248.636C223.631 248.636 224.579 248.888 225.443 249.392C226.307 249.872 227.015 250.604 227.567 251.588C228.119 252.572 228.395 253.808 228.395 255.296C228.395 257.12 227.999 258.644 227.207 259.868C226.439 261.068 225.443 261.968 224.219 262.568C223.019 263.168 221.771 263.468 220.475 263.468ZM212.843 263.18C212.747 263.204 212.675 263.156 212.627 263.036C212.579 262.94 212.591 262.868 212.663 262.82C213.359 262.34 213.875 261.872 214.211 261.416C214.571 260.96 214.751 260.252 214.751 259.292V241.508C214.751 240.644 214.667 240.02 214.499 239.636C214.331 239.252 214.019 239.06 213.563 239.06C213.179 239.06 212.639 239.216 211.943 239.528C211.847 239.576 211.763 239.528 211.691 239.384C211.643 239.24 211.667 239.156 211.763 239.132L216.263 236.936C216.335 236.912 216.395 236.9 216.443 236.9C216.515 236.9 216.587 236.936 216.659 237.008C216.731 237.056 216.767 237.116 216.767 237.188V261.344L212.843 263.18ZM241.023 263.216C240.927 263.264 240.831 263.288 240.735 263.288C240.423 263.288 240.123 263.036 239.835 262.532C239.547 262.004 239.403 261.248 239.403 260.264V253.82C239.403 252.692 239.295 251.816 239.079 251.192C238.887 250.568 238.611 250.136 238.251 249.896C237.915 249.656 237.531 249.536 237.099 249.536C236.499 249.536 236.007 249.692 235.623 250.004C235.239 250.292 234.951 250.664 234.759 251.12C234.567 251.576 234.435 252.032 234.363 252.488C234.339 252.824 234.231 253.136 234.039 253.424C233.871 253.712 233.535 253.856 233.031 253.856C232.647 253.856 232.347 253.76 232.131 253.568C231.915 253.376 231.807 253.112 231.807 252.776C231.807 252.344 232.023 251.9 232.455 251.444C232.887 250.964 233.427 250.532 234.075 250.148C234.747 249.74 235.443 249.416 236.163 249.176C236.907 248.912 237.603 248.78 238.251 248.78C239.163 248.78 239.919 249.104 240.519 249.752C241.119 250.376 241.419 251.372 241.419 252.74V259.112C241.419 259.952 241.527 260.564 241.743 260.948C241.959 261.332 242.307 261.524 242.787 261.524C243.219 261.524 243.819 261.368 244.587 261.056C244.707 261.008 244.791 261.056 244.839 261.2C244.887 261.32 244.851 261.404 244.731 261.452L241.023 263.216ZM233.967 263.252C233.199 263.252 232.623 263.048 232.239 262.64C231.855 262.208 231.663 261.716 231.663 261.164C231.663 260.492 231.927 259.964 232.455 259.58C232.983 259.172 233.847 258.764 235.047 258.356L239.763 256.664L239.871 257.06L235.695 258.644C235.143 258.86 234.747 259.1 234.507 259.364C234.291 259.628 234.183 259.964 234.183 260.372C234.183 260.876 234.327 261.272 234.615 261.56C234.903 261.824 235.275 261.956 235.731 261.956C235.995 261.956 236.247 261.932 236.487 261.884C236.727 261.812 236.967 261.716 237.207 261.596L240.267 260.048L240.339 260.48L237.207 262.172C236.487 262.532 235.887 262.808 235.407 263C234.927 263.168 234.447 263.252 233.967 263.252ZM245.737 263C245.665 263 245.629 262.928 245.629 262.784C245.629 262.64 245.665 262.568 245.737 262.568C246.673 262.568 247.285 262.412 247.573 262.1C247.861 261.764 248.005 261.092 248.005 260.084V241.472C248.005 240.632 247.921 240.02 247.753 239.636C247.585 239.228 247.285 239.024 246.853 239.024C246.493 239.024 245.941 239.192 245.197 239.528C245.101 239.576 245.017 239.528 244.945 239.384C244.897 239.24 244.921 239.156 245.017 239.132L249.517 236.936C249.589 236.912 249.649 236.9 249.697 236.9C249.769 236.9 249.841 236.936 249.913 237.008C249.985 237.056 250.021 237.116 250.021 237.188V260.084C250.021 261.092 250.165 261.764 250.453 262.1C250.741 262.412 251.353 262.568 252.289 262.568C252.361 262.568 252.397 262.64 252.397 262.784C252.397 262.928 252.361 263 252.289 263C251.857 263 251.365 262.988 250.813 262.964C250.261 262.94 249.661 262.928 249.013 262.928C248.389 262.928 247.789 262.94 247.213 262.964C246.637 262.988 246.145 263 245.737 263ZM254.773 263C254.725 263 254.701 262.928 254.701 262.784C254.701 262.64 254.725 262.568 254.773 262.568C255.637 262.568 256.189 262.46 256.429 262.244C256.669 262.004 256.609 261.62 256.249 261.092L251.677 254.864L253.369 253.64L258.049 260.084C258.697 261.02 259.369 261.668 260.065 262.028C260.785 262.388 261.493 262.568 262.189 262.568C262.261 262.568 262.297 262.64 262.297 262.784C262.297 262.928 262.261 263 262.189 263C261.757 263 261.265 262.988 260.713 262.964C260.161 262.94 259.561 262.928 258.913 262.928C258.001 262.928 257.221 262.94 256.573 262.964C255.925 262.988 255.325 263 254.773 263ZM249.373 256.988L249.229 256.556L254.845 252.02C255.781 251.276 256.153 250.676 255.961 250.22C255.793 249.764 255.121 249.536 253.945 249.536C253.873 249.536 253.837 249.464 253.837 249.32C253.837 249.176 253.873 249.104 253.945 249.104C254.521 249.104 255.097 249.116 255.673 249.14C256.273 249.164 257.065 249.176 258.049 249.176C258.961 249.176 259.681 249.164 260.209 249.14C260.761 249.116 261.277 249.104 261.757 249.104C261.829 249.104 261.865 249.176 261.865 249.32C261.865 249.464 261.829 249.536 261.757 249.536C261.205 249.536 260.593 249.632 259.921 249.824C259.249 249.992 258.541 250.268 257.797 250.652C257.077 251.036 256.333 251.528 255.565 252.128L249.373 256.988ZM269.916 263.432C268.428 263.432 267.18 263.108 266.172 262.46C265.164 261.788 264.408 260.924 263.904 259.868C263.4 258.812 263.148 257.696 263.148 256.52C263.148 255.056 263.484 253.748 264.156 252.596C264.852 251.42 265.776 250.496 266.928 249.824C268.104 249.128 269.424 248.78 270.888 248.78C272.208 248.78 273.216 249.104 273.912 249.752C274.632 250.376 274.992 251.24 274.992 252.344C274.992 252.608 274.968 252.812 274.92 252.956C274.872 253.1 274.752 253.172 274.56 253.172H272.472C272.568 251.996 272.352 251.096 271.824 250.472C271.32 249.824 270.6 249.5 269.664 249.5C268.32 249.5 267.288 250.004 266.568 251.012C265.872 252.02 265.524 253.388 265.524 255.116C265.524 256.484 265.74 257.696 266.172 258.752C266.628 259.808 267.276 260.648 268.116 261.272C268.98 261.872 270 262.172 271.176 262.172C271.8 262.172 272.436 262.076 273.084 261.884C273.732 261.692 274.344 261.392 274.92 260.984C274.968 260.936 275.028 260.972 275.1 261.092C275.196 261.188 275.22 261.272 275.172 261.344C274.308 262.088 273.444 262.628 272.58 262.964C271.716 263.276 270.828 263.432 269.916 263.432ZM264.876 253.244L264.84 252.776L273.048 252.596V253.172L264.876 253.244ZM287.288 258.068C287.288 256.964 287.552 255.992 288.08 255.152C288.608 254.312 289.28 253.544 290.096 252.848C290.936 252.152 291.824 251.492 292.76 250.868C293.696 250.22 294.572 249.548 295.388 248.852C296.228 248.156 296.912 247.412 297.44 246.62C297.968 245.828 298.232 244.916 298.232 243.884C298.232 242.804 297.944 241.976 297.368 241.4C296.792 240.8 296.036 240.5 295.1 240.5C294.188 240.5 293.48 240.776 292.976 241.328C292.496 241.88 292.256 242.756 292.256 243.956C292.256 245.204 292.52 246.476 293.048 247.772C293.576 249.044 294.308 250.304 295.244 251.552C296.18 252.8 297.248 254.012 298.448 255.188C299.672 256.364 300.956 257.456 302.3 258.464C303.812 259.592 305.252 260.516 306.62 261.236C307.988 261.932 309.14 262.376 310.076 262.568C310.196 262.592 310.244 262.676 310.22 262.82C310.196 262.94 310.148 263 310.076 263C309.548 263 308.936 263 308.24 263C307.544 263 306.86 263 306.188 263C305.876 263 305.468 262.904 304.964 262.712C304.46 262.52 303.812 262.184 303.02 261.704C302.252 261.2 301.304 260.48 300.176 259.544C298.976 258.584 297.8 257.54 296.648 256.412C295.496 255.284 294.44 254.12 293.48 252.92C292.544 251.696 291.788 250.508 291.212 249.356C290.9 248.66 290.648 247.988 290.456 247.34C290.264 246.692 290.168 246.068 290.168 245.468C290.168 244.412 290.42 243.452 290.924 242.588C291.428 241.724 292.124 241.04 293.012 240.536C293.9 240.008 294.944 239.744 296.144 239.744C296.792 239.744 297.44 239.852 298.088 240.068C298.736 240.26 299.276 240.62 299.708 241.148C300.14 241.652 300.356 242.372 300.356 243.308C300.356 244.34 300.092 245.24 299.564 246.008C299.06 246.752 298.388 247.448 297.548 248.096C296.732 248.72 295.868 249.332 294.956 249.932C294.044 250.508 293.18 251.132 292.364 251.804C291.548 252.452 290.876 253.184 290.348 254C289.844 254.792 289.592 255.728 289.592 256.808C289.592 257.816 289.844 258.752 290.348 259.616C290.876 260.456 291.596 261.128 292.508 261.632C293.42 262.112 294.452 262.352 295.604 262.352C296.732 262.352 297.776 262.112 298.736 261.632C299.696 261.128 300.512 260.468 301.184 259.652C301.88 258.812 302.408 257.864 302.768 256.808C303.152 255.728 303.344 254.612 303.344 253.46C303.344 252.692 303.188 252.068 302.876 251.588C302.588 251.108 301.892 250.868 300.788 250.868C300.716 250.868 300.668 250.796 300.644 250.652C300.644 250.508 300.692 250.436 300.788 250.436L308.312 250.4C308.408 250.4 308.456 250.472 308.456 250.616C308.456 250.76 308.408 250.832 308.312 250.832C307.472 250.832 306.848 250.916 306.44 251.084C306.032 251.228 305.744 251.456 305.576 251.768C305.408 252.08 305.252 252.476 305.108 252.956C304.892 253.772 304.592 254.66 304.208 255.62C303.848 256.556 303.38 257.492 302.804 258.428C302.252 259.34 301.568 260.18 300.752 260.948C299.936 261.692 298.964 262.292 297.836 262.748C296.732 263.204 295.448 263.432 293.984 263.432C292.448 263.432 291.176 263.18 290.168 262.676C289.184 262.148 288.452 261.476 287.972 260.66C287.516 259.82 287.288 258.956 287.288 258.068ZM334.471 262.964L329.431 252.092C328.951 251.012 328.555 250.316 328.243 250.004C327.931 249.692 327.547 249.536 327.091 249.536C327.043 249.536 327.019 249.464 327.019 249.32C327.019 249.176 327.043 249.104 327.091 249.104C327.451 249.104 327.835 249.116 328.243 249.14C328.651 249.164 329.071 249.176 329.503 249.176C330.319 249.176 331.015 249.164 331.591 249.14C332.191 249.116 332.731 249.104 333.211 249.104C333.283 249.104 333.319 249.176 333.319 249.32C333.319 249.464 333.283 249.536 333.211 249.536C332.491 249.536 331.915 249.632 331.483 249.824C331.075 250.016 331.003 250.388 331.267 250.94L335.875 260.768L334.867 262.208L339.043 251.984C339.403 251.12 339.379 250.496 338.971 250.112C338.563 249.728 337.723 249.536 336.451 249.536C336.403 249.536 336.379 249.464 336.379 249.32C336.379 249.176 336.403 249.104 336.451 249.104C337.027 249.104 337.567 249.116 338.071 249.14C338.599 249.164 339.271 249.176 340.087 249.176C340.615 249.176 341.035 249.164 341.347 249.14C341.659 249.116 342.043 249.104 342.499 249.104C342.571 249.104 342.607 249.176 342.607 249.32C342.607 249.464 342.571 249.536 342.499 249.536C341.923 249.536 341.431 249.728 341.023 250.112C340.615 250.472 340.195 251.156 339.763 252.164L335.263 262.964C335.239 263.06 335.107 263.108 334.867 263.108C334.651 263.108 334.519 263.06 334.471 262.964ZM325.975 262.964L320.935 252.092C320.431 251.012 320.011 250.316 319.675 250.004C319.363 249.692 318.979 249.536 318.523 249.536C318.451 249.536 318.415 249.464 318.415 249.32C318.415 249.176 318.451 249.104 318.523 249.104C318.883 249.104 319.267 249.116 319.675 249.14C320.107 249.164 320.551 249.176 321.007 249.176C321.775 249.176 322.447 249.164 323.023 249.14C323.623 249.116 324.187 249.104 324.715 249.104C324.787 249.104 324.823 249.176 324.823 249.32C324.823 249.464 324.787 249.536 324.715 249.536C323.947 249.536 323.359 249.632 322.951 249.824C322.567 250.016 322.507 250.388 322.771 250.94L327.415 260.768L326.335 262.208L330.259 252.74L330.871 253.136L326.767 262.964C326.743 263.06 326.611 263.108 326.371 263.108C326.155 263.108 326.023 263.06 325.975 262.964ZM353.558 263.216C353.462 263.264 353.366 263.288 353.27 263.288C352.958 263.288 352.658 263.036 352.37 262.532C352.082 262.004 351.938 261.248 351.938 260.264V253.82C351.938 252.692 351.83 251.816 351.614 251.192C351.422 250.568 351.146 250.136 350.786 249.896C350.45 249.656 350.066 249.536 349.634 249.536C349.034 249.536 348.542 249.692 348.158 250.004C347.774 250.292 347.486 250.664 347.294 251.12C347.102 251.576 346.97 252.032 346.898 252.488C346.874 252.824 346.766 253.136 346.574 253.424C346.406 253.712 346.07 253.856 345.566 253.856C345.182 253.856 344.882 253.76 344.666 253.568C344.45 253.376 344.342 253.112 344.342 252.776C344.342 252.344 344.558 251.9 344.99 251.444C345.422 250.964 345.962 250.532 346.61 250.148C347.282 249.74 347.978 249.416 348.698 249.176C349.442 248.912 350.138 248.78 350.786 248.78C351.698 248.78 352.454 249.104 353.054 249.752C353.654 250.376 353.954 251.372 353.954 252.74V259.112C353.954 259.952 354.062 260.564 354.278 260.948C354.494 261.332 354.842 261.524 355.322 261.524C355.754 261.524 356.354 261.368 357.122 261.056C357.242 261.008 357.326 261.056 357.374 261.2C357.422 261.32 357.386 261.404 357.266 261.452L353.558 263.216ZM346.502 263.252C345.734 263.252 345.158 263.048 344.774 262.64C344.39 262.208 344.198 261.716 344.198 261.164C344.198 260.492 344.462 259.964 344.99 259.58C345.518 259.172 346.382 258.764 347.582 258.356L352.298 256.664L352.406 257.06L348.23 258.644C347.678 258.86 347.282 259.1 347.042 259.364C346.826 259.628 346.718 259.964 346.718 260.372C346.718 260.876 346.862 261.272 347.15 261.56C347.438 261.824 347.81 261.956 348.266 261.956C348.53 261.956 348.782 261.932 349.022 261.884C349.262 261.812 349.502 261.716 349.742 261.596L352.802 260.048L352.874 260.48L349.742 262.172C349.022 262.532 348.422 262.808 347.942 263C347.462 263.168 346.982 263.252 346.502 263.252ZM363.564 273.152C361.836 273.152 360.456 272.732 359.424 271.892C358.392 271.076 357.876 270.044 357.876 268.796C357.876 268.028 358.08 267.284 358.488 266.564C358.92 265.844 359.544 265.124 360.36 264.404C361.176 263.708 362.184 263 363.384 262.28L363.744 262.676C363.144 263.06 362.556 263.456 361.98 263.864C361.404 264.296 360.924 264.8 360.54 265.376C360.18 265.976 360 266.732 360 267.644C360 269.012 360.444 270.092 361.332 270.884C362.244 271.676 363.468 272.072 365.004 272.072C366.228 272.072 367.26 271.844 368.1 271.388C368.94 270.956 369.576 270.38 370.008 269.66C370.44 268.94 370.656 268.196 370.656 267.428C370.656 266.66 370.464 266.048 370.08 265.592C369.696 265.136 369.192 264.776 368.568 264.512C367.944 264.272 367.248 264.092 366.48 263.972C365.736 263.852 364.992 263.744 364.248 263.648C363.504 263.552 362.772 263.408 362.052 263.216C361.332 263.048 360.732 262.772 360.252 262.388C359.772 262.004 359.532 261.464 359.532 260.768C359.532 260 359.82 259.268 360.396 258.572C360.996 257.876 361.704 257.288 362.52 256.808L362.772 257.06C362.292 257.348 361.908 257.708 361.62 258.14C361.356 258.572 361.224 259.028 361.224 259.508C361.224 260.06 361.416 260.492 361.8 260.804C362.208 261.116 362.724 261.344 363.348 261.488C363.996 261.632 364.656 261.752 365.328 261.848C366.168 261.968 367.008 262.1 367.848 262.244C368.688 262.388 369.456 262.604 370.152 262.892C370.872 263.156 371.448 263.54 371.88 264.044C372.312 264.572 372.528 265.28 372.528 266.168C372.528 266.984 372.288 267.8 371.808 268.616C371.352 269.432 370.716 270.176 369.9 270.848C369.084 271.544 368.124 272.096 367.02 272.504C365.94 272.936 364.788 273.152 363.564 273.152ZM364.392 257.42C363.264 257.42 362.316 257.228 361.548 256.844C360.804 256.436 360.228 255.896 359.82 255.224C359.412 254.552 359.208 253.844 359.208 253.1C359.208 252.26 359.448 251.528 359.928 250.904C360.408 250.256 361.068 249.752 361.908 249.392C362.772 249.032 363.732 248.852 364.788 248.852C366.012 248.852 366.996 249.068 367.74 249.5C368.484 249.908 369.012 250.424 369.324 251.048C369.66 251.648 369.828 252.272 369.828 252.92C369.828 253.736 369.6 254.492 369.144 255.188C368.712 255.86 368.088 256.4 367.272 256.808C366.456 257.216 365.496 257.42 364.392 257.42ZM365.148 256.916C365.796 256.916 366.36 256.676 366.84 256.196C367.344 255.692 367.596 254.84 367.596 253.64C367.596 252.344 367.212 251.312 366.444 250.544C365.7 249.776 364.848 249.392 363.888 249.392C363.216 249.392 362.64 249.62 362.16 250.076C361.68 250.532 361.44 251.288 361.44 252.344C361.44 253.304 361.62 254.12 361.98 254.792C362.34 255.464 362.808 255.992 363.384 256.376C363.96 256.736 364.548 256.916 365.148 256.916ZM367.776 251.552L367.812 250.364C368.532 249.884 369.24 249.512 369.936 249.248C370.656 248.96 371.448 248.816 372.312 248.816C372.36 248.816 372.396 248.9 372.42 249.068C372.468 249.236 372.492 249.416 372.492 249.608C372.492 249.872 372.456 250.16 372.384 250.472C372.336 250.76 372.264 250.88 372.168 250.832C371.928 250.736 371.604 250.628 371.196 250.508C370.788 250.364 370.32 250.292 369.792 250.292C369.48 250.292 369.18 250.316 368.892 250.364C368.628 250.412 368.364 250.472 368.1 250.544L367.776 251.552ZM389.664 263.432C388.032 263.432 386.7 263.084 385.668 262.388C384.636 261.668 383.868 260.768 383.364 259.688C382.884 258.584 382.644 257.468 382.644 256.34C382.644 255.14 382.872 254.072 383.328 253.136C383.808 252.2 384.432 251.408 385.2 250.76C385.968 250.112 386.82 249.62 387.756 249.284C388.692 248.948 389.604 248.78 390.492 248.78C391.188 248.78 391.848 248.876 392.472 249.068C393.12 249.236 393.648 249.488 394.056 249.824C394.488 250.16 394.704 250.544 394.704 250.976C394.704 251.288 394.596 251.564 394.38 251.804C394.164 252.02 393.852 252.128 393.444 252.128C393.06 252.128 392.736 252.008 392.472 251.768C392.232 251.528 392.028 251.252 391.86 250.94C391.596 250.508 391.284 250.16 390.924 249.896C390.564 249.632 390.024 249.5 389.304 249.5C387.936 249.5 386.88 250.04 386.136 251.12C385.392 252.176 385.02 253.556 385.02 255.26C385.02 256.484 385.224 257.624 385.632 258.68C386.064 259.736 386.724 260.588 387.612 261.236C388.5 261.86 389.652 262.172 391.068 262.172C391.716 262.172 392.352 262.088 392.976 261.92C393.6 261.752 394.188 261.44 394.74 260.984C394.788 260.936 394.848 260.96 394.92 261.056C395.016 261.152 395.04 261.224 394.992 261.272C394.152 262.016 393.312 262.568 392.472 262.928C391.632 263.264 390.696 263.432 389.664 263.432ZM407.277 263.216C407.181 263.264 407.085 263.288 406.989 263.288C406.677 263.288 406.377 263.036 406.089 262.532C405.801 262.004 405.657 261.248 405.657 260.264V253.82C405.657 252.692 405.549 251.816 405.333 251.192C405.141 250.568 404.865 250.136 404.505 249.896C404.169 249.656 403.785 249.536 403.353 249.536C402.753 249.536 402.261 249.692 401.877 250.004C401.493 250.292 401.205 250.664 401.013 251.12C400.821 251.576 400.689 252.032 400.617 252.488C400.593 252.824 400.485 253.136 400.293 253.424C400.125 253.712 399.789 253.856 399.285 253.856C398.901 253.856 398.601 253.76 398.385 253.568C398.169 253.376 398.061 253.112 398.061 252.776C398.061 252.344 398.277 251.9 398.709 251.444C399.141 250.964 399.681 250.532 400.329 250.148C401.001 249.74 401.697 249.416 402.417 249.176C403.161 248.912 403.857 248.78 404.505 248.78C405.417 248.78 406.173 249.104 406.773 249.752C407.373 250.376 407.673 251.372 407.673 252.74V259.112C407.673 259.952 407.781 260.564 407.997 260.948C408.213 261.332 408.561 261.524 409.041 261.524C409.473 261.524 410.073 261.368 410.841 261.056C410.961 261.008 411.045 261.056 411.093 261.2C411.141 261.32 411.105 261.404 410.985 261.452L407.277 263.216ZM400.221 263.252C399.453 263.252 398.877 263.048 398.493 262.64C398.109 262.208 397.917 261.716 397.917 261.164C397.917 260.492 398.181 259.964 398.709 259.58C399.237 259.172 400.101 258.764 401.301 258.356L406.017 256.664L406.125 257.06L401.949 258.644C401.397 258.86 401.001 259.1 400.761 259.364C400.545 259.628 400.437 259.964 400.437 260.372C400.437 260.876 400.581 261.272 400.869 261.56C401.157 261.824 401.529 261.956 401.985 261.956C402.249 261.956 402.501 261.932 402.741 261.884C402.981 261.812 403.221 261.716 403.461 261.596L406.521 260.048L406.593 260.48L403.461 262.172C402.741 262.532 402.141 262.808 401.661 263C401.181 263.168 400.701 263.252 400.221 263.252ZM412.207 263C412.135 263 412.099 262.928 412.099 262.784C412.099 262.64 412.135 262.568 412.207 262.568C413.239 262.568 413.911 262.412 414.223 262.1C414.535 261.788 414.691 261.116 414.691 260.084V251.984C414.691 251.408 414.631 250.988 414.511 250.724C414.391 250.436 414.151 250.256 413.791 250.184C413.431 250.088 412.855 250.04 412.063 250.04C411.991 250.04 411.955 249.968 411.955 249.824C411.955 249.656 411.991 249.572 412.063 249.572C413.071 249.572 413.743 249.452 414.079 249.212C414.415 248.972 414.595 248.552 414.619 247.952C414.739 243.968 415.471 241.124 416.815 239.42C418.159 237.716 420.067 236.864 422.539 236.864C423.811 236.864 424.819 237.056 425.563 237.44C426.331 237.8 426.715 238.244 426.715 238.772C426.715 239.156 426.583 239.444 426.319 239.636C426.079 239.828 425.791 239.924 425.455 239.924C425.167 239.924 424.915 239.852 424.699 239.708C424.507 239.54 424.291 239.3 424.051 238.988C423.691 238.508 423.295 238.136 422.863 237.872C422.455 237.608 421.927 237.476 421.279 237.476C419.959 237.476 418.867 238.244 418.003 239.78C417.163 241.316 416.743 243.788 416.743 247.196V260.084C416.743 260.78 416.815 261.308 416.959 261.668C417.127 262.028 417.463 262.268 417.967 262.388C418.471 262.508 419.239 262.568 420.271 262.568C420.343 262.568 420.379 262.64 420.379 262.784C420.379 262.928 420.343 263 420.271 263C419.479 263 418.711 262.988 417.967 262.964C417.223 262.94 416.455 262.928 415.663 262.928C415.039 262.928 414.415 262.94 413.791 262.964C413.191 262.988 412.663 263 412.207 263ZM421.243 250.868C420.307 250.628 419.407 250.472 418.543 250.4C417.703 250.328 416.803 250.292 415.843 250.292V249.5C416.779 249.5 417.679 249.464 418.543 249.392C419.431 249.32 420.367 249.236 421.351 249.14C421.423 249.14 421.483 249.224 421.531 249.392C421.579 249.56 421.603 249.764 421.603 250.004C421.603 250.172 421.567 250.364 421.495 250.58C421.423 250.796 421.339 250.892 421.243 250.868ZM430.087 263.432C428.599 263.432 427.351 263.108 426.343 262.46C425.335 261.788 424.579 260.924 424.075 259.868C423.571 258.812 423.319 257.696 423.319 256.52C423.319 255.056 423.655 253.748 424.327 252.596C425.023 251.42 425.947 250.496 427.099 249.824C428.275 249.128 429.595 248.78 431.059 248.78C432.379 248.78 433.387 249.104 434.083 249.752C434.803 250.376 435.163 251.24 435.163 252.344C435.163 252.608 435.139 252.812 435.091 252.956C435.043 253.1 434.923 253.172 434.731 253.172H432.643C432.739 251.996 432.523 251.096 431.995 250.472C431.491 249.824 430.771 249.5 429.835 249.5C428.491 249.5 427.459 250.004 426.739 251.012C426.043 252.02 425.695 253.388 425.695 255.116C425.695 256.484 425.911 257.696 426.343 258.752C426.799 259.808 427.447 260.648 428.287 261.272C429.151 261.872 430.171 262.172 431.347 262.172C431.971 262.172 432.607 262.076 433.255 261.884C433.903 261.692 434.515 261.392 435.091 260.984C435.139 260.936 435.199 260.972 435.271 261.092C435.367 261.188 435.391 261.272 435.343 261.344C434.479 262.088 433.615 262.628 432.751 262.964C431.887 263.276 430.999 263.432 430.087 263.432ZM425.047 253.244L425.011 252.776L433.219 252.596V253.172L425.047 253.244Z" fill="black"/>
<path d="M128 112.511C130.506 107.343 132.682 101.69 135.879 96.8938C136.591 95.8271 137.227 94.5569 138.239 93.7325C139.589 92.6325 148.065 102.175 149.657 103.995C151.638 106.259 153.613 109.48 155.177 112.087" stroke="#F9F089" stroke-width="5" stroke-linecap="round"/>
<path d="M137.767 111.661C138.184 110.728 139.338 109.286 139.466 108.264C139.557 107.534 144.041 112.519 144.561 113.148C145.345 114.095 146.012 115.359 147.109 115.908" stroke="#F9F089" stroke-width="5" stroke-linecap="round"/>
<path d="M174.286 110.812C175.569 109.302 184.688 98.4846 186.79 96.2802C187.689 95.3364 189.931 92.5165 192.027 93.0717C194.009 93.5969 196.368 97.0041 196.981 98.8988C198.095 102.342 199.774 105.498 201.463 108.689" stroke="#F9F089" stroke-width="5" stroke-linecap="round"/>
<path d="M187.025 111.236C189.38 108.085 191.268 106.484 193.631 110.198C194.13 110.982 194.687 111.696 195.094 112.51" stroke="#F9F089" stroke-width="5" stroke-linecap="round"/>
<path d="M282.298 120.11C283.024 119.218 285.062 116.726 285.869 115.697C286.415 114.999 287.041 114.286 287.316 113.426C287.954 111.425 287.954 109.578 287.957 107.419C287.96 104.633 287.87 99.41 287.609 96.6506C287.354 93.9519 287.12 91.9674 285.137 90.1677C283.765 88.9233 282.491 88.0248 280.714 87.4848C277.5 86.5083 274.317 86.6827 270.999 86.6515C268.955 86.6323 266.145 86.5947 264.68 84.93C263.628 83.7337 264.047 82.2383 264.296 80.7729C264.769 77.9842 265.915 75.9651 267.794 73.8871C270.198 71.2276 273.525 69.6753 276.712 68.1367C280.492 66.312 284.644 65.6361 288.808 65.5637C292.271 65.5034 295.713 65.1546 299.174 65.0692C300.311 65.0411 301.451 65.06 302.589 65.06C302.869 65.06 303.751 64.9031 304.018 65.0967C304.612 65.5287 304.415 66.5542 304.466 67.2119C304.575 68.5977 304.627 70.0009 304.42 71.3781C304.065 73.75 301.317 76.0941 299.11 76.6707C296.322 77.3989 293.618 77.7512 290.74 77.7512C290.199 77.7512 289.973 77.3566 289.715 76.9271" stroke="#F9F089" stroke-width="5" stroke-linecap="round"/>
<path d="M515.257 270.907C512.992 267.302 511.07 264.495 507.313 262.206C503.848 260.095 499.008 257.114 494.829 256.656C492.443 256.394 489.413 258.881 487.874 260.298C478.86 268.598 487.797 280.41 492.326 288.568C497.265 297.463 502.969 306.192 506.905 315.596C507.003 315.828 507.211 317.351 507.676 316.925C509.596 315.171 511.498 313.424 513.482 311.737C519.227 306.849 524.655 301.844 529.807 296.344C536.841 288.834 545.072 280.06 547.412 269.779C548.003 267.183 548.017 264.649 547.994 262.004C547.976 259.829 547.756 257.493 546.103 255.875C542.301 252.155 534.44 251.334 529.399 252.479C525.405 253.386 521.892 255.428 519.476 258.809C517.318 261.83 516.514 265.912 515.257 269.346" stroke="#F9F089" stroke-width="5" stroke-linecap="round"/>
<path d="M491.817 261.626C490.884 264.072 490.146 266.642 489.385 269.136C488.875 270.805 486.42 276.189 487.127 278.294C487.292 278.785 487.297 278.573 487.86 277.968C489.116 276.621 491.6 273.567 492.512 272.451C493.05 271.792 497.723 267.103 497.723 265.591C497.723 265.342 498.099 264.112 498.051 264.844C497.597 271.826 495.657 278.604 494.558 285.498C494.454 286.147 493.45 290.283 494.905 288.142C497.902 283.733 500.98 279.359 503.629 274.73C504.662 272.925 505.118 270.523 506.331 268.868C506.858 268.149 506.138 270.636 505.984 271.512C505.086 276.615 503.754 281.635 502.78 286.724C502.108 290.23 501.604 293.75 501.255 297.3C501.249 297.361 500.981 299.607 501.101 300.174C501.156 300.436 501.499 299.799 501.622 299.561C504.611 293.761 507.601 287.928 510.732 282.203C511.859 280.14 513.011 278.092 513.955 275.938C514.693 274.252 514.294 275.815 514.148 276.8C513.085 283.941 510.76 290.83 509.574 297.952C509.103 300.777 507.507 309.119 508.666 306.497C510.495 302.362 512.029 298.108 513.897 293.986C516.152 289.009 518.831 284.239 521.058 279.252C523.301 274.229 528.907 258.706 527.118 263.905C522.674 276.824 515.583 288.72 511.06 301.63C510.703 302.648 509.647 305.687 510.153 304.734C511.986 301.28 513.538 297.629 515.171 294.081C519.795 284.034 525.137 273.62 527.871 262.852C527.956 262.516 529.033 258.311 527.601 258.943C525.89 259.698 525.193 263.357 524.647 264.787C521.422 273.234 520.183 282.103 519.127 291.035C518.719 294.493 516.875 304.714 518.008 301.419C522.559 288.189 529.762 275.903 534.761 262.813C535.854 259.952 538.023 256.238 538.023 253.08C538.023 252.693 537.761 253.813 537.675 254.192C536.775 258.195 535.556 262.125 534.433 266.07C532.193 273.941 529.687 281.863 528.72 290.02C528.671 290.429 528.585 291.541 528.874 291.246C530.549 289.533 531.846 287.207 533.275 285.306C536.04 281.629 539.031 278.045 541.381 274.079C543.213 270.987 544.368 267.575 545.627 264.231C545.985 263.281 547.835 258.794 546.554 262.392C545.066 266.568 543.098 270.574 541.651 274.769C541.281 275.844 540.802 277.026 540.802 278.179" stroke="#F9F089" stroke-width="5" stroke-linecap="round"/>
</svg>
