<svg width="364" height="295" viewBox="0 0 364 295" fill="none" xmlns="http://www.w3.org/2000/svg">
<path d="M0 24.123L281 0L364 272.912L55.6923 295L0 24.123Z" fill="#F9F089"/>
<path d="M84.1257 130.066L85.2183 129.28C85.2927 129.357 85.4018 129.536 85.5457 129.819C85.8445 130.469 86.1631 130.772 86.5017 130.728C87.2368 130.591 87.8914 130.162 88.4656 129.443C89.061 128.721 89.3772 128.003 89.4143 127.288C88.7535 127.502 88.2116 127.637 87.7884 127.691C87.3652 127.746 86.9711 127.775 86.6059 127.779C86.2592 127.759 85.8965 127.698 85.5177 127.596C84.7179 127.398 84.2417 126.707 84.0891 125.522C83.9339 124.316 84.3973 122.987 85.4795 121.536C86.5617 120.084 87.9386 119.251 89.6101 119.036C90.4988 118.921 91.2167 119.151 91.764 119.726C92.3112 120.301 92.6869 121.382 92.8912 122.969C92.962 123.519 92.9956 124.364 92.9918 125.505C93.6525 123.118 93.8719 120.896 93.65 118.838L95.6627 118.934C95.8534 120.415 95.6766 122.718 95.1324 125.842C94.6094 128.964 94.1366 130.971 93.7138 131.865L91.6653 131.741C92.0876 130.009 92.168 128.128 91.9065 126.096C91.645 124.065 91.3253 122.751 90.9473 122.154C90.54 121.497 89.9661 121.216 89.2256 121.311C88.5062 121.404 87.8393 121.737 87.2248 122.311C86.6316 122.882 86.3666 123.497 86.4299 124.156C86.4931 124.814 86.7913 125.292 87.3242 125.589C87.8756 125.862 88.4543 126.014 89.0604 126.043C90.7093 126.154 91.5651 126.452 91.6278 126.939C91.6795 127.341 91.3698 128.026 90.6986 128.994C90.0274 129.963 89.2211 130.884 88.2797 131.758C87.3567 132.608 86.6201 133.068 86.07 133.139C85.541 133.207 85.1063 133.005 84.7659 132.533C84.4493 132.079 84.2638 131.64 84.2093 131.217C84.1548 130.794 84.127 130.41 84.1257 130.066ZM115.622 125.592L117.107 124.594C117.156 124.975 117.335 125.285 117.646 125.525C117.978 125.762 118.334 125.856 118.715 125.807C120.513 125.575 122.261 122.941 123.957 117.905C124.048 117.613 124.157 117.288 124.282 116.927C124.405 116.546 124.498 116.265 124.561 116.085C124.621 115.883 124.689 115.66 124.765 115.413C124.862 115.164 124.936 114.983 124.985 114.869C125.054 114.731 125.123 114.604 125.194 114.487C125.36 114.272 125.56 114.149 125.792 114.119C126.046 114.087 126.283 114.175 126.504 114.383C126.724 114.591 126.855 114.854 126.896 115.171C126.934 115.467 126.701 116.831 126.196 119.262C125.71 121.669 125.499 123.116 125.561 123.603C125.624 124.089 125.765 124.437 125.986 124.645C126.227 124.85 126.443 124.941 126.634 124.916C126.845 124.889 127.003 124.858 127.106 124.823C127.209 124.789 127.309 124.733 127.407 124.656C127.504 124.578 127.582 124.515 127.64 124.464C127.72 124.411 127.805 124.325 127.897 124.205L128.087 123.923C128.145 123.872 128.219 123.777 128.308 123.636C128.416 123.472 128.488 123.366 128.525 123.318L129.261 123.772C129.016 124.707 128.541 125.531 127.837 126.246C127.155 126.957 126.496 127.354 125.861 127.436C125.248 127.515 124.734 127.366 124.32 126.989C123.903 126.591 123.649 126.043 123.559 125.344C123.469 124.646 123.47 123.732 123.561 122.602C122.784 124.251 121.865 125.552 120.805 126.506C119.742 127.438 118.851 127.951 118.132 128.044C117.412 128.136 116.839 127.941 116.411 127.459C115.983 126.976 115.72 126.354 115.622 125.592ZM147.323 114.413C147.618 114.697 147.878 115.126 148.102 115.7C148.324 116.252 148.459 116.718 148.508 117.099C148.748 118.961 148.373 120.644 147.384 122.148C146.392 123.631 145.07 124.479 143.42 124.691C142.193 124.849 141.185 124.624 140.397 124.016C139.627 123.383 139.162 122.443 139.001 121.195C138.95 120.793 138.931 120.483 138.946 120.266C138.571 120.358 137.761 120.58 136.516 120.934C135.847 122.59 135.614 124.201 135.815 125.767L133.89 125.854C133.738 124.669 133.94 123.234 134.498 121.549C133.911 121.667 133.069 121.98 131.973 122.487L131.496 121.29C131.485 121.205 131.92 120.988 132.8 120.638C133.701 120.286 134.421 120.031 134.96 119.876C136.151 115.765 137.014 113.363 137.549 112.67L138.983 113.034C138.832 113.527 138.573 114.356 138.206 115.522C137.838 116.666 137.454 117.866 137.057 119.122L139.155 118.626C139.533 117.05 140.323 115.669 141.525 114.482C142.727 113.294 144.09 112.603 145.613 112.407C145.973 112.36 146.228 112.338 146.379 112.34L146.609 113.375C144.917 113.593 143.572 114.261 142.576 115.379C141.58 116.496 141.18 117.817 141.376 119.34C141.493 120.25 141.811 120.962 142.329 121.476C142.844 121.969 143.493 122.165 144.276 122.064C145.058 121.964 145.691 121.527 146.172 120.756C146.675 119.981 146.862 119.097 146.734 118.102C146.674 117.637 146.518 117.097 146.267 116.484C146.014 115.85 145.837 115.4 145.738 115.133L147.323 114.413ZM150.89 105.823C150.743 104.68 151.053 103.748 151.821 103.025C152.588 102.303 153.744 101.842 155.289 101.643C156.852 101.42 157.925 101.401 158.507 101.584L158.393 102.953C157.639 102.943 156.828 102.994 155.961 103.105C154.099 103.345 153.267 104.237 153.466 105.782C153.521 106.205 154.242 107.381 155.63 109.31C157.04 111.237 157.857 112.401 158.08 112.802C158.325 113.201 158.556 113.741 158.773 114.423C159.008 115.081 159.148 115.579 159.191 115.918C159.431 117.78 159.056 119.463 158.067 120.967C157.075 122.449 155.753 123.297 154.103 123.509C152.876 123.667 151.868 123.442 151.08 122.834C150.31 122.202 149.84 121.219 149.668 119.886C149.494 118.532 149.756 117.143 150.454 115.72C151.153 114.296 152.127 113.17 153.375 112.343L153.947 113.528C152.449 114.753 151.819 116.297 152.059 118.159C152.176 119.068 152.494 119.78 153.012 120.294C153.527 120.787 154.176 120.983 154.959 120.883C155.741 120.782 156.374 120.346 156.855 119.574C157.358 118.799 157.541 117.883 157.405 116.825C157.268 115.767 157.011 114.94 156.633 114.343C156.277 113.744 155.621 112.828 154.666 111.596C152.228 108.361 150.969 106.436 150.89 105.823ZM160.75 119.782L162.234 118.785C162.283 119.165 162.463 119.476 162.774 119.715C163.105 119.952 163.461 120.046 163.842 119.997C165.641 119.766 167.388 117.132 169.084 112.095C169.176 111.804 169.284 111.478 169.41 111.118C169.533 110.736 169.626 110.455 169.689 110.275C169.749 110.074 169.817 109.85 169.893 109.603C169.99 109.354 170.063 109.173 170.113 109.059C170.181 108.921 170.251 108.794 170.322 108.677C170.488 108.462 170.687 108.34 170.92 108.31C171.174 108.277 171.411 108.365 171.631 108.573C171.852 108.781 171.982 109.044 172.023 109.361C172.061 109.658 171.828 111.021 171.324 113.452C170.838 115.859 170.626 117.306 170.689 117.793C170.752 118.28 170.893 118.627 171.113 118.835C171.355 119.041 171.571 119.131 171.761 119.107C171.973 119.079 172.13 119.048 172.233 119.014C172.336 118.979 172.437 118.923 172.534 118.846C172.632 118.769 172.71 118.705 172.768 118.654C172.847 118.601 172.933 118.515 173.025 118.396L173.214 118.113C173.272 118.063 173.346 117.967 173.436 117.826C173.544 117.662 173.616 117.556 173.653 117.508L174.389 117.962C174.143 118.897 173.669 119.721 172.965 120.436C172.282 121.148 171.624 121.544 170.989 121.626C170.375 121.705 169.861 121.556 169.447 121.179C169.03 120.781 168.777 120.233 168.687 119.535C168.597 118.837 168.598 117.922 168.689 116.792C167.912 118.441 166.993 119.742 165.933 120.696C164.87 121.629 163.978 122.141 163.259 122.234C162.54 122.327 161.966 122.131 161.538 121.649C161.111 121.166 160.848 120.544 160.75 119.782ZM192.451 108.603C192.746 108.888 193.005 109.317 193.23 109.89C193.451 110.442 193.587 110.909 193.636 111.29C193.876 113.152 193.501 114.835 192.511 116.339C191.519 117.821 190.198 118.669 188.548 118.881C187.32 119.039 186.313 118.814 185.525 118.206C184.755 117.574 184.29 116.633 184.129 115.385C184.077 114.983 184.059 114.673 184.074 114.456C183.698 114.548 182.888 114.77 181.643 115.124C180.975 116.781 180.741 118.392 180.943 119.957L179.018 120.044C178.865 118.859 179.068 117.424 179.625 115.739C179.038 115.858 178.197 116.17 177.1 116.677L176.624 115.48C176.613 115.396 177.047 115.178 177.927 114.828C178.828 114.476 179.548 114.222 180.087 114.066C181.279 109.955 182.142 107.553 182.677 106.861L184.111 107.225C183.959 107.717 183.7 108.546 183.334 109.712C182.965 110.857 182.582 112.057 182.184 113.312L184.282 112.816C184.66 111.241 185.45 109.859 186.652 108.672C187.855 107.485 189.217 106.793 190.741 106.597C191.101 106.551 191.356 106.528 191.507 106.531L191.737 107.566C190.044 107.784 188.7 108.451 187.704 109.569C186.707 110.687 186.307 112.007 186.504 113.531C186.621 114.44 186.938 115.152 187.456 115.667C187.971 116.159 188.62 116.355 189.403 116.255C190.186 116.154 190.818 115.718 191.3 114.946C191.802 114.171 191.989 113.287 191.861 112.292C191.801 111.827 191.646 111.288 191.395 110.675C191.141 110.041 190.965 109.59 190.866 109.323L192.451 108.603ZM97.3382 166.534L98.1817 167.07C97.8237 168.3 97.1289 169.335 96.0974 170.178C95.0659 171.021 94.0212 171.51 92.9632 171.646C91.9265 171.78 91.0167 171.563 90.234 170.997C89.4725 170.429 89.0182 169.573 88.8711 168.43C88.724 167.288 89.0619 165.986 89.8847 164.525C90.7076 163.064 91.8461 161.799 93.3001 160.73C94.7753 159.658 96.2747 159.024 97.7981 158.828C98.0097 158.801 98.3298 158.781 98.7584 158.769L98.8225 160.019C96.5087 160.424 94.6639 161.382 93.2882 162.893C91.9337 164.401 91.3518 165.896 91.5424 167.377C91.6214 167.99 91.8759 168.463 92.3058 168.795C92.7357 169.127 93.2574 169.253 93.871 169.174C94.8443 169.049 96 168.169 97.3382 166.534ZM104.055 160.12C103.857 162.597 103.819 164.387 103.94 165.49C104.133 166.993 104.663 167.688 105.531 167.576C106.462 167.456 107.246 166.947 107.883 166.047C108.52 165.148 108.769 164.159 108.63 163.08C108.491 162.001 108.02 161.513 107.216 161.616C106.983 161.646 106.493 161.849 105.745 162.225L105.242 161.322C106.474 160.195 107.481 159.582 108.264 159.481C109.724 159.293 110.548 159.929 110.735 161.389C110.956 163.103 110.461 164.941 109.251 166.904C108.06 168.842 106.681 169.912 105.116 170.114C103.402 170.335 102.387 169.218 102.071 166.763C101.921 165.6 102.001 163.632 102.311 160.86L99.8628 162.143L99.733 161.386C99.9283 161.232 100.842 160.727 102.474 159.871C102.649 155.547 103.262 152.457 104.313 150.601C105.362 148.723 106.86 147.659 108.807 147.409C109.695 147.294 110.441 147.489 111.043 147.992C111.646 148.495 112.006 149.202 112.123 150.111C112.357 151.931 111.741 153.742 110.273 155.544C108.803 157.325 106.731 158.85 104.055 160.12ZM104.123 159.143C105.854 158.06 107.247 156.848 108.301 155.508C109.354 154.168 109.818 153.011 109.693 152.038C109.628 151.53 109.426 151.136 109.089 150.857C108.752 150.578 108.361 150.467 107.917 150.524C107.028 150.638 106.231 151.376 105.524 152.736C104.817 154.096 104.35 156.231 104.123 159.143ZM123.37 158.181C124.038 159.02 124.442 159.99 124.584 161.09C124.804 162.804 124.409 164.414 123.399 165.921C122.386 167.407 121.075 168.253 119.467 168.46C118.24 168.618 117.232 168.393 116.444 167.784C115.674 167.152 115.209 166.212 115.048 164.964C114.789 162.953 115.341 161.054 116.702 159.266C118.061 157.456 119.714 156.426 121.66 156.175C122.02 156.129 122.275 156.107 122.426 156.109L122.656 157.144C120.963 157.362 119.619 158.03 118.623 159.147C117.627 160.265 117.227 161.586 117.423 163.109C117.54 164.019 117.858 164.731 118.375 165.245C118.891 165.738 119.571 165.93 120.418 165.821C121.285 165.709 121.924 165.24 122.334 164.413C122.743 163.586 122.883 162.664 122.752 161.649C122.619 160.612 122.296 159.696 121.785 158.902L123.37 158.181ZM141.149 155.538C141.444 155.822 141.703 156.251 141.928 156.825C142.149 157.377 142.285 157.844 142.334 158.224C142.574 160.086 142.199 161.769 141.209 163.273C140.217 164.756 138.896 165.604 137.246 165.816C136.018 165.974 135.011 165.749 134.223 165.141C133.453 164.508 132.988 163.568 132.827 162.32C132.775 161.918 132.757 161.608 132.772 161.391C132.396 161.483 131.586 161.705 130.341 162.059C129.673 163.715 129.439 165.326 129.641 166.892L127.716 166.979C127.563 165.794 127.766 164.359 128.323 162.674C127.736 162.792 126.895 163.105 125.798 163.612L125.322 162.415C125.311 162.33 125.745 162.113 126.625 161.763C127.526 161.411 128.246 161.156 128.785 161.001C129.977 156.89 130.84 154.488 131.375 153.795L132.809 154.159C132.657 154.652 132.398 155.481 132.032 156.647C131.663 157.791 131.28 158.991 130.882 160.247L132.98 159.751C133.358 158.175 134.148 156.794 135.35 155.607C136.553 154.419 137.915 153.728 139.439 153.532C139.799 153.485 140.054 153.463 140.205 153.465L140.435 154.5C138.742 154.718 137.398 155.386 136.402 156.504C135.405 157.621 135.005 158.942 135.202 160.465C135.319 161.375 135.636 162.087 136.154 162.601C136.669 163.094 137.318 163.29 138.101 163.189C138.884 163.089 139.516 162.652 139.998 161.881C140.5 161.106 140.687 160.222 140.559 159.227C140.499 158.762 140.344 158.222 140.093 157.609C139.839 156.975 139.663 156.525 139.564 156.258L141.149 155.538ZM163.311 156.685C164.608 154.066 165.793 152.247 166.867 151.227C167.937 150.185 168.917 149.608 169.805 149.493C170.694 149.379 171.417 149.565 171.975 150.053C172.529 150.519 172.86 151.165 172.966 151.99C173.26 154.275 172.707 156.497 171.308 158.656C169.926 160.792 168.209 161.991 166.157 162.255C165.247 162.373 164.507 162.307 163.938 162.057L164.524 160.594C165.664 160.598 166.361 160.584 166.615 160.551C167.758 160.404 168.74 159.6 169.563 158.139C170.386 156.678 170.708 155.249 170.528 153.853C170.46 153.324 170.245 152.91 169.884 152.613C169.542 152.291 169.127 152.162 168.641 152.224C167.477 152.374 166.286 153.571 165.07 155.814C163.874 158.054 162.825 160.77 161.924 163.962C161.047 167.172 160.353 170.552 159.842 174.103L157.852 173.681C157.878 173.549 158.138 172.397 158.633 170.225C159.109 168.078 159.577 165.942 160.034 163.818C161.304 157.976 161.905 154.791 161.837 154.262C161.663 152.907 161.23 151.716 160.538 150.686L162.023 149.689C162.796 150.514 163.248 151.434 163.378 152.45C163.506 153.444 163.484 154.856 163.311 156.685ZM188.87 156.073L189.67 156.518C189.455 157.191 188.983 157.865 188.252 158.54C187.543 159.212 186.86 159.59 186.204 159.675C184.956 159.835 184.247 159.26 184.078 157.948C183.999 157.334 184.064 156.584 184.273 155.697L183.254 157.054C182.261 158.365 181.367 159.276 180.573 159.787C179.799 160.295 179.01 160.601 178.206 160.704C177.402 160.808 176.76 160.665 176.28 160.275C175.818 159.861 175.535 159.252 175.432 158.448C175.241 156.967 175.624 155.433 176.582 153.848C177.536 152.241 178.844 150.868 180.504 149.729C182.164 148.59 183.881 147.896 185.656 147.646L185.854 148.685L184.558 149.143C182.687 149.814 181.093 150.879 179.775 152.339C178.479 153.797 177.912 155.16 178.075 156.43C178.236 157.678 178.824 158.237 179.84 158.106C180.792 157.984 181.881 157.166 183.106 155.653C184.33 154.141 185.293 152.425 185.992 150.507L187.427 151.128C186.456 153.942 186.016 155.709 186.109 156.428C186.147 156.724 186.275 156.966 186.493 157.153C186.729 157.316 186.942 157.386 187.133 157.361C187.344 157.334 187.48 157.306 187.541 157.276C187.602 157.247 187.663 157.218 187.723 157.188C187.781 157.138 187.849 157.075 187.925 157.001C188.023 156.924 188.099 156.85 188.154 156.778C188.231 156.703 188.346 156.592 188.499 156.443C188.651 156.294 188.775 156.171 188.87 156.073ZM191.827 140.883C191.68 139.74 191.99 138.808 192.758 138.085C193.525 137.363 194.681 136.902 196.225 136.703C197.788 136.48 198.861 136.46 199.444 136.643L199.33 138.013C198.576 138.003 197.765 138.053 196.898 138.165C195.036 138.405 194.204 139.297 194.403 140.842C194.457 141.265 195.179 142.441 196.567 144.37C197.977 146.297 198.793 147.46 199.017 147.862C199.262 148.261 199.493 148.801 199.71 149.483C199.945 150.141 200.084 150.639 200.128 150.978C200.368 152.839 199.993 154.522 199.004 156.026C198.011 157.509 196.69 158.357 195.04 158.569C193.813 158.727 192.805 158.502 192.017 157.894C191.247 157.262 190.776 156.279 190.605 154.946C190.43 153.592 190.693 152.203 191.391 150.779C192.09 149.356 193.063 148.23 194.312 147.403L194.884 148.588C193.385 149.813 192.756 151.357 192.996 153.219C193.113 154.128 193.43 154.84 193.948 155.354C194.463 155.847 195.113 156.043 195.895 155.943C196.678 155.842 197.31 155.406 197.792 154.634C198.294 153.859 198.478 152.943 198.341 151.885C198.205 150.827 197.948 150 197.57 149.403C197.213 148.804 196.558 147.888 195.603 146.656C193.165 143.421 191.906 141.496 191.827 140.883ZM210.805 146.925C211.472 147.764 211.877 148.734 212.018 149.834C212.239 151.548 211.844 153.158 210.833 154.665C209.82 156.15 208.51 156.997 206.901 157.204C205.674 157.362 204.667 157.136 203.878 156.528C203.109 155.896 202.644 154.956 202.483 153.707C202.224 151.697 202.775 149.798 204.137 148.009C205.496 146.2 207.148 145.17 209.095 144.919C209.455 144.873 209.71 144.851 209.861 144.853L210.091 145.888C208.398 146.106 207.054 146.773 206.058 147.891C205.061 149.009 204.661 150.329 204.858 151.853C204.975 152.763 205.292 153.475 205.81 153.989C206.325 154.482 207.006 154.674 207.852 154.565C208.72 154.453 209.358 153.984 209.768 153.156C210.178 152.329 210.317 151.408 210.187 150.392C210.053 149.356 209.731 148.44 209.22 147.645L210.805 146.925ZM234.684 149.239L235.432 149.788C234.504 152.101 233.257 153.359 231.691 153.56C231.056 153.642 230.537 153.537 230.134 153.245C229.749 152.929 229.52 152.485 229.446 151.914C229.37 151.321 229.59 150.271 230.106 148.764C230.621 147.256 230.853 146.129 230.8 145.383C230.777 145.042 230.636 144.781 230.376 144.599C230.137 144.415 229.827 144.347 229.446 144.396C229.066 144.445 228.686 144.591 228.309 144.833C227.95 145.051 227.606 145.386 227.277 145.837C226.969 146.285 226.681 146.72 226.412 147.142C226.165 147.561 225.896 148.144 225.605 148.891C225.335 149.636 225.103 150.257 224.909 150.755C224.577 151.68 224.109 153.063 223.508 154.904L221.517 154.483C221.509 154.42 221.705 153.179 222.103 150.762C222.502 148.344 222.672 146.914 222.615 146.469C222.558 146.025 222.411 145.721 222.175 145.558C221.936 145.374 221.658 145.302 221.341 145.343C220.389 145.465 219.219 146.82 217.831 149.408C216.465 151.993 215.657 154.151 215.406 155.883L213.52 155.513C213.481 154.378 213.719 152.304 214.235 149.29C214.748 146.256 215.243 144.171 215.72 143.034L217.214 143.358C216.746 144.902 216.45 146.198 216.327 147.247C216.201 148.274 216.117 149.371 216.073 150.538C217.558 147.701 218.847 145.685 219.941 144.491C221.032 143.275 222.074 142.603 223.069 142.475C224.148 142.336 224.757 142.806 224.896 143.885C224.95 144.308 224.868 145.168 224.647 146.466C224.448 147.76 224.289 148.781 224.17 149.528C226.486 144.455 228.796 141.77 231.103 141.473C231.674 141.399 232.152 141.52 232.537 141.837C232.919 142.131 233.155 142.628 233.245 143.326C233.332 144.003 233.076 145.187 232.476 146.878C231.898 148.565 231.635 149.621 231.69 150.044C231.742 150.446 231.864 150.731 232.058 150.9C232.252 151.068 232.476 151.136 232.73 151.104C233.28 151.033 233.931 150.411 234.684 149.239ZM250.071 149.42L250.272 150.233C250.196 150.307 249.261 150.815 247.468 151.755C247.393 153.184 247.243 154.602 247.015 156.008C246.811 157.432 246.553 158.519 246.241 159.269C245.953 160.038 245.589 160.805 245.15 161.572C244.272 163.104 242.934 163.986 241.135 164.218C240.246 164.332 239.502 164.148 238.902 163.666C238.303 163.184 237.941 162.467 237.819 161.515C237.348 157.855 240.037 154.519 245.887 151.507L246.824 145.256C245.356 148.22 243.933 150.113 242.555 150.936C241.879 151.367 241.139 151.634 240.335 151.738C239.552 151.839 238.885 151.666 238.333 151.221C237.802 150.773 237.474 150.063 237.348 149.09C237.223 148.116 237.377 146.72 237.809 144.9C238.26 143.057 238.822 141.49 239.495 140.199L241.136 140.665C241.08 140.737 240.856 141.335 240.464 142.461C239.78 144.507 239.499 145.995 239.619 146.926C239.739 147.857 239.999 148.458 240.399 148.729C240.8 149 241.349 149.091 242.048 149.001C242.746 148.911 243.476 148.398 244.237 147.461C245.017 146.5 246.167 144.663 247.69 141.951L248.918 142.47C248.839 143.19 248.621 144.509 248.266 146.426C247.929 148.319 247.717 149.766 247.631 150.766L250.071 149.42ZM245.819 152.484C244.565 153.269 243.481 154.118 242.566 155.032C240.847 156.716 240.074 158.235 240.249 159.589C240.314 160.097 240.515 160.49 240.852 160.77C241.19 161.049 241.58 161.16 242.025 161.103C244.14 160.83 245.405 157.957 245.819 152.484ZM256.423 129.921L258.034 130.649C255.673 136.202 253.942 141.554 252.842 146.708L251.064 146.937C251.703 141.541 253.49 135.87 256.423 129.921ZM252.6 151.095C253.002 151.043 253.323 150.862 253.562 150.551C253.802 150.241 253.897 149.895 253.848 149.514C253.796 149.112 253.617 148.802 253.309 148.583C252.998 148.344 252.642 148.25 252.24 148.302C251.859 148.351 251.549 148.53 251.309 148.841C251.088 149.127 251.003 149.472 251.055 149.874C251.104 150.255 251.273 150.566 251.563 150.809C251.873 151.048 252.219 151.144 252.6 151.095ZM264.575 128.872L266.185 129.6C263.824 135.152 262.093 140.505 260.993 145.658L259.216 145.887C259.855 140.492 261.641 134.82 264.575 128.872ZM260.751 150.045C261.153 149.993 261.474 149.812 261.714 149.502C261.953 149.191 262.049 148.846 262 148.465C261.948 148.063 261.768 147.753 261.46 147.534C261.15 147.294 260.794 147.2 260.392 147.252C260.011 147.301 259.701 147.481 259.461 147.791C259.24 148.078 259.155 148.422 259.207 148.824C259.256 149.205 259.425 149.517 259.714 149.759C260.025 149.999 260.37 150.094 260.751 150.045Z" fill="black"/>
</svg>
