<svg width="364" height="295" viewBox="0 0 364 295" fill="none" xmlns="http://www.w3.org/2000/svg">
<path d="M0 24.123L281 0L364 272.912L55.6923 295L0 24.123Z" fill="#F9F089"/>
<path d="M92.5406 122.411L94.0378 122.984C92.8639 125.895 91.7083 129.608 90.5711 134.122C91.5485 134.034 92.2216 134.017 92.5905 134.069L92.626 135.897C92.1931 136.086 91.3286 136.239 90.0325 136.355C89.6968 137.627 89.5208 138.65 89.5044 139.422C89.4881 140.195 89.4804 140.945 89.4815 141.673C89.5038 142.4 89.5157 142.891 89.5174 143.148L87.7325 143.308C87.5939 142.957 87.5074 142.589 87.4731 142.207C87.3549 140.89 87.5387 138.999 88.0245 136.535C86.7497 136.649 84.8294 136.972 82.2639 137.502C82.1881 137.851 81.9797 138.512 81.6386 139.485C81.2956 140.437 80.9421 141.272 80.5782 141.99C80.2354 142.706 79.7497 143.5 79.121 144.37C78.4922 145.24 77.8201 145.986 77.1048 146.607C75.0573 148.376 73.003 149.352 70.9419 149.537C70.092 149.614 69.367 149.411 68.7669 148.929C68.1668 148.448 67.8305 147.803 67.7581 146.996C67.5751 144.956 68.5779 143.002 70.7665 141.135C72.9745 139.245 76.116 137.614 80.191 136.242C81.3516 131.511 83.2679 128.041 85.9398 125.831C82.8626 126.149 80.3702 126.898 78.4625 128.076C76.5547 129.253 75.6704 130.618 75.8096 132.169C75.8534 132.658 75.9659 133.076 76.147 133.424C76.3263 133.75 76.7255 134.261 77.3446 134.955L76.3525 136.072C75.3642 135.561 74.5876 134.902 74.0226 134.096C73.4577 133.29 73.14 132.494 73.0694 131.708C72.9513 130.391 73.5438 129.117 74.847 127.886C76.1484 126.634 77.8135 125.617 79.8425 124.835C81.8695 124.032 83.956 123.535 86.1021 123.342C87.1857 123.245 87.937 123.263 88.356 123.397C88.7943 123.508 89.0335 123.786 89.0735 124.232C89.1116 124.657 88.8397 125.088 88.2578 125.526C85.7505 127.422 83.8972 130.758 82.6979 135.535C83.9324 135.21 85.8557 134.802 88.4676 134.311C89.2206 131.244 89.8414 128.972 90.3299 127.493C90.8377 125.991 91.5746 124.297 92.5406 122.411ZM73.2944 147.109C74.0806 147.039 74.9628 146.606 75.9411 145.812C76.9425 145.037 77.7442 144.065 78.3463 142.897C78.9677 141.706 79.4457 140.111 79.7803 138.11C76.9962 138.831 74.7864 139.865 73.1508 141.211C71.5346 142.534 70.7931 143.939 70.9266 145.426C70.9799 146.021 71.1909 146.463 71.5595 146.751C71.9512 147.059 72.5295 147.178 73.2944 147.109ZM106.303 137.851L107.087 138.359C106.511 139.332 105.676 140.178 104.584 140.897C103.49 141.595 102.401 141.992 101.317 142.09C100.234 142.187 99.3341 141.946 98.6182 141.368C97.9023 140.79 97.4977 139.98 97.4043 138.939C97.2289 136.984 98.087 134.968 99.9784 132.892C101.891 130.815 103.91 129.68 106.035 129.49C107.437 129.364 108.188 129.853 108.287 130.958C108.39 132.106 107.75 133.33 106.367 134.633C105.006 135.933 103.03 137.181 100.438 138.377C100.673 138.849 101.005 139.205 101.434 139.445C101.862 139.685 102.289 139.786 102.714 139.747C103.627 139.666 104.824 139.033 106.303 137.851ZM100.193 137.435C101.861 136.686 103.271 135.81 104.423 134.807C105.576 133.804 106.118 132.931 106.052 132.187C106.027 131.911 105.899 131.676 105.667 131.483C105.436 131.289 105.182 131.205 104.906 131.23C103.907 131.319 102.879 132.043 101.823 133.402C100.786 134.737 100.243 136.082 100.193 137.435ZM136.544 127.974C136.683 129.525 135.375 130.938 132.619 132.213C133.426 132.612 134.027 132.987 134.423 133.337C134.837 133.664 135.066 134.061 135.108 134.528C135.215 135.718 134.64 136.83 133.383 137.864C132.124 138.876 130.73 139.451 129.2 139.588C128.457 139.655 127.702 139.605 126.938 139.438C126.173 139.271 125.637 139.03 125.331 138.715L126.442 137.49C126.72 137.722 127.08 137.915 127.522 138.068C127.985 138.219 128.366 138.282 128.663 138.255C129.725 138.16 130.668 137.807 131.492 137.198C132.335 136.566 132.721 135.856 132.65 135.07C132.612 134.645 132.421 134.309 132.078 134.061C131.733 133.792 131.364 133.622 130.972 133.55C130.599 133.455 130.246 133.337 129.912 133.195C129.576 133.033 129.398 132.834 129.377 132.601C129.356 132.367 129.581 132.132 130.053 131.897C130.543 131.639 131.091 131.419 131.696 131.236C132.299 131.032 132.83 130.749 133.29 130.386C133.77 130 133.991 129.606 133.955 129.202C133.919 128.798 133.752 128.492 133.455 128.283C133.158 128.074 132.797 127.989 132.372 128.027C131.968 128.063 131.351 128.343 130.52 128.868C129.689 129.392 128.858 130.045 128.029 130.826L127.502 129.974C128.187 129.013 129.147 128.134 130.382 127.338C131.637 126.518 132.657 126.073 133.443 126.003C134.251 125.93 134.951 126.093 135.543 126.489C136.155 126.863 136.489 127.358 136.544 127.974ZM152.03 134.295L152.811 134.771C152.571 135.436 152.073 136.091 151.317 136.737C150.582 137.381 149.886 137.733 149.227 137.792C147.973 137.904 147.287 137.302 147.169 135.984C147.114 135.368 147.207 134.621 147.45 133.742L146.379 135.059C145.337 136.331 144.409 137.207 143.595 137.687C142.802 138.165 142.003 138.44 141.195 138.512C140.388 138.585 139.751 138.417 139.286 138.009C138.841 137.578 138.582 136.958 138.509 136.151C138.376 134.663 138.818 133.146 139.836 131.598C140.852 130.029 142.211 128.708 143.914 127.634C145.617 126.56 147.36 125.933 149.143 125.751L149.301 126.797L147.988 127.204C146.092 127.803 144.458 128.806 143.085 130.214C141.733 131.621 141.115 132.961 141.229 134.236C141.342 135.49 141.908 136.071 142.928 135.979C143.884 135.894 145.003 135.118 146.285 133.654C147.568 132.19 148.595 130.512 149.368 128.622L150.778 129.299C149.699 132.073 149.192 133.822 149.257 134.544C149.283 134.842 149.402 135.088 149.612 135.283C149.842 135.455 150.052 135.533 150.244 135.516C150.456 135.497 150.593 135.474 150.655 135.447C150.717 135.42 150.779 135.393 150.841 135.366C150.9 135.318 150.97 135.258 151.049 135.187C151.15 135.113 151.229 135.042 151.287 134.972C151.366 134.901 151.485 134.794 151.644 134.651C151.802 134.509 151.931 134.39 152.03 134.295ZM155.57 119.231C155.467 118.083 155.813 117.163 156.608 116.471C157.402 115.779 158.575 115.363 160.126 115.224C161.697 115.061 162.77 115.083 163.345 115.288L163.178 116.653C162.425 116.613 161.613 116.633 160.742 116.711C158.872 116.878 158.006 117.738 158.146 119.289C158.184 119.714 158.859 120.917 160.172 122.898C161.506 124.878 162.278 126.072 162.486 126.482C162.715 126.89 162.925 127.438 163.115 128.128C163.325 128.795 163.445 129.298 163.476 129.638C163.643 131.508 163.204 133.175 162.157 134.64C161.109 136.083 159.756 136.879 158.098 137.028C156.866 137.139 155.868 136.875 155.104 136.236C154.359 135.575 153.926 134.575 153.806 133.236C153.684 131.877 154 130.499 154.753 129.103C155.506 127.708 156.522 126.621 157.802 125.842L158.328 127.048C156.783 128.214 156.094 129.733 156.262 131.602C156.344 132.516 156.634 133.24 157.132 133.773C157.627 134.286 158.268 134.507 159.055 134.436C159.841 134.366 160.489 133.954 161 133.202C161.532 132.447 161.75 131.538 161.655 130.476C161.56 129.414 161.335 128.577 160.98 127.966C160.647 127.354 160.027 126.413 159.121 125.145C156.809 121.818 155.625 119.847 155.57 119.231ZM178.986 133.098L179.156 133.918C179.076 133.99 178.123 134.461 176.295 135.332C176.165 136.757 175.96 138.167 175.678 139.564C175.42 140.979 175.12 142.055 174.779 142.793C174.461 143.549 174.068 144.302 173.6 145.051C172.664 146.549 171.292 147.379 169.486 147.541C168.594 147.621 167.857 147.408 167.276 146.904C166.696 146.399 166.362 145.668 166.277 144.712C165.947 141.036 168.763 137.806 174.725 135.023L175.902 128.812C174.321 131.717 172.826 133.554 171.417 134.323C170.725 134.728 169.975 134.967 169.168 135.039C168.382 135.11 167.721 134.912 167.187 134.446C166.674 133.978 166.373 133.255 166.286 132.278C166.198 131.3 166.405 129.911 166.908 128.109C167.429 126.285 168.051 124.74 168.773 123.476L170.395 124.005C170.337 124.075 170.09 124.665 169.654 125.775C168.893 127.792 168.554 129.268 168.638 130.203C168.722 131.138 168.958 131.749 169.348 132.035C169.738 132.321 170.284 132.433 170.985 132.37C171.686 132.307 172.435 131.822 173.232 130.916C174.048 129.986 175.269 128.195 176.894 125.543L178.102 126.109C177.995 126.826 177.727 128.135 177.297 130.037C176.888 131.916 176.62 133.353 176.496 134.35L178.986 133.098ZM174.619 135.996C173.336 136.732 172.219 137.539 171.27 138.417C169.487 140.033 168.657 141.521 168.779 142.881C168.825 143.391 169.011 143.792 169.337 144.084C169.663 144.376 170.049 144.502 170.495 144.462C172.62 144.272 173.995 141.449 174.619 135.996ZM194.703 132.556L194.803 133.318C194.602 133.464 193.67 133.933 192.006 134.725C191.69 138.845 190.954 141.867 189.799 143.791C188.643 145.715 187.11 146.763 185.197 146.934C184.305 147.015 183.567 146.792 182.985 146.265C182.402 145.739 182.07 145.02 181.988 144.106C181.824 142.279 182.51 140.493 184.045 138.749C185.583 137.026 187.713 135.582 190.436 134.416C190.627 132.964 191.02 130.905 191.617 128.238C190.387 130.533 189.223 132.116 188.123 132.985C187.044 133.853 186.037 134.329 185.102 134.413C184.167 134.497 183.433 134.306 182.898 133.84C182.385 133.372 182.09 132.713 182.014 131.863C181.888 130.46 182.345 128.984 183.384 127.435C184.421 125.864 185.78 124.542 187.462 123.47C189.163 122.375 190.842 121.753 192.499 121.605L192.854 122.697C190.519 123.164 188.564 124.175 186.99 125.729C185.437 127.282 184.719 128.707 184.835 130.003C184.885 130.556 185.096 130.997 185.468 131.328C185.84 131.659 186.271 131.802 186.76 131.758C187.482 131.693 188.508 130.83 189.837 129.169C191.165 127.508 192.079 126.108 192.576 124.971L193.816 125.535C192.927 128.763 192.356 131.47 192.103 133.656L194.703 132.556ZM190.33 135.39C188.558 136.405 187.12 137.563 186.015 138.861C184.911 140.16 184.403 141.298 184.49 142.275C184.536 142.785 184.722 143.186 185.048 143.478C185.374 143.77 185.76 143.896 186.206 143.856C187.099 143.776 187.924 143.07 188.683 141.738C189.442 140.406 189.991 138.29 190.33 135.39ZM201.604 125.768C202.769 125.621 203.396 126.046 203.485 127.045C203.604 128.362 203.009 129.733 201.702 131.157C200.414 132.557 199.058 133.322 197.634 133.449C196.296 133.569 195.545 132.726 195.383 130.92C195.256 129.497 195.448 127.702 195.96 125.535C196.492 123.346 196.953 121.794 197.342 120.881L198.819 121.231C198.412 122.895 198.026 124.922 197.662 127.31C199.291 126.372 200.605 125.858 201.604 125.768ZM201.388 129.096C201.491 128.809 201.53 128.527 201.505 128.251C201.39 127.683 200.865 127.441 199.93 127.525C199.484 127.565 198.672 127.83 197.495 128.321C197.383 128.974 197.349 129.555 197.395 130.065C197.439 130.554 197.591 130.936 197.851 131.213C198.133 131.488 198.476 131.607 198.879 131.571C199.304 131.532 199.785 131.275 200.32 130.799C200.854 130.301 201.21 129.734 201.388 129.096ZM84.4352 172.809C84.5743 174.36 83.266 175.773 80.5103 177.048C81.3171 177.447 81.9183 177.822 82.3139 178.172C82.7287 178.499 82.9571 178.896 82.9991 179.363C83.1058 180.553 82.5308 181.665 81.2742 182.699C80.0156 183.711 78.6214 184.286 77.0915 184.423C76.3479 184.49 75.5937 184.44 74.829 184.273C74.0644 184.106 73.5287 183.865 73.222 183.55L74.3331 182.326C74.6109 182.558 74.9709 182.75 75.413 182.903C75.8764 183.055 76.2568 183.117 76.5543 183.09C77.6167 182.995 78.5596 182.642 79.3831 182.033C80.226 181.401 80.6122 180.691 80.5416 179.905C80.5035 179.48 80.3127 179.144 79.9692 178.896C79.6238 178.627 79.2551 178.457 78.8631 178.385C78.4904 178.29 78.1371 178.172 77.8032 178.03C77.4673 177.868 77.2889 177.669 77.2679 177.436C77.2469 177.202 77.4722 176.968 77.9438 176.733C78.4347 176.474 78.9825 176.254 79.5872 176.071C80.1901 175.867 80.7216 175.584 81.1817 175.221C81.6611 174.835 81.8828 174.441 81.8466 174.037C81.8103 173.633 81.6436 173.327 81.3464 173.118C81.0492 172.909 80.6882 172.824 80.2632 172.862C79.8595 172.898 79.2421 173.178 78.4109 173.703C77.5798 174.227 76.7495 174.88 75.92 175.661L75.3937 174.809C76.0786 173.848 77.0386 172.969 78.2737 172.173C79.5282 171.353 80.5485 170.909 81.3347 170.838C82.1421 170.766 82.842 170.928 83.4345 171.324C84.0463 171.698 84.3799 172.193 84.4352 172.809ZM99.9209 179.131L100.703 179.607C100.462 180.271 99.9642 180.926 99.2082 181.572C98.4735 182.216 97.7768 182.568 97.1181 182.627C95.8645 182.739 95.1786 182.137 95.0604 180.82C95.0051 180.203 95.0987 179.456 95.3412 178.577L94.2706 179.894C93.228 181.166 92.2999 182.042 91.4862 182.522C90.6937 183 89.8938 183.275 89.0864 183.347C88.2789 183.42 87.6427 183.252 87.1778 182.844C86.7321 182.413 86.4731 181.793 86.4006 180.986C86.2672 179.499 86.7094 177.981 87.7272 176.433C88.743 174.864 90.1024 173.543 91.8053 172.469C93.5081 171.395 95.251 170.768 97.034 170.586L97.1921 171.632L95.8792 172.039C93.9837 172.638 92.3495 173.641 90.9765 175.049C89.6248 176.456 89.0061 177.796 89.1204 179.071C89.2329 180.325 89.7991 180.906 90.819 180.814C91.7751 180.729 92.8944 179.954 94.1767 178.489C95.4589 177.025 96.4865 175.348 97.2594 173.458L98.6695 174.134C97.5904 176.909 97.0833 178.657 97.1481 179.379C97.1747 179.677 97.2932 179.923 97.5035 180.118C97.7332 180.291 97.9436 180.368 98.1348 180.351C98.3473 180.332 98.4845 180.309 98.5463 180.282C98.6081 180.255 98.67 180.228 98.7318 180.201C98.7918 180.153 98.8614 180.093 98.9406 180.022C99.0412 179.948 99.1204 179.877 99.1785 179.808C99.2577 179.736 99.3766 179.629 99.5352 179.486C99.6937 179.344 99.8223 179.225 99.9209 179.131ZM113.287 177.61L114.147 178.24C113.095 180.369 111.879 181.496 110.498 181.619C109.712 181.69 108.859 181.252 107.938 180.307C107.039 179.359 106.462 178.415 106.206 177.474C106.1 177.719 105.794 178.368 105.289 179.42C104.783 180.472 104.432 181.328 104.234 181.989L102.261 181.491C102.473 178.837 102.794 176.324 103.224 173.951C103.675 171.576 104.145 169.895 104.635 168.908L105.979 169.206C105.684 170.217 105.28 172.877 104.767 177.186C105.72 174.68 106.742 172.821 107.833 171.61C108.922 170.377 110.162 169.516 111.553 169.027L111.742 171.13C110.218 171.331 108.833 172.494 107.589 174.619C107.798 175.993 108.304 177.104 109.109 177.953C109.934 178.8 110.677 179.194 111.335 179.135C111.654 179.106 112.304 178.598 113.287 177.61ZM129.988 176.433L130.769 176.909C130.529 177.574 130.031 178.229 129.275 178.875C128.54 179.519 127.844 179.871 127.185 179.93C125.931 180.042 125.245 179.44 125.127 178.122C125.072 177.506 125.165 176.759 125.408 175.88L124.337 177.197C123.295 178.469 122.367 179.345 121.553 179.825C120.76 180.303 119.961 180.578 119.153 180.65C118.346 180.723 117.71 180.555 117.245 180.147C116.799 179.716 116.54 179.096 116.467 178.289C116.334 176.801 116.776 175.284 117.794 173.736C118.81 172.167 120.169 170.846 121.872 169.772C123.575 168.698 125.318 168.07 127.101 167.889L127.259 168.935L125.946 169.342C124.05 169.94 122.416 170.944 121.043 172.352C119.692 173.759 119.073 175.099 119.187 176.374C119.3 177.628 119.866 178.209 120.886 178.117C121.842 178.032 122.961 177.256 124.243 175.792C125.526 174.328 126.553 172.65 127.326 170.76L128.736 171.437C127.657 174.211 127.15 175.96 127.215 176.682C127.242 176.98 127.36 177.226 127.57 177.421C127.8 177.593 128.01 177.671 128.202 177.654C128.414 177.635 128.551 177.612 128.613 177.585C128.675 177.558 128.737 177.531 128.799 177.504C128.859 177.456 128.928 177.396 129.007 177.324C129.108 177.251 129.187 177.18 129.245 177.11C129.324 177.039 129.443 176.932 129.602 176.789C129.76 176.646 129.889 176.528 129.988 176.433ZM142.919 167.562C143.058 169.114 141.75 170.527 138.994 171.802C139.801 172.201 140.402 172.575 140.798 172.925C141.213 173.252 141.441 173.65 141.483 174.117C141.59 175.307 141.015 176.419 139.758 177.452C138.5 178.465 137.105 179.04 135.575 179.177C134.832 179.244 134.078 179.194 133.313 179.027C132.548 178.86 132.013 178.618 131.706 178.303L132.817 177.079C133.095 177.311 133.455 177.504 133.897 177.657C134.36 177.808 134.741 177.87 135.038 177.844C136.101 177.748 137.044 177.396 137.867 176.787C138.71 176.154 139.096 175.445 139.026 174.659C138.987 174.234 138.797 173.897 138.453 173.65C138.108 173.381 137.739 173.211 137.347 173.139C136.974 173.044 136.621 172.925 136.287 172.784C135.951 172.621 135.773 172.423 135.752 172.189C135.731 171.956 135.956 171.721 136.428 171.486C136.919 171.228 137.466 171.007 138.071 170.825C138.674 170.621 139.205 170.337 139.666 169.975C140.145 169.589 140.367 169.194 140.33 168.791C140.294 168.387 140.128 168.081 139.83 167.872C139.533 167.663 139.172 167.577 138.747 167.615C138.343 167.652 137.726 167.932 136.895 168.456C136.064 168.981 135.233 169.633 134.404 170.415L133.878 169.562C134.562 168.601 135.522 167.723 136.758 166.926C138.012 166.107 139.032 165.662 139.819 165.592C140.626 165.519 141.326 165.681 141.918 166.078C142.53 166.451 142.864 166.946 142.919 167.562ZM158.405 173.884L159.186 174.36C158.946 175.024 158.448 175.679 157.692 176.326C156.957 176.97 156.261 177.321 155.602 177.381C154.348 177.493 153.662 176.891 153.544 175.573C153.489 174.957 153.583 174.21 153.825 173.331L152.754 174.648C151.712 175.92 150.784 176.795 149.97 177.275C149.178 177.753 148.378 178.029 147.57 178.101C146.763 178.173 146.127 178.006 145.662 177.598C145.216 177.166 144.957 176.547 144.885 175.74C144.751 174.252 145.193 172.735 146.211 171.187C147.227 169.618 148.586 168.296 150.289 167.223C151.992 166.149 153.735 165.521 155.518 165.34L155.676 166.386L154.363 166.793C152.468 167.391 150.833 168.395 149.46 169.803C148.109 171.209 147.49 172.55 147.604 173.825C147.717 175.079 148.283 175.66 149.303 175.568C150.259 175.482 151.378 174.707 152.661 173.243C153.943 171.778 154.97 170.101 155.743 168.211L157.153 168.888C156.074 171.662 155.567 173.41 155.632 174.133C155.659 174.43 155.777 174.677 155.987 174.872C156.217 175.044 156.427 175.122 156.619 175.105C156.831 175.086 156.968 175.063 157.03 175.036C157.092 175.009 157.154 174.982 157.216 174.955C157.276 174.906 157.345 174.847 157.425 174.775C157.525 174.702 157.604 174.631 157.662 174.561C157.742 174.49 157.861 174.383 158.019 174.24C158.178 174.097 158.306 173.979 158.405 173.884ZM181.82 170.852L182.546 171.429C181.53 173.705 180.235 174.914 178.663 175.055C178.025 175.112 177.511 174.987 177.119 174.679C176.747 174.349 176.535 173.896 176.483 173.323C176.43 172.728 176.69 171.687 177.263 170.2C177.837 168.714 178.111 167.597 178.087 166.849C178.078 166.508 177.947 166.241 177.694 166.049C177.463 165.856 177.156 165.776 176.773 165.811C176.391 165.845 176.006 165.976 175.62 166.203C175.252 166.408 174.896 166.729 174.549 167.167C174.224 167.603 173.92 168.026 173.635 168.438C173.372 168.847 173.081 169.419 172.761 170.154C172.463 170.888 172.207 171.5 171.994 171.99C171.626 172.902 171.106 174.265 170.434 176.082L168.461 175.584C168.455 175.521 168.698 174.289 169.19 171.889C169.681 169.488 169.907 168.065 169.867 167.619C169.827 167.173 169.692 166.864 169.463 166.691C169.231 166.498 168.956 166.416 168.637 166.444C167.681 166.53 166.46 167.839 164.973 170.371C163.508 172.902 162.617 175.027 162.3 176.747L160.429 176.305C160.435 175.169 160.753 173.106 161.384 170.115C162.014 167.103 162.589 165.038 163.11 163.92L164.59 164.301C164.062 165.826 163.717 167.11 163.554 168.153C163.388 169.175 163.261 170.268 163.173 171.432C164.766 168.655 166.132 166.69 167.271 165.539C168.408 164.366 169.476 163.734 170.474 163.645C171.558 163.548 172.149 164.041 172.246 165.124C172.284 165.549 172.168 166.406 171.898 167.694C171.649 168.98 171.451 169.994 171.303 170.735C173.812 165.755 176.225 163.161 178.541 162.953C179.115 162.902 179.588 163.041 179.96 163.372C180.331 163.682 180.547 164.187 180.61 164.888C180.671 165.568 180.369 166.741 179.705 168.407C179.062 170.071 178.759 171.116 178.797 171.541C178.833 171.944 178.945 172.234 179.132 172.41C179.319 172.586 179.54 172.663 179.795 172.64C180.348 172.59 181.023 171.994 181.82 170.852ZM189.864 166.982C191.029 166.834 191.656 167.26 191.746 168.259C191.864 169.576 191.269 170.947 189.962 172.37C188.674 173.771 187.318 174.535 185.895 174.663C184.556 174.783 183.806 173.94 183.644 172.134C183.516 170.71 183.708 168.915 184.221 166.749C184.753 164.559 185.213 163.008 185.603 162.095L187.08 162.444C186.672 164.109 186.286 166.135 185.922 168.524C187.552 167.585 188.866 167.071 189.864 166.982ZM189.649 170.31C189.751 170.023 189.79 169.741 189.766 169.464C189.65 168.896 189.125 168.654 188.19 168.738C187.744 168.778 186.933 169.044 185.756 169.535C185.643 170.188 185.61 170.769 185.655 171.279C185.699 171.768 185.851 172.15 186.112 172.427C186.393 172.701 186.736 172.821 187.14 172.784C187.565 172.746 188.045 172.489 188.581 172.012C189.114 171.515 189.47 170.947 189.649 170.31ZM227.441 167.209L228.158 167.691C227.877 168.616 227.371 169.422 226.64 170.108C225.931 170.793 225.257 171.164 224.62 171.221C224.004 171.277 223.496 171.108 223.096 170.715C222.695 170.302 222.463 169.744 222.4 169.043C222.337 168.342 222.373 167.428 222.508 166.302C221.65 167.964 220.688 169.293 219.62 170.288C218.553 171.284 217.626 171.817 216.84 171.887C215.65 171.994 214.988 171.293 214.852 169.784C214.839 169.636 214.906 168.709 215.053 167.003C214.193 168.644 213.289 169.903 212.339 170.781C211.409 171.635 210.54 172.099 209.733 172.171C208.543 172.278 207.881 171.577 207.745 170.068L208.853 168.812C208.888 169.195 209.055 169.512 209.356 169.763C209.679 170.013 210.031 170.12 210.413 170.086C211.115 170.023 212.007 169.343 213.09 168.047C214.194 166.748 215.159 165.087 215.984 163.064C216.159 162.62 216.358 162.099 216.583 161.5C216.827 160.879 217.002 160.435 217.106 160.168C217.211 159.902 217.335 159.612 217.478 159.3C217.712 158.807 217.978 158.548 218.276 158.521C218.573 158.495 218.828 158.59 219.04 158.806C219.252 159.023 219.373 159.29 219.401 159.609C219.428 159.907 219.364 160.266 219.209 160.687C219.075 161.106 218.838 161.684 218.497 162.421C218.154 163.137 217.886 163.729 217.692 164.196C217.27 165.691 217.082 166.703 217.13 167.235C217.177 167.766 217.352 168.157 217.653 168.409C217.975 168.658 218.327 168.766 218.71 168.731C219.432 168.667 220.243 168.037 221.143 166.842C222.061 165.625 222.964 163.862 223.849 161.555C223.952 161.268 224.073 160.946 224.212 160.591C224.35 160.215 224.454 159.938 224.523 159.76C224.591 159.561 224.668 159.34 224.753 159.097C224.859 158.852 224.94 158.673 224.994 158.561C225.068 158.426 225.142 158.302 225.218 158.188C225.392 157.979 225.596 157.865 225.829 157.844C226.084 157.821 226.318 157.918 226.53 158.134C226.742 158.351 226.863 158.618 226.891 158.937C226.918 159.235 226.505 160.6 225.652 163.032C224.819 165.442 224.424 166.891 224.468 167.379C224.512 167.868 224.64 168.221 224.852 168.437C225.085 168.652 225.298 168.751 225.489 168.734C225.701 168.715 225.86 168.69 225.964 168.659C226.069 168.628 226.171 168.576 226.271 168.503C226.372 168.43 226.452 168.369 226.512 168.321C226.593 168.27 226.682 168.188 226.779 168.072L226.982 167.829C227.04 167.759 227.116 167.656 227.211 167.519C227.325 167.359 227.402 167.256 227.441 167.209ZM238.724 160.382C239.359 161.246 239.725 162.23 239.824 163.335C239.979 165.056 239.522 166.65 238.454 168.117C237.384 169.562 236.042 170.357 234.427 170.502C233.195 170.613 232.197 170.349 231.432 169.711C230.688 169.049 230.259 168.092 230.147 166.838C229.966 164.819 230.59 162.943 232.019 161.208C233.447 159.452 235.138 158.487 237.093 158.311C237.454 158.279 237.71 158.267 237.86 158.274L238.05 159.318C236.351 159.47 234.981 160.086 233.943 161.164C232.904 162.242 232.454 163.547 232.591 165.076C232.673 165.99 232.963 166.714 233.461 167.247C233.956 167.76 234.629 167.978 235.479 167.902C236.35 167.824 237.006 167.379 237.448 166.569C237.889 165.758 238.064 164.843 237.973 163.823C237.879 162.781 237.593 161.854 237.113 161.04L238.724 160.382ZM242.846 166.727L244.368 165.787C244.403 166.17 244.57 166.486 244.871 166.738C245.194 166.987 245.546 167.095 245.928 167.061C247.735 166.899 249.582 164.334 251.471 159.367C251.574 159.079 251.695 158.758 251.834 158.402C251.972 158.026 252.076 157.749 252.145 157.571C252.213 157.372 252.29 157.151 252.375 156.908C252.482 156.663 252.562 156.484 252.616 156.372C252.69 156.237 252.764 156.113 252.84 155.999C253.014 155.791 253.218 155.676 253.451 155.655C253.706 155.632 253.94 155.729 254.152 155.946C254.364 156.162 254.485 156.43 254.513 156.748C254.54 157.046 254.255 158.4 253.657 160.809C253.078 163.196 252.811 164.633 252.855 165.122C252.899 165.611 253.027 165.963 253.239 166.18C253.472 166.395 253.685 166.493 253.876 166.476C254.089 166.457 254.247 166.432 254.351 166.402C254.456 166.371 254.558 166.319 254.659 166.245C254.759 166.172 254.839 166.111 254.899 166.063C254.98 166.013 255.069 165.93 255.166 165.814L255.366 165.539C255.426 165.491 255.504 165.399 255.598 165.262C255.713 165.101 255.789 164.998 255.828 164.952L256.546 165.434C256.264 166.358 255.758 167.164 255.027 167.851C254.318 168.536 253.644 168.907 253.007 168.964C252.391 169.019 251.883 168.851 251.484 168.458C251.082 168.044 250.85 167.487 250.787 166.786C250.724 166.084 250.76 165.171 250.895 164.045C250.055 165.662 249.087 166.927 247.99 167.84C246.892 168.731 245.982 169.209 245.259 169.273C244.537 169.338 243.971 169.121 243.563 168.622C243.154 168.124 242.915 167.492 242.846 166.727ZM268.262 157.732C268.896 158.596 269.263 159.581 269.362 160.686C269.516 162.407 269.06 164 267.992 165.467C266.922 166.912 265.58 167.708 263.965 167.852C262.732 167.963 261.734 167.699 260.97 167.061C260.225 166.399 259.797 165.442 259.684 164.188C259.503 162.17 260.127 160.293 261.557 158.558C262.984 156.802 264.675 155.837 266.63 155.662C266.991 155.629 267.247 155.617 267.398 155.625L267.588 156.668C265.888 156.82 264.519 157.436 263.481 158.514C262.442 159.593 261.991 160.897 262.129 162.427C262.211 163.34 262.501 164.064 262.998 164.598C263.494 165.11 264.167 165.328 265.017 165.252C265.888 165.174 266.544 164.729 266.985 163.919C267.427 163.108 267.602 162.193 267.51 161.173C267.417 160.132 267.13 159.204 266.65 158.391L268.262 157.732ZM282.358 162.443L283.218 163.073C282.166 165.202 280.95 166.329 279.569 166.453C278.783 166.523 277.93 166.086 277.009 165.14C276.111 164.193 275.533 163.248 275.277 162.307C275.171 162.553 274.865 163.201 274.36 164.253C273.854 165.305 273.503 166.161 273.305 166.822L271.332 166.324C271.544 163.67 271.865 161.157 272.295 158.784C272.746 156.409 273.216 154.728 273.706 153.742L275.05 154.039C274.755 155.05 274.351 157.711 273.838 162.019C274.791 159.513 275.813 157.654 276.904 156.443C277.993 155.21 279.233 154.349 280.624 153.86L280.813 155.964C279.289 156.165 277.904 157.328 276.66 159.453C276.869 160.826 277.375 161.937 278.18 162.786C279.005 163.633 279.748 164.027 280.406 163.968C280.725 163.939 281.376 163.431 282.358 162.443ZM293.193 155.496C293.827 156.36 294.194 157.344 294.293 158.449C294.448 160.17 293.991 161.764 292.923 163.231C291.853 164.676 290.511 165.471 288.896 165.616C287.664 165.726 286.665 165.463 285.901 164.824C285.157 164.163 284.728 163.205 284.615 161.952C284.434 159.933 285.059 158.057 286.488 156.322C287.915 154.566 289.607 153.6 291.561 153.425C291.923 153.393 292.179 153.38 292.329 153.388L292.519 154.431C290.819 154.584 289.45 155.199 288.412 156.278C287.373 157.356 286.923 158.66 287.06 160.19C287.142 161.104 287.432 161.828 287.929 162.361C288.425 162.874 289.098 163.092 289.948 163.016C290.819 162.937 291.475 162.493 291.917 161.682C292.358 160.872 292.533 159.956 292.441 158.936C292.348 157.895 292.061 156.968 291.581 156.154L293.193 155.496Z" fill="black"/>
<path d="M236.839 218.819C236.584 218.606 236.441 218.319 236.408 217.958C236.376 217.597 236.466 217.289 236.679 217.034C236.911 216.756 237.197 216.602 237.537 216.572C237.898 216.539 238.207 216.64 238.464 216.874C238.74 217.085 238.894 217.371 238.926 217.732C238.957 218.072 238.856 218.381 238.624 218.659C238.411 218.914 238.124 219.057 237.763 219.09C237.402 219.122 237.094 219.032 236.839 218.819ZM236.247 224.398C235.992 224.185 235.849 223.899 235.817 223.537C235.784 223.176 235.885 222.867 236.119 222.611C236.33 222.335 236.605 222.181 236.945 222.151C237.306 222.118 237.615 222.219 237.872 222.453C238.148 222.664 238.302 222.95 238.334 223.311C238.365 223.651 238.264 223.96 238.032 224.238C237.819 224.493 237.532 224.636 237.171 224.669C236.81 224.701 236.502 224.611 236.247 224.398ZM252.66 210.299C252.753 211.341 252.274 212.326 251.222 213.256C250.192 214.183 249.129 214.868 248.033 215.309C248.95 215.741 249.651 216.16 250.138 216.566C250.645 216.97 250.925 217.459 250.976 218.033C251.102 219.435 250.426 220.738 248.949 221.942C247.47 223.124 245.828 223.796 244.022 223.958C243.151 224.036 242.267 223.976 241.371 223.778C240.496 223.578 239.872 223.302 239.498 222.95L240.812 221.483C241.136 221.754 241.553 221.984 242.062 222.174C242.593 222.362 243.039 222.44 243.401 222.407C244.654 222.295 245.762 221.874 246.725 221.145C247.707 220.393 248.157 219.56 248.075 218.646C248.026 218.094 247.727 217.628 247.179 217.249C246.631 216.87 245.921 216.601 245.05 216.444C244.548 216.339 244.282 216.117 244.252 215.777C244.21 215.309 245.125 214.767 246.997 214.149C247.683 213.916 248.306 213.582 248.867 213.146C249.426 212.689 249.684 212.226 249.642 211.759C249.598 211.27 249.395 210.914 249.032 210.689C248.689 210.441 248.273 210.34 247.784 210.383C247.295 210.427 246.565 210.761 245.592 211.383C244.64 211.983 243.658 212.745 242.649 213.671L242.045 212.665C242.842 211.523 243.969 210.479 245.427 209.535C246.905 208.588 248.112 208.073 249.047 207.989C249.982 207.905 250.803 208.099 251.509 208.571C252.213 209.022 252.597 209.598 252.66 210.299Z" fill="black"/>
<path d="M98.1013 46.3571L97.497 45.3511C100.786 42.3787 103.387 40.8067 105.299 40.6352C107.211 40.4636 108.232 41.1003 108.362 42.5451C108.442 43.4376 108.164 44.4049 107.53 45.4471C106.916 46.4874 106.124 47.4473 105.153 48.3269C103.328 49.9471 101.764 51.137 100.462 51.8964C102.702 52.0381 104.358 52.3501 105.429 52.8323C106.499 53.2933 107.318 54.0659 107.886 55.1501L109.894 54.9699L110.005 56.2129L108.258 56.4339C108.137 57.9442 107.83 59.1819 107.338 60.147C106.868 61.1102 106.022 62.1821 104.799 63.3627C103.577 64.5433 102.074 65.5671 100.288 66.4341C98.5253 67.3204 97.0279 67.8189 95.7955 67.9294C94.5631 68.04 93.6053 67.8689 92.9221 67.4161C92.2409 66.9846 91.864 66.3651 91.7916 65.5577C91.681 64.3253 92.2929 63.0281 93.6272 61.6661C94.9809 60.281 96.6511 59.0816 98.6378 58.068C100.644 57.0313 102.653 56.2727 104.667 55.7923C104.3 55.2897 103.772 54.8979 103.083 54.6171C102.413 54.313 101.557 54.0793 100.514 53.9158C99.4908 53.7291 98.8759 53.5594 98.6694 53.4066C98.4629 53.2537 98.3463 53.0286 98.3197 52.7311C98.2911 52.4124 98.3928 52.1141 98.6249 51.8363C98.8764 51.5353 99.3549 51.1389 100.06 50.6473C100.764 50.1343 101.495 49.5654 102.253 48.9406C103.009 48.2944 103.783 47.4967 104.576 46.5474C105.367 45.5768 105.737 44.8047 105.686 44.231C105.598 43.2536 105.14 42.802 104.311 42.8764C103.419 42.9564 102.381 43.328 101.198 43.991C100.037 44.6521 99.0044 45.4408 98.1013 46.3571ZM102.508 63.247C103.486 62.4524 104.244 61.5919 104.782 60.6654C105.32 59.739 105.555 58.8933 105.487 58.1284C105.456 57.7884 105.371 57.4319 105.23 57.059C102.077 57.7274 99.5283 58.8021 97.5835 60.2831C95.6368 61.7429 94.7158 63.0571 94.8207 64.2257C94.8664 64.7357 95.1045 65.1213 95.5349 65.3825C95.9672 65.665 96.5339 65.7748 97.2351 65.7119C98.9562 65.5575 100.714 64.7359 102.508 63.247ZM128.44 56.0372L129.221 56.5133C128.981 57.1774 128.483 57.8325 127.727 58.4786C126.992 59.1229 126.295 59.4745 125.637 59.5336C124.383 59.6461 123.697 59.0436 123.579 57.7262C123.524 57.11 123.617 56.3627 123.86 55.4842L122.789 56.8011C121.747 58.0727 120.818 58.9484 120.005 59.4284C119.212 59.9064 118.412 60.1817 117.605 60.2541C116.798 60.3265 116.161 60.1587 115.696 59.7506C115.251 59.3194 114.992 58.7001 114.919 57.8926C114.786 56.4053 115.228 54.8877 116.246 53.3399C117.262 51.7709 118.621 50.4494 120.324 49.3757C122.027 48.3019 123.77 47.6743 125.553 47.493L125.711 48.539L124.398 48.946C122.502 49.5444 120.868 50.5477 119.495 51.956C118.143 53.3624 117.525 54.7031 117.639 55.978C117.751 57.2316 118.318 57.8127 119.338 57.7212C120.294 57.6354 121.413 56.8603 122.695 55.3959C123.978 53.9314 125.005 52.2543 125.778 50.3643L127.188 51.041C126.109 53.8152 125.602 55.5635 125.667 56.2859C125.693 56.5834 125.812 56.8298 126.022 57.0251C126.252 57.1973 126.462 57.2748 126.653 57.2577C126.866 57.2386 127.003 57.2156 127.065 57.1886C127.127 57.1617 127.189 57.1347 127.25 57.1077C127.31 57.0595 127.38 56.9997 127.459 56.9284C127.56 56.8551 127.639 56.7837 127.697 56.7142C127.776 56.6429 127.895 56.5358 128.054 56.3931C128.212 56.2504 128.341 56.1317 128.44 56.0372ZM143.657 54.0295L144.372 54.4794C143.989 55.4563 143.411 56.3006 142.64 57.0123C141.889 57.7222 141.185 58.1067 140.526 58.1658C139.868 58.2249 139.33 58.0803 138.913 57.7322C138.496 57.384 138.262 56.9231 138.211 56.3494C138.159 55.7757 138.431 54.7447 139.026 53.2562C139.64 51.7447 139.916 50.6489 139.855 49.969C139.829 49.6715 139.677 49.4173 139.401 49.2065C139.145 48.9725 138.846 48.8707 138.506 48.9012C137.423 48.9984 136.403 49.9252 135.447 51.6817C134.489 53.4169 133.469 55.8966 132.387 59.1208L130.415 58.6231C130.597 56.1221 130.956 53.6696 131.49 51.2656C132.043 48.8384 132.593 47.0863 133.139 46.0092L134.483 46.3064C134.023 47.8683 133.502 50.5389 132.92 54.318C135.402 49.0404 137.876 46.2911 140.341 46.07C140.872 46.0223 141.324 46.1639 141.696 46.4946C142.09 46.8234 142.309 47.2321 142.352 47.7209C142.396 48.2096 142.372 48.6615 142.281 49.0766C142.188 49.4705 141.866 50.4204 141.316 51.9263C140.785 53.409 140.536 54.3309 140.568 54.6922C140.6 55.0534 140.732 55.3307 140.964 55.5241C141.194 55.6963 141.404 55.7738 141.595 55.7566C141.787 55.7395 141.943 55.6933 142.065 55.6181C142.187 55.5429 142.316 55.4349 142.453 55.2941C142.612 55.1514 142.75 55.0212 142.868 54.9035C142.986 54.7858 143.122 54.6344 143.277 54.4491C143.451 54.2407 143.578 54.1009 143.657 54.0295ZM159.011 52.7807L159.729 53.2625C159.448 54.1873 158.942 54.993 158.211 55.6798C157.501 56.3646 156.828 56.7356 156.19 56.7927C155.574 56.848 155.066 56.6794 154.667 56.2868C154.266 55.873 154.034 55.3155 153.971 54.6143C153.908 53.9132 153.944 52.9996 154.078 51.8738C153.221 53.5357 152.258 54.8644 151.191 55.8597C150.124 56.855 149.197 57.388 148.411 57.4585C147.221 57.5652 146.562 56.9068 146.434 55.4832C146.307 54.0596 146.624 52.1034 147.386 49.6147C148.167 47.1028 148.755 45.6579 149.149 45.2798L150.739 45.8119C149.994 47.2924 149.459 48.7326 149.135 50.1325C148.811 51.5324 148.67 52.4661 148.712 52.9335C148.752 53.3797 148.922 53.7286 149.223 53.98C149.545 54.2295 149.898 54.3372 150.28 54.3028C151.13 54.2266 152.112 53.3567 153.227 51.6931C154.361 50.0064 155.447 47.5529 156.486 44.3325L158.177 44.9197C158.15 45.0935 157.772 46.3697 157.043 48.7484C156.335 51.1251 156.002 52.5472 156.044 53.0147C156.084 53.4609 156.21 53.7923 156.422 54.0089C156.656 54.2235 156.868 54.3223 157.059 54.3051C157.272 54.2861 157.43 54.2612 157.535 54.2304C157.639 54.1996 157.741 54.1476 157.842 54.0743C157.942 54.001 158.023 53.9403 158.083 53.8921C158.164 53.8419 158.253 53.759 158.349 53.6432L158.55 53.3682C158.61 53.32 158.687 53.2274 158.782 53.0904C158.896 52.9302 158.972 52.827 159.011 52.7807ZM170.254 50.9689L171.076 51.5377C170.671 52.7521 169.937 53.7604 168.874 54.5626C167.81 55.3648 166.748 55.8135 165.685 55.9089C164.644 56.0023 163.743 55.7511 162.983 55.1553C162.244 54.5576 161.823 53.685 161.72 52.5376C161.617 51.3902 162.005 50.1024 162.884 48.6742C163.762 47.246 164.949 46.0258 166.443 45.0136C167.958 43.9995 169.481 43.4238 171.011 43.2865C171.223 43.2675 171.544 43.2601 171.973 43.2645L171.989 44.5161C169.661 44.832 167.78 45.7182 166.348 47.1747C164.936 48.6294 164.297 50.1004 164.43 51.5877C164.485 52.2039 164.721 52.6861 165.138 53.0342C165.555 53.3824 166.071 53.5288 166.688 53.4735C167.665 53.3859 168.854 52.551 170.254 50.9689ZM185.443 50.6023L186.302 51.2321C185.251 53.3612 184.035 54.4877 182.654 54.6116C181.868 54.6821 181.014 54.2446 180.094 53.299C179.195 52.3515 178.618 51.4073 178.362 50.4664C178.256 50.7116 177.95 51.3602 177.444 52.4122C176.939 53.4642 176.587 54.3204 176.39 54.9807L174.417 54.483C174.629 51.8294 174.95 49.3161 175.379 46.9428C175.83 44.5677 176.301 42.887 176.791 41.9006L178.134 42.1977C177.84 43.2094 177.436 45.8695 176.923 50.1779C177.876 47.672 178.898 45.8133 179.989 44.6016C181.078 43.3688 182.318 42.5079 183.709 42.0189L183.898 44.1225C182.373 44.3235 180.989 45.4865 179.745 47.6115C179.954 48.985 180.46 50.0962 181.265 50.945C182.09 51.792 182.832 52.1859 183.491 52.1268C183.81 52.0982 184.46 51.5901 185.443 50.6023ZM202.144 49.4254L202.925 49.9015C202.685 50.5656 202.187 51.2208 201.431 51.8669C200.696 52.5111 199.999 52.8628 199.341 52.9219C198.087 53.0343 197.401 52.4319 197.283 51.1145C197.228 50.4983 197.321 49.7509 197.564 48.8724L196.493 50.1894C195.451 51.4609 194.523 52.3367 193.709 52.8166C192.916 53.2947 192.116 53.5699 191.309 53.6424C190.502 53.7148 189.865 53.547 189.4 53.1389C188.955 52.7076 188.696 52.0883 188.623 51.2809C188.49 49.7935 188.932 48.2759 189.95 46.7281C190.966 45.1591 192.325 43.8377 194.028 42.7639C195.731 41.6901 197.474 41.0626 199.257 40.8812L199.415 41.9273L198.102 42.3342C196.206 42.9326 194.572 43.936 193.199 45.3443C191.847 46.7507 191.229 48.0913 191.343 49.3662C191.456 50.6198 192.022 51.2009 193.042 51.1094C193.998 51.0237 195.117 50.2486 196.399 48.7841C197.682 47.3197 198.709 45.6425 199.482 43.7526L200.892 44.4293C199.813 47.2035 199.306 48.9518 199.371 49.6742C199.397 49.9717 199.516 50.2181 199.726 50.4134C199.956 50.5856 200.166 50.6631 200.357 50.6459C200.57 50.6269 200.707 50.6038 200.769 50.5769C200.831 50.5499 200.893 50.5229 200.954 50.496C201.014 50.4478 201.084 50.388 201.163 50.3166C201.264 50.2433 201.343 50.172 201.401 50.1025C201.48 50.0311 201.599 49.9241 201.758 49.7813C201.916 49.6386 202.045 49.52 202.144 49.4254Z" fill="black"/>
</svg>
