<svg width="52" height="52" viewBox="0 0 52 52" fill="none" xmlns="http://www.w3.org/2000/svg">
<path d="M6.33333 1H45C47.9547 1 50.3333 3.37867 50.3333 6.33333V45C50.3333 47.9547 47.9547 50.3333 45 50.3333H6.33333C3.37867 50.3333 1 47.9547 1 45V6.33333C1 3.37867 3.37867 1 6.33333 1Z" fill="white" stroke="#FF9A9C" stroke-width="1.5" stroke-linecap="round" stroke-linejoin="round"/>
<path d="M21.6053 50.3333L29.6733 38.4C35.6293 36.716 40.672 30.1906 35.9173 26.8293C37.0013 24.572 37.2493 22.7586 35.6893 20.4106C34.4893 18.6013 32.3373 18.4973 30.6627 18.692C30.396 16.2706 29.028 14.884 27.0133 14.2946C25.0693 13.7266 22.9707 14.884 21.272 16.1053C17.1013 12.928 12.8467 19.336 12.3813 24.5133L1.00134 40.7666" fill="white"/>
<path d="M21.6053 50.3333L29.6733 38.4C35.6293 36.716 40.672 30.1906 35.9173 26.8293C37.0013 24.572 37.2493 22.7586 35.6893 20.4106C34.4893 18.6013 32.3373 18.4973 30.6627 18.692C30.396 16.2706 29.028 14.884 27.0133 14.2946C25.0693 13.7266 22.9707 14.884 21.272 16.1053C17.1013 12.928 12.8467 19.336 12.3813 24.5133L1.00134 40.7666" stroke="#FF9A9C" stroke-width="1.5" stroke-linecap="round" stroke-linejoin="round"/>
<path d="M22.6613 24.952C21.2693 24.0667 18.528 23.824 17.6613 26.416C16.8267 28.9093 19.1827 30.7093 20.7973 31.7933C23.6187 33.6867 26.3267 35.136 28.0507 32.7787C28.9733 31.516 28.668 29.828 27.2227 28.264C28.276 24.276 24.7307 23.38 22.6613 24.952ZM19.7173 22.0027C19.016 23.04 17.7907 23.168 16.9787 22.2893C16.1667 21.4107 16.08 19.8587 16.7813 18.8227C17.4827 17.7867 18.708 17.6573 19.52 18.536C20.3307 19.4133 20.4187 20.9667 19.7173 22.0027ZM26.5773 21.6733C25.464 22.4813 24.1453 22.1573 23.6347 20.948C23.124 19.74 23.612 18.104 24.7267 17.296C25.84 16.488 27.1573 16.8133 27.6693 18.0213C28.1813 19.2293 27.692 20.8653 26.5773 21.6747M31.8173 21.5747C33.156 21.2587 34.2467 22.0653 34.2533 23.3773C34.26 24.6893 33.18 26.0107 31.84 26.328C30.5013 26.6453 29.4107 25.8373 29.404 24.5253C29.3973 23.2133 30.4773 21.892 31.8173 21.5747ZM32.1013 33.1227C30.9173 32.7133 30.4773 31.5627 31.1147 30.5507C31.7547 29.54 33.2307 29.0533 34.4133 29.4627C35.596 29.8707 36.0373 31.0227 35.3987 32.0333C34.7587 33.044 33.284 33.532 32.1013 33.1227Z" fill="white"/>
<path d="M26.5773 21.6733C25.464 22.4813 24.1453 22.1573 23.6347 20.948C23.124 19.74 23.612 18.104 24.7267 17.296C25.84 16.488 27.1573 16.8133 27.6693 18.0213C28.1813 19.2293 27.692 20.8653 26.5773 21.6747M22.6613 24.952C21.2693 24.0667 18.528 23.824 17.6613 26.416C16.8267 28.9093 19.1827 30.7093 20.7973 31.7933C23.6187 33.6867 26.3267 35.136 28.0507 32.7787C28.9733 31.516 28.668 29.828 27.2227 28.264C28.276 24.276 24.7307 23.38 22.6613 24.952ZM19.7173 22.0027C19.016 23.04 17.7907 23.168 16.9787 22.2893C16.1667 21.4107 16.08 19.8587 16.7813 18.8227C17.4827 17.7867 18.708 17.6573 19.52 18.536C20.3307 19.4133 20.4187 20.9667 19.7173 22.0027ZM31.8173 21.5747C33.156 21.2587 34.2467 22.0653 34.2533 23.3773C34.26 24.6893 33.18 26.0107 31.84 26.328C30.5013 26.6453 29.4107 25.8373 29.404 24.5253C29.3973 23.2133 30.4773 21.892 31.8173 21.5747ZM32.1013 33.1227C30.9173 32.7133 30.4773 31.5627 31.1147 30.5507C31.7547 29.54 33.2307 29.0533 34.4133 29.4627C35.596 29.8707 36.0373 31.0227 35.3987 32.0333C34.7587 33.044 33.284 33.532 32.1013 33.1227Z" stroke="#FF9A9C" stroke-width="1.5" stroke-linecap="round" stroke-linejoin="round"/>
</svg>
